<svg width="32" height="32" viewBox="0 0 32 32" fill="none" xmlns="http://www.w3.org/2000/svg">
<path d="M0 11.581C0 7.52724 0 5.50038 0.788905 3.95207C1.48285 2.59013 2.59013 1.48285 3.95207 0.788905C5.50038 0 7.52724 0 11.581 0H20.419C24.4728 0 26.4996 0 28.0479 0.788905C29.4099 1.48285 30.5172 2.59013 31.2111 3.95207C32 5.50038 32 7.52724 32 11.581V20.419C32 24.4728 32 26.4996 31.2111 28.0479C30.5172 29.4099 29.4099 30.5172 28.0479 31.2111C26.4996 32 24.4728 32 20.419 32H11.581C7.52724 32 5.50038 32 3.95207 31.2111C2.59013 30.5172 1.48285 29.4099 0.788905 28.0479C0 26.4996 0 24.4728 0 20.419V11.581Z" fill="white"/>
<path d="M0 11.581C0 7.52724 0 5.50038 0.788905 3.95207C1.48285 2.59013 2.59013 1.48285 3.95207 0.788905C5.50038 0 7.52724 0 11.581 0H20.419C24.4728 0 26.4996 0 28.0479 0.788905C29.4099 1.48285 30.5172 2.59013 31.2111 3.95207C32 5.50038 32 7.52724 32 11.581V20.419C32 24.4728 32 26.4996 31.2111 28.0479C30.5172 29.4099 29.4099 30.5172 28.0479 31.2111C26.4996 32 24.4728 32 20.419 32H11.581C7.52724 32 5.50038 32 3.95207 31.2111C2.59013 30.5172 1.48285 29.4099 0.788905 28.0479C0 26.4996 0 24.4728 0 20.419V11.581Z" fill="url(#paint0_radial_536_57068)"/>
<path d="M0 11.581C0 7.52724 0 5.50038 0.788905 3.95207C1.48285 2.59013 2.59013 1.48285 3.95207 0.788905C5.50038 0 7.52724 0 11.581 0H20.419C24.4728 0 26.4996 0 28.0479 0.788905C29.4099 1.48285 30.5172 2.59013 31.2111 3.95207C32 5.50038 32 7.52724 32 11.581V20.419C32 24.4728 32 26.4996 31.2111 28.0479C30.5172 29.4099 29.4099 30.5172 28.0479 31.2111C26.4996 32 24.4728 32 20.419 32H11.581C7.52724 32 5.50038 32 3.95207 31.2111C2.59013 30.5172 1.48285 29.4099 0.788905 28.0479C0 26.4996 0 24.4728 0 20.419V11.581Z" fill="url(#paint1_radial_536_57068)"/>
<path d="M0 11.581C0 7.52724 0 5.50038 0.788905 3.95207C1.48285 2.59013 2.59013 1.48285 3.95207 0.788905C5.50038 0 7.52724 0 11.581 0H20.419C24.4728 0 26.4996 0 28.0479 0.788905C29.4099 1.48285 30.5172 2.59013 31.2111 3.95207C32 5.50038 32 7.52724 32 11.581V20.419C32 24.4728 32 26.4996 31.2111 28.0479C30.5172 29.4099 29.4099 30.5172 28.0479 31.2111C26.4996 32 24.4728 32 20.419 32H11.581C7.52724 32 5.50038 32 3.95207 31.2111C2.59013 30.5172 1.48285 29.4099 0.788905 28.0479C0 26.4996 0 24.4728 0 20.419V11.581Z" fill="url(#paint2_radial_536_57068)"/>
<path d="M0 11.581C0 7.52724 0 5.50038 0.788905 3.95207C1.48285 2.59013 2.59013 1.48285 3.95207 0.788905C5.50038 0 7.52724 0 11.581 0H20.419C24.4728 0 26.4996 0 28.0479 0.788905C29.4099 1.48285 30.5172 2.59013 31.2111 3.95207C32 5.50038 32 7.52724 32 11.581V20.419C32 24.4728 32 26.4996 31.2111 28.0479C30.5172 29.4099 29.4099 30.5172 28.0479 31.2111C26.4996 32 24.4728 32 20.419 32H11.581C7.52724 32 5.50038 32 3.95207 31.2111C2.59013 30.5172 1.48285 29.4099 0.788905 28.0479C0 26.4996 0 24.4728 0 20.419V11.581Z" fill="url(#paint3_radial_536_57068)"/>
<path d="M0 11.581C0 7.52724 0 5.50038 0.788905 3.95207C1.48285 2.59013 2.59013 1.48285 3.95207 0.788905C5.50038 0 7.52724 0 11.581 0H20.419C24.4728 0 26.4996 0 28.0479 0.788905C29.4099 1.48285 30.5172 2.59013 31.2111 3.95207C32 5.50038 32 7.52724 32 11.581V20.419C32 24.4728 32 26.4996 31.2111 28.0479C30.5172 29.4099 29.4099 30.5172 28.0479 31.2111C26.4996 32 24.4728 32 20.419 32H11.581C7.52724 32 5.50038 32 3.95207 31.2111C2.59013 30.5172 1.48285 29.4099 0.788905 28.0479C0 26.4996 0 24.4728 0 20.419V11.581Z" fill="url(#paint4_radial_536_57068)"/>
<path d="M0 11.581C0 7.52724 0 5.50038 0.788905 3.95207C1.48285 2.59013 2.59013 1.48285 3.95207 0.788905C5.50038 0 7.52724 0 11.581 0H20.419C24.4728 0 26.4996 0 28.0479 0.788905C29.4099 1.48285 30.5172 2.59013 31.2111 3.95207C32 5.50038 32 7.52724 32 11.581V20.419C32 24.4728 32 26.4996 31.2111 28.0479C30.5172 29.4099 29.4099 30.5172 28.0479 31.2111C26.4996 32 24.4728 32 20.419 32H11.581C7.52724 32 5.50038 32 3.95207 31.2111C2.59013 30.5172 1.48285 29.4099 0.788905 28.0479C0 26.4996 0 24.4728 0 20.419V11.581Z" fill="url(#paint5_radial_536_57068)"/>
<path d="M0 11.581C0 7.52724 0 5.50038 0.788905 3.95207C1.48285 2.59013 2.59013 1.48285 3.95207 0.788905C5.50038 0 7.52724 0 11.581 0H20.419C24.4728 0 26.4996 0 28.0479 0.788905C29.4099 1.48285 30.5172 2.59013 31.2111 3.95207C32 5.50038 32 7.52724 32 11.581V20.419C32 24.4728 32 26.4996 31.2111 28.0479C30.5172 29.4099 29.4099 30.5172 28.0479 31.2111C26.4996 32 24.4728 32 20.419 32H11.581C7.52724 32 5.50038 32 3.95207 31.2111C2.59013 30.5172 1.48285 29.4099 0.788905 28.0479C0 26.4996 0 24.4728 0 20.419V11.581Z" fill="url(#paint6_radial_536_57068)"/>
<path d="M25.68 9.64098C23.9866 7.76747 21.6 6.71448 19.12 6.72816C16.6933 6.72816 14.2267 7.79483 12.64 9.5179C12.3467 9.49055 12.0533 9.4632 11.7733 9.4632C7.01332 9.4632 4.06665 13.5658 4.06665 17.3675C4.07998 19.4188 4.85332 21.388 6.22665 22.8923C7.66665 24.4649 9.66665 25.3538 11.7733 25.3538H19.12C24.1067 25.3538 28.16 21.1555 28.16 16.0136C28.1333 13.6478 27.2533 11.3777 25.68 9.64098ZM11.6266 24.0136C8.09332 24.0136 5.23998 21.0735 5.23998 17.4495C5.23998 13.8529 8.07998 10.9265 11.6 10.8991C13.16 10.8991 14.8 11.4188 15.84 12.5538L18.52 15.3709C18.96 15.8359 18.9466 16.5743 18.4933 17.0256C18.04 17.4769 17.32 17.4632 16.88 16.9982L14.2666 14.2359C12.56 12.7316 9.98665 12.923 8.51998 14.6735C7.87998 15.4256 7.53332 16.3965 7.53332 17.3948C7.53332 19.6923 9.43998 21.6341 11.6933 21.6341H12.2133C12.96 22.7008 15.0533 24.0136 15.0533 24.0136H11.6266ZM24.72 21.6615C23.2933 23.1931 21.32 24.0547 19.2533 24.0683C17.2933 24.0683 15.2933 23.1658 13.76 21.6068L10.2666 17.9965C9.82665 17.5316 9.83998 16.7931 10.28 16.3418C10.4933 16.123 10.7733 16.0136 11.08 16.0136C11.3866 16.0136 11.68 16.1367 11.8933 16.3692L15.3733 19.9384C16.48 21.0735 17.8933 21.7162 19.2533 21.7162C20.7066 21.7162 22.0933 21.1008 23.0933 20.0068C24.12 18.9265 24.6933 17.4769 24.6933 15.9726C24.6933 12.882 22.24 10.3794 19.2266 10.3658C18.08 10.3658 17.1333 10.5982 16.2 11.2683C15.6716 10.7264 14.5333 10.188 14.0133 10.0786C15.4533 8.69739 17.2533 8.02731 19.2266 8.02731C23.5066 8.02731 26.96 11.5829 26.9733 15.9726C26.9733 18.0923 26.1733 20.1435 24.72 21.6615Z" fill="white"/>
<defs>
<radialGradient id="paint0_radial_536_57068" cx="0" cy="0" r="1" gradientUnits="userSpaceOnUse" gradientTransform="translate(26.6 27.3504) rotate(46.87) scale(19.1129 19.5769)">
<stop stop-color="#68E048"/>
<stop offset="1" stop-color="#5CE049" stop-opacity="0"/>
</radialGradient>
<radialGradient id="paint1_radial_536_57068" cx="0" cy="0" r="1" gradientUnits="userSpaceOnUse" gradientTransform="translate(5.06667 27.2137) rotate(137.364) scale(19.4832 20.0309)">
<stop stop-color="#308CFE"/>
<stop offset="1" stop-color="#2F8BFF" stop-opacity="0"/>
</radialGradient>
<radialGradient id="paint2_radial_536_57068" cx="0" cy="0" r="1" gradientUnits="userSpaceOnUse" gradientTransform="translate(26 17.9145) rotate(7.9001) scale(11.4419 12.025)">
<stop stop-color="#FDD511"/>
<stop offset="1" stop-color="#FDD20D" stop-opacity="0"/>
</radialGradient>
<radialGradient id="paint3_radial_536_57068" cx="0" cy="0" r="1" gradientUnits="userSpaceOnUse" gradientTransform="translate(5.46667 11.5556) rotate(-127.134) scale(16.8962 17.2161)">
<stop stop-color="#F928C2"/>
<stop offset="1" stop-color="#F922BC" stop-opacity="0"/>
</radialGradient>
<radialGradient id="paint4_radial_536_57068" cx="0" cy="0" r="1" gradientUnits="userSpaceOnUse" gradientTransform="translate(18.1333 5.33333) rotate(-63.404) scale(16.9758 17.1525)">
<stop stop-color="#F90700"/>
<stop offset="1" stop-color="#F90700" stop-opacity="0"/>
</radialGradient>
<radialGradient id="paint5_radial_536_57068" cx="0" cy="0" r="1" gradientUnits="userSpaceOnUse" gradientTransform="translate(30.2667 4.64957) rotate(-65.6935) scale(10.2036 10.2934)">
<stop stop-color="#FB4200"/>
<stop offset="1" stop-color="#FB4300" stop-opacity="0"/>
</radialGradient>
<radialGradient id="paint6_radial_536_57068" cx="0" cy="0" r="1" gradientUnits="userSpaceOnUse" gradientTransform="translate(3.33333 3.89744) rotate(-133.672) scale(9.07516 9.29992)">
<stop stop-color="#FE0D88"/>
<stop offset="1" stop-color="#FE0D88" stop-opacity="0"/>
</radialGradient>
</defs>
</svg>
