<svg width="32" height="32" viewBox="0 0 32 32" fill="none" xmlns="http://www.w3.org/2000/svg">
<rect width="32" height="32" rx="7.11111" fill="#470137"/>
<path fill-rule="evenodd" clip-rule="evenodd" d="M22.9013 23.6475C21.9261 23.6608 20.951 23.4625 20.068 23.0527C19.2378 22.6694 18.5525 22.0349 18.0781 21.255C17.5905 20.4487 17.3533 19.4441 17.3533 18.2412C17.3401 17.2631 17.5905 16.2981 18.0781 15.4521C18.5789 14.5929 19.3037 13.8791 20.1734 13.4033C21.0959 12.8878 22.2029 12.6366 23.5075 12.6366C23.5734 12.6366 23.6657 12.6366 23.7843 12.6498C23.848 12.6569 23.9155 12.6602 23.9889 12.6638C24.0521 12.6669 24.1196 12.6702 24.1928 12.6763V8.49926C24.1928 8.40673 24.2323 8.35386 24.3246 8.35386H26.9998C27.0657 8.34064 27.1184 8.39352 27.1316 8.44639V21.0567C27.1316 21.2728 27.1424 21.5107 27.1543 21.7703L27.1579 21.8498C27.1802 22.0846 27.1931 22.31 27.2045 22.5098L27.2106 22.6165C27.2106 22.709 27.1711 22.7883 27.0789 22.828C26.3936 23.1188 25.6688 23.3303 24.9308 23.4625C24.2587 23.5814 23.5866 23.6475 22.9013 23.6475ZM24.1928 21.0039V15.1878C24.0742 15.1613 23.9556 15.1349 23.837 15.1217C23.692 15.1085 23.5471 15.0952 23.4021 15.0952C22.8882 15.0952 22.3742 15.201 21.913 15.4389C21.4649 15.6636 21.0827 15.9941 20.7928 16.4171C20.5029 16.8401 20.3579 17.4085 20.3579 18.0958C20.3447 18.5585 20.4238 19.0211 20.582 19.4573C20.7137 19.8142 20.9114 20.1314 21.175 20.3958C21.4254 20.6337 21.7285 20.8188 22.0711 20.9246C22.4269 21.0435 22.7959 21.0964 23.1649 21.0964C23.3626 21.0964 23.5471 21.0832 23.7184 21.07C23.8897 21.0832 24.0347 21.0567 24.1928 21.0039Z" fill="#FF61F6"/>
<path d="M12.8596 16.2452L16.8131 9.70214C16.8394 9.6757 16.8658 9.62283 16.8526 9.60961C16.8394 9.54352 16.7735 9.50387 16.7077 9.51708H13.927C13.8611 9.50387 13.8084 9.51708 13.7557 9.54352C13.7162 9.56996 13.6898 9.62283 13.6766 9.6757C13.5583 9.89688 13.44 10.1225 13.3208 10.3497C13.1479 10.6794 12.9731 11.0126 12.7937 11.3412C12.4906 11.8964 12.1875 12.4516 11.8976 13.0067C11.6077 13.5619 11.3177 14.1303 11.041 14.7119H11.0146C10.7379 14.1435 10.448 13.5883 10.1317 13.0332C9.86205 12.5788 9.61007 12.1244 9.35407 11.6628C9.29727 11.5604 9.24028 11.4576 9.18285 11.3544C8.87975 10.786 8.58983 10.2177 8.33944 9.64927C8.2999 9.59639 8.26037 9.55674 8.20765 9.5303C8.15494 9.51708 8.08905 9.50387 8.02316 9.50387H5.03169C4.97897 9.50387 4.92626 9.51708 4.8999 9.55674C4.87355 9.58318 4.88672 9.63605 4.92626 9.68892L8.91928 16.47L4.82083 23.2113C4.79448 23.251 4.7813 23.3039 4.79448 23.3567C4.79448 23.4067 4.81709 23.4038 4.85092 23.3994C4.86182 23.398 4.87388 23.3964 4.88672 23.3964H7.78595C7.93091 23.3964 8.03634 23.3832 8.08905 23.251C8.29111 22.8897 8.49317 22.5167 8.69523 22.1436C8.79627 21.9571 8.89731 21.7705 8.99835 21.5855C9.28827 21.0303 9.59138 20.4619 9.89448 19.8935C10.1976 19.3251 10.5007 18.7567 10.7774 18.1883H10.8038C11.1201 18.77 11.4363 19.3383 11.7526 19.9067C12.0689 20.4751 12.372 21.0303 12.6487 21.5723C12.7871 21.8498 12.9288 22.1241 13.0704 22.3984C13.2121 22.6727 13.3538 22.947 13.4922 23.2246C13.5844 23.3567 13.7294 23.37 13.9402 23.37H16.958C16.9886 23.3649 17.0152 23.3676 17.0371 23.3699C17.0719 23.3736 17.0949 23.376 17.103 23.3435C17.1162 23.2906 17.103 23.2378 17.0766 23.1849L12.8596 16.2452Z" fill="#FF61F6"/>
</svg>
