<svg width="48" height="48" viewBox="0 0 48 48" fill="none" xmlns="http://www.w3.org/2000/svg">
<g clip-path="url(#clip0_451_11015)">
<mask id="mask0_451_11015" style="mask-type:luminance" maskUnits="userSpaceOnUse" x="0" y="15" width="48" height="18">
<path d="M47.8588 15.3846H0V32.5416H47.8588V15.3846Z" fill="white"/>
</mask>
<g mask="url(#mask0_451_11015)">
<path d="M8.48812 29.9715C8.48812 30.5111 8.26637 31.0005 7.90751 31.3537C7.54951 31.708 7.05348 31.9267 6.50671 31.9267C5.41228 31.9267 4.52532 31.0515 4.52532 29.9715C4.52532 29.432 4.30357 28.9425 3.94468 28.5892C3.58671 28.2351 3.09068 28.0163 2.54391 28.0163C1.44946 28.0163 0.5625 27.141 0.5625 26.061C0.5625 25.5215 0.784238 25.032 1.14312 24.6788C1.50111 24.3246 1.99713 24.1058 2.54391 24.1058C3.09068 24.1058 3.58671 24.3246 3.94468 24.6788C4.30357 25.032 4.52532 25.5215 4.52532 26.061C4.52532 27.141 5.41228 28.0163 6.50671 28.0163C7.05348 28.0163 7.54951 28.2351 7.90751 28.5892C8.26637 28.9425 8.48812 29.432 8.48812 29.9715Z" fill="#FF6E4E"/>
<path d="M8.48832 29.9715C8.48832 30.5111 8.2666 31.0005 7.90771 31.3537C7.84894 31.4127 7.78571 31.4672 7.71983 31.5173C7.87568 31.2387 7.96472 30.9171 7.96472 30.5761C7.96472 30.0365 7.74297 29.5471 7.38408 29.1938C7.02611 28.8397 6.53008 28.6209 5.98331 28.6209C4.88885 28.6209 4.00189 27.7456 4.00189 26.6656C4.00189 26.1261 3.78017 25.6366 3.42131 25.2833C3.0633 24.9292 2.56728 24.7104 2.02051 24.7104C1.56367 24.7104 1.14245 24.8633 0.807617 25.1199C0.897559 24.9573 1.01155 24.8088 1.14334 24.6788C1.50133 24.3246 1.99735 24.1058 2.54412 24.1058C3.09091 24.1058 3.58691 24.3246 3.94491 24.6788C4.3038 25.032 4.52553 25.5215 4.52553 26.061C4.52553 27.141 5.41248 28.0163 6.50694 28.0163C7.05371 28.0163 7.54974 28.2351 7.90771 28.5892C8.2666 28.9425 8.48832 29.432 8.48832 29.9715Z" fill="#EB5A3A"/>
<path d="M5.69984 26.9863C5.31338 26.605 5.11923 26.1041 5.12012 25.6041C5.12012 25.1041 5.31338 24.6032 5.69984 24.2218C6.47372 23.4581 7.72846 23.4581 8.5023 24.2218C8.8888 24.6032 9.08292 25.1041 9.08203 25.6041C9.08203 26.1041 8.8888 26.605 8.5023 26.9863C8.11584 27.3677 7.60824 27.5593 7.10154 27.5584C6.59483 27.5584 6.08723 27.3677 5.70074 26.9863H5.69984Z" fill="#0A1E35"/>
<path d="M9.08311 25.6037C9.08311 26.1432 8.86139 26.6327 8.5025 26.986C8.3333 27.1529 8.13382 27.29 7.91299 27.3875C8.22557 27.0422 8.41524 26.5861 8.41524 26.087C8.41524 25.5483 8.19348 25.058 7.83462 24.7047C7.47662 24.3515 6.98062 24.1318 6.43385 24.1318C6.1453 24.1318 5.87013 24.1933 5.62256 24.304C5.64751 24.2759 5.67422 24.2478 5.70093 24.2214C6.05893 23.8681 6.55496 23.6484 7.10173 23.6484C7.6485 23.6484 8.14453 23.8681 8.5025 24.2214C8.86139 24.5747 9.08311 25.065 9.08311 25.6037Z" fill="#09192C"/>
<path d="M0.579729 31.8418C0.193243 31.4604 0 30.9596 0 30.4587C0 29.9587 0.193243 29.4578 0.579729 29.0764C1.35359 28.3128 2.60834 28.3128 3.38218 29.0764C3.76868 29.4578 3.9628 29.9587 3.96191 30.4587C3.96191 30.9587 3.76868 31.4596 3.38218 31.8409C2.9957 32.2223 2.48811 32.4139 1.9814 32.413C1.4747 32.413 0.967101 32.2223 0.580618 31.8409L0.579729 31.8418Z" fill="#0A1E35"/>
<path d="M3.96299 30.4589C3.96299 30.9985 3.74127 31.4879 3.38238 31.8411C3.21318 32.0082 3.01371 32.1453 2.79285 32.2428C3.10542 31.8974 3.29512 31.4414 3.29512 30.9422C3.29512 30.4035 3.07337 29.9132 2.71449 29.5599C2.3565 29.2067 1.86048 28.987 1.31371 28.987C1.02518 28.987 0.750008 29.0485 0.502441 29.1592C0.527377 29.1311 0.554094 29.103 0.580808 29.0766C0.938795 28.7234 1.43481 28.5037 1.98159 28.5037C2.52836 28.5037 3.0244 28.7234 3.38238 29.0766C3.74127 29.4299 3.96299 29.9202 3.96299 30.4589Z" fill="#09192C"/>
<path d="M33.9588 15.6346C33.9588 15.4958 34.0702 15.3846 34.2089 15.3846H35.6813C35.82 15.3846 35.9311 15.4958 35.9311 15.6346V21.6161C35.9311 21.755 35.82 21.8661 35.6813 21.8661H34.2089C34.0702 21.8661 33.9588 21.755 33.9588 21.6161V19.5976C33.9588 19.4587 33.8385 19.3476 33.6997 19.3476H29.5608C29.4219 19.3476 29.3108 19.4587 29.3108 19.5976V21.6161C29.3108 21.755 29.1996 21.8661 29.0609 21.8661H27.5793C27.4404 21.8661 27.3293 21.755 27.3293 21.6161V15.6346C27.3293 15.4958 27.4404 15.3846 27.5793 15.3846H29.0609C29.1996 15.3846 29.3108 15.4958 29.3108 15.6346V17.6532C29.3108 17.792 29.4219 17.9032 29.5608 17.9032H33.6997C33.8385 17.9032 33.9588 17.792 33.9588 17.6532V15.6346Z" fill="#0A1E35"/>
<path d="M23.3659 15.3846C25.8751 15.3846 26.1992 15.6809 26.1992 17.8476C26.1992 20.0235 25.9492 20.3198 23.3659 20.3198H19.9214C19.7825 20.3198 19.6714 20.4309 19.6714 20.5698V21.6161C19.6714 21.755 19.5603 21.8661 19.4214 21.8661H17.9399C17.801 21.8661 17.6899 21.755 17.6899 21.6161V15.6346C17.6899 15.4958 17.801 15.3846 17.9399 15.3846H19.3195H23.3659ZM23.3565 18.6994C24.2084 18.6994 24.227 18.4587 24.227 17.8476C24.227 17.2457 24.2084 17.005 23.3565 17.005H19.9214C19.7825 17.005 19.6714 17.1161 19.6714 17.255V18.4495C19.6714 18.5883 19.7825 18.6994 19.9214 18.6994H23.3565Z" fill="#0A1E35"/>
<path d="M11.0488 20.1717C11.0488 20.3106 11.16 20.4217 11.2988 20.4217H16.308C16.447 20.4217 16.558 20.542 16.558 20.6809V21.6161C16.558 21.755 16.447 21.8661 16.308 21.8661H9.31735C9.17849 21.8661 9.06738 21.755 9.06738 21.6161V15.6346C9.06738 15.4958 9.17849 15.3846 9.31735 15.3846H10.7989C10.9377 15.3846 11.0488 15.4958 11.0488 15.6346V20.1717Z" fill="#0A1E35"/>
<path fill-rule="evenodd" clip-rule="evenodd" d="M44.9947 19.3104C44.9947 20.062 44.9894 20.8135 44.9987 21.5641C45.0018 21.7795 44.9347 21.8746 44.7079 21.8655C44.3578 21.8524 44.0067 21.8574 43.6559 21.8594C43.4451 21.8605 43.3771 21.7512 43.3781 21.555C43.3861 20.2855 43.3953 19.015 43.3922 17.7456C43.3901 17.0334 43.379 17.0314 42.6762 17.0314C41.5334 17.0314 40.391 17.0314 39.2485 17.0314C38.8301 17.0314 38.7691 17.087 38.7519 17.5078C38.7387 17.8204 38.7334 18.133 38.7347 18.4455C38.7387 19.4742 38.7448 20.502 38.7541 21.5307C38.7559 21.7482 38.6725 21.8635 38.4365 21.8594C38.059 21.8534 37.6805 21.8594 37.303 21.8625C37.1851 21.8625 37.119 21.8554 37.107 21.6926C37.0528 20.9329 37.0956 20.1732 37.0845 19.4146C37.0753 18.7267 37.0378 18.0348 37.0885 17.35C37.1688 16.2505 37.7621 15.3846 39.055 15.3846C40.3778 15.3846 41.7005 15.3846 43.023 15.3846C44.0304 15.3846 44.6568 15.8368 44.9651 16.7937C44.9947 16.8847 44.9956 16.9869 44.9956 17.084C44.9978 17.8265 44.9968 18.569 44.9968 19.3114H44.9956L44.9947 19.3104Z" fill="#0A1E35"/>
<path fill-rule="evenodd" clip-rule="evenodd" d="M39.7764 18.733C39.7764 18.0087 40.2607 17.5312 40.9954 17.5312C41.7299 17.5312 42.2558 18.0552 42.2041 18.8341C42.1613 19.4724 41.7551 19.9073 40.9782 19.9255C40.2739 19.9427 39.7764 19.4319 39.7764 18.7319V18.733Z" fill="#0A1E35"/>
<path fill-rule="evenodd" clip-rule="evenodd" d="M7.93231 19.3104C7.93231 20.062 7.92723 20.8135 7.93637 21.5641C7.93942 21.7795 7.87228 21.8746 7.64538 21.8655C7.29542 21.8524 6.94443 21.8574 6.59342 21.8594C6.3828 21.8605 6.31465 21.7512 6.31563 21.555C6.32379 20.2855 6.33295 19.015 6.32991 17.7456C6.32788 17.0334 6.31668 17.0314 5.61363 17.0314C4.47111 17.0314 3.32855 17.0314 2.18602 17.0314C1.76787 17.0314 1.70683 17.087 1.68952 17.5078C1.67631 17.8204 1.67122 18.133 1.67223 18.4455C1.67631 19.4742 1.6824 20.502 1.69157 21.5307C1.6936 21.7482 1.61016 21.8635 1.37413 21.8594C0.996674 21.8534 0.618203 21.8594 0.240748 21.8625C0.122729 21.8625 0.0565988 21.8554 0.0443898 21.6926C-0.00953244 20.9329 0.0331951 20.1732 0.0220037 19.4146C0.0128472 18.7267 -0.0247988 18.0348 0.0260711 17.35C0.106446 16.2505 0.699594 15.3846 1.99272 15.3846C3.31532 15.3846 4.63794 15.3846 5.96059 15.3846C6.96782 15.3846 7.59452 15.8368 7.9028 16.7937C7.93231 16.8847 7.93332 16.9869 7.93332 17.084C7.93535 17.8265 7.93434 18.569 7.93434 19.3114H7.93332L7.93231 19.3104Z" fill="#0A1E35"/>
<path fill-rule="evenodd" clip-rule="evenodd" d="M2.71387 18.733C2.71387 18.0087 3.19814 17.5312 3.93273 17.5312C4.66728 17.5312 5.19328 18.0552 5.1414 18.8341C5.09866 19.4724 4.6927 19.9073 3.91543 19.9255C3.21137 19.9427 2.71387 19.4319 2.71387 18.7319V18.733Z" fill="#0A1E35"/>
<path fill-rule="evenodd" clip-rule="evenodd" d="M23.0244 27.1542C23.0242 26.2447 23.0304 25.3351 23.0194 24.4268C23.0157 24.166 23.0969 24.051 23.3716 24.062C23.7951 24.0779 24.2198 24.0718 24.6446 24.0693C24.8994 24.0681 24.9821 24.2003 24.9807 24.4378C24.971 25.9741 24.9598 27.5117 24.9636 29.048C24.966 29.9098 24.9795 29.9122 25.8303 29.9122C27.2131 29.9122 28.5957 29.9122 29.9785 29.9122C30.4845 29.9122 30.5584 29.8449 30.5793 29.3357C30.5954 28.9574 30.6016 28.5791 30.6002 28.2009C30.5954 26.9559 30.588 25.7122 30.5769 24.4672C30.5745 24.204 30.6755 24.0644 30.961 24.0693C31.4179 24.0767 31.8757 24.0693 32.3327 24.0657C32.4754 24.0657 32.5554 24.0742 32.5702 24.2713C32.6354 25.1906 32.5837 26.11 32.5973 27.0281C32.6084 27.8606 32.6542 28.6979 32.5927 29.5266C32.4951 30.8574 31.7773 31.9051 30.2124 31.9051C28.6118 31.9051 27.0111 31.9051 25.4105 31.9051C24.1915 31.9051 23.4331 31.3579 23.0601 30.1999C23.0242 30.0898 23.023 29.9661 23.023 29.8486C23.0206 28.9501 23.0218 28.0515 23.0218 27.153H23.023L23.0244 27.1542Z" fill="#0A1E35"/>
<path fill-rule="evenodd" clip-rule="evenodd" d="M29.3409 27.853C29.3409 28.7295 28.7549 29.3073 27.8659 29.3073C26.9769 29.3073 26.3405 28.6732 26.4032 27.7306C26.455 26.9581 26.9462 26.4317 27.8868 26.4097C28.7389 26.3889 29.3409 27.0071 29.3409 27.8542V27.853Z" fill="#0A1E35"/>
<path d="M44.3446 27.9496C44.6021 28.1737 44.9384 28.6332 44.9384 29.5296C44.9384 31.9052 44.0981 31.9052 41.196 31.9052H34.5286C34.3606 31.9052 34.2258 31.7708 34.2258 31.6026V24.3638C34.2258 24.1957 34.3606 24.0613 34.5286 24.0613H41.4424C43.6388 24.0613 44.6021 24.0613 44.6021 26.2464C44.6021 26.9748 44.4455 27.3333 44.2997 27.535C44.1991 27.6583 44.2212 27.8488 44.3446 27.9496ZM41.7114 25.8094H36.9264C36.7584 25.8094 36.624 25.955 36.624 26.1231V26.8067C36.624 26.9748 36.7584 27.1092 36.9264 27.1092H41.7114C41.9914 27.1092 42.2043 26.9187 42.2043 26.4593C42.2043 26.0111 41.9914 25.8094 41.7114 25.8094ZM42.0588 30.1571C42.3277 30.1571 42.5403 30.0451 42.5403 29.5072C42.5403 29.003 42.3277 28.8573 42.0588 28.8573H36.9264C36.7584 28.8573 36.624 28.9917 36.624 29.1598V29.8546C36.624 30.0227 36.7584 30.1571 36.9264 30.1571H42.0588Z" fill="#0A1E35"/>
<path d="M19.0328 24.3638C19.0328 24.1957 19.1672 24.0613 19.3352 24.0613H21.117C21.2851 24.0613 21.4195 24.1957 21.4195 24.3638V31.6026C21.4195 31.7708 21.2851 31.9052 21.117 31.9052H19.3352C19.1672 31.9052 19.0328 31.7708 19.0328 31.6026V29.1598C19.0328 28.9917 18.8871 28.8573 18.719 28.8573H13.7101C13.542 28.8573 13.4075 28.9917 13.4075 29.1598V31.6026C13.4075 31.7708 13.2731 31.9052 13.105 31.9052H11.3121C11.144 31.9052 11.0095 31.7708 11.0095 31.6026V24.3638C11.0095 24.1957 11.144 24.0613 11.3121 24.0613H13.105C13.2731 24.0613 13.4075 24.1957 13.4075 24.3638V26.8067C13.4075 26.9748 13.542 27.1092 13.7101 27.1092H18.719C18.8871 27.1092 19.0328 26.9748 19.0328 26.8067V24.3638Z" fill="#0A1E35"/>
<path d="M45.4519 30.9917H45.8304V32.0514H46.0879V30.9917H46.4654V30.7759H45.4519V30.9917Z" fill="#0A1E35"/>
<path d="M47.2444 31.6459L47.013 30.7759H46.6274V32.0514H46.8668V31.0474L47.1191 32.0514H47.3671L47.6201 31.0474V32.0514H47.8594V30.7759H47.473L47.2444 31.6459Z" fill="#0A1E35"/>
</g>
</g>
<defs>
<clipPath id="clip0_451_11015">
<rect width="48" height="17.2308" fill="white" transform="translate(0 15.3846)"/>
</clipPath>
</defs>
</svg>
