<svg width="32" height="30" viewBox="0 0 32 30" fill="none" xmlns="http://www.w3.org/2000/svg">
<g clip-path="url(#clip0_536_57100)">
<path d="M25.0409 15.8697C21.1968 15.8697 18.0811 18.9854 18.0811 22.8288C18.0811 26.6726 21.1968 29.789 25.0409 29.789C28.8843 29.789 32 26.6726 32 22.8288C32 18.9854 28.8843 15.8697 25.0409 15.8697ZM6.95945 15.8701C3.116 15.8704 0 18.9854 0 22.8292C0 26.6726 3.116 29.7886 6.95945 29.7886C10.8032 29.7886 13.9192 26.6726 13.9192 22.8292C13.9192 18.9854 10.8032 15.8701 6.95911 15.8701H6.95945ZM22.9595 7.17039C22.9595 11.0138 19.8438 14.1305 16.0004 14.1305C12.1563 14.1305 9.04057 11.0138 9.04057 7.17039C9.04057 3.32694 12.1563 0.210938 16.0003 0.210938C19.8438 0.210938 22.9591 3.32694 22.9591 7.17039H22.9595Z" fill="url(#paint0_radial_536_57100)"/>
</g>
<defs>
<radialGradient id="paint0_radial_536_57100" cx="0" cy="0" r="1" gradientUnits="userSpaceOnUse" gradientTransform="translate(16.0043 16.3944) scale(21.216 19.6102)">
<stop stop-color="#FFB900"/>
<stop offset="0.6" stop-color="#F95D8F"/>
<stop offset="0.999" stop-color="#F95353"/>
</radialGradient>
<clipPath id="clip0_536_57100">
<rect width="32" height="29.5808" fill="white" transform="translate(0 0.209717)"/>
</clipPath>
</defs>
</svg>
