<svg width="48" height="48" viewBox="0 0 48 48" fill="none" xmlns="http://www.w3.org/2000/svg">
<path d="M30.2532 28.9715C27.502 28.6699 25.9038 28.6151 22.4788 29.6476C24.0665 27.5093 29.2392 26.6054 29.2392 26.6054C29.2392 26.6054 31.6053 26.2674 32.9574 22.2112L32.2813 27.2814C35.9185 21.0097 37.1689 17.7083 32.2813 13.7607C23.6314 8.80305 19.9715 10.6174 14.0284 16.1268C17.2412 16.5047 18.9109 16.0293 21.8028 14.7748C26.4408 13.7034 28.4082 14.3563 31.6053 16.1268C26.5134 14.4635 23.4121 14.5137 17.0705 17.8169H16.3945H15.7185L10.9862 15.1128H12.6763L12.3383 14.4367L14.0284 14.7748L13.3523 13.7607H15.0424L12.3383 12.7467V13.7607L10.9862 13.4227L10.6482 14.0987L9.63414 13.4227V14.4367C6.66511 13.4851 5.10386 12.8766 2.87378 11.3946C9.47785 7.54311 13.4095 6.39872 20.7887 5.9863C23.8551 2.26133 25.9541 0.880064 30.5913 0.23999C28.5583 1.37483 28.0004 2.90527 27.8871 7.00035C33.4912 8.72687 37.3209 10.4839 45.126 14.7748L34.3095 12.7467L35.9995 14.0987C37.0392 14.772 37.5504 15.4688 38.3657 17.1409C39.6106 18.4877 40.0558 21.8731 40.0558 21.8731L39.3797 22.2112C39.0076 21.1962 38.6903 20.6899 38.0277 19.845C37.1476 23.0199 36.346 24.6141 33.9714 26.9434C35.0556 29.3792 34.8891 31.5503 33.6334 36.4079L32.9574 37.76V36.4079C33.3103 31.6101 32.6416 30.0849 30.2532 28.9715Z" fill="#429DFF"/>
<path d="M3.3697 42.3558C3.64129 42.4137 3.85944 42.5495 4.02417 42.7632C4.1889 42.9725 4.27127 43.2129 4.27127 43.4845C4.27127 43.8763 4.13325 44.1879 3.85722 44.4194C3.58564 44.6465 3.20497 44.76 2.71524 44.76H0.531444V40.0719H2.64177C3.11816 40.0719 3.48991 40.1809 3.75704 40.3991C4.02863 40.6173 4.16442 40.9133 4.16442 41.2873C4.16442 41.5633 4.09096 41.7926 3.94404 41.9752C3.80157 42.1577 3.61012 42.2846 3.3697 42.3558ZM1.67343 41.9685H2.42139C2.60838 41.9685 2.75085 41.9284 2.8488 41.8483C2.9512 41.7637 3.0024 41.6413 3.0024 41.481C3.0024 41.3207 2.9512 41.1983 2.8488 41.1137C2.75085 41.0291 2.60838 40.9868 2.42139 40.9868H1.67343V41.9685ZM2.51489 43.8384C2.70633 43.8384 2.85325 43.7961 2.95565 43.7115C3.0625 43.6225 3.11593 43.4956 3.11593 43.3309C3.11593 43.1661 3.06028 43.037 2.94897 42.9435C2.84212 42.85 2.69297 42.8033 2.50153 42.8033H1.67343V43.8384H2.51489ZM6.91038 43.8785H8.40631V44.76H5.7684V40.0719H6.91038V43.8785ZM10.9077 40.0719V42.8767C10.9077 43.1572 10.9767 43.3732 11.1148 43.5245C11.2528 43.6759 11.4554 43.7516 11.7225 43.7516C11.9896 43.7516 12.1944 43.6759 12.3369 43.5245C12.4794 43.3732 12.5506 43.1572 12.5506 42.8767V40.0719H13.6926V42.8701C13.6926 43.2886 13.6035 43.6425 13.4254 43.9319C13.2474 44.2213 13.0069 44.4395 12.7042 44.5864C12.4059 44.7333 12.072 44.8068 11.7025 44.8068C11.3329 44.8068 11.0012 44.7355 10.7074 44.5931C10.418 44.4461 10.1887 44.228 10.0195 43.9386C9.85035 43.6447 9.76576 43.2886 9.76576 42.8701V40.0719H10.9077ZM16.4713 40.9868V41.9351H18.0006V42.8166H16.4713V43.8451H18.2009V44.76H15.3293V40.0719H18.2009V40.9868H16.4713Z" fill="#429DFF"/>
<path d="M23.7234 44.8068C23.3806 44.8068 23.0734 44.7511 22.8018 44.6398C22.5302 44.5285 22.312 44.3638 22.1473 44.1456C21.987 43.9275 21.9024 43.6648 21.8935 43.3576H23.109C23.1268 43.5312 23.1869 43.6648 23.2893 43.7583C23.3917 43.8473 23.5253 43.8918 23.69 43.8918C23.8592 43.8918 23.9927 43.854 24.0907 43.7783C24.1886 43.6982 24.2376 43.5891 24.2376 43.4511C24.2376 43.3353 24.1975 43.2396 24.1174 43.1639C24.0417 43.0882 23.946 43.0259 23.8302 42.9769C23.7189 42.9279 23.5586 42.8723 23.3494 42.81C23.0466 42.7165 22.7995 42.623 22.6081 42.5295C22.4167 42.436 22.2519 42.298 22.1139 42.1154C21.9759 41.9329 21.9069 41.6947 21.9069 41.4008C21.9069 40.9645 22.0649 40.6239 22.381 40.3791C22.6971 40.1297 23.109 40.0051 23.6165 40.0051C24.133 40.0051 24.5493 40.1297 24.8654 40.3791C25.1815 40.6239 25.3506 40.9668 25.3729 41.4075H24.1374C24.1285 41.2561 24.0729 41.1382 23.9705 41.0536C23.8681 40.9645 23.7367 40.92 23.5765 40.92C23.4384 40.92 23.3271 40.9579 23.2425 41.0335C23.1579 41.1048 23.1157 41.2094 23.1157 41.3474C23.1157 41.4988 23.1869 41.6168 23.3294 41.7014C23.4718 41.786 23.6944 41.8772 23.9972 41.9752C24.2999 42.0776 24.5448 42.1755 24.7318 42.269C24.9232 42.3625 25.088 42.4983 25.226 42.6764C25.364 42.8545 25.433 43.0838 25.433 43.3643C25.433 43.6314 25.364 43.874 25.226 44.0922C25.0924 44.3103 24.8965 44.484 24.6383 44.6131C24.3801 44.7422 24.0751 44.8068 23.7234 44.8068ZM31.031 40.0719V44.76H29.889V42.83H28.1126V44.76H26.9706V40.0719H28.1126V41.9084H29.889V40.0719H31.031ZM35.6085 43.9319H33.8588L33.5783 44.76H32.3829L34.0792 40.0719H35.4015L37.0978 44.76H35.889L35.6085 43.9319ZM35.3147 43.0504L34.7337 41.3341L34.1594 43.0504H35.3147ZM40.8397 44.76L39.8646 42.9903H39.5908V44.76H38.4488V40.0719H40.3655C40.735 40.0719 41.0489 40.1364 41.3071 40.2655C41.5698 40.3947 41.7657 40.5727 41.8948 40.7998C42.0239 41.0224 42.0885 41.2717 42.0885 41.5478C42.0885 41.8594 41.9994 42.1377 41.8214 42.3825C41.6477 42.6274 41.3895 42.8011 41.0467 42.9035L42.1286 44.76H40.8397ZM39.5908 42.1822H40.2987C40.508 42.1822 40.6638 42.131 40.7662 42.0286C40.873 41.9262 40.9265 41.7815 40.9265 41.5945C40.9265 41.4164 40.873 41.2762 40.7662 41.1738C40.6638 41.0714 40.508 41.0202 40.2987 41.0202H39.5908V42.1822ZM46.3582 44.76L44.7821 42.6897V44.76H43.6401V40.0719H44.7821V42.1288L46.3448 40.0719H47.6872L45.8707 42.3692L47.754 44.76H46.3582Z" fill="#525252"/>
</svg>
