<svg width="24" height="24" viewBox="0 0 24 24" fill="none" xmlns="http://www.w3.org/2000/svg">
<g clip-path="url(#clip0_1_4164)">
<path d="M18.5625 13.1615C17.4608 13.1615 16.4257 12.6965 15.4882 11.9353L15.7147 10.8613L15.7222 10.8185C15.9292 9.67775 16.5697 7.76 18.5618 7.76C20.0543 7.76 21.2648 8.97125 21.2648 10.463C21.2648 11.951 20.0535 13.1622 18.5618 13.1622L18.5625 13.1615ZM18.5625 5.02475C16.0238 5.02475 14.0505 6.67325 13.2502 9.38825C12.0315 7.556 11.1015 5.35325 10.563 3.49775H7.8285V10.6107C7.82475 12.017 6.68775 13.154 5.2815 13.1578C3.87525 13.154 2.73825 12.0132 2.7345 10.6107V3.49775H0V10.6107C0 13.5245 2.37075 15.9118 5.2815 15.9118C8.19525 15.9118 10.563 13.5252 10.563 10.6107V9.419C11.094 10.5245 11.7465 11.6495 12.5392 12.6418L10.8637 20.513H13.6605L14.8755 14.8018C15.9382 15.4813 17.1607 15.911 18.5632 15.911C21.5632 15.911 24.0007 13.4578 24.0007 10.4615C24.0007 7.4615 21.5632 5.024 18.5632 5.024L18.5625 5.02475Z" fill="black"/>
</g>
<defs>
<clipPath id="clip0_1_4164">
<rect width="24" height="24" fill="white" transform="translate(0 0.00499725)"/>
</clipPath>
</defs>
</svg>
