<svg width="48" height="48" viewBox="0 0 48 48" fill="none" xmlns="http://www.w3.org/2000/svg">
<path d="M14.3905 6.09773L8.45037 10.0251L16.2561 14.6889V6.63774L14.3905 6.09773Z" fill="#C31F33"/>
<path d="M8.44995 17.2906L8.45037 10.0251L16.2556 14.6397L16.3047 21.6599L8.44995 17.2906Z" fill="#F36D25"/>
<path d="M8.44996 18.9107L9.82454 18.0761L23.2758 25.5382L8.44996 26.3727V18.9107Z" fill="#00AED9"/>
<path d="M14.8317 30.4964L8.44996 26.3727L23.2758 25.5382L14.8317 30.4964Z" fill="#E11484"/>
<path d="M18.44 32.9634L24.8113 36.1441L24.9474 27.0523L17.9749 31.0778L18.44 32.9634Z" fill="#48773E"/>
<path d="M31.1031 32.5115L24.8113 36.1441L24.9045 27.0771L30.9596 23.5245L31.1031 32.5115Z" fill="#C31F33"/>
<path d="M32.5057 31.701L31.0956 30.9278L30.8323 15.5477L38.968 27.9699L32.5057 31.701Z" fill="#01558B"/>
<path d="M39.3492 20.3815L38.968 27.9699L30.8323 15.5477L39.3492 20.3815Z" fill="#5DBB46"/>
<path d="M39.5498 15.7835L39.1186 8.6755L31.1769 13.1035L38.1493 17.1291L39.5498 15.7835Z" fill="#183668"/>
<path d="M32.8267 5.04244L39.1186 8.6755L31.2196 13.1278L25.1154 9.66026L32.8267 5.04244Z" fill="#EB1C2D"/>
<path d="M31.4237 4.23199L31.4591 5.8397L18.2712 13.7578L24.9614 0.500977L31.4237 4.23199Z" fill="#279B48"/>
<path d="M18.1994 3.96636L24.9614 0.500977L18.2712 13.7578L18.1994 3.96636Z" fill="#FDB713"/>
<path d="M19.8397 18.2726C19.8397 17.446 20.0174 16.725 20.3728 16.1098C20.7282 15.485 21.2208 15.0044 21.8504 14.668C22.48 14.3219 23.201 14.1489 24.0134 14.1489C25.0593 14.1489 25.9225 14.3988 26.6029 14.8987C27.2934 15.3889 27.7555 16.081 27.989 16.975H25.6889C25.5671 16.6289 25.3589 16.3598 25.0644 16.1675C24.7801 15.9656 24.4246 15.8647 23.9981 15.8647C23.3888 15.8647 22.9065 16.0762 22.5511 16.4991C22.1956 16.9125 22.0179 17.5036 22.0179 18.2726C22.0179 19.032 22.1956 19.6232 22.5511 20.0461C22.9065 20.4595 23.3888 20.6661 23.9981 20.6661C24.8613 20.6661 25.4249 20.3009 25.6889 19.5703H27.989C27.7555 20.4354 27.2934 21.1227 26.6029 21.6322C25.9123 22.1417 25.0492 22.3964 24.0134 22.3964C23.201 22.3964 22.48 22.2282 21.8504 21.8917C21.2208 21.5457 20.7282 21.0651 20.3728 20.4499C20.0174 19.8251 19.8397 19.0993 19.8397 18.2726Z" fill="#046834"/>
<path d="M0 43.0152C0 42.1575 0.19152 41.3914 0.574559 40.7169C0.965926 40.0341 1.49469 39.5054 2.16084 39.1307C2.83533 38.7476 3.58891 38.5561 4.42161 38.5561C5.39586 38.5561 6.24937 38.8059 6.98215 39.3055C7.71492 39.8051 8.22702 40.4963 8.51847 41.3789H6.50751C6.30766 40.9626 6.02455 40.6503 5.65816 40.4422C5.3001 40.234 4.88375 40.1299 4.40912 40.1299C3.90117 40.1299 3.44736 40.2506 3.04766 40.4921C2.6563 40.7253 2.3482 41.0584 2.12337 41.4914C1.90687 41.9244 1.79862 42.4323 1.79862 43.0152C1.79862 43.5897 1.90687 44.0977 2.12337 44.539C2.3482 44.972 2.6563 45.3093 3.04766 45.5507C3.44736 45.7839 3.90117 45.9005 4.40912 45.9005C4.88375 45.9005 5.3001 45.7964 5.65816 45.5882C6.02455 45.3717 6.30766 45.0553 6.50751 44.6389H8.51847C8.22702 45.5299 7.71492 46.2252 6.98215 46.7248C6.2577 47.2161 5.40419 47.4618 4.42161 47.4618C3.58891 47.4618 2.83533 47.2744 2.16084 46.8997C1.49469 46.5167 0.965926 45.9879 0.574559 45.3134C0.19152 44.6389 0 43.8729 0 43.0152Z" fill="#046834"/>
<path d="M11.7607 38.1439V47.3868H10.012V38.1439H11.7607Z" fill="#046834"/>
<path d="M16.561 47.4992C15.8949 47.4992 15.2953 47.3535 14.7624 47.0621C14.2295 46.7623 13.809 46.3418 13.5009 45.8005C13.2011 45.2593 13.0512 44.6348 13.0512 43.927C13.0512 43.2192 13.2053 42.5947 13.5134 42.0534C13.8298 41.5122 14.2586 41.0958 14.7999 40.8044C15.3411 40.5046 15.9448 40.3547 16.611 40.3547C17.2771 40.3547 17.8809 40.5046 18.4221 40.8044C18.9634 41.0958 19.388 41.5122 19.6961 42.0534C20.0125 42.5947 20.1708 43.2192 20.1708 43.927C20.1708 44.6348 20.0084 45.2593 19.6836 45.8005C19.3672 46.3418 18.9342 46.7623 18.3846 47.0621C17.8434 47.3535 17.2355 47.4992 16.561 47.4992ZM16.561 45.9754C16.8775 45.9754 17.1731 45.9005 17.4478 45.7506C17.731 45.5924 17.9558 45.3592 18.1223 45.0511C18.2889 44.743 18.3721 44.3683 18.3721 43.927C18.3721 43.2692 18.1973 42.7654 17.8475 42.4156C17.5061 42.0576 17.0856 41.8786 16.586 41.8786C16.0864 41.8786 15.6659 42.0576 15.3245 42.4156C14.9914 42.7654 14.8249 43.2692 14.8249 43.927C14.8249 44.5848 14.9872 45.0928 15.312 45.4508C15.6451 45.8005 16.0614 45.9754 16.561 45.9754Z" fill="#046834"/>
<path d="M24.1014 47.4992C23.5352 47.4992 23.0273 47.3993 22.5776 47.1995C22.128 46.9913 21.7699 46.7123 21.5034 46.3626C21.2453 46.0129 21.1037 45.6257 21.0788 45.201H22.8399C22.8732 45.4675 23.0023 45.6881 23.2271 45.863C23.4603 46.0379 23.7475 46.1253 24.0889 46.1253C24.422 46.1253 24.6802 46.0587 24.8634 45.9255C25.0549 45.7922 25.1506 45.6215 25.1506 45.4133C25.1506 45.1885 25.0341 45.022 24.8009 44.9137C24.5761 44.7972 24.2138 44.6722 23.7142 44.539C23.198 44.4141 22.7733 44.285 22.4402 44.1518C22.1155 44.0186 21.8323 43.8146 21.5909 43.5398C21.3577 43.265 21.2411 42.8944 21.2411 42.4281C21.2411 42.0451 21.3494 41.6954 21.5659 41.3789C21.7907 41.0625 22.1071 40.8127 22.5152 40.6295C22.9315 40.4463 23.4186 40.3547 23.9765 40.3547C24.8009 40.3547 25.4587 40.5629 25.95 40.9792C26.4413 41.3873 26.7119 41.941 26.7619 42.6405H25.0882C25.0632 42.3657 24.9466 42.1492 24.7384 41.991C24.5386 41.8244 24.268 41.7412 23.9266 41.7412C23.6101 41.7412 23.3645 41.7995 23.1896 41.916C23.0231 42.0326 22.9398 42.195 22.9398 42.4032C22.9398 42.6363 23.0564 42.8153 23.2896 42.9402C23.5227 43.0568 23.8849 43.1776 24.3762 43.3025C24.8758 43.4274 25.288 43.5564 25.6128 43.6897C25.9375 43.8229 26.2165 44.0311 26.4496 44.3142C26.6911 44.589 26.816 44.9554 26.8243 45.4133C26.8243 45.813 26.7119 46.1711 26.4871 46.4875C26.2706 46.8039 25.9542 47.0538 25.5378 47.2369C25.1298 47.4118 24.651 47.4992 24.1014 47.4992Z" fill="#046834"/>
<path d="M34.7923 40.4671V47.3868H33.0311V46.5125C32.8063 46.8123 32.5107 47.0496 32.1443 47.2245C31.7862 47.391 31.3949 47.4743 30.9702 47.4743C30.4289 47.4743 29.9501 47.3619 29.5338 47.137C29.1174 46.9039 28.7885 46.5666 28.5471 46.1253C28.3139 45.6756 28.1973 45.1427 28.1973 44.5265V40.4671H29.946V44.2767C29.946 44.8263 30.0834 45.251 30.3582 45.5507C30.633 45.8422 31.0077 45.9879 31.4823 45.9879C31.9653 45.9879 32.3441 45.8422 32.6189 45.5507C32.8937 45.251 33.0311 44.8263 33.0311 44.2767V40.4671H34.7923Z" fill="#046834"/>
<path d="M38.2663 41.5413C38.4911 41.1749 38.7825 40.8876 39.1406 40.6795C39.507 40.4713 39.9233 40.3672 40.3896 40.3672V42.2033H39.9275C39.3779 42.2033 38.9616 42.3324 38.6784 42.5905C38.4037 42.8486 38.2663 43.2983 38.2663 43.9395V47.3868H36.5176V40.4671H38.2663V41.5413Z" fill="#046834"/>
<path d="M48 43.7771C48 44.0269 47.9833 44.2517 47.95 44.4516H42.8914C42.9331 44.9512 43.1079 45.3426 43.416 45.6257C43.7241 45.9088 44.103 46.0504 44.5526 46.0504C45.2021 46.0504 45.6643 45.7714 45.9391 45.2135H47.8251C47.6253 45.8797 47.2423 46.4292 46.676 46.8622C46.1098 47.2869 45.4145 47.4992 44.5901 47.4992C43.924 47.4992 43.3244 47.3535 42.7915 47.0621C42.2669 46.7623 41.8547 46.3418 41.5549 45.8005C41.2635 45.2593 41.1178 44.6348 41.1178 43.927C41.1178 43.2109 41.2635 42.5822 41.5549 42.0409C41.8464 41.4997 42.2544 41.0833 42.779 40.7919C43.3036 40.5004 43.9073 40.3547 44.5901 40.3547C45.2479 40.3547 45.835 40.4963 46.3513 40.7794C46.8759 41.0625 47.2797 41.4664 47.5628 41.991C47.8543 42.5072 48 43.1026 48 43.7771ZM46.1889 43.2775C46.1806 42.8278 46.0182 42.4698 45.7018 42.2033C45.3853 41.9285 44.9981 41.7911 44.5402 41.7911C44.1072 41.7911 43.7408 41.9244 43.441 42.1908C43.1496 42.449 42.9705 42.8112 42.9039 43.2775H46.1889Z" fill="#046834"/>
</svg>
