<svg width="48" height="48" viewBox="0 0 48 48" fill="none" xmlns="http://www.w3.org/2000/svg">
<path d="M23.9188 4.09558C27.5384 5.72313 31.1517 7.35697 34.7713 8.98453C35.7013 9.40555 36.625 9.82658 37.5614 10.2288C38.4286 10.6058 38.8245 11.2342 38.8119 12.1894C38.7868 14.4642 38.7868 16.7453 38.8182 19.0201C38.8182 19.3154 39.0318 19.6924 39.2643 19.8872C40.0373 20.5345 40.2195 21.3389 39.8048 22.2689C39.6665 22.5831 39.6351 23.0104 39.7105 23.3497C40.1567 25.3543 40.4143 27.3589 40.0561 29.4515H36.5559C36.5559 28.2512 36.4931 27.0573 36.5748 25.8759C36.6376 24.971 36.9078 24.085 37.0461 23.1801C37.0775 22.9601 37.0147 22.6773 36.8953 22.4825C36.248 21.4268 36.4051 20.6162 37.398 19.8244C37.5614 19.6987 37.7373 19.4662 37.7436 19.284C37.7687 17.4805 37.7562 15.677 37.7562 13.7289C37.3163 13.8986 36.9832 14.0117 36.669 14.1562C32.509 16.0477 28.3427 17.9392 24.189 19.8495C23.4726 20.1763 22.8002 20.1889 22.0838 19.8558C19.9535 18.863 17.8044 17.9015 15.6678 16.9275C15.5107 16.8521 15.3536 16.7704 15.0583 16.6133C16.755 15.7147 18.3385 14.8852 19.9158 14.0494C18.8538 13.8609 17.7918 13.3896 16.7173 13.8546C15.6176 14.3322 14.5618 14.9292 13.4621 15.4005C13.1605 15.5324 12.7081 15.5324 12.3939 15.4068C11.3004 14.9795 10.2447 14.4579 9.15759 13.9991C8.34066 13.6535 7.78767 13.132 7.7751 12.1956C7.76253 11.2216 8.34695 10.7001 9.18272 10.3293C13.7826 8.33727 18.37 6.30755 22.9636 4.2841C23.0767 4.23383 23.1835 4.15842 23.2904 4.09558C23.4977 4.09558 23.7114 4.09558 23.9188 4.09558ZM17.7604 13.1131C17.7856 13.2262 17.8044 13.3393 17.8295 13.4524C18.9041 13.3833 20.0604 13.5404 21.0407 13.2011C23.5291 12.3402 25.9485 11.2656 28.3867 10.2602C28.6946 10.1345 29.0025 9.95226 29.2288 9.71975C29.4173 9.51866 29.4864 9.19818 29.6058 8.93425C29.3419 8.87141 29.0402 8.70175 28.814 8.76459C27.7206 9.09764 26.6272 9.44326 25.5777 9.88942C24.8299 10.2099 24.145 10.2602 23.3846 9.9774C22.4106 9.60664 21.4177 9.27359 20.4123 8.99081C20.1735 8.92169 19.8593 9.10392 19.5765 9.17305C19.6708 9.41184 19.7085 9.7009 19.8656 9.88942C20.3369 10.4424 20.8522 10.9577 21.3989 11.5421C20.1232 12.0951 18.9355 12.6104 17.7541 13.1194L17.7604 13.1131ZM25.1064 12.2208C25.0436 12.1768 24.987 12.1328 24.9242 12.0825C24.1764 12.3842 23.4223 12.6732 22.6934 13.0126C22.53 13.088 22.3603 13.3645 22.3666 13.5341C22.4106 14.2882 22.4986 15.0423 22.618 15.7838C22.6431 15.9409 22.8128 16.1734 22.951 16.1985C23.1144 16.2237 23.4035 16.1043 23.4663 15.9723C24.0382 14.7281 24.566 13.4713 25.1127 12.2145L25.1064 12.2208ZM16.2962 11.6866C17.1257 13.0063 17.4148 13.0754 18.659 12.2773C17.8735 11.9946 17.264 11.4039 16.2962 11.6866Z" fill="#166772"/>
<path d="M33.5517 22.1813C33.5517 22.5458 33.514 22.9166 33.5517 23.281C33.9539 26.7435 32.1378 29.0686 29.5174 30.891C24.1823 34.6048 16.7043 33.0212 13.3486 27.4536C12.8773 26.6681 12.6511 25.6501 12.5882 24.7201C12.4688 22.9731 12.538 21.2199 12.5568 19.4667C12.5694 18.0779 13.292 17.638 14.5551 18.2224C16.7357 19.2342 18.9225 20.2333 21.0842 21.2827C22.4353 21.9363 23.7235 21.9111 25.0683 21.2576C27.23 20.2082 29.4168 19.209 31.5911 18.1973C32.7914 17.638 33.5203 18.103 33.5454 19.4352C33.558 20.3527 33.5454 21.2639 33.5454 22.1813H33.5517ZM22.5987 30.0489C25.7847 30.0615 28.3674 28.3648 29.3037 25.8889C29.3917 25.6564 29.3037 25.1222 29.2158 25.1097C28.889 25.0468 28.5119 25.072 28.1977 25.1851C28.0281 25.2479 27.959 25.5684 27.8458 25.7758C26.5765 28.1448 23.7989 29.2383 21.2727 28.3522C19.8149 27.8432 18.7654 26.8755 18.1182 25.4742C17.8605 24.9149 17.4018 24.8646 16.9431 25.0594C16.3963 25.2982 16.698 25.7255 16.8614 26.0586C18.1056 28.635 20.2045 29.9044 22.605 30.0489H22.5987Z" fill="#166772"/>
<path d="M0.176146 39.2062C0.176146 38.8399 0.258348 38.5064 0.422751 38.2057C0.587155 37.9004 0.81497 37.6632 1.1062 37.4941C1.39273 37.325 1.71684 37.2405 2.07853 37.2405C2.43552 37.2405 2.74553 37.3203 3.00858 37.48C3.27632 37.635 3.483 37.8628 3.62861 38.1635C3.77423 38.45 3.84704 38.7905 3.84704 39.1851V39.5022H1.07097C1.12264 39.7605 1.24712 39.9484 1.4444 40.0658C1.64638 40.1833 1.93996 40.242 2.32513 40.242C2.56939 40.242 2.99214 40.2021 3.59339 40.1222V40.9184C3.14245 41.0311 2.72675 41.0875 2.34627 41.0875C1.90003 41.0875 1.51251 41.0123 1.1837 40.862C0.859594 40.7117 0.610641 40.4933 0.436843 40.2068C0.263045 39.9296 0.176146 39.5961 0.176146 39.2062ZM2.95221 38.7342C2.90054 38.5181 2.79486 38.3513 2.63515 38.2339C2.48014 38.1118 2.28755 38.0507 2.05739 38.0507C1.82253 38.0507 1.6182 38.1141 1.4444 38.241C1.2706 38.3631 1.15317 38.5275 1.09211 38.7342H2.95221ZM8.12591 41.0804H7.26631V40.7704C6.9469 41.0194 6.56642 41.1439 6.12488 41.1439C5.74441 41.1439 5.4109 41.064 5.12437 40.9043C4.83784 40.7446 4.61942 40.5144 4.46911 40.2138C4.3141 39.932 4.23659 39.5891 4.23659 39.1851C4.23659 38.8046 4.31645 38.4641 4.47615 38.1635C4.63586 37.8628 4.85898 37.6303 5.14551 37.4659C5.43674 37.3015 5.7632 37.2193 6.12488 37.2193C6.56642 37.2193 6.9469 37.3438 7.26631 37.5927V35.7961H8.12591V41.0804ZM7.26631 38.6567C7.17706 38.4688 7.0385 38.3185 6.85061 38.2057C6.66272 38.0883 6.46074 38.0296 6.24466 38.0296C5.90176 38.0296 5.62698 38.1353 5.4203 38.3467C5.21362 38.558 5.11028 38.8375 5.11028 39.1851C5.11028 39.5515 5.20892 39.8357 5.40621 40.0377C5.60349 40.2349 5.88298 40.3336 6.24466 40.3336C6.45604 40.3336 6.65567 40.2749 6.84356 40.1574C7.03145 40.04 7.17237 39.8873 7.26631 39.6995V38.6567ZM12.4219 37.332V41.0875H11.5623V40.8197C11.2617 41.0546 10.8671 41.172 10.3786 41.172C9.89948 41.172 9.53309 41.0358 9.27944 40.7634C9.03049 40.4909 8.90601 40.0964 8.90601 39.5797V37.332H9.76561V39.4669C9.76561 39.9179 9.89243 40.1903 10.1461 40.2843C10.2729 40.3218 10.4091 40.3406 10.5547 40.3406C10.6628 40.3406 10.8295 40.296 11.055 40.2068C11.2805 40.1175 11.4472 40.0306 11.5553 39.9461V37.332H12.4219ZM16.0246 40.7563C15.7193 40.9912 15.3388 41.1086 14.8832 41.1086C14.2679 41.1086 13.7981 40.9442 13.474 40.6154C13.1546 40.2866 12.9949 39.8075 12.9949 39.1781C12.9949 38.5674 13.1593 38.093 13.4881 37.7548C13.8216 37.4119 14.2867 37.2405 14.8832 37.2405C15.3717 37.2405 15.7522 37.3297 16.0246 37.5082V37.325H16.8842V40.6859C16.8842 41.0241 16.8302 41.3059 16.7222 41.5314C16.6141 41.7568 16.438 41.9541 16.1937 42.1232C15.818 42.3863 15.1979 42.5178 14.3336 42.5178C14.2021 42.5178 13.9884 42.5108 13.6925 42.4967C13.669 42.492 13.6056 42.4896 13.5022 42.4896L13.3684 42.3557V41.5877C13.7347 41.6958 14.1152 41.7498 14.5098 41.7498C15.003 41.7498 15.3788 41.6582 15.6371 41.475C15.8955 41.2965 16.0246 41.0335 16.0246 40.6859V40.7563ZM16.0246 38.551C15.8602 38.2175 15.5197 38.0507 15.003 38.0507C14.6178 38.0507 14.3313 38.1447 14.1434 38.3326C13.9602 38.5158 13.8686 38.7976 13.8686 39.1781C13.8686 39.5773 13.9555 39.8639 14.1293 40.0377C14.3078 40.2115 14.599 40.2984 15.003 40.2984C15.2285 40.2984 15.4351 40.2443 15.623 40.1363C15.8109 40.0236 15.9448 39.8756 16.0246 39.6924V38.551ZM17.4743 39.2062C17.4743 38.8399 17.5565 38.5064 17.7209 38.2057C17.8853 37.9004 18.1131 37.6632 18.4043 37.4941C18.6909 37.325 19.015 37.2405 19.3766 37.2405C19.7336 37.2405 20.0437 37.3203 20.3067 37.48C20.5744 37.635 20.7811 37.8628 20.9267 38.1635C21.0723 38.45 21.1452 38.7905 21.1452 39.1851V39.5022H18.3691C18.4208 39.7605 18.5452 39.9484 18.7425 40.0658C18.9445 40.1833 19.2381 40.242 19.6233 40.242C19.8675 40.242 20.2903 40.2021 20.8915 40.1222V40.9184C20.4406 41.0311 20.0249 41.0875 19.6444 41.0875C19.1982 41.0875 18.8106 41.0123 18.4818 40.862C18.1577 40.7117 17.9088 40.4933 17.735 40.2068C17.5612 39.9296 17.4743 39.5961 17.4743 39.2062ZM20.2503 38.7342C20.1987 38.5181 20.093 38.3513 19.9333 38.2339C19.7783 38.1118 19.5857 38.0507 19.3555 38.0507C19.1206 38.0507 18.9163 38.1141 18.7425 38.241C18.5687 38.3631 18.4513 38.5275 18.3902 38.7342H20.2503ZM22.1266 38.1282H21.3233L21.3163 37.332H22.1195L22.0984 36.2822L22.958 36.2752L22.9791 37.325L24.0924 37.332L24.0994 38.1282L22.9862 38.1212L22.958 39.8192C22.9533 39.9742 22.9768 40.0893 23.0284 40.1645C23.0848 40.2349 23.1717 40.2702 23.2891 40.2702C23.5052 40.2702 23.787 40.1833 24.1346 40.0095L24.2403 40.8057C24.0994 40.8996 23.9467 40.9724 23.7823 41.0241C23.6226 41.0804 23.4582 41.1086 23.2891 41.1086C22.9415 41.1086 22.6597 41.01 22.4436 40.8127C22.2276 40.6154 22.1195 40.3571 22.1195 40.0377L22.1266 38.1282ZM29.4145 40.7563C29.1092 40.9912 28.7287 41.1086 28.2731 41.1086C27.6577 41.1086 27.188 40.9442 26.8639 40.6154C26.5445 40.2866 26.3848 39.8075 26.3848 39.1781C26.3848 38.5674 26.5492 38.093 26.878 37.7548C27.2115 37.4119 27.6765 37.2405 28.2731 37.2405C28.7616 37.2405 29.1421 37.3297 29.4145 37.5082V37.325H30.2741V40.6859C30.2741 41.0241 30.2201 41.3059 30.1121 41.5314C30.004 41.7568 29.8279 41.9541 29.5836 42.1232C29.2078 42.3863 28.5878 42.5178 27.7235 42.5178C27.592 42.5178 27.3783 42.5108 27.0823 42.4967C27.0588 42.492 26.9954 42.4896 26.8921 42.4896L26.7582 42.3557V41.5877C27.1246 41.6958 27.5051 41.7498 27.8997 41.7498C28.3929 41.7498 28.7686 41.6582 29.027 41.475C29.2853 41.2965 29.4145 41.0335 29.4145 40.6859V40.7563ZM29.4145 38.551C29.2501 38.2175 28.9096 38.0507 28.3929 38.0507C28.0077 38.0507 27.7212 38.1447 27.5333 38.3326C27.3501 38.5158 27.2585 38.7976 27.2585 39.1781C27.2585 39.5773 27.3454 39.8639 27.5192 40.0377C27.6977 40.2115 27.9889 40.2984 28.3929 40.2984C28.6183 40.2984 28.825 40.2443 29.0129 40.1363C29.2008 40.0236 29.3347 39.8756 29.4145 39.6924V38.551ZM32.8511 41.0664C32.7102 41.1368 32.5152 41.172 32.2663 41.172C31.8999 41.172 31.611 41.0664 31.3996 40.855C31.1929 40.6389 31.0896 40.343 31.0896 39.9672L31.1037 36.0567C31.1037 35.9816 31.1319 35.9158 31.1882 35.8595C31.2446 35.8031 31.3104 35.7749 31.3855 35.7749H31.6815C31.7566 35.7749 31.8224 35.8031 31.8787 35.8595C31.9351 35.9158 31.9633 35.9816 31.9633 36.0567L31.9422 39.8686C31.9422 40.0377 31.9774 40.1621 32.0478 40.242C32.1183 40.3171 32.2334 40.3547 32.3931 40.3547C32.5904 40.3547 32.743 40.2796 32.8511 40.1293V41.0664ZM34.9366 37.2405C35.3218 37.2405 35.667 37.325 35.9723 37.4941C36.2823 37.6585 36.5243 37.891 36.6981 38.1916C36.8672 38.4782 36.9517 38.8164 36.9517 39.2062C36.9517 39.582 36.8648 39.9202 36.691 40.2208C36.5219 40.5215 36.2847 40.754 35.9794 40.9184C35.6741 41.0828 35.3265 41.165 34.9366 41.165C34.5467 41.165 34.1968 41.0828 33.8868 40.9184C33.5814 40.754 33.3442 40.5215 33.1751 40.2208C33.006 39.9296 32.9215 39.5914 32.9215 39.2062C32.9215 38.8305 33.006 38.4923 33.1751 38.1916C33.3489 37.891 33.5908 37.6562 33.9009 37.4871C34.2015 37.3227 34.5467 37.2405 34.9366 37.2405ZM36.078 39.2062C36.078 38.854 35.9747 38.5745 35.768 38.3678C35.5613 38.1564 35.2842 38.0507 34.9366 38.0507C34.589 38.0507 34.3119 38.1564 34.1052 38.3678C33.8985 38.5745 33.7952 38.854 33.7952 39.2062C33.7952 39.5585 33.8985 39.838 34.1052 40.0447C34.3119 40.2514 34.589 40.3547 34.9366 40.3547C35.2842 40.3547 35.5613 40.2514 35.768 40.0447C35.9747 39.838 36.078 39.5585 36.078 39.2062ZM38.4038 35.7961V37.5927C38.7232 37.3438 39.1037 37.2193 39.5452 37.2193C39.9069 37.2193 40.231 37.3015 40.5176 37.4659C40.8041 37.6303 41.0296 37.8628 41.194 38.1635C41.3537 38.4641 41.4335 38.8046 41.4335 39.1851C41.4335 39.575 41.356 39.9202 41.201 40.2208C41.046 40.5168 40.8252 40.7446 40.5387 40.9043C40.2663 41.064 39.9351 41.1439 39.5452 41.1439C39.1037 41.1439 38.7232 41.0194 38.4038 40.7704V41.0804H37.5442V35.7961H38.4038ZM38.4038 39.6995C38.4978 39.8873 38.6387 40.04 38.8266 40.1574C39.0144 40.2749 39.2141 40.3336 39.4255 40.3336C39.7871 40.3336 40.0666 40.2349 40.2639 40.0377C40.4612 39.8357 40.5598 39.5515 40.5598 39.1851C40.5598 38.8375 40.4565 38.558 40.2498 38.3467C40.0431 38.1353 39.7684 38.0296 39.4255 38.0296C39.2094 38.0296 39.0074 38.0883 38.8195 38.2057C38.6316 38.3185 38.4931 38.4688 38.4038 38.6567V39.6995ZM41.7347 39.8615C41.7347 39.6407 41.7699 39.4552 41.8404 39.3049C41.9155 39.1546 42.0353 39.0184 42.1997 38.8962C42.505 38.6708 42.8738 38.558 43.3059 38.558C43.5361 38.558 43.7334 38.5745 43.8978 38.6073C44.0669 38.6355 44.2195 38.6825 44.3557 38.7483V38.7271C44.3557 38.5204 44.3299 38.3701 44.2782 38.2762C44.2313 38.1776 44.1467 38.1094 44.0246 38.0719C43.8978 38.0296 43.6934 38.0085 43.4116 38.0085C43.1204 38.0085 42.8761 38.0601 42.6788 38.1635C42.4862 38.2621 42.3007 38.4336 42.1222 38.6778V37.6421C42.2913 37.4871 42.4862 37.3743 42.707 37.3039C42.9278 37.2334 43.1979 37.1982 43.5173 37.1982C44.0997 37.1982 44.5272 37.318 44.7996 37.5575C45.0768 37.7971 45.2153 38.1705 45.2153 38.6778L45.2224 39.8122V41.0945H44.3628V40.8761C44.2266 40.9795 44.0669 41.0523 43.8837 41.0945C43.7005 41.1415 43.475 41.165 43.2073 41.165C42.8268 41.165 42.4839 41.0546 42.1786 40.8338C41.8826 40.5943 41.7347 40.2702 41.7347 39.8615ZM42.5943 39.8333C42.5943 39.9977 42.66 40.1269 42.7916 40.2208C42.9231 40.3101 43.1086 40.3547 43.3482 40.3547C43.8226 40.3547 44.1585 40.2068 44.3557 39.9108V39.5726C44.2383 39.4834 44.1091 39.42 43.9682 39.3824C43.8273 39.3448 43.6465 39.326 43.4257 39.326C43.1345 39.326 42.9231 39.366 42.7916 39.4458C42.66 39.5257 42.5943 39.6548 42.5943 39.8333ZM47.9474 41.0664C47.8064 41.1368 47.6115 41.172 47.3626 41.172C46.9962 41.172 46.7073 41.0664 46.4959 40.855C46.2892 40.6389 46.1859 40.343 46.1859 39.9672L46.2 36.0567C46.2 35.9816 46.2282 35.9158 46.2845 35.8595C46.3409 35.8031 46.4067 35.7749 46.4818 35.7749H46.7778C46.8529 35.7749 46.9187 35.8031 46.975 35.8595C47.0314 35.9158 47.0596 35.9816 47.0596 36.0567L47.0384 39.8686C47.0384 40.0377 47.0737 40.1621 47.1441 40.242C47.2146 40.3171 47.3297 40.3547 47.4894 40.3547C47.6867 40.3547 47.8393 40.2796 47.9474 40.1293V41.0664Z" fill="#166772"/>
</svg>
