<svg width="24" height="24" viewBox="0 0 24 24" fill="none" xmlns="http://www.w3.org/2000/svg">
<g clip-path="url(#clip0_557_25619)">
<path d="M10.7519 9.42215H12.1236V9.98697H10.7519V11.4848H10.1568V8H12.2244V8.56482H10.7569V9.42215H10.7519ZM13.465 11.5453C13.3541 11.5453 13.2431 11.5251 13.1372 11.4848C13.0313 11.4444 12.9406 11.3889 12.8599 11.3083C12.7792 11.2326 12.7187 11.1368 12.6682 11.0309C12.6178 10.9199 12.5976 10.7939 12.5976 10.6527V9.12461H13.1927V10.4913C13.1927 10.6678 13.2331 10.7939 13.3137 10.8746C13.3944 10.9552 13.5104 10.9905 13.6617 10.9905C13.7374 10.9905 13.8029 10.9754 13.8634 10.9452C13.924 10.9149 13.9693 10.8796 14.0097 10.8443C14.0551 10.804 14.0954 10.7586 14.1307 10.698V9.12461H14.7308V11.4848H14.1711V11.1418C14.1206 11.2175 14.0652 11.2881 13.9946 11.3436C13.9391 11.394 13.8634 11.4394 13.7777 11.4797C13.6869 11.5251 13.5861 11.5453 13.465 11.5453ZM15.1242 9.12461H15.5882V8.42362H16.1883V9.12461H16.8943V9.66422H16.1833V10.6174C16.1833 10.693 16.1933 10.7485 16.2085 10.7989C16.2236 10.8443 16.2488 10.8846 16.2791 10.9149C16.3093 10.9452 16.3396 10.9653 16.3799 10.9754C16.4152 10.9855 16.4556 10.9905 16.4959 10.9905C16.5312 10.9905 16.5615 10.9855 16.5917 10.9805C16.622 10.9704 16.6472 10.9653 16.6724 10.9502L16.7481 10.9048L16.9649 11.394C16.9195 11.4242 16.8691 11.4495 16.8086 11.4747C16.7582 11.4949 16.6976 11.51 16.6321 11.5251C16.5615 11.5402 16.4858 11.5503 16.4001 11.5503C16.2841 11.5503 16.1782 11.5302 16.0773 11.4898C15.9815 11.4495 15.8958 11.394 15.8252 11.3183C15.7546 11.2477 15.6991 11.157 15.6537 11.0561C15.6134 10.9552 15.5932 10.8393 15.5932 10.7132V9.66422H15.1292V9.12461H15.1242ZM18.1904 11.5453C18.0794 11.5453 17.9685 11.5251 17.8626 11.4848C17.7567 11.4444 17.6659 11.3889 17.5852 11.3083C17.5045 11.2326 17.444 11.1368 17.3936 11.0309C17.3432 10.9199 17.323 10.7939 17.323 10.6527V9.12461H17.9231V10.4913C17.9231 10.6678 17.9635 10.7939 18.0441 10.8746C18.1248 10.9552 18.2408 10.9905 18.3921 10.9905C18.4678 10.9905 18.5333 10.9754 18.5938 10.9452C18.6544 10.9149 18.6997 10.8796 18.7401 10.8443C18.7855 10.804 18.8258 10.7586 18.8611 10.698V9.12461H19.4613V11.4848H18.9015V11.1418C18.851 11.2175 18.7956 11.2881 18.725 11.3436C18.6695 11.394 18.5938 11.4394 18.5081 11.4797C18.4123 11.5251 18.3114 11.5453 18.1904 11.5453ZM21.2062 9.06409C21.2616 9.06409 21.3121 9.06913 21.3625 9.07418C21.4129 9.08426 21.4533 9.09435 21.4936 9.09939C21.539 9.11452 21.5793 9.12461 21.6197 9.13469L21.4079 9.6743C21.3877 9.66926 21.3625 9.65917 21.3322 9.64909C21.307 9.64404 21.2768 9.63396 21.2415 9.62891C21.2062 9.62387 21.1658 9.61883 21.1255 9.61883C21.0347 9.61883 20.954 9.63396 20.8884 9.66926C20.8229 9.70456 20.7674 9.73986 20.7271 9.78021C20.6766 9.82559 20.6363 9.88107 20.5959 9.94158V11.4848H20.0009V9.12461H20.5707V9.46754C20.6161 9.39693 20.6665 9.32633 20.7271 9.26581C20.7825 9.21538 20.8481 9.16999 20.9288 9.12461C21.0044 9.0893 21.1003 9.06409 21.2062 9.06409ZM22.8099 9.06409C22.9712 9.06409 23.1276 9.09435 23.2688 9.15486C23.415 9.21538 23.5411 9.30111 23.647 9.40702C23.7529 9.51292 23.8386 9.64404 23.9042 9.79534C23.9647 9.94663 24 10.113 24 10.2946V10.3904C24 10.4308 24 10.4711 23.995 10.5215H22.2349C22.245 10.577 22.2652 10.6274 22.3055 10.688C22.3408 10.7434 22.3862 10.7939 22.4468 10.8443C22.5022 10.8897 22.5678 10.93 22.6434 10.9603C22.7191 10.9905 22.8048 11.0057 22.8956 11.0057C22.9964 11.0057 23.0872 10.9956 23.1679 10.9704C23.2486 10.9452 23.3142 10.9199 23.3696 10.8897C23.4352 10.8544 23.4907 10.814 23.5411 10.7686L23.8386 11.2175C23.763 11.278 23.6773 11.3385 23.5814 11.3889C23.5008 11.4343 23.3999 11.4696 23.2839 11.5049C23.1679 11.5402 23.0368 11.5554 22.8956 11.5554C22.714 11.5554 22.5476 11.5251 22.3963 11.4596C22.24 11.394 22.1089 11.3083 21.9929 11.1973C21.8769 11.0864 21.7912 10.9552 21.7256 10.804C21.66 10.6527 21.6298 10.4913 21.6298 10.3198C21.6298 10.1484 21.66 9.98697 21.7206 9.83568C21.7811 9.68439 21.8618 9.55327 21.9677 9.44232C22.0736 9.33137 22.1996 9.2406 22.3459 9.18008C22.4871 9.09939 22.6434 9.06409 22.8099 9.06409ZM23.4049 10.0878C23.3999 10.0374 23.3898 9.98697 23.3646 9.92646C23.3394 9.87098 23.3041 9.81551 23.2536 9.77012C23.2083 9.72473 23.1427 9.68439 23.0721 9.65413C22.9964 9.62387 22.9107 9.60874 22.8149 9.60874C22.7191 9.60874 22.6333 9.62387 22.5678 9.65413C22.4972 9.68439 22.4367 9.72473 22.3913 9.77012C22.3459 9.81551 22.3055 9.87098 22.2803 9.92646C22.2551 9.98193 22.24 10.0374 22.24 10.0929H23.4049V10.0878ZM10.1568 12.7102H10.7519V15.8168H12.2345V16.3816H10.1517V12.7102H10.1568ZM13.6012 13.9609C13.7626 13.9609 13.9189 13.9912 14.0601 14.0517C14.2064 14.1122 14.3324 14.1929 14.4383 14.3038C14.5443 14.4098 14.63 14.5409 14.6955 14.6922C14.7561 14.8435 14.7914 15.0099 14.7914 15.1914V15.2872C14.7914 15.3276 14.7914 15.3679 14.7863 15.4184H13.0263C13.0364 15.4738 13.0616 15.5243 13.0969 15.5848C13.1322 15.6403 13.1776 15.6907 13.2381 15.7411C13.2936 15.7865 13.3591 15.8269 13.4348 15.8571C13.5104 15.8874 13.5962 15.9025 13.6869 15.9025C13.7878 15.9025 13.8786 15.8924 13.9593 15.8672C14.0399 15.842 14.1055 15.8168 14.161 15.7865C14.2215 15.7512 14.282 15.7109 14.3324 15.6655L14.63 16.1143C14.5543 16.1748 14.4686 16.2353 14.3728 16.2858C14.2921 16.3312 14.1912 16.3665 14.0752 16.4018C13.9593 16.4371 13.8281 16.4522 13.6869 16.4522C13.5054 16.4522 13.339 16.4219 13.1877 16.3564C13.0313 16.2908 12.9002 16.2051 12.7842 16.0941C12.6682 15.9832 12.5825 15.8521 12.5169 15.7008C12.4514 15.5495 12.4211 15.3881 12.4211 15.2166C12.4211 15.0452 12.4514 14.8838 12.5119 14.7325C12.5724 14.5812 12.6531 14.4501 12.759 14.3391C12.8649 14.2282 12.991 14.1374 13.1372 14.0769C13.2734 13.9912 13.4297 13.9609 13.6012 13.9609ZM14.1912 14.9796C14.1862 14.9292 14.1761 14.8788 14.1509 14.8182C14.1257 14.7628 14.0904 14.7073 14.0399 14.6619C13.9895 14.6115 13.929 14.5762 13.8584 14.5459C13.7827 14.5157 13.697 14.5005 13.6012 14.5005C13.5054 14.5005 13.4247 14.5157 13.3541 14.5459C13.2835 14.5762 13.223 14.6115 13.1776 14.6619C13.1322 14.7073 13.0918 14.7577 13.0666 14.8182C13.0414 14.8737 13.0263 14.9292 13.0263 14.9847H14.1912V14.9796ZM17.5247 14.0164V16.3766H16.97V16.0689C16.9246 16.1395 16.8742 16.2 16.8036 16.2555C16.7481 16.3009 16.6724 16.3463 16.5817 16.3816C16.4909 16.4219 16.3799 16.4371 16.2539 16.4371C16.1026 16.4371 15.9563 16.4068 15.8151 16.3463C15.6739 16.2858 15.5529 16.2 15.447 16.0891C15.3411 15.9781 15.2604 15.847 15.1948 15.7008C15.1343 15.5495 15.099 15.3831 15.099 15.2015C15.099 15.02 15.1292 14.8535 15.1948 14.7022C15.2553 14.551 15.3411 14.4198 15.447 14.3139C15.5529 14.203 15.6739 14.1173 15.8151 14.0567C15.9563 13.9962 16.1026 13.966 16.2539 13.966C16.3749 13.966 16.4858 13.9861 16.5766 14.0214C16.6674 14.0618 16.743 14.1021 16.7985 14.1475C16.8641 14.203 16.9195 14.2635 16.97 14.3341V14.0265H17.5247V14.0164ZM16.9246 14.8435C16.8893 14.7829 16.8439 14.7275 16.7884 14.677C16.743 14.6367 16.6825 14.6014 16.617 14.5661C16.5464 14.5308 16.4657 14.5157 16.3698 14.5157C16.269 14.5157 16.1782 14.5358 16.0975 14.5661C16.0168 14.6014 15.9462 14.6468 15.8908 14.7123C15.8353 14.7729 15.7899 14.8435 15.7596 14.9292C15.7294 15.0099 15.7142 15.1007 15.7142 15.1965C15.7142 15.2923 15.7294 15.3831 15.7596 15.4638C15.7899 15.5444 15.8302 15.6201 15.8908 15.6806C15.9462 15.7411 16.0168 15.7916 16.0975 15.8269C16.1782 15.8622 16.269 15.8773 16.3698 15.8773C16.4657 15.8773 16.5514 15.8622 16.617 15.8269C16.6876 15.7916 16.743 15.7563 16.7884 15.7109C16.8439 15.6655 16.8842 15.61 16.9246 15.5444V14.8435ZM19.2545 13.9609C19.3049 13.9609 19.3604 13.966 19.4108 13.971C19.4613 13.9811 19.5016 13.9861 19.5419 13.9962C19.5873 14.0113 19.6277 14.0214 19.668 14.0315L19.4613 14.5711C19.4411 14.5661 19.4159 14.556 19.3856 14.5459C19.3604 14.5409 19.3301 14.5308 19.2948 14.5257C19.2595 14.5207 19.2192 14.5157 19.1788 14.5157C19.0881 14.5157 19.0074 14.5308 18.9418 14.5661C18.8763 14.6014 18.8208 14.6367 18.7804 14.677C18.73 14.7224 18.6897 14.7779 18.6493 14.8384V16.3816H18.0542V14.0214H18.6191V14.3644C18.6594 14.2938 18.7149 14.2232 18.7754 14.1677C18.8258 14.1173 18.8964 14.0719 18.9771 14.0265C19.0528 13.9811 19.1435 13.9609 19.2545 13.9609ZM21.2314 13.9609C21.3423 13.9609 21.4533 13.9811 21.5592 14.0214C21.6651 14.0618 21.7559 14.1173 21.8365 14.1979C21.9172 14.2736 21.9777 14.3694 22.0282 14.4753C22.0736 14.5863 22.0988 14.7123 22.0988 14.8535V16.3816H21.4987V15.0048C21.4987 14.8334 21.4533 14.7123 21.3625 14.6367C21.2717 14.561 21.1608 14.5207 21.0296 14.5207C20.954 14.5207 20.8884 14.5358 20.8279 14.5711C20.7674 14.6064 20.722 14.6417 20.6817 14.677C20.6363 14.7224 20.5959 14.7678 20.5606 14.8283V16.3866H19.9706V14.0265H20.5253V14.3694C20.5707 14.2988 20.6212 14.2282 20.6918 14.1727C20.7472 14.1223 20.8229 14.0769 20.9086 14.0315C20.9994 13.9811 21.1053 13.9609 21.2314 13.9609Z" fill="#1D1D1B"/>
<path d="M8.1244 8V10.7838H5.46669V13.2347H2.78378V15.6756H0V16.3816H3.48477V13.9357H6.17273V11.4848H8.83043V8H8.1244Z" fill="#DE00A5"/>
</g>
<defs>
<clipPath id="clip0_557_25619">
<rect width="24" height="8.43707" fill="white" transform="translate(0 8)"/>
</clipPath>
</defs>
</svg>
