<svg width="48" height="48" viewBox="0 0 48 48" fill="none" xmlns="http://www.w3.org/2000/svg">
<path d="M23.0019 31.4761V48L4.52271 38.0856V11.8309L23.0019 20.0929V25.4173L7.81603 18.6241V34.9644L19.1597 40.4724V34.9644L11.6582 31.1089L11.4753 25.9681L23.0019 31.4761Z" fill="#4CA8E0"/>
<path d="M24.8152 47.8164V20.0929L43.4773 11.8309V16.9717L28.6574 23.9485V29.2729L43.4773 22.4797V27.6205L28.8404 34.9644V40.4724L43.4773 33.312V38.0856L24.8152 47.8164Z" fill="#2374A6"/>
<path d="M12.2903 14.3228H14.1199L13.9369 16.5259L13.0221 15.2408L12.2903 14.3228Z" fill="#B3383D"/>
<path d="M42.2961 11.0179L23.9998 19.0963L5.70361 10.8343L24.1828 3.49036L42.2961 11.0179Z" fill="#01578B" stroke="#01578B" stroke-width="0.415436"/>
<path d="M30.7697 15.7915C28.6494 14.861 26.6411 13.8488 23.8171 12.1196L26.3786 10.8344L28.2082 10.6508C29.9433 12.1225 31.4926 12.8694 35.1608 13.9555C35.157 15.251 34.802 15.9847 34.063 16.5259C32.8137 16.4743 32.1313 16.3412 30.7697 15.7915Z" fill="#2374A6"/>
<path d="M17.596 15.7915C19.9754 14.6224 21.2266 13.8642 24.0004 12.3031C24.9145 11.2015 24.7316 10.6508 21.6212 10.8344C19.3862 12.5909 16.0919 13.1875 13.022 14.1391C13.1953 15.2954 13.9368 16.5259 13.9368 16.5259C13.9368 16.5259 15.9494 16.7095 17.596 15.7915Z" fill="#2374A6"/>
<path d="M10.0949 9.18189C12.5344 7.71311 16.8644 8.81473 21.4385 10.8343C16.8645 9.54912 11.7415 13.0375 13.9371 16.5259C10.067 14.833 7.53338 12.3031 10.0949 9.18189Z" fill="#3F97CD"/>
<path d="M28.2081 10.6509L26.1956 11.018C26.9307 9.32496 26.7444 8.08045 28.2082 6.42806C30.5867 6.42806 32.7822 3.12326 33.3311 2.02168C33.6789 1.32357 34.4335 1.74332 35.1607 2.02169C36.2585 2.75607 36.2585 4.04127 34.9777 5.32648C33.0171 7.27634 31.5218 8.44408 28.2081 10.6509Z" fill="#2374A6"/>
<path d="M23.9998 9.54918L26.3783 10.8344C28.7568 3.674 32.1206 0.483275 35.5264 2.38882C33.5016 0.124609 32.1439 -0.314691 29.8545 0.185626C26.1137 2.02758 25.0616 3.67664 23.9998 9.54918Z" fill="#3F97CD"/>
<path d="M21.9872 11.018L19.9746 10.1C12.6563 6.24442 10.6435 4.22483 12.6563 2.02163L14.6687 1.10364V1.47084L14.8519 2.02163C15.5835 4.77562 18.1448 6.24442 19.9746 6.61162L21.9872 11.018Z" fill="#2374A6"/>
<path d="M21.6214 10.8343L23.9999 9.54915C23.2681 0.185592 16.6814 -1.834 12.6562 2.02159C15.9496 1.28719 18.694 2.57239 21.6214 10.8343Z" fill="#3F97CD"/>
<path d="M23.9998 12.3032L26.3784 10.8344L23.9998 9.54919L21.6213 10.8344L23.9998 12.3032Z" fill="#0E537C"/>
<path d="M39.0029 11.9359C39.0029 13.4047 37.5087 15.4957 34.0629 16.5259C36.6244 12.6703 31.1355 9.18193 27.1104 10.6507C32.2333 7.34594 39.0029 8.63115 39.0029 11.9359Z" fill="#3F97CD"/>
</svg>
