<svg width="48" height="48" viewBox="0 0 48 48" fill="none" xmlns="http://www.w3.org/2000/svg">
<path d="M35.75 30.8083C42.2393 24.319 42.2393 13.7977 35.75 7.30835C29.2607 0.819004 18.7393 0.819004 12.25 7.30835C5.76066 13.7977 5.76065 24.319 12.25 30.8083C18.7393 37.2977 29.2607 37.2977 35.75 30.8083Z" fill="#620002"/>
<path fill-rule="evenodd" clip-rule="evenodd" d="M23.994 5.56362C24.3356 5.46125 24.7031 5.49065 25.024 5.64602C24.3374 5.62199 23.994 6.6039 23.994 6.6039C23.994 6.6039 23.6301 5.62199 22.9641 5.64602C23.285 5.49065 23.6525 5.46125 23.994 5.56362ZM23.994 13.9271C25.7622 10.8886 30.5173 10.2603 32.1961 12.6774C32.5646 13.2405 32.7729 13.8933 32.7989 14.5658C32.8249 15.2383 32.6676 15.9052 32.3437 16.4951C32.3849 15.2077 32.5738 13.1408 31.2279 12.3752C31.655 12.9116 31.9565 13.5369 32.1103 14.2052C32.7008 17.0925 29.0718 17.9817 28.4779 15.4858C28.4161 15.2317 28.3303 14.4283 28.9345 14.0404C29.2984 13.8103 30.7885 13.4601 29.9645 12.5229C30.4589 12.4988 30.9292 13.6558 30.0641 14.0266C30.8503 14.1571 30.888 15.0566 30.4074 15.2214C29.8169 15.4446 29.6864 14.5862 30.301 14.703C30.349 14.4867 30.0023 14.1983 29.5731 14.4318C27.9423 15.3175 30.143 17.4118 31.3824 15.5922C31.3824 15.5922 30.6271 16.3509 29.8272 16.0934C29.0272 15.836 29.089 15.1081 29.4667 14.7991C29.4667 14.7991 29.6452 15.7158 30.4074 15.5544C31.1696 15.3931 31.3035 14.442 31.3035 14.2464C31.3035 14.0507 30.9189 12.2791 29.3877 11.8431C27.8565 11.407 26.0849 11.4997 25.1717 13.3983C25.1717 13.3983 26.981 11.1255 29.1886 12.4508C29.1886 12.4508 29.6246 12.6259 29.4873 13.3468C29.4873 13.3468 29.168 12.6602 28.6427 12.5641C28.6427 12.5641 29.4255 13.6455 28.5122 14.0301C28.5122 14.0301 28.8796 13.0481 28.0968 12.8387C27.314 12.6293 27.0874 13.1168 27.0359 13.4155C27.0359 13.4155 27.5097 12.8559 27.8942 13.3125C28.2788 13.7691 27.8359 14.5141 27.0806 14.5244C26.3252 14.5347 25.4841 15.0188 25.4704 16.3063C25.4704 16.3063 25.7004 17.2127 26.3184 17.2127V16.3166H26.8368C26.9459 16.1749 27.0413 16.0232 27.1218 15.8634C26.7784 16.0214 26.5244 15.8875 26.2188 16.0454C26.2188 16.0454 26.1433 15.1939 26.8643 14.9776C27.057 14.9119 27.2658 14.9097 27.4599 14.9716C27.654 15.0334 27.8231 15.1558 27.9423 15.321C27.9423 15.321 27.599 15.7913 27.2556 15.8222C27.2556 15.8222 28.4264 15.6815 28.7526 16.629C28.5087 16.5569 28.2547 16.5256 28.0007 16.5363C28.0007 16.5363 28.907 17.0273 28.526 17.9371C28.526 17.9371 28.1449 17.0445 27.6642 16.9758C27.6642 16.9758 28.4436 17.7723 28.0316 18.6924C28.0316 18.6924 27.599 17.8479 27.1698 17.7483C27.1698 17.7483 27.75 18.562 27.5131 19.3722L26.2085 17.5629C26.2811 18.0937 26.4763 18.6003 26.7784 19.0426C27.2419 19.6297 27.9698 20.7352 26.2566 21.1026C26.2566 21.1026 26.9638 21.3429 27.3827 20.9378C27.3827 20.9378 27.8805 21.93 25.9407 21.93C26.1584 22.0247 26.3943 22.0704 26.6316 22.0639C26.8689 22.0573 27.1018 21.9987 27.314 21.8922C27.314 21.8922 27.3415 22.9531 25.7656 22.6029C25.9066 22.7235 26.0705 22.8143 26.2476 22.8697C26.4246 22.9252 26.611 22.9442 26.7956 22.9256C26.6825 23.021 26.5494 23.0896 26.4062 23.1264C26.2629 23.1633 26.1132 23.1674 25.9682 23.1385C25.4429 23.0492 24.4026 22.651 24.176 22.1841C23.9494 21.7171 24.5193 21.3498 24.8867 21.2125C25.2541 21.0751 26.2978 20.464 26.0231 19.4958C26.0231 19.4958 25.9647 20.0589 25.6798 20.1825C25.6798 20.1825 25.3914 19.616 25.103 19.6331C24.8146 19.6503 24.4369 20.0554 24.0146 20.076C23.5924 20.0554 23.2147 19.6537 22.9263 19.6331C22.6379 19.6125 22.3495 20.1825 22.3495 20.1825C22.0611 20.0692 22.0062 19.4958 22.0062 19.4958C21.7315 20.4743 22.7924 21.0854 23.1426 21.2125C23.4928 21.3395 24.0764 21.7171 23.8533 22.1841C23.6301 22.651 22.5864 23.0492 22.0611 23.1385C21.9161 23.1674 21.7664 23.1633 21.6231 23.1264C21.4799 23.0896 21.3468 23.021 21.2337 22.9256C21.4155 22.9419 21.5987 22.9217 21.7726 22.8663C21.9465 22.8108 22.1076 22.7213 22.2465 22.6029C20.6706 22.9463 20.7015 21.8922 20.7015 21.8922C20.9136 21.9992 21.1466 22.058 21.384 22.0646C21.6214 22.0711 21.8573 22.0251 22.0749 21.93C20.1351 21.93 20.6329 20.9378 20.6329 20.9378C21.0517 21.3429 21.759 21.1026 21.759 21.1026C20.0424 20.7593 20.7736 19.6366 21.2371 19.0426C21.5393 18.6003 21.7344 18.0937 21.8071 17.5629L20.4646 19.3688C20.2312 18.5585 20.808 17.7449 20.808 17.7449C20.3788 17.8444 19.9497 18.689 19.9497 18.689C19.5342 17.7792 20.3136 16.9724 20.3136 16.9724C19.8329 17.041 19.4518 17.9337 19.4518 17.9337C19.0707 17.0239 19.9771 16.5329 19.9771 16.5329C19.7231 16.5222 19.469 16.5535 19.2252 16.6256C19.5686 15.678 20.7221 15.8188 20.7221 15.8188C20.3788 15.7879 20.0355 15.3175 20.0355 15.3175C20.1547 15.1524 20.3238 15.0299 20.5179 14.9681C20.712 14.9063 20.9208 14.9084 21.1135 14.9742C21.8345 15.1905 21.759 16.042 21.759 16.042C21.4534 15.884 21.1925 16.0179 20.856 15.86C20.9365 16.0197 21.0319 16.1715 21.141 16.3132H21.6594V17.2093C22.2774 17.2093 22.5074 16.3029 22.5074 16.3029C22.5074 15.0154 21.656 14.5279 20.9007 14.521C20.1454 14.5141 19.6956 13.7657 20.0836 13.3091C20.4715 12.8524 20.9419 13.4121 20.9419 13.4121C20.8904 13.1134 20.6603 12.6224 19.881 12.8353C19.1016 13.0481 19.4656 14.0266 19.4656 14.0266C18.5523 13.6421 19.3351 12.5606 19.3351 12.5606C18.8098 12.6396 18.494 13.3434 18.494 13.3434C18.3532 12.6224 18.7926 12.4473 18.7926 12.4473C20.9968 11.1221 22.8061 13.3949 22.8061 13.3949C21.8929 11.4894 20.1179 11.4208 18.5901 11.8396C17.0623 12.2585 16.6743 14.0369 16.6743 14.2429C16.6743 14.4489 16.8048 15.3931 17.5704 15.551C18.336 15.7089 18.5111 14.7957 18.5111 14.7957C18.8888 15.1047 18.9471 15.8257 18.1506 16.09C17.3541 16.3544 16.5954 15.6025 16.5954 15.6025C17.8382 17.4221 20.0286 15.3278 18.4047 14.442C17.9755 14.2086 17.6288 14.497 17.6768 14.7133C18.2914 14.5965 18.1609 15.4549 17.5704 15.2317C17.0932 15.0497 17.1309 14.1674 17.9137 14.0369C17.0485 13.6661 17.5223 12.5091 18.0167 12.5332C17.2065 13.4704 18.7034 13.8206 19.0467 14.0507C19.651 14.4386 19.5651 15.242 19.5033 15.4961C18.9094 17.992 15.2804 17.1028 15.8709 14.2155C16.0247 13.5472 16.3262 12.9219 16.7533 12.3855C15.4075 13.1408 15.5963 15.2077 15.6375 16.5054C15.3136 15.9155 15.1563 15.2486 15.1823 14.5761C15.2083 13.9036 15.4167 13.2508 15.7851 12.6876C17.4502 10.2844 22.219 10.8989 23.9872 13.9374L23.994 13.9271ZM23.994 15.1493C23.7465 14.6462 23.3771 14.2131 22.9194 13.8893C23.3129 14.4505 23.6718 15.0353 23.994 15.6403C23.994 15.6403 24.6498 14.3013 25.0687 13.8893C24.611 14.2131 24.2416 14.6462 23.994 15.1493ZM23.994 11.8568H23.9734C23.9734 11.8568 23.0705 10.6174 23.0602 10.0681C23.0447 9.97062 23.0542 9.87082 23.088 9.77811C23.1218 9.68539 23.1787 9.60283 23.2533 9.53821C23.3278 9.4736 23.4177 9.42908 23.5143 9.40885C23.6108 9.38862 23.711 9.39336 23.8052 9.42262C23.8052 9.42262 22.7237 8.69476 22.5864 9.86207C22.3737 9.72667 22.1972 9.54149 22.0722 9.32254C21.9472 9.10359 21.8774 8.85748 21.8689 8.6055C21.8689 8.6055 21.5255 9.80714 22.1195 10.3221C22.1195 10.3221 20.729 9.18572 21.268 7.98064C21.8071 6.77556 23.0121 7.06739 23.1563 7.56522C23.1563 7.56522 23.431 6.6142 22.1263 6.49404C22.3094 6.43093 22.5063 6.41897 22.6957 6.45946C22.8851 6.49995 23.0598 6.59134 23.2011 6.7238C23.3424 6.85625 23.4449 7.02475 23.4975 7.21114C23.5501 7.39752 23.5508 7.59473 23.4997 7.78151C23.4669 7.92803 23.382 8.05762 23.2606 8.14607C23.1393 8.23452 22.99 8.27579 22.8405 8.26217C22.2911 8.22097 22.4525 7.64761 22.9057 7.73344C22.528 6.70346 21.1204 7.78838 22.2671 8.52996C22.3856 8.60867 22.5185 8.66315 22.6582 8.69025C22.7978 8.71736 22.9415 8.71656 23.0808 8.6879C23.9494 8.49907 24.2035 7.0056 23.455 6.28461C23.2529 6.10183 23.0116 5.96792 22.7495 5.89323C22.4875 5.81854 22.2118 5.80506 21.9437 5.85383C21.6756 5.9026 21.4223 6.01232 21.2034 6.17452C20.9844 6.33672 20.8057 6.54705 20.6809 6.7893C20.9453 6.24341 21.0002 5.58765 20.4578 5.41599C20.6054 6.23311 19.493 7.75061 20.1145 8.67416C19.9058 8.43107 19.6388 8.24496 19.3386 8.13327C19.0383 8.02157 18.7146 7.98796 18.3978 8.03557C18.3978 8.03557 18.3463 9.40888 20.2484 10.0955C20.2484 10.0955 18.2571 10.2294 17.8451 9.51875C17.4331 8.80806 17.8451 7.74718 18.6794 7.76778C18.4734 7.47595 17.7867 7.35579 17.4331 8.04587C17.5017 6.92319 18.669 6.36701 19.2287 7.23219C18.9918 7.08799 18.8235 7.13949 18.7514 7.26309C18.7208 7.31284 18.7034 7.36957 18.7008 7.42794C18.6983 7.4863 18.7106 7.54435 18.7367 7.5966C18.7629 7.64885 18.8019 7.69357 18.8501 7.72653C18.8984 7.75949 18.9542 7.7796 19.0124 7.78495C19.0725 7.79576 19.1342 7.79363 19.1934 7.7787C19.2526 7.76377 19.3079 7.73638 19.3557 7.69836C19.4034 7.66034 19.4425 7.61256 19.4704 7.55822C19.4982 7.50388 19.5141 7.44424 19.5171 7.38325C19.6887 6.41507 18.233 6.15071 17.4571 6.86826C17.336 6.96889 17.237 7.09336 17.1661 7.23395C17.0952 7.37453 17.054 7.52819 17.0451 7.68538C15.7473 7.59611 16.2726 9.44321 17.1584 9.67667C17.1584 9.67667 16.5919 8.5643 17.0829 7.92227C17.0829 8.1523 16.8735 9.86207 18.0648 10.0372C18.0648 10.0372 17.0348 10.1539 16.4134 9.76251C16.1536 9.60829 15.8637 9.5119 15.5633 9.47991C15.2629 9.44791 14.9591 9.48107 14.6727 9.57711C14.7182 9.82476 14.8295 10.0556 14.9951 10.2453C15.1606 10.435 15.3742 10.5766 15.6134 10.6552C15.3881 10.54 15.1308 10.5031 14.8821 10.5504C14.6334 10.5976 14.4076 10.7263 14.2401 10.9161C13.6874 11.6027 12.7398 11.5512 12.4823 11.28C12.4823 11.28 12.7913 12.5263 13.8556 12.31C13.8556 12.31 12.4136 12.873 12.2179 14.1228C12.325 14.1525 12.4379 14.1546 12.546 14.1288C12.6541 14.103 12.7539 14.0501 12.8359 13.9751C12.8359 13.9751 11.5313 15.3484 12.7432 16.5672C12.7432 16.5672 12.8565 13.0413 15.3525 11.5169C14.7437 11.7783 14.0715 11.8547 13.4196 11.7366C14.1228 11.7638 14.8157 11.5613 15.3937 11.1598C16.3001 10.4972 16.9387 10.6895 17.1103 10.6208C17.1103 10.6208 15.7542 10.5384 15.2495 9.93417C16.6503 10.7101 17.8039 10.2775 18.2227 10.4423C17.7833 10.4423 15.6134 11.0294 14.7311 12.7082C13.8487 14.3871 14.4599 16.4093 14.4599 16.4093C14.4599 16.4093 13.6324 14.7133 14.2024 13.1134C14.2024 13.1134 12.6883 15.4274 13.0934 17.8616C13.0934 17.8616 13.6942 20.155 15.2255 20.0005C16.9181 19.8323 16.3138 18.174 15.634 18.4487C15.0882 18.6718 15.5757 19.3928 15.9396 19.0804C15.9636 19.2933 15.4006 19.7087 14.8513 19.3242C14.6846 19.1942 14.5476 19.0302 14.4493 18.8432C14.351 18.6561 14.2938 18.4502 14.2813 18.2392C13.8978 18.0062 13.6183 17.6347 13.5008 17.2015C13.3832 16.7683 13.4365 16.3065 13.6496 15.9115C13.6496 15.9115 13.708 18.3766 15.483 18.1568C15.3614 18.0607 15.2613 17.9402 15.1891 17.803C15.117 17.6658 15.0744 17.515 15.0641 17.3603C15.0641 17.3603 15.8675 18.5894 17.0966 17.302C14.6521 17.3294 14.2539 14.5553 15.2392 13.0035C16.3516 11.2457 18.4493 10.6449 20.4131 10.9641C20.0281 10.6884 19.5835 10.5073 19.1154 10.4354C20.0978 10.5392 21.0449 10.8601 21.8881 11.3749C22.7313 11.8897 23.4494 12.5856 23.9906 13.4121C24.5318 12.5856 25.25 11.8897 26.0931 11.3749C26.9363 10.8601 27.8834 10.5392 28.8659 10.4354C28.3977 10.5073 27.9531 10.6884 27.5681 10.9641C29.5319 10.6449 31.6296 11.2457 32.742 13.0035C33.7274 14.5656 33.3291 17.3294 30.8846 17.302C32.1137 18.5894 32.9205 17.3603 32.9205 17.3603C32.9101 17.5153 32.867 17.6663 32.7943 17.8036C32.7215 17.9408 32.6206 18.0612 32.4982 18.1568C34.2732 18.3766 34.3316 15.9115 34.3316 15.9115C34.545 16.3061 34.5988 16.7676 34.4819 17.2007C34.365 17.6339 34.0863 18.0056 33.7033 18.2392C33.6898 18.4503 33.6318 18.6561 33.5329 18.8431C33.4341 19.0302 33.2968 19.1941 33.13 19.3242C32.5806 19.7087 32.0176 19.2933 32.0416 19.0804C32.4056 19.3928 32.8931 18.6718 32.3472 18.4487C31.6605 18.174 31.0631 19.822 32.7557 20.0005C34.287 20.155 34.8878 17.8616 34.8878 17.8616C35.2929 15.4274 33.7789 13.1134 33.7789 13.1134C34.3488 14.7133 33.5214 16.4093 33.5214 16.4093C33.5214 16.4093 34.1325 14.3871 33.2501 12.7082C32.3678 11.0294 30.198 10.4423 29.7585 10.4423C30.1774 10.2947 31.3309 10.7101 32.7317 9.93417C32.227 10.5556 30.8709 10.6208 30.8709 10.6208C31.0563 10.6895 31.6949 10.4972 32.5875 11.1598C33.1655 11.5613 33.8584 11.7638 34.5616 11.7366C33.9097 11.8547 33.2375 11.7783 32.6287 11.5169C35.1247 13.0413 35.238 16.5672 35.238 16.5672C36.4499 15.3553 35.1453 13.9751 35.1453 13.9751C35.2274 14.0501 35.3271 14.103 35.4352 14.1288C35.5433 14.1546 35.6562 14.1525 35.7633 14.1228C35.5676 12.873 34.1256 12.31 34.1256 12.31C35.1934 12.5263 35.4989 11.28 35.4989 11.28C35.2414 11.5512 34.2938 11.589 33.7411 10.9161C33.5736 10.7263 33.3478 10.5976 33.0991 10.5504C32.8505 10.5031 32.5932 10.54 32.3678 10.6552C32.6073 10.5765 32.8212 10.4349 32.9873 10.2453C33.1534 10.0556 33.2655 9.82488 33.3119 9.57711C33.0249 9.481 32.7206 9.44782 32.4197 9.47981C32.1187 9.5118 31.8282 9.60821 31.5678 9.76251C30.9533 10.1539 29.9164 10.0372 29.9164 10.0372C31.1078 9.86207 30.9155 8.1523 30.8983 7.92227C31.3893 8.5643 30.8228 9.67667 30.8228 9.67667C31.7086 9.44321 32.2339 7.59611 30.9361 7.68538C30.9272 7.52819 30.886 7.37453 30.8152 7.23395C30.7443 7.09336 30.6452 6.96889 30.5241 6.86826C29.7448 6.15071 28.2891 6.41507 28.4642 7.38325C28.4671 7.44424 28.483 7.50388 28.5109 7.55822C28.5387 7.61256 28.5778 7.66034 28.6256 7.69836C28.6733 7.73638 28.7287 7.76377 28.7879 7.7787C28.8471 7.79363 28.9088 7.79576 28.9688 7.78495C29.0253 7.7761 29.0788 7.75397 29.125 7.72037C29.1713 7.68677 29.2088 7.64267 29.2346 7.5917C29.2605 7.54074 29.2738 7.48436 29.2735 7.42722C29.2733 7.37009 29.2595 7.31383 29.2332 7.26309C29.1577 7.13949 28.9894 7.08799 28.7526 7.23219C29.3122 6.36701 30.4692 6.92319 30.5482 8.04587C30.2048 7.35922 29.5182 7.47595 29.3019 7.76778C30.1293 7.74718 30.5585 8.79776 30.1362 9.51875C29.7139 10.2397 27.7329 10.0955 27.7329 10.0955C29.6349 9.40888 29.5834 8.03557 29.5834 8.03557C29.2666 7.98796 28.9429 8.02157 28.6426 8.13327C28.3424 8.24496 28.0754 8.43107 27.8668 8.67416C28.4882 7.75061 27.3758 6.23311 27.5234 5.41599C26.9844 5.58765 27.0359 6.24341 27.3003 6.7893C27.1755 6.54705 26.9968 6.33672 26.7778 6.17452C26.5589 6.01232 26.3056 5.9026 26.0375 5.85383C25.7694 5.80506 25.4937 5.81854 25.2317 5.89323C24.9697 5.96792 24.7283 6.10183 24.5262 6.28461C23.7778 7.00903 24.0318 8.5025 24.9004 8.6879C25.0398 8.71656 25.1834 8.71736 25.3231 8.69025C25.4627 8.66315 25.5956 8.60867 25.7141 8.52996C26.8608 7.78838 25.4566 6.6966 25.0755 7.73344C25.5287 7.64761 25.6901 8.22097 25.1408 8.26217C24.9912 8.27579 24.8419 8.23452 24.7206 8.14607C24.5993 8.05762 24.5143 7.92803 24.4816 7.78151C24.4316 7.59488 24.4333 7.3982 24.4863 7.21243C24.5394 7.02666 24.6418 6.85876 24.7828 6.72663C24.9237 6.5945 25.0979 6.50308 25.2867 6.46212C25.4755 6.42115 25.6718 6.43219 25.8549 6.49404C24.5331 6.6142 24.8249 7.56522 24.8249 7.56522C24.9691 7.06739 26.1776 6.779 26.7132 7.98064C27.2488 9.18228 25.8617 10.3221 25.8617 10.3221C26.4454 9.79341 26.1124 8.6055 26.1124 8.6055C26.1038 8.85748 26.034 9.10359 25.909 9.32254C25.784 9.54149 25.6075 9.72667 25.3948 9.86207C25.2575 8.69476 24.176 9.42262 24.176 9.42262C24.2698 9.39482 24.3692 9.3912 24.4647 9.4121C24.5603 9.433 24.6491 9.47774 24.7228 9.54215C24.7964 9.60656 24.8526 9.68855 24.8861 9.78051C24.9195 9.87246 24.9292 9.97138 24.9142 10.0681C24.9142 10.6174 24.0009 11.8568 24.0009 11.8568H23.994ZM23.994 12.3478C23.1701 11.7881 22.6207 10.2363 22.6207 10.2363C22.6207 11.6783 23.994 12.7666 23.994 12.7666C23.994 12.7666 25.3674 11.6783 25.3674 10.2363C25.3674 10.2363 24.8249 11.7881 23.994 12.3478ZM23.994 20.3061C23.4825 20.258 22.8439 19.64 22.5383 20.2511C23.146 20.0211 23.3589 20.5945 23.994 20.6151H24.0146C24.6395 20.5704 24.8524 20.0245 25.4566 20.2511C25.1545 19.64 24.5125 20.2511 24.0009 20.3061H23.994ZM23.994 22.7094L23.1392 23.2243C23.0625 23.3861 23.0251 23.5637 23.0299 23.7426C23.0346 23.9216 23.0815 24.0969 23.1666 24.2543C23.1666 24.2543 22.6516 23.9316 22.7684 23.4441C22.7684 23.4441 22.3049 23.3788 22.2259 24.0071C22.2199 24.2018 22.2736 24.3936 22.3798 24.5568C22.486 24.7201 22.6395 24.8469 22.8199 24.9204C22.5361 24.8435 22.2875 24.671 22.1161 24.4321C21.9447 24.1931 21.861 23.9024 21.8792 23.6089C21.8792 23.6089 20.9247 24.6389 22.4594 25.3701C22.7503 25.4373 23.0278 25.5534 23.2799 25.7135L23.3589 24.9169L23.6301 24.6972C23.6301 24.6972 23.4825 25.8577 23.994 26.2044C24.5056 25.8611 24.358 24.6972 24.358 24.6972L24.6292 24.9169L24.7082 25.7135C24.9603 25.5534 25.2378 25.4373 25.5287 25.3701C27.0634 24.6526 26.1089 23.6089 26.1089 23.6089C26.1271 23.9024 26.0434 24.1931 25.872 24.4321C25.7006 24.671 25.452 24.8435 25.1682 24.9204C25.3486 24.8469 25.5021 24.7201 25.6083 24.5568C25.7145 24.3936 25.7682 24.2018 25.7622 24.0071C25.6832 23.3788 25.2197 23.4441 25.2197 23.4441C25.3365 23.9316 24.8215 24.2543 24.8215 24.2543C24.9066 24.0969 24.9534 23.9216 24.9582 23.7426C24.963 23.5637 24.9255 23.3861 24.8489 23.2243L23.994 22.7094ZM23.994 3.64099C20.9425 3.64099 17.9594 4.54589 15.4221 6.24127C12.8848 7.93664 10.9072 10.3463 9.73942 13.1656C8.57163 15.9849 8.26608 19.0872 8.86141 22.0802C9.45675 25.0731 10.9262 27.8223 13.084 29.9801C15.2418 32.1379 17.991 33.6074 20.984 34.2027C23.9769 34.7981 27.0792 34.4925 29.8985 33.3247C32.7178 32.1569 35.1275 30.1793 36.8229 27.642C38.5182 25.1047 39.4231 22.1217 39.4231 19.0701C39.4231 14.978 37.7976 11.0536 34.9041 8.16007C32.0105 5.26655 28.0861 3.64099 23.994 3.64099ZM23.994 4.55767C20.1971 4.57239 16.5572 6.0746 13.855 8.74205C11.1528 11.4095 9.60371 15.0297 9.53992 18.8262C9.47613 22.6226 10.9028 26.2928 13.5138 29.0496C16.1248 31.8063 19.7122 33.4299 23.5065 33.5722C23.3652 33.4989 23.245 33.3908 23.1573 33.258C23.0696 33.1252 23.0172 32.9722 23.0053 32.8135C23.0051 32.463 23.0631 32.1149 23.1769 31.7835C22.978 31.9681 22.7309 32.0926 22.4641 32.1424C22.1973 32.1922 21.9219 32.1654 21.6697 32.065C22.1207 31.0604 22.8003 30.1751 23.6542 29.4798C23.6542 30.6368 22.6242 31.6049 22.6242 31.6049C23.1529 31.4299 23.6542 30.472 23.6542 30.472C23.7297 31.2513 23.3417 32.8512 23.3417 32.8512L23.7674 31.7457C23.7833 32.2846 23.8593 32.8201 23.994 33.3422C24.1248 32.8195 24.1984 32.2842 24.2138 31.7457L24.6395 32.8512C24.6395 32.8512 24.2515 31.2513 24.3271 30.472C24.3271 30.472 24.8283 31.4299 25.3571 31.6049C25.3571 31.6049 24.3271 30.6368 24.3271 29.4798C25.1821 30.174 25.8618 31.0596 26.3115 32.065C26.0594 32.1654 25.7839 32.1922 25.5171 32.1424C25.2504 32.0926 25.0032 31.9681 24.8043 31.7835C24.9181 32.1149 24.9761 32.463 24.976 32.8135C24.964 32.9726 24.9112 33.126 24.8229 33.2588C24.7345 33.3917 24.6134 33.4996 24.4713 33.5722C28.2649 33.4302 31.8518 31.8074 34.4629 29.0518C37.074 26.2961 38.5014 22.627 38.439 18.8313C38.3766 15.0355 36.8293 11.4154 34.129 8.74707C31.4286 6.07878 27.7903 4.57481 23.994 4.55767ZM26.9192 31.8384C28.889 31.3845 30.7272 30.4814 32.2903 29.1997C33.8534 27.918 35.0991 26.2922 35.9301 24.4495C36.761 22.6068 37.1548 20.5969 37.0806 18.5768C37.0064 16.5568 36.4663 14.5812 35.5024 12.8044C36.2625 14.3959 36.6966 16.1233 36.7791 17.8851C36.8617 19.6469 36.591 21.4074 35.983 23.063C35.1316 22.112 35.8148 20.0314 35.8903 18.8675C35.9165 18.1069 35.717 17.3555 35.317 16.708C35.4715 17.6247 34.7367 18.7989 34.7367 18.7989C33.6518 20.6666 31.9627 20.2649 31.9627 20.2649C32.1652 20.979 32.9926 20.9515 33.4424 20.8726C34.0308 20.4585 34.5265 19.9265 34.8981 19.3104C34.4312 22.7128 30.7782 22.96 30.7782 22.96C33.7171 22.2733 34.3556 20.3507 34.3556 20.3507C34.1583 20.6152 33.9096 20.8371 33.6244 21.003C33.4521 21.2954 33.2225 21.5498 32.9493 21.751C32.6761 21.9522 32.365 22.096 32.0348 22.1738C30.7267 22.5171 30.1327 21.6965 30.1327 21.6965C29.3499 22.1257 30.1808 22.8021 30.1808 22.8021C28.344 22.3592 29.1783 20.5739 29.3671 20.131C29.5559 19.6881 30.2186 19.6057 30.2186 19.6057C29.2057 19.3242 28.7182 20.6357 28.7182 20.6357C28.8452 19.4992 29.6246 19.2349 30.1602 19.3139C30.6958 19.3928 30.8468 19.8597 30.6855 20.3747C30.5241 20.8897 30.0435 20.5189 30.0435 20.5189C30.0435 20.5189 30.5173 20.6082 30.3868 20.1996C30.2563 19.7911 29.374 19.9181 29.7001 20.8314C30.0263 21.7446 31.0734 21.209 31.0734 21.209C31.5816 22.0948 32.8347 21.4837 32.8347 21.4837C31.9112 21.8716 31.4442 20.7249 31.4442 20.7249C31.5651 20.3594 31.5746 19.9663 31.4717 19.5954C31.2794 18.3697 29.8787 18.9087 29.8787 18.9087C30.0915 18.1706 31.3756 18.1019 31.3756 18.1019C31.1687 17.9672 30.9272 17.8954 30.6803 17.8954C30.4335 17.8954 30.1919 17.9672 29.9851 18.1019C30.0424 18.0087 30.0766 17.9031 30.0849 17.794C30.0931 17.6849 30.0752 17.5753 30.0325 17.4746C29.9898 17.3738 29.9237 17.2847 29.8396 17.2146C29.7555 17.1446 29.6559 17.0957 29.5491 17.0719C29.6246 18.2015 29.2916 18.6718 28.3715 19.4237C27.4513 20.1756 27.8874 21.6313 27.8874 21.6313C27.8874 19.9936 28.8075 19.6091 28.8075 19.6091C28.3371 20.2958 27.8874 21.3635 28.7388 22.6338C29.5903 23.9041 31.4854 23.42 31.4854 23.42C31.3172 23.6363 30.1465 24.0209 29.3602 23.9213C28.9394 23.8483 28.5062 23.9121 28.1243 24.1033C28.4356 23.7851 28.8513 23.59 29.295 23.5539C27.8565 23.2346 27.7397 22.3008 27.7397 22.3008C27.7397 23.5711 27.1218 23.6363 27.1218 23.6363V24.5564C27.1218 24.5564 28.4264 24.0724 27.8393 24.323C26.6445 24.8345 26.4935 27.1932 28.2582 26.7263C28.5363 27.6395 29.8066 27.5949 29.8066 27.5949C31.3241 27.3855 32.5532 26.0602 32.5532 26.0602C31.9571 27.2606 31.0694 28.2923 29.9714 29.0609C28.1243 30.369 26.3355 30.0668 25.5081 29.5313C28.6839 30.7535 30.9086 28.0618 31.2039 27.5091C30.1224 28.1957 28.4573 28.412 27.9011 28.1751C27.3449 27.9382 27.6573 27.3511 27.6573 27.3511C27.52 27.6636 27.9732 27.746 28.0831 27.6945C28.1929 27.643 28.4058 27.1211 27.7981 27.0421C27.1904 26.9632 27.1115 27.7013 27.1115 27.7013C27.1115 28.7965 28.8281 28.7313 28.8281 28.7313C28.4772 28.8684 28.0904 28.8829 27.7302 28.7726C27.37 28.6623 27.0576 28.4336 26.8437 28.1236C26.6617 28.8789 27.5955 29.2497 27.5955 29.2497C26.2737 29.7407 24.9622 28.8789 24.8077 27.9279C24.764 27.6659 24.8163 27.397 24.9551 27.1705C25.0939 26.944 25.3098 26.7753 25.563 26.6954C24.0627 26.7537 24.715 28.7897 24.715 28.7897C24.1073 27.5468 24.5983 26.6233 25.3296 26.4791C26.0609 26.3349 26.3149 27.2104 26.1845 27.5091C26.054 27.8078 25.6866 27.6945 25.6866 27.6945C25.7305 27.6642 25.7668 27.6241 25.7925 27.5774C25.8182 27.5306 25.8327 27.4786 25.8347 27.4253C25.8368 27.372 25.8265 27.3189 25.8045 27.2704C25.7825 27.2218 25.7495 27.179 25.7081 27.1453C25.6667 27.1117 25.6181 27.0882 25.566 27.0767C25.5139 27.0651 25.4599 27.0659 25.4082 27.0788C25.3564 27.0918 25.3084 27.1167 25.268 27.1514C25.2275 27.1862 25.1957 27.2299 25.1751 27.279C25.1662 27.3013 25.1593 27.3242 25.1545 27.3477C25.1255 27.4388 25.1159 27.5349 25.1262 27.6299C25.1366 27.7249 25.1666 27.8167 25.2144 27.8994C25.2622 27.9821 25.3268 28.054 25.404 28.1103C25.4812 28.1666 25.5693 28.2063 25.6626 28.2266C25.868 28.2768 26.0838 28.2625 26.2808 28.1858C26.4778 28.1091 26.6464 27.9737 26.7638 27.7978C26.8811 27.622 26.9415 27.4143 26.9368 27.2029C26.932 26.9916 26.8624 26.7868 26.7372 26.6164C25.8755 25.2912 23.5992 26.2216 24.2069 28.4154C24.2069 28.4154 25.2094 31.7148 28.9688 30.0153C32.7283 28.3159 34.105 23.396 34.105 23.396C32.7592 25.765 30.2838 27.0421 31.403 26.2559C32.1032 25.7052 32.5703 24.9108 32.7111 24.0312C32.1927 25.0234 30.1636 25.7478 30.1636 25.7478C30.6407 25.8487 31.1382 25.7666 31.5575 25.5178C31.5575 25.5178 31.5575 25.6929 30.8022 26.2044C30.0469 26.716 29.0581 25.8886 29.0581 25.8886C28.78 26.7949 30.2838 27.0112 30.2838 27.0112C29.9382 27.1243 29.5704 27.1521 29.2117 27.0923C28.853 27.0325 28.5141 26.8869 28.2238 26.6679C27.3964 25.8199 27.9732 25.3392 28.8281 25.0749C29.5868 24.8414 30.6443 24.6457 31.3859 24.3882C32.5875 23.9865 34.311 22.4313 34.311 22.4313C34.4364 22.7399 34.6777 22.9871 34.9832 23.12C35.2886 23.2528 35.634 23.2607 35.9452 23.1419C34.4964 27.1486 31.2726 30.5475 26.9295 31.7835L26.9192 31.8384ZM28.9551 24.6663C29.9473 24.6663 33.3806 23.7668 34.8157 21.1541C34.8157 21.1541 34.3831 22.6201 35.4509 22.8501C34.8569 22.4107 34.7436 21.336 35.1075 20.4983C35.4715 19.6606 35.6363 18.7405 35.4165 18.2633C35.2553 19.7528 34.6017 21.1459 33.5591 22.2218C32.3249 23.5075 30.7115 24.3641 28.9551 24.6663ZM26.8299 10.0852C28.5981 8.50593 29.271 8.348 29.271 8.348C28.6155 9.12228 27.7762 9.71961 26.8299 10.0852ZM25.8652 14.442C25.8652 14.442 24.8352 15.3175 24.7974 16.4471C24.7597 17.5766 25.8961 18.6924 25.8961 18.6924C25.8961 18.6924 25.1339 17.2917 25.1751 16.2582C25.2203 15.5985 25.4592 14.9667 25.8617 14.442H25.8652ZM21.0586 31.8281C16.7155 30.5921 13.5054 27.1932 12.0428 23.1866C12.3541 23.3053 12.6995 23.2975 13.0049 23.1646C13.3104 23.0318 13.5517 22.7845 13.6771 22.4759C13.6771 22.4759 15.3937 24.0312 16.6057 24.4329C17.3438 24.6801 18.4013 24.8757 19.16 25.1195C20.0149 25.3839 20.5917 25.8645 19.7643 26.7125C19.474 26.9316 19.1351 27.0772 18.7764 27.137C18.4177 27.1967 18.0499 27.1689 17.7043 27.0559C17.7043 27.0559 19.2081 26.8396 18.93 25.9332C18.93 25.9332 17.9343 26.7743 17.1859 26.2491C16.4374 25.7238 16.4306 25.5624 16.4306 25.5624C16.8499 25.8112 17.3474 25.8933 17.8245 25.7924C17.8245 25.7924 15.7954 25.0543 15.277 24.0758C15.4178 24.9555 15.8848 25.7498 16.5851 26.3005C17.7043 27.0868 15.2118 25.8096 13.8865 23.4406C13.8865 23.4406 15.3148 28.3365 19.0707 30.0359C22.8267 31.7354 23.8327 28.436 23.8327 28.436C24.4404 26.2422 22.1641 25.3118 21.3024 26.637C21.1772 26.8074 21.1076 27.0122 21.1028 27.2235C21.0981 27.4349 21.1585 27.6426 21.2758 27.8184C21.3932 27.9942 21.5618 28.1297 21.7588 28.2064C21.9558 28.2831 22.1716 28.2974 22.377 28.2472C22.4703 28.2269 22.5584 28.1872 22.6356 28.1309C22.7128 28.0745 22.7774 28.0027 22.8252 27.92C22.873 27.8373 22.903 27.7455 22.9134 27.6505C22.9237 27.5555 22.9141 27.4594 22.8851 27.3683C22.8819 27.3445 22.875 27.3213 22.8645 27.2996C22.8439 27.2505 22.8121 27.2068 22.7716 27.172C22.7312 27.1373 22.6832 27.1124 22.6314 27.0994C22.5797 27.0865 22.5257 27.0857 22.4736 27.0973C22.4215 27.1088 22.3729 27.1323 22.3315 27.1659C22.2901 27.1996 22.2571 27.2424 22.2351 27.2909C22.2131 27.3395 22.2028 27.3926 22.2048 27.4459C22.2069 27.4992 22.2214 27.5512 22.2471 27.598C22.2728 27.6447 22.309 27.6848 22.3529 27.7151C22.3529 27.7151 21.9856 27.8455 21.8551 27.5297C21.7247 27.2138 21.9787 26.3383 22.71 26.4997C23.4413 26.661 23.9322 27.5674 23.3246 28.8103C23.3246 28.8103 23.9769 26.7743 22.4765 26.716C22.7302 26.7953 22.9466 26.9639 23.0855 27.1905C23.2244 27.4172 23.2764 27.6865 23.2319 27.9485C23.0774 28.8995 21.7659 29.7613 20.4441 29.2703C20.4441 29.2703 21.3779 28.8995 21.1959 28.1442C20.982 28.4542 20.6696 28.6829 20.3094 28.7932C19.9492 28.9035 19.5624 28.889 19.2115 28.7519C19.2115 28.7519 20.9281 28.8309 20.9281 27.7219C20.9281 27.7219 20.8457 26.9803 20.2415 27.0627C19.6372 27.1451 19.8467 27.6567 19.9565 27.7151C20.0664 27.7734 20.5196 27.691 20.3822 27.3717C20.3822 27.3717 20.7015 27.9623 20.1385 28.1957C19.5754 28.4292 17.9172 28.2232 16.8357 27.5297C17.1309 28.0824 19.3557 30.7741 22.5315 29.5519C21.6972 30.0874 19.9085 30.3896 18.0682 29.0815C16.9702 28.3129 16.0825 27.2812 15.4864 26.0808C15.4864 26.0808 16.7121 27.4061 18.233 27.6155C18.233 27.6155 19.5033 27.6601 19.7814 26.7469C21.5461 27.2138 21.3951 24.8551 20.2003 24.3436C19.6132 24.093 20.9178 24.5771 20.9178 24.5771V23.6569C20.9178 23.6569 20.2998 23.5917 20.2998 22.3214C20.2998 22.3214 20.1831 23.2552 18.7446 23.5745C19.1883 23.6106 19.604 23.8057 19.9153 24.1239C19.5334 23.9327 19.1002 23.8689 18.6794 23.9419C17.8931 24.0415 16.7224 23.6569 16.5542 23.4406C16.5542 23.4406 18.4425 23.9247 19.3008 22.6544C20.1591 21.3841 19.7025 20.3301 19.2321 19.6297C19.2321 19.6297 20.1522 20.0142 20.1522 21.6519C20.1522 21.6519 20.5882 20.1962 19.6681 19.4443C18.748 18.6924 18.415 18.2221 18.4905 17.0925C18.3837 17.1163 18.2841 17.1652 18.2 17.2352C18.1159 17.3053 18.0498 17.3944 18.0071 17.4952C17.9644 17.5959 17.9465 17.7055 17.9547 17.8146C17.963 17.9237 17.9972 18.0293 18.0545 18.1225C17.8495 17.9913 17.6112 17.9216 17.3678 17.9216C17.1245 17.9216 16.8862 17.9913 16.6812 18.1225C16.6812 18.1225 17.9652 18.1912 18.1781 18.9293C18.1781 18.9293 16.7773 18.3937 16.5851 19.616C16.4821 19.9869 16.4917 20.38 16.6125 20.7455C16.6125 20.7455 16.1456 21.8922 15.2392 21.5043C15.2392 21.5043 16.4958 22.1154 17.0005 21.2296C17.0005 21.2296 18.0511 21.7652 18.3738 20.852C18.6965 19.9387 17.8107 19.822 17.6871 20.2202C17.5635 20.6185 18.0305 20.5395 18.0305 20.5395C18.0305 20.5395 17.5429 20.9103 17.3884 20.3953C17.2339 19.8803 17.3884 19.4134 17.9103 19.3345C18.4322 19.2555 19.2252 19.5199 19.3523 20.6563C19.3523 20.6563 18.8647 19.3448 17.8554 19.6263C17.8554 19.6263 18.518 19.7087 18.7034 20.1516C18.8888 20.5945 19.7334 22.3798 17.8897 22.8227C17.8897 22.8227 18.7205 22.136 17.9412 21.7171C17.9412 21.7171 17.3438 22.5343 16.0357 22.1944C15.7055 22.1166 15.3944 21.9728 15.1212 21.7716C14.848 21.5704 14.6183 21.316 14.4461 21.0236C14.1609 20.8577 13.9121 20.6358 13.7148 20.3713C13.7148 20.3713 14.3534 22.2802 17.2957 22.9806C17.2957 22.9806 13.6462 22.7334 13.1758 19.331C13.5474 19.9471 14.0432 20.4791 14.6315 20.8932C15.0779 20.9653 15.9087 20.9996 16.1113 20.2855C16.1113 20.2855 14.4221 20.6872 13.3372 18.8195C13.3372 18.8195 12.6025 17.6453 12.757 16.7286C12.3569 17.3761 12.1574 18.1275 12.1836 18.8881C12.2591 20.052 12.9424 22.1326 12.0909 23.0836C11.4837 21.4278 11.2134 19.6674 11.296 17.9058C11.3785 16.1441 11.8122 14.4167 12.5716 12.825C11.6077 14.6018 11.0675 16.5774 10.9933 18.5974C10.9191 20.6175 11.3129 22.6274 12.1438 24.4701C12.9748 26.3128 14.2205 27.9386 15.7836 29.2203C17.3467 30.502 19.1849 31.4051 21.1547 31.859L21.0586 31.8281ZM19.0261 24.6663C17.2734 24.3621 15.6639 23.5056 14.4324 22.2218C13.3899 21.1459 12.7362 19.7528 12.575 18.2633C12.3553 18.7405 12.5304 19.6572 12.884 20.4983C13.2376 21.3395 13.1243 22.4107 12.5407 22.8501C13.6084 22.6201 13.1758 21.1541 13.1758 21.1541C14.6109 23.7668 18.0442 24.6629 19.0364 24.6663H19.0261ZM21.1513 10.0852C20.205 9.71961 19.3657 9.12228 18.7103 8.348C18.7103 8.348 19.3969 8.50593 21.1513 10.0852ZM22.1435 14.442C22.5461 14.9667 22.7849 15.5985 22.8302 16.2582C22.8714 17.2882 22.1092 18.6924 22.1092 18.6924C22.1092 18.6924 23.2284 17.5766 23.2078 16.4471C23.1872 15.3175 22.1435 14.442 22.1435 14.442Z" fill="#DFAD4C"/>
<path fill-rule="evenodd" clip-rule="evenodd" d="M8.57544 19.0602C8.57544 22.1119 9.48043 25.0951 11.1759 27.6325C12.8715 30.1699 15.2814 32.1475 18.1009 33.3152C20.9204 34.4829 24.0228 34.7882 27.0159 34.1926C30.0089 33.597 32.7581 32.1272 34.9158 29.969C37.0734 27.8109 38.5426 25.0613 39.1376 22.0682C39.7325 19.075 39.4265 15.9726 38.2582 13.1534C37.0899 10.3341 35.1117 7.92466 32.574 6.22971C30.0362 4.53475 27.0528 3.63042 24.0011 3.6311C19.9097 3.63201 15.9861 5.25798 13.0933 8.15139C10.2005 11.0448 8.57544 14.9687 8.57544 19.0602ZM23.5136 33.5623C19.7067 33.4358 16.102 31.8183 13.4766 29.0587C10.8512 26.2991 9.4154 22.6183 9.47868 18.8098C9.54196 15.0014 11.0993 11.3703 13.8149 8.69944C16.5305 6.02855 20.187 4.53177 23.996 4.53177C27.8049 4.53177 31.4614 6.02855 34.177 8.69944C36.8926 11.3703 38.45 15.0014 38.5132 18.8098C38.5765 22.6183 37.1407 26.2991 34.5153 29.0587C31.8899 31.8183 28.2852 33.4358 24.4783 33.5623C24.6205 33.4898 24.7415 33.3818 24.8299 33.249C24.9183 33.1161 24.971 32.9627 24.983 32.8036C24.9831 32.4531 24.9251 32.1051 24.8114 31.7736C25.0103 31.9582 25.2574 32.0827 25.5242 32.1325C25.791 32.1823 26.0664 32.1555 26.3186 32.0551C25.8689 31.0497 25.1891 30.1641 24.3341 29.4699C24.3341 30.6269 25.3641 31.5951 25.3641 31.5951C24.8354 31.42 24.3341 30.4621 24.3341 30.4621C24.2586 31.2414 24.6466 32.8413 24.6466 32.8413L24.2208 31.7358C24.2055 32.2744 24.1318 32.8096 24.0011 33.3323C23.8664 32.8102 23.7904 32.2748 23.7745 31.7358L23.3488 32.8413C23.3488 32.8413 23.7367 31.2414 23.6612 30.4621C23.6612 30.4621 23.16 31.42 22.6312 31.5951C22.6312 31.5951 23.6612 30.6269 23.6612 29.4699C22.8073 30.1652 22.1278 31.0505 21.6768 32.0551C21.9289 32.1555 22.2044 32.1823 22.4711 32.1325C22.7379 32.0827 22.9851 31.9582 23.184 31.7736C23.0702 32.1051 23.0122 32.4531 23.0123 32.8036C23.0243 32.9623 23.0766 33.1153 23.1644 33.2481C23.2521 33.3809 23.3723 33.489 23.5136 33.5623Z" fill="#A98235"/>
<path fill-rule="evenodd" clip-rule="evenodd" d="M14.4321 22.2217C15.6635 23.5054 17.2731 24.362 19.0258 24.6662C18.0336 24.6662 14.6003 23.7667 13.1652 21.154C13.1652 21.154 13.5978 22.62 12.53 22.85C13.124 22.4105 13.2373 21.3359 12.8734 20.4982C12.5094 19.6605 12.3446 18.7404 12.5644 18.2632C12.7256 19.7526 13.3792 21.1457 14.4218 22.2217H14.4321ZM13.6871 22.4758C13.6871 22.4758 15.4037 24.031 16.6156 24.4327C17.3538 24.6799 18.4112 24.8756 19.17 25.1194C20.0249 25.3837 20.6017 25.8644 19.7742 26.7124C21.5389 27.1793 21.3879 24.8207 20.1931 24.3091C19.606 24.0585 20.9106 24.5426 20.9106 24.5426V23.6225C20.9106 23.6225 20.2927 23.5573 20.2927 22.2869C20.2927 22.2869 20.1759 23.2208 18.7374 23.5401C19.1811 23.5761 19.5968 23.7712 19.9081 24.0894C19.5262 23.8982 19.093 23.8344 18.6722 23.9074C17.8859 24.007 16.7152 23.6225 16.547 23.4062C16.547 23.4062 18.4353 23.8903 19.2936 22.62C20.1519 21.3497 19.6953 20.2956 19.2249 19.5953C19.2249 19.5953 20.145 19.9798 20.145 21.6175C20.145 21.6175 20.5811 20.1617 19.6609 19.4099C18.7408 18.658 18.4078 18.1876 18.4833 17.0581C18.3765 17.0818 18.2769 17.1307 18.1928 17.2008C18.1087 17.2708 18.0426 17.3599 17.9999 17.4607C17.9572 17.5615 17.9393 17.671 17.9475 17.7801C17.9558 17.8893 17.99 17.9948 18.0473 18.0881C17.8423 17.9569 17.604 17.8871 17.3606 17.8871C17.1173 17.8871 16.879 17.9569 16.674 18.0881C16.674 18.0881 17.958 18.1567 18.1709 18.8949C18.1709 18.8949 16.7701 18.3593 16.5779 19.5815C16.4749 19.9525 16.4845 20.3456 16.6053 20.7111C16.6053 20.7111 16.1384 21.8578 15.232 21.4698C15.232 21.4698 16.4886 22.0809 16.9933 21.1952C16.9933 21.1952 18.0439 21.7307 18.3666 20.8175C18.6893 19.9043 17.8035 19.7875 17.6799 20.1858C17.5563 20.584 18.0233 20.5051 18.0233 20.5051C18.0233 20.5051 17.5357 20.8759 17.3812 20.3609C17.2267 19.8459 17.3812 19.379 17.9031 19.3C18.425 19.221 19.218 19.4854 19.3451 20.6218C19.3451 20.6218 18.8576 19.3103 17.8482 19.5918C17.8482 19.5918 18.5108 19.6742 18.6962 20.1171C18.8816 20.56 19.7262 22.3453 17.8825 22.7882C17.8825 22.7882 18.7134 22.1015 17.934 21.6827C17.934 21.6827 17.3366 22.4998 16.0285 22.1599C15.6983 22.0822 15.3872 21.9384 15.114 21.7372C14.8408 21.536 14.6112 21.2815 14.4389 20.9892C14.1537 20.8232 13.905 20.6014 13.7077 20.3368C13.7077 20.3368 14.3462 22.2457 17.2886 22.9461C17.2886 22.9461 13.639 22.6989 13.1686 19.2966C13.5402 19.9126 14.036 20.4446 14.6243 20.8587C15.0707 20.9308 15.9015 20.9651 16.1041 20.251C16.1041 20.251 14.4149 20.6527 13.33 18.785C13.33 18.785 12.5953 17.6108 12.7498 16.6941C12.3497 17.3416 12.1502 18.093 12.1764 18.8537C12.252 20.0176 12.9352 22.0981 12.0837 23.0491C11.4765 21.3934 11.2062 19.633 11.2888 17.8713C11.3713 16.1097 11.805 14.3823 12.5644 12.7905C11.6005 14.5673 11.0603 16.5429 10.9861 18.563C10.9119 20.583 11.3057 22.5929 12.1367 24.4357C12.9676 26.2784 14.2133 27.9041 15.7764 29.1859C17.3395 30.4676 19.1777 31.3707 21.1475 31.8246C16.8045 30.5886 13.5944 27.1896 12.1318 23.183C12.4326 23.2788 12.7582 23.2595 13.0456 23.1288C13.3329 22.9982 13.5615 22.7654 13.6871 22.4758Z" fill="#A98235"/>
<path fill-rule="evenodd" clip-rule="evenodd" d="M35.3237 16.6979C35.4782 17.6146 34.7434 18.7888 34.7434 18.7888C33.6585 20.6565 31.9694 20.2548 31.9694 20.2548C32.1719 20.9689 32.9993 20.9414 33.4491 20.8625C34.0375 20.4484 34.5332 19.9164 34.9048 19.3003C34.4379 22.7027 30.7849 22.9499 30.7849 22.9499C33.7238 22.2632 34.3624 20.3406 34.3624 20.3406C34.1651 20.6051 33.9163 20.827 33.6311 20.9929C33.4589 21.2853 33.2292 21.5397 32.956 21.7409C32.6828 21.9421 32.3717 22.086 32.0415 22.1637C30.7334 22.507 30.1394 21.6865 30.1394 21.6865C29.3566 22.1156 30.1875 22.792 30.1875 22.792C28.3507 22.3491 29.185 20.5638 29.3738 20.1209C29.5626 19.678 30.2253 19.5956 30.2253 19.5956C29.2125 19.3141 28.7249 20.6256 28.7249 20.6256C28.852 19.4892 29.6313 19.2248 30.1669 19.3038C30.7025 19.3827 30.8536 19.8497 30.6922 20.3647C30.5308 20.8796 30.0502 20.5088 30.0502 20.5088C30.0502 20.5088 30.524 20.5981 30.3935 20.1896C30.263 19.781 29.3807 19.908 29.7068 20.8213C30.033 21.7345 31.0802 21.1989 31.0802 21.1989C31.5883 22.0847 32.8414 21.4736 32.8414 21.4736C31.9179 21.8616 31.4509 20.7148 31.4509 20.7148C31.5718 20.3494 31.5813 19.9562 31.4784 19.5853C31.2861 18.3596 29.8854 18.8986 29.8854 18.8986C30.0982 18.1605 31.3823 18.0918 31.3823 18.0918C31.1754 17.9571 30.9339 17.8854 30.687 17.8854C30.4402 17.8854 30.1986 17.9571 29.9918 18.0918C30.0491 17.9986 30.0833 17.893 30.0916 17.7839C30.0998 17.6748 30.0819 17.5653 30.0392 17.4645C29.9965 17.3637 29.9304 17.2746 29.8463 17.2045C29.7622 17.1345 29.6626 17.0856 29.5558 17.0619C29.6313 18.1914 29.2983 18.6617 28.3782 19.4136C27.4581 20.1655 27.8941 21.6212 27.8941 21.6212C27.8941 19.9836 28.8142 19.599 28.8142 19.599C28.3438 20.2857 27.8941 21.3534 28.7455 22.6237C29.597 23.894 31.4921 23.41 31.4921 23.41C31.3239 23.6263 30.1532 24.0108 29.3669 23.9112C28.9461 23.8382 28.5129 23.902 28.131 24.0932C28.4423 23.775 28.858 23.5799 29.3017 23.5439C27.8632 23.2246 27.7464 22.2907 27.7464 22.2907C27.7464 23.561 27.1285 23.6263 27.1285 23.6263V24.5464C27.1285 24.5464 28.4331 24.0623 27.846 24.3129C26.6512 24.8245 26.5002 27.1831 28.2649 26.7162C27.4375 25.8682 28.0142 25.3875 28.8691 25.1232C29.6279 24.8897 30.6853 24.694 31.4269 24.4365C32.6286 24.0348 34.3521 22.4795 34.3521 22.4795C34.4774 22.7882 34.7187 23.0354 35.0242 23.1683C35.3297 23.3011 35.6751 23.309 35.9863 23.1902C34.5374 27.1968 31.3136 30.5958 26.9705 31.8318C28.9403 31.3779 30.7786 30.4748 32.3417 29.1931C33.9048 27.9113 35.1505 26.2856 35.9814 24.4429C36.8124 22.6001 37.2061 20.5902 37.1319 18.5702C37.0577 16.5501 36.5176 14.5745 35.5537 12.7977C36.3138 14.3892 36.7479 16.1167 36.8305 17.8785C36.913 19.6402 36.6423 21.4007 36.0344 23.0563C35.1829 22.1053 35.8661 20.0248 35.9417 18.8609C35.9679 18.1002 35.7684 17.3488 35.3683 16.7014L35.3237 16.6979ZM35.4198 18.2635C35.6395 18.7407 35.4644 19.6574 35.1108 20.4985C34.7572 21.3397 34.8705 22.4109 35.4541 22.8503C34.3864 22.6203 34.819 21.1543 34.819 21.1543C33.3942 23.767 29.9609 24.6665 28.955 24.6665C30.7076 24.3623 32.3172 23.5058 33.5487 22.222C34.5962 21.148 35.2548 19.7547 35.4198 18.2635Z" fill="#A98235"/>
<path fill-rule="evenodd" clip-rule="evenodd" d="M25.3642 10.2467C25.3642 11.6887 23.9909 12.7771 23.9909 12.7771C23.9909 12.7771 22.6176 11.6887 22.6176 10.2467C22.6176 10.2467 23.1566 11.7986 23.9909 12.3582C24.8149 11.7986 25.3642 10.2467 25.3642 10.2467ZM24.9213 10.0785C24.9213 10.6278 24.0081 11.8672 24.0081 11.8672H23.9875C23.9875 11.8672 23.0845 10.6278 23.0742 10.0785C23.0577 9.9818 23.0659 9.88247 23.0982 9.78981C23.1305 9.69715 23.1857 9.61419 23.2588 9.54869C23.3318 9.48318 23.4203 9.43727 23.5159 9.41525C23.6115 9.39322 23.7112 9.39581 23.8055 9.42276C23.8055 9.42276 22.724 8.69491 22.5867 9.86222C22.374 9.72682 22.1975 9.54163 22.0725 9.32269C21.9475 9.10374 21.8777 8.85763 21.8691 8.60564C21.8691 8.60564 21.5258 9.80729 22.1198 10.3223C22.1198 10.3223 20.7293 9.18586 21.2683 7.98079C21.8073 6.77571 23.0124 7.06754 23.1566 7.56537C23.1566 7.56537 23.4313 6.61435 22.1266 6.49419C22.3097 6.43108 22.5066 6.41912 22.696 6.45961C22.8854 6.50009 23.0601 6.59149 23.2014 6.72394C23.3427 6.8564 23.4451 7.0249 23.4978 7.21128C23.5504 7.39767 23.5511 7.59488 23.4999 7.78166C23.4672 7.92818 23.3822 8.05776 23.2609 8.14622C23.1396 8.23467 22.9903 8.27594 22.8408 8.26232C22.2914 8.22112 22.4528 7.64776 22.906 7.73359C22.5283 6.70361 21.1207 7.78853 22.2674 8.53011C22.3859 8.60882 22.5188 8.6633 22.6585 8.6904C22.7981 8.71751 22.9417 8.71671 23.0811 8.68804C23.9497 8.49922 24.2038 7.00574 23.4553 6.28476C23.2532 6.10198 23.0119 5.96807 22.7498 5.89338C22.4878 5.81869 22.2121 5.8052 21.944 5.85398C21.6759 5.90275 21.4226 6.01247 21.2037 6.17467C20.9847 6.33686 20.806 6.5472 20.6812 6.78944C20.9456 6.24355 21.0005 5.5878 20.4581 5.41614C20.6057 6.23326 19.4933 7.75076 20.1147 8.67431C19.9061 8.43122 19.6391 8.24511 19.3389 8.13341C19.0386 8.02172 18.7149 7.9881 18.3981 8.03572C18.3981 8.03572 18.3466 9.40903 20.2486 10.0957C20.2486 10.0957 18.2573 10.2296 17.8454 9.51889C17.4334 8.80821 17.8454 7.74733 18.6796 7.76793C18.4736 7.4761 17.787 7.35593 17.4334 8.04602C17.502 6.92334 18.6693 6.36716 19.229 7.23234C18.9921 7.08814 18.8238 7.13964 18.7517 7.26324C18.7211 7.31298 18.7037 7.36972 18.7011 7.42808C18.6985 7.48645 18.7109 7.5445 18.737 7.59675C18.7632 7.649 18.8022 7.69372 18.8504 7.72668C18.8986 7.75964 18.9545 7.77974 19.0127 7.78509C19.0727 7.79591 19.1345 7.79378 19.1936 7.77885C19.2528 7.76392 19.3082 7.73653 19.356 7.69851C19.4037 7.66049 19.4428 7.61271 19.4707 7.55837C19.4985 7.50403 19.5144 7.44438 19.5174 7.3834C19.689 6.41522 18.2333 6.15086 17.4574 6.86841C17.3363 6.96903 17.2372 7.09351 17.1664 7.23409C17.0955 7.37467 17.0543 7.52834 17.0454 7.68553C15.7476 7.59626 16.2729 9.44336 17.1587 9.67682C17.1587 9.67682 16.5922 8.56444 17.0832 7.92242C17.0832 8.15245 16.8737 9.86222 18.0651 10.0373C18.0651 10.0373 17.0351 10.154 16.4137 9.76265C16.1539 9.60844 15.864 9.51205 15.5636 9.48005C15.2632 9.44806 14.9594 9.48122 14.673 9.57726C14.7149 9.81676 14.8196 10.0408 14.9764 10.2266C15.1332 10.4124 15.3366 10.5532 15.5657 10.6347C15.3454 10.5309 15.0971 10.5021 14.859 10.553C14.6208 10.6039 14.4059 10.7315 14.2473 10.9162C13.6945 11.6029 12.747 11.5514 12.4895 11.2802C12.4895 11.2802 12.7984 12.5264 13.8628 12.3101C13.8628 12.3101 12.4208 12.8732 12.2251 14.1229C12.3322 14.1527 12.4451 14.1548 12.5532 14.1289C12.6613 14.1031 12.761 14.0502 12.8431 13.9753C12.8431 13.9753 11.5384 15.3486 12.7504 16.5674C12.7504 16.5674 12.8637 13.0414 15.3597 11.5171C14.7509 11.7784 14.0787 11.8548 13.4267 11.7368C14.13 11.7639 14.8229 11.5615 15.4009 11.16C16.3073 10.4974 16.9458 10.6896 17.1175 10.621C17.1175 10.621 15.7614 10.5386 15.2567 9.93432C16.6574 10.7102 17.811 10.2776 18.2299 10.4424C17.7904 10.4424 15.6206 11.0295 14.7382 12.7084C13.8559 14.3873 14.467 16.4095 14.467 16.4095C14.467 16.4095 13.6396 14.7134 14.2095 13.1135C14.2095 13.1135 12.6955 15.4275 13.1006 17.8617C13.1006 17.8617 13.7014 20.1552 15.2326 20.0007C16.9252 19.8324 16.321 18.1742 15.6412 18.4488C15.0953 18.672 15.5828 19.393 15.9468 19.0805C15.9708 19.2934 15.4077 19.7088 14.8584 19.3243C14.6918 19.1944 14.5547 19.0304 14.4565 18.8433C14.3582 18.6562 14.3009 18.4503 14.2885 18.2394C13.9049 18.0063 13.6255 17.6348 13.5079 17.2016C13.3904 16.7684 13.4436 16.3067 13.6568 15.9116C13.6568 15.9116 13.7151 18.3767 15.4901 18.157C15.3685 18.0609 15.2684 17.9403 15.1963 17.8031C15.1241 17.6659 15.0815 17.5151 15.0713 17.3605C15.0713 17.3605 15.8747 18.5896 17.1038 17.3021C14.6593 17.3296 14.261 14.5555 15.2464 13.0037C16.3588 11.2458 18.4565 10.645 20.4203 10.9643C20.063 10.713 19.6591 10.5356 19.2324 10.4424C20.1932 10.5667 21.1161 10.8962 21.9384 11.4086C22.7606 11.921 23.463 12.6043 23.9978 13.4122C24.5326 12.6043 25.2349 11.921 26.0572 11.4086C26.8794 10.8962 27.8023 10.5667 28.7631 10.4424C28.3364 10.5356 27.9325 10.713 27.5752 10.9643C29.5391 10.645 31.6368 11.2458 32.7492 13.0037C33.7345 14.5658 33.3362 17.3296 30.8918 17.3021C32.1209 18.5896 32.9277 17.3605 32.9277 17.3605C32.9172 17.5155 32.8742 17.6665 32.8014 17.8037C32.7287 17.941 32.6278 18.0613 32.5054 18.157C34.2804 18.3767 34.3388 15.9116 34.3388 15.9116C34.5522 16.3063 34.606 16.7677 34.4891 17.2009C34.3722 17.634 34.0935 18.0057 33.7105 18.2394C33.697 18.4505 33.6389 18.6563 33.5401 18.8433C33.4412 19.0303 33.3039 19.1942 33.1371 19.3243C32.5878 19.7088 32.0247 19.2934 32.0488 19.0805C32.4127 19.393 32.9002 18.672 32.3543 18.4488C31.6677 18.1742 31.0703 19.8221 32.7629 20.0007C34.2941 20.1552 34.895 17.8617 34.895 17.8617C35.3001 15.4275 33.786 13.1135 33.786 13.1135C34.3559 14.7134 33.5285 16.4095 33.5285 16.4095C33.5285 16.4095 34.1396 14.3873 33.2573 12.7084C32.3749 11.0295 30.2051 10.4424 29.7657 10.4424C30.1845 10.2948 31.3381 10.7102 32.7389 9.93432C32.2342 10.5557 30.878 10.621 30.878 10.621C31.0634 10.6896 31.702 10.4974 32.5947 11.16C33.1726 11.5615 33.8656 11.7639 34.5688 11.7368C33.9169 11.8548 33.2446 11.7784 32.6359 11.5171C35.1318 13.0414 35.2451 16.5674 35.2451 16.5674C36.4571 15.3554 35.1524 13.9753 35.1524 13.9753C35.2345 14.0502 35.3343 14.1031 35.4424 14.1289C35.5505 14.1548 35.6634 14.1527 35.7704 14.1229C35.5747 12.8732 34.1328 12.3101 34.1328 12.3101C35.2005 12.5264 35.5061 11.2802 35.5061 11.2802C35.2486 11.5514 34.301 11.5892 33.7482 10.9162C33.5896 10.7315 33.3747 10.6039 33.1366 10.553C32.8984 10.5021 32.6501 10.5309 32.4299 10.6347C32.6596 10.5537 32.8636 10.4131 33.0211 10.2273C33.1786 10.0415 33.2838 9.81715 33.3259 9.57726C33.039 9.48115 32.7347 9.44796 32.4337 9.47996C32.1328 9.51195 31.8422 9.60836 31.5818 9.76265C30.9673 10.154 29.9304 10.0373 29.9304 10.0373C31.1218 9.86222 30.9295 8.15245 30.9124 7.92242C31.4033 8.56444 30.8368 9.67682 30.8368 9.67682C31.7226 9.44336 32.2479 7.59626 30.9501 7.68553C30.9412 7.52834 30.9001 7.37467 30.8292 7.23409C30.7583 7.09351 30.6592 6.96903 30.5381 6.86841C29.7588 6.15086 28.3031 6.41522 28.4782 7.3834C28.4811 7.44438 28.497 7.50403 28.5249 7.55837C28.5527 7.61271 28.5918 7.66049 28.6396 7.69851C28.6873 7.73653 28.7427 7.76392 28.8019 7.77885C28.8611 7.79378 28.9228 7.79591 28.9829 7.78509C29.0393 7.77625 29.0929 7.75412 29.1391 7.72052C29.1853 7.68692 29.2228 7.64282 29.2487 7.59185C29.2745 7.54088 29.2878 7.48451 29.2876 7.42737C29.2873 7.37024 29.2735 7.31398 29.2472 7.26324C29.1717 7.13964 29.0035 7.08814 28.7666 7.23234C29.3262 6.36716 30.4832 6.92334 30.5622 8.04602C30.2188 7.35937 29.5322 7.4761 29.3159 7.76793C30.1433 7.74733 30.5725 8.79791 30.1502 9.51889C29.7279 10.2399 27.7469 10.0957 27.7469 10.0957C29.6489 9.40903 29.5974 8.03572 29.5974 8.03572C29.2806 7.9881 28.9569 8.02172 28.6567 8.13341C28.3564 8.24511 28.0894 8.43122 27.8808 8.67431C28.5022 7.75076 27.3898 6.23326 27.5375 5.41614C26.9984 5.5878 27.0499 6.24355 27.3143 6.78944C27.1895 6.5472 27.0108 6.33686 26.7919 6.17467C26.5729 6.01247 26.3196 5.90275 26.0515 5.85398C25.7835 5.8052 25.5078 5.81869 25.2457 5.89338C24.9837 5.96807 24.7423 6.10198 24.5402 6.28476C23.7918 7.00918 24.0458 8.50265 24.9144 8.68804C25.0538 8.71671 25.1974 8.71751 25.3371 8.6904C25.4767 8.6633 25.6096 8.60882 25.7281 8.53011C26.8748 7.78853 25.4706 6.69675 25.0895 7.73359C25.5427 7.64776 25.7041 8.22112 25.1548 8.26232C25.0053 8.27594 24.8559 8.23467 24.7346 8.14622C24.6133 8.05776 24.5283 7.92818 24.4956 7.78166C24.4457 7.59503 24.4473 7.39835 24.5004 7.21258C24.5534 7.02681 24.6559 6.85891 24.7968 6.72678C24.9377 6.59464 25.1119 6.50322 25.3007 6.46226C25.4895 6.4213 25.6859 6.43234 25.8689 6.49419C24.5471 6.61435 24.8389 7.56537 24.8389 7.56537C24.9831 7.06754 26.1916 6.77914 26.7272 7.98079C27.2628 9.18243 25.8758 10.3223 25.8758 10.3223C26.4594 9.79355 26.1264 8.60564 26.1264 8.60564C26.1179 8.85763 26.0481 9.10374 25.923 9.32269C25.798 9.54163 25.6215 9.72682 25.4088 9.86222C25.2715 8.69491 24.19 9.42276 24.19 9.42276C24.2838 9.39497 24.3832 9.39135 24.4788 9.41225C24.5744 9.43315 24.6631 9.47788 24.7368 9.5423C24.8104 9.60671 24.8666 9.6887 24.9001 9.78065C24.9335 9.87261 24.9432 9.97152 24.9282 10.0682L24.9213 10.0785ZM29.285 8.36188C28.6296 9.13616 27.7902 9.7335 26.8439 10.0991C28.6121 8.51982 29.285 8.36188 29.285 8.36188ZM18.7105 8.36188C18.7105 8.36188 19.3972 8.51982 21.1516 10.0991C20.2038 9.7296 19.3644 9.12744 18.7105 8.34815V8.36188Z" fill="#A98235"/>
<path fill-rule="evenodd" clip-rule="evenodd" d="M6.34005 45.8231C6.34005 45.3801 6.34005 45.026 6.34814 44.7608C6.35784 44.4503 6.44516 44.3 6.68446 44.2563C6.76333 44.2407 6.8434 44.2321 6.92377 44.2304C6.98521 44.2304 7.03857 44.2127 7.03857 44.1593C7.03857 44.1059 6.97713 44.0704 6.86232 44.0704C6.56966 44.0704 6.10074 44.0962 5.82586 44.0962C5.55098 44.0962 5.00284 44.0704 4.54201 44.0704C4.4175 44.0704 4.35606 44.0881 4.35606 44.1593C4.35606 44.2304 4.40942 44.2304 4.48865 44.2304C4.60455 44.2281 4.72041 44.2367 4.83468 44.2563C5.12573 44.3178 5.20657 44.46 5.21465 44.7608C5.22436 45.026 5.22436 45.3639 5.22436 45.8053V46.6316C5.23268 46.6955 5.22174 46.7604 5.19293 46.818C5.16412 46.8756 5.11876 46.9233 5.06266 46.955C4.82016 47.0359 4.56425 47.0688 4.30917 47.052C2.44159 47.052 1.22727 45.6259 1.22727 43.7227C1.22727 42.6329 1.55065 41.9683 2.03574 41.5528C2.65665 41.0386 3.30181 41.0046 3.79012 41.0046C4.7894 41.0046 5.49762 41.4105 5.76442 41.6951C5.94183 41.9005 6.04741 42.1583 6.06517 42.4292C6.07326 42.5003 6.09104 42.544 6.1541 42.544C6.21716 42.544 6.25112 42.5003 6.25112 42.358C6.24232 41.8721 6.26284 41.3862 6.31256 40.9028C6.31256 40.8413 6.29478 40.8057 6.18967 40.7977C5.95454 40.7787 5.72075 40.7458 5.48954 40.699C4.97144 40.6136 4.44774 40.5666 3.92271 40.5583C3.17892 40.5583 2.38985 40.6198 1.54095 41.134C0.732475 41.6191 0 42.6119 0 44.0283C0 46.4731 1.92093 47.4999 4.09088 47.4999C4.78132 47.4999 5.64962 47.4029 6.22363 47.1021C6.33035 47.0391 6.34005 47.0213 6.34005 46.7787V45.8086V45.8231ZM8.49867 45.4302C8.49867 46.077 8.49868 46.6187 8.46796 46.8968C8.4437 47.0941 8.40328 47.1895 8.26099 47.2202C8.18037 47.2383 8.09782 47.2465 8.01521 47.2444C7.92789 47.2444 7.90526 47.2832 7.90526 47.3156C7.90526 47.3479 7.95215 47.3867 8.03946 47.3867C8.31758 47.3867 8.79296 47.3625 8.95142 47.3625C9.14061 47.3625 9.61599 47.3867 10.0833 47.3867C10.1625 47.3867 10.2175 47.3625 10.2175 47.3156C10.2175 47.2687 10.1852 47.2444 10.1059 47.2444C9.98693 47.2446 9.86806 47.2365 9.7502 47.2202C9.54323 47.1878 9.49633 47.086 9.47208 46.8968C9.44136 46.6106 9.44136 46.0721 9.44136 45.4221V44.2337C9.44136 43.2118 9.44136 43.021 9.45753 42.8059C9.4737 42.5909 9.52867 42.4825 9.71785 42.4421C9.78576 42.4265 9.85516 42.4184 9.92482 42.4178C9.99597 42.4178 10.0348 42.4033 10.0348 42.3386C10.0348 42.2998 9.9798 42.2836 9.89249 42.2836C9.62246 42.2836 9.17133 42.2998 8.9967 42.2998C8.82207 42.2998 8.32405 42.2836 8.0621 42.2836C7.95053 42.2836 7.90041 42.2998 7.90041 42.3386C7.90041 42.4033 7.93921 42.4178 8.01036 42.4178C8.09611 42.4161 8.18164 42.427 8.26422 42.4502C8.4146 42.4971 8.48736 42.5763 8.50191 42.8059C8.51646 43.0355 8.50999 43.2118 8.50999 44.2337V45.4221L8.49867 45.4302ZM11.7245 45.4302C11.7245 46.0479 11.7245 46.5799 11.6938 46.8644C11.6695 47.0633 11.6291 47.1878 11.4868 47.2218C11.4062 47.24 11.3236 47.2481 11.241 47.246C11.1537 47.246 11.1311 47.2849 11.1311 47.3172C11.1311 47.3495 11.178 47.3883 11.2653 47.3883C11.5434 47.3883 11.9864 47.3641 12.1206 47.3641C12.2241 47.3641 12.803 47.3883 13.2072 47.3883C13.2945 47.3883 13.3495 47.3641 13.3495 47.3172C13.3485 47.3068 13.3454 47.2966 13.3405 47.2874C13.3356 47.2782 13.3288 47.27 13.3207 47.2634C13.3126 47.2568 13.3032 47.2518 13.2932 47.2489C13.2832 47.2459 13.2726 47.2449 13.2622 47.246C13.1481 47.2455 13.0341 47.2373 12.921 47.2218C12.7076 47.1895 12.6769 47.0601 12.6526 46.8644C12.6203 46.5799 12.6122 46.056 12.6122 45.4302V45.3348C12.6114 45.3273 12.6123 45.3196 12.6149 45.3125C12.6175 45.3053 12.6217 45.2988 12.6271 45.2936C12.6326 45.2883 12.6391 45.2843 12.6464 45.2819C12.6536 45.2795 12.6613 45.2788 12.6688 45.2798L13.2945 45.296C13.3177 45.2943 13.3409 45.2976 13.3627 45.3057C13.3845 45.3138 13.4042 45.3265 13.4207 45.3429C13.508 45.4464 13.8023 45.8975 14.0788 46.2629C14.4668 46.7852 14.7255 47.1021 15.0295 47.2525C15.2673 47.3631 15.5298 47.4099 15.7911 47.3883H16.4573C16.5446 47.3883 16.5915 47.3722 16.5915 47.3172C16.5891 47.2963 16.5786 47.2772 16.5623 47.2639C16.546 47.2506 16.5251 47.2442 16.5042 47.246C16.4498 47.2475 16.3955 47.242 16.3425 47.2299C16.2325 47.2056 15.9868 47.1733 15.5971 46.7852C15.1783 46.3648 14.6867 45.7552 14.0674 44.9953C14.7498 44.4471 15.0376 44.0041 15.0376 43.5044C15.0336 43.3228 14.9878 43.1446 14.9036 42.9836C14.8195 42.8226 14.6993 42.6833 14.5525 42.5763C14.1806 42.3305 13.6729 42.2917 13.2299 42.2917C13.0148 42.2917 12.381 42.3079 12.1433 42.3079C12.001 42.3079 11.5579 42.2917 11.1925 42.2917C11.089 42.2917 11.0308 42.3079 11.0308 42.3548C11.0308 42.4017 11.0777 42.4259 11.1505 42.4259C11.2433 42.4238 11.336 42.4319 11.427 42.4502C11.6485 42.5132 11.7132 42.5844 11.7277 42.814C11.7423 43.0436 11.7358 43.2198 11.7358 44.2418V45.4302H11.7245ZM12.6122 42.7509C12.6084 42.7297 12.613 42.7079 12.6251 42.6901C12.6372 42.6722 12.6558 42.6598 12.6769 42.6555C12.813 42.6376 12.9503 42.63 13.0876 42.6329C13.4999 42.6329 14.1499 42.8787 14.1499 43.8294C14.1499 44.384 13.9122 44.6767 13.6988 44.8271C13.5791 44.9144 13.4837 44.9387 13.2137 44.9387C13.0348 44.9422 12.8564 44.921 12.6833 44.8756C12.6348 44.8513 12.6187 44.8271 12.6187 44.7559L12.6122 42.7509Z" fill="#C89E51"/>
<path fill-rule="evenodd" clip-rule="evenodd" d="M25.0717 45.8183C25.0717 45.3752 25.0717 45.0211 25.0798 44.7543C25.0895 44.4455 25.1768 44.2951 25.4162 44.2498C25.495 44.2343 25.5751 44.2256 25.6555 44.224C25.7169 44.224 25.7703 44.2062 25.7703 44.1528C25.7703 44.0995 25.7088 44.0639 25.594 44.0639C25.3013 44.0639 24.8324 44.0914 24.5575 44.0914C24.2827 44.0914 23.7345 44.0639 23.2737 44.0639C23.1492 44.0639 23.0877 44.0817 23.0877 44.1528C23.0877 44.224 23.1411 44.224 23.2203 44.224C23.3362 44.2216 23.4521 44.2303 23.5664 44.2498C23.8574 44.3113 23.9383 44.4536 23.9463 44.7543C23.956 45.0211 23.956 45.3574 23.956 45.8005V46.6316C23.9644 46.6955 23.9534 46.7604 23.9246 46.818C23.8958 46.8756 23.8504 46.9233 23.7944 46.955C23.5519 47.0359 23.2959 47.0688 23.0409 47.052C21.1733 47.052 19.959 45.6259 19.959 43.7227C19.959 42.6329 20.2823 41.9699 20.7674 41.5528C21.3883 41.0402 22.0335 41.0046 22.5218 41.0046C23.5211 41.0046 24.2293 41.4121 24.4961 41.6951C24.6736 41.9011 24.7792 42.1594 24.7969 42.4308C24.8049 42.5003 24.8227 42.5456 24.8858 42.5456C24.9489 42.5456 24.9828 42.5003 24.9828 42.3596C24.9738 41.8737 24.9944 41.3878 25.0443 40.9044C25.0443 40.8413 25.0265 40.8057 24.9214 40.7977C24.6863 40.7793 24.4525 40.7469 24.2212 40.7006C23.7032 40.6145 23.1795 40.5669 22.6544 40.5583C21.9106 40.5583 21.1215 40.6198 20.2726 41.134C19.4642 41.6191 18.7317 42.6135 18.7317 44.0299C18.7317 46.4731 20.6526 47.4999 22.8226 47.4999C23.513 47.4999 24.3813 47.4029 24.9553 47.1021C25.062 47.0407 25.0717 47.0229 25.0717 46.7787V45.8183Z" fill="#C89E51"/>
<path fill-rule="evenodd" clip-rule="evenodd" d="M27.363 44.3209C27.363 43.299 27.363 43.1082 27.3791 42.8947C27.3953 42.6571 27.4503 42.5617 27.6411 42.5293C27.7297 42.5138 27.8195 42.5062 27.9095 42.5067C27.9968 42.5067 28.0372 42.4824 28.0372 42.4339C28.0372 42.3854 27.9887 42.3708 27.8868 42.3708C27.6168 42.3708 27.046 42.387 26.8795 42.387C26.7129 42.387 26.2456 42.3708 25.9206 42.3708C25.8172 42.3708 25.7703 42.387 25.7703 42.4339C25.7703 42.4808 25.8091 42.5067 25.8899 42.5067C25.9671 42.5047 26.0442 42.5123 26.1195 42.5293C26.341 42.5924 26.4041 42.6651 26.4203 42.8947C26.4364 43.1243 26.4284 43.299 26.4284 44.3209V45.5174C26.4284 46.1367 26.4284 46.6671 26.396 46.9533C26.3718 47.1505 26.333 47.2767 26.1907 47.309C26.1101 47.3272 26.0275 47.3353 25.9449 47.3333C25.8576 47.3333 25.8333 47.3721 25.8333 47.4044C25.8333 47.4368 25.8818 47.4756 25.9691 47.4756C26.1114 47.4756 26.2925 47.4675 26.4542 47.4594C26.6159 47.4513 26.7776 47.4594 26.8504 47.4594C27.135 47.4594 27.4276 47.4594 27.7769 47.4756C28.1262 47.4917 28.5304 47.4998 29.03 47.4998C29.3938 47.4998 29.4262 47.4675 29.4731 47.3171C29.5271 47.0614 29.5617 46.8019 29.5766 46.541C29.5766 46.4617 29.5604 46.3906 29.5135 46.3906C29.4666 46.3906 29.4407 46.4294 29.4343 46.4925C29.4146 46.6408 29.3541 46.7807 29.2596 46.8967C29.085 47.0794 28.815 47.0875 28.4431 47.0875C27.9046 47.0875 27.6346 47.0471 27.5149 46.9452C27.3646 46.8175 27.3646 46.3906 27.3646 45.5255L27.363 44.3209Z" fill="#C89E51"/>
<path fill-rule="evenodd" clip-rule="evenodd" d="M33.0981 45.8037C33.1138 45.8019 33.1296 45.8059 33.1426 45.8148C33.1557 45.8237 33.1651 45.8369 33.1693 45.8522L33.7077 47.2072C33.7151 47.2209 33.7193 47.2362 33.72 47.2518C33.7207 47.2674 33.718 47.2829 33.7119 47.2973C33.7059 47.3117 33.6967 47.3246 33.6851 47.335C33.6735 47.3454 33.6596 47.3531 33.6447 47.3575C33.5735 47.3656 33.5573 47.3883 33.5573 47.4287C33.5573 47.4691 33.6366 47.4756 33.7643 47.4837C34.3496 47.4998 34.8574 47.4998 35.1031 47.4998C35.3489 47.4998 35.4039 47.4837 35.4039 47.4287C35.4039 47.3737 35.3732 47.3575 35.3085 47.3575C35.2212 47.3565 35.1341 47.3484 35.0482 47.3333C34.9204 47.3009 34.7248 47.2152 34.4531 46.6089C34.0101 45.5902 32.8443 42.8317 32.6745 42.4598C32.6033 42.3078 32.571 42.2448 32.4691 42.2448C32.3964 42.2448 32.3414 42.324 32.2622 42.5148L30.4399 46.7544C30.2976 47.0956 30.1779 47.3009 29.861 47.3495C29.7979 47.3495 29.7187 47.3575 29.6556 47.3575C29.5926 47.3575 29.5764 47.3883 29.5764 47.4287C29.5764 47.4691 29.6152 47.4998 29.7025 47.4998C30.0664 47.4998 30.4399 47.4756 30.511 47.4756C30.7325 47.4756 31.0575 47.4998 31.2871 47.4998C31.3583 47.4998 31.3987 47.4837 31.3987 47.4287C31.3987 47.3737 31.3825 47.3575 31.2952 47.3575H31.1917C30.9783 47.3575 30.9152 47.2864 30.9152 47.1667C30.9248 47.0242 30.9598 46.8845 31.0187 46.7544L31.3906 45.8522C31.4068 45.8117 31.4149 45.8037 31.4537 45.8037H33.0981ZM31.5992 45.4318C31.5766 45.4318 31.5604 45.4156 31.5766 45.3832L32.2492 43.679C32.2573 43.6563 32.2654 43.6159 32.2897 43.6159C32.3139 43.6159 32.3139 43.6563 32.3204 43.679L32.9785 45.3881C32.9785 45.4124 32.9785 45.4285 32.9478 45.4285L31.5992 45.4318Z" fill="#C89E51"/>
<path fill-rule="evenodd" clip-rule="evenodd" d="M36.1169 45.4789C36.1169 46.0981 36.1169 46.6285 36.0845 46.9147C36.0603 47.112 36.0215 47.2381 35.8792 47.2704C35.7985 47.2884 35.716 47.2966 35.6334 47.2947C35.5461 47.2947 35.5218 47.3335 35.5218 47.3658C35.5218 47.3982 35.5687 47.437 35.6561 47.437C35.8 47.437 35.9794 47.4289 36.1411 47.4208C36.3028 47.4127 36.4645 47.4208 36.5373 47.4208C36.7119 47.4208 36.9658 47.437 37.2439 47.4612C37.522 47.4855 37.8228 47.5 38.075 47.5C39.3589 47.5 40.0962 47.0247 40.4131 46.7077C40.6588 46.4611 40.8528 46.1678 40.9836 45.8452C41.1143 45.5225 41.1793 45.177 41.1747 44.8288C41.1864 44.511 41.1335 44.1941 41.0193 43.8973C40.9051 43.6005 40.7319 43.3299 40.5101 43.1019C39.7502 42.3323 38.5698 42.3323 37.7047 42.3323C37.2843 42.3323 36.7847 42.3484 36.5729 42.3484C36.361 42.3484 35.9261 42.3323 35.5655 42.3323C35.4636 42.3323 35.4038 42.3484 35.4038 42.3953C35.4038 42.4422 35.4523 42.4681 35.5235 42.4681C35.6162 42.4655 35.7089 42.473 35.8 42.4907C36.0231 42.5538 36.0862 42.6266 36.1023 42.8562C36.1185 43.0858 36.1104 43.2604 36.1104 44.2823V45.4789H36.1169ZM37.0515 44.1853C37.0515 43.6549 37.0515 43.1003 37.0596 42.8707C37.0545 42.8413 37.0607 42.811 37.0769 42.7859C37.093 42.7607 37.118 42.7425 37.1469 42.7349C37.2867 42.6989 37.431 42.6831 37.5754 42.688C38.1219 42.688 38.8819 42.7592 39.5157 43.3348C39.8262 43.6048 40.1625 44.1594 40.1625 45.0148C40.1625 45.7133 40.0202 46.3084 39.5691 46.6867C39.1487 47.036 38.6814 47.1475 38.0475 47.1475C37.4994 47.1475 37.2229 47.0036 37.1356 46.8775C37.0783 46.7258 37.0514 46.5643 37.0563 46.4021C37.0563 46.2679 37.0402 45.7554 37.0402 45.039L37.0515 44.1853Z" fill="#C89E51"/>
<path fill-rule="evenodd" clip-rule="evenodd" d="M41.8847 45.5176C41.8847 46.1369 41.8847 46.6672 41.8524 46.9534C41.8281 47.1507 41.7893 47.2768 41.6454 47.3092C41.5653 47.3273 41.4833 47.3354 41.4013 47.3334C41.314 47.3334 41.2897 47.3722 41.2897 47.4046C41.2897 47.4369 41.3366 47.4757 41.4239 47.4757C41.5662 47.4757 41.7473 47.4676 41.909 47.4596C42.0707 47.4515 42.2324 47.4596 42.3051 47.4596C42.5121 47.4596 42.7741 47.4595 43.1136 47.4757C43.4532 47.4919 43.8752 47.5 44.3975 47.5C44.6594 47.5 44.7209 47.5 44.771 47.3253C44.8228 47.0799 44.8548 46.8306 44.8664 46.5799C44.8664 46.5088 44.8583 46.4182 44.8017 46.4182C44.7451 46.4182 44.7386 46.4506 44.7225 46.5217C44.6756 46.7982 44.5964 46.9421 44.4217 47.0214C44.2093 47.0892 43.9864 47.1187 43.7636 47.1087C43.0506 47.1087 42.8371 47.0052 42.821 46.546C42.8129 46.3471 42.821 45.7763 42.821 45.5467V45.0083C42.821 44.9678 42.821 44.9371 42.8598 44.9371C43.0344 44.9371 43.8299 44.9517 43.9544 44.9678C44.2164 44.9921 44.3037 45.0956 44.3425 45.2298C44.3587 45.3171 44.3587 45.4044 44.3668 45.4756C44.3668 45.5063 44.3829 45.5305 44.4298 45.5305C44.4767 45.5305 44.501 45.4351 44.501 45.3802C44.501 45.3252 44.5171 45.0568 44.5333 44.929C44.5721 44.5879 44.5883 44.4763 44.5883 44.4439C44.5883 44.4116 44.564 44.3728 44.5333 44.3728C44.5026 44.3728 44.4767 44.4116 44.4217 44.4601C44.3668 44.5086 44.26 44.5474 44.0886 44.562C43.9172 44.5765 43.0263 44.5782 42.8678 44.5782C42.829 44.5782 42.821 44.5474 42.821 44.507V42.8238C42.821 42.7833 42.8371 42.7591 42.8678 42.7591C43.0117 42.7591 43.838 42.7753 43.9625 42.7914C44.3118 42.8238 44.3668 42.9175 44.4217 43.0372C44.4543 43.115 44.4708 43.1986 44.4702 43.283C44.4702 43.338 44.4702 43.3703 44.5252 43.3703C44.5802 43.3703 44.5964 43.2911 44.6044 43.2587C44.6206 43.1795 44.6352 42.8868 44.6432 42.8157C44.6513 42.669 44.6702 42.523 44.6998 42.3791C44.6998 42.3484 44.6998 42.316 44.6513 42.316C44.614 42.3242 44.5772 42.335 44.5414 42.3484C44.4848 42.3484 44.3797 42.3791 44.2471 42.3872C44.1145 42.3953 42.5671 42.3872 42.3456 42.3872C42.124 42.3872 41.6988 42.371 41.3382 42.371C41.2363 42.371 41.1765 42.3872 41.1765 42.4341C41.1765 42.481 41.225 42.5068 41.2962 42.5068C41.3889 42.5042 41.4816 42.5118 41.5727 42.5295C41.7958 42.5925 41.8589 42.6653 41.875 42.8949C41.8912 43.1245 41.8831 43.2991 41.8831 44.3211L41.8847 45.5176Z" fill="#C89E51"/>
<path fill-rule="evenodd" clip-rule="evenodd" d="M46.1374 47.4967C46.5093 47.4967 46.9701 47.4579 47.3016 47.2186C47.8093 46.8628 48.0001 46.4586 48.0001 45.959C48.0001 45.3494 47.7139 44.8271 46.7955 44.3258L46.5093 44.1642C45.8835 43.8165 45.7719 43.5772 45.7719 43.2764C45.7719 42.8172 46.2247 42.5553 46.7243 42.5553C46.8699 42.5452 47.0159 42.5692 47.1506 42.6253C47.2853 42.6814 47.4051 42.7682 47.5005 42.8787C47.6074 43.0035 47.6714 43.1594 47.6832 43.3233C47.6832 43.4026 47.7058 43.4414 47.7543 43.4414C47.8028 43.4414 47.8416 43.3702 47.8416 43.2279C47.8416 42.6976 47.8659 42.5068 47.8659 42.4195C47.8659 42.3726 47.8336 42.3483 47.7705 42.3321C47.4457 42.2555 47.113 42.218 46.7793 42.2206C45.8091 42.2206 45.0201 42.7526 45.0201 43.5772C45.0201 44.1706 45.2885 44.6234 46.1131 45.1068L46.5174 45.3445C47.1366 45.7083 47.2078 46.0026 47.2078 46.2953C47.2078 46.7707 46.8424 47.1507 46.2376 47.1507C45.801 47.1507 45.2788 46.989 45.1268 46.4861C45.0898 46.3731 45.0686 46.2556 45.0637 46.1368C45.0637 46.0883 45.0556 46.0253 44.9926 46.0253C44.9295 46.0253 44.9053 46.0964 44.9053 46.1999C44.9053 46.3034 44.8665 46.7302 44.8665 47.0957C44.8665 47.2461 44.8891 47.2784 45.0007 47.3253C45.3646 47.4566 45.7509 47.5148 46.1374 47.4967Z" fill="#C89E51"/>
<path fill-rule="evenodd" clip-rule="evenodd" d="M6.34005 45.794C6.34005 45.3509 6.34005 44.9968 6.34814 44.7316C6.35784 44.4212 6.44516 44.2708 6.68446 44.2271C6.76333 44.2115 6.8434 44.2029 6.92377 44.2013C6.98521 44.2013 7.03857 44.1835 7.03857 44.1301C7.03857 44.0768 6.97713 44.0412 6.86232 44.0412C6.56966 44.0412 6.10074 44.0671 5.82586 44.0671C5.55098 44.0671 5.00284 44.0412 4.54201 44.0412C4.4175 44.0412 4.35606 44.059 4.35606 44.1301C4.35606 44.2013 4.40942 44.2013 4.48865 44.2013C4.60455 44.1989 4.72041 44.2076 4.83468 44.2271C5.12573 44.2886 5.20657 44.4309 5.21465 44.7316C5.22436 44.9968 5.22436 45.3347 5.22436 45.7762V46.6024C5.23268 46.6663 5.22174 46.7312 5.19293 46.7888C5.16412 46.8464 5.11876 46.8942 5.06266 46.9258C4.82016 47.0067 4.56425 47.0397 4.30917 47.0228C2.44159 47.0228 1.22727 45.5967 1.22727 43.6935C1.22727 42.6037 1.55065 41.9392 2.03574 41.5236C2.65665 41.0094 3.30181 40.9755 3.79012 40.9755C4.7894 40.9755 5.49762 41.3813 5.76442 41.6659C5.94183 41.8714 6.04741 42.1291 6.06517 42.4C6.07326 42.4711 6.09104 42.5148 6.1541 42.5148C6.21716 42.5148 6.25112 42.4711 6.25112 42.3288C6.24232 41.843 6.26284 41.357 6.31256 40.8736C6.31256 40.8121 6.29478 40.7766 6.18967 40.7685C5.95454 40.7495 5.72075 40.7166 5.48954 40.6698C4.97144 40.5845 4.44774 40.5375 3.92271 40.5292C3.17892 40.5292 2.38985 40.5906 1.54095 41.1048C0.732475 41.5899 0 42.5827 0 43.9991C0 46.444 1.92093 47.4707 4.09088 47.4707C4.78132 47.4707 5.64962 47.3737 6.22363 47.073C6.33035 47.0099 6.34005 46.9921 6.34005 46.7496V45.7794V45.794ZM8.49867 45.401C8.49867 46.0478 8.49868 46.5895 8.46796 46.8676C8.4437 47.0649 8.40328 47.1603 8.26099 47.191C8.18037 47.2092 8.09782 47.2173 8.01521 47.2153C7.92789 47.2153 7.90526 47.2541 7.90526 47.2864C7.90526 47.3187 7.95215 47.3575 8.03946 47.3575C8.31758 47.3575 8.79296 47.3333 8.95142 47.3333C9.14061 47.3333 9.61599 47.3575 10.0833 47.3575C10.1625 47.3575 10.2175 47.3333 10.2175 47.2864C10.2175 47.2395 10.1852 47.2153 10.1059 47.2153C9.98693 47.2154 9.86806 47.2073 9.7502 47.191C9.54323 47.1587 9.49633 47.0568 9.47208 46.8676C9.44136 46.5814 9.44136 46.043 9.44136 45.393V44.2045C9.44136 43.1826 9.44136 42.9918 9.45753 42.7767C9.4737 42.5617 9.52867 42.4533 9.71785 42.4129C9.78576 42.3973 9.85516 42.3892 9.92482 42.3887C9.99597 42.3887 10.0348 42.3741 10.0348 42.3094C10.0348 42.2706 9.9798 42.2545 9.89249 42.2545C9.62246 42.2545 9.17133 42.2706 8.9967 42.2706C8.82207 42.2706 8.32405 42.2545 8.0621 42.2545C7.95053 42.2545 7.90041 42.2706 7.90041 42.3094C7.90041 42.3741 7.93921 42.3887 8.01036 42.3887C8.09611 42.3869 8.18164 42.3978 8.26422 42.421C8.4146 42.4679 8.48736 42.5471 8.50191 42.7767C8.51646 43.0063 8.50999 43.1826 8.50999 44.2045V45.393L8.49867 45.401ZM11.7245 45.401C11.7245 46.0187 11.7245 46.5507 11.6938 46.8353C11.6695 47.0342 11.6291 47.1587 11.4868 47.1926C11.4062 47.2108 11.3236 47.2189 11.241 47.2169C11.1537 47.2169 11.1311 47.2557 11.1311 47.288C11.1311 47.3204 11.178 47.3592 11.2653 47.3592C11.5434 47.3592 11.9864 47.3349 12.1206 47.3349C12.2241 47.3349 12.803 47.3592 13.2072 47.3592C13.2945 47.3592 13.3495 47.3349 13.3495 47.288C13.3485 47.2776 13.3454 47.2675 13.3405 47.2582C13.3356 47.249 13.3288 47.2408 13.3207 47.2342C13.3126 47.2276 13.3032 47.2227 13.2932 47.2197C13.2832 47.2167 13.2726 47.2158 13.2622 47.2169C13.1481 47.2163 13.0341 47.2082 12.921 47.1926C12.7076 47.1603 12.6769 47.0309 12.6526 46.8353C12.6203 46.5507 12.6122 46.0268 12.6122 45.401V45.3056C12.6114 45.2981 12.6123 45.2904 12.6149 45.2833C12.6175 45.2761 12.6217 45.2697 12.6271 45.2644C12.6326 45.2591 12.6391 45.2551 12.6464 45.2527C12.6536 45.2503 12.6613 45.2496 12.6688 45.2507L13.2945 45.2668C13.3177 45.2651 13.3409 45.2684 13.3627 45.2765C13.3845 45.2846 13.4042 45.2973 13.4207 45.3137C13.508 45.4172 13.8023 45.8683 14.0788 46.2338C14.4668 46.756 14.7255 47.073 15.0295 47.2233C15.2673 47.3339 15.5298 47.3807 15.7911 47.3592H16.4573C16.5446 47.3592 16.5915 47.343 16.5915 47.288C16.5891 47.2671 16.5786 47.248 16.5623 47.2347C16.546 47.2215 16.5251 47.215 16.5042 47.2169C16.4498 47.2183 16.3955 47.2129 16.3425 47.2007C16.2325 47.1764 15.9868 47.1441 15.5971 46.756C15.1783 46.3356 14.6867 45.726 14.0674 44.9661C14.7498 44.4179 15.0376 43.9749 15.0376 43.4753C15.0336 43.2937 14.9878 43.1154 14.9036 42.9544C14.8195 42.7935 14.6993 42.6541 14.5525 42.5471C14.1806 42.3013 13.6729 42.2625 13.2299 42.2625C13.0148 42.2625 12.381 42.2787 12.1433 42.2787C12.001 42.2787 11.5579 42.2625 11.1925 42.2625C11.089 42.2625 11.0308 42.2787 11.0308 42.3256C11.0308 42.3725 11.0777 42.3968 11.1505 42.3968C11.2433 42.3946 11.336 42.4027 11.427 42.421C11.6485 42.4841 11.7132 42.5552 11.7277 42.7848C11.7423 43.0144 11.7358 43.1907 11.7358 44.2126V45.401H11.7245ZM12.6122 42.7218C12.6084 42.7006 12.613 42.6787 12.6251 42.6609C12.6372 42.6431 12.6558 42.6307 12.6769 42.6264C12.813 42.6084 12.9503 42.6008 13.0876 42.6037C13.4999 42.6037 14.1499 42.8495 14.1499 43.8003C14.1499 44.3549 13.9122 44.6475 13.6988 44.7979C13.5791 44.8852 13.4837 44.9095 13.2137 44.9095C13.0348 44.913 12.8564 44.8918 12.6833 44.8464C12.6348 44.8222 12.6187 44.7979 12.6187 44.7268L12.6122 42.7218Z" fill="#C89E51"/>
<path fill-rule="evenodd" clip-rule="evenodd" d="M25.0717 45.7891C25.0717 45.3461 25.0717 44.9919 25.0798 44.7252C25.0895 44.4163 25.1768 44.2659 25.4162 44.2207C25.495 44.2051 25.5751 44.1964 25.6555 44.1948C25.7169 44.1948 25.7703 44.177 25.7703 44.1236C25.7703 44.0703 25.7088 44.0347 25.594 44.0347C25.3013 44.0347 24.8324 44.0622 24.5575 44.0622C24.2827 44.0622 23.7345 44.0347 23.2737 44.0347C23.1492 44.0347 23.0877 44.0525 23.0877 44.1236C23.0877 44.1948 23.1411 44.1948 23.2203 44.1948C23.3362 44.1924 23.4521 44.2011 23.5664 44.2207C23.8574 44.2821 23.9383 44.4244 23.9463 44.7252C23.956 44.9919 23.956 45.3283 23.956 45.7713V46.6024C23.9644 46.6663 23.9534 46.7312 23.9246 46.7888C23.8958 46.8465 23.8504 46.8942 23.7944 46.9258C23.5519 47.0067 23.2959 47.0397 23.0409 47.0228C21.1733 47.0228 19.959 45.5967 19.959 43.6935C19.959 42.6037 20.2823 41.9408 20.7674 41.5236C21.3883 41.011 22.0335 40.9755 22.5218 40.9755C23.5211 40.9755 24.2293 41.3829 24.4961 41.6659C24.6736 41.8719 24.7792 42.1302 24.7969 42.4016C24.8049 42.4711 24.8227 42.5164 24.8858 42.5164C24.9489 42.5164 24.9828 42.4711 24.9828 42.3305C24.9738 41.8446 24.9944 41.3586 25.0443 40.8752C25.0443 40.8121 25.0265 40.7766 24.9214 40.7685C24.6863 40.7501 24.4525 40.7177 24.2212 40.6715C23.7032 40.5853 23.1795 40.5378 22.6544 40.5292C21.9106 40.5292 21.1215 40.5906 20.2726 41.1048C19.4642 41.5899 18.7317 42.5843 18.7317 44.0008C18.7317 46.444 20.6526 47.4707 22.8226 47.4707C23.513 47.4707 24.3813 47.3737 24.9553 47.073C25.062 47.0115 25.0717 46.9937 25.0717 46.7496V45.7891Z" fill="#C89E51"/>
<path fill-rule="evenodd" clip-rule="evenodd" d="M27.363 44.2917C27.363 43.2698 27.363 43.079 27.3791 42.8656C27.3953 42.6279 27.4503 42.5325 27.6411 42.5001C27.7297 42.4846 27.8195 42.477 27.9095 42.4775C27.9968 42.4775 28.0372 42.4532 28.0372 42.4047C28.0372 42.3562 27.9887 42.3417 27.8868 42.3417C27.6168 42.3417 27.046 42.3578 26.8795 42.3578C26.7129 42.3578 26.2456 42.3417 25.9206 42.3417C25.8172 42.3417 25.7703 42.3578 25.7703 42.4047C25.7703 42.4516 25.8091 42.4775 25.8899 42.4775C25.9671 42.4755 26.0442 42.4831 26.1195 42.5001C26.341 42.5632 26.4041 42.636 26.4203 42.8656C26.4364 43.0952 26.4284 43.2698 26.4284 44.2917V45.4883C26.4284 46.1075 26.4284 46.6379 26.396 46.9241C26.3718 47.1214 26.333 47.2475 26.1907 47.2798C26.1101 47.298 26.0275 47.3061 25.9449 47.3041C25.8576 47.3041 25.8333 47.3429 25.8333 47.3752C25.8333 47.4076 25.8818 47.4464 25.9691 47.4464C26.1114 47.4464 26.2925 47.4383 26.4542 47.4302C26.6159 47.4221 26.7776 47.4302 26.8504 47.4302C27.135 47.4302 27.4276 47.4302 27.7769 47.4464C28.1262 47.4625 28.5304 47.4706 29.03 47.4706C29.3938 47.4706 29.4262 47.4383 29.4731 47.2879C29.5271 47.0322 29.5617 46.7727 29.5766 46.5118C29.5766 46.4326 29.5604 46.3614 29.5135 46.3614C29.4666 46.3614 29.4407 46.4002 29.4343 46.4633C29.4146 46.6116 29.3541 46.7515 29.2596 46.8675C29.085 47.0502 28.815 47.0583 28.4431 47.0583C27.9046 47.0583 27.6346 47.0179 27.5149 46.916C27.3646 46.7883 27.3646 46.3614 27.3646 45.4963L27.363 44.2917Z" fill="#C89E51"/>
<path fill-rule="evenodd" clip-rule="evenodd" d="M33.0981 45.7745C33.1138 45.7728 33.1296 45.7767 33.1426 45.7856C33.1557 45.7945 33.1651 45.8078 33.1693 45.823L33.7077 47.178C33.7151 47.1918 33.7193 47.207 33.72 47.2226C33.7207 47.2382 33.718 47.2538 33.7119 47.2682C33.7059 47.2826 33.6967 47.2955 33.6851 47.3059C33.6735 47.3163 33.6596 47.324 33.6447 47.3284C33.5735 47.3364 33.5573 47.3591 33.5573 47.3995C33.5573 47.4399 33.6366 47.4464 33.7643 47.4545C34.3496 47.4707 34.8574 47.4707 35.1031 47.4707C35.3489 47.4707 35.4039 47.4545 35.4039 47.3995C35.4039 47.3445 35.3732 47.3284 35.3085 47.3284C35.2212 47.3273 35.1341 47.3192 35.0482 47.3041C34.9204 47.2718 34.7248 47.1861 34.4531 46.5797C34.0101 45.561 32.8443 42.8025 32.6745 42.4306C32.6033 42.2786 32.571 42.2156 32.4691 42.2156C32.3964 42.2156 32.3414 42.2948 32.2622 42.4856L30.4399 46.7252C30.2976 47.0664 30.1779 47.2718 29.861 47.3203C29.7979 47.3203 29.7187 47.3284 29.6556 47.3284C29.5926 47.3284 29.5764 47.3591 29.5764 47.3995C29.5764 47.4399 29.6152 47.4707 29.7025 47.4707C30.0664 47.4707 30.4399 47.4464 30.511 47.4464C30.7325 47.4464 31.0575 47.4707 31.2871 47.4707C31.3583 47.4707 31.3987 47.4545 31.3987 47.3995C31.3987 47.3445 31.3825 47.3284 31.2952 47.3284H31.1917C30.9783 47.3284 30.9152 47.2572 30.9152 47.1376C30.9248 46.995 30.9598 46.8554 31.0187 46.7252L31.3906 45.823C31.4068 45.7826 31.4149 45.7745 31.4537 45.7745H33.0981ZM31.5992 45.4026C31.5766 45.4026 31.5604 45.3864 31.5766 45.3541L32.2492 43.6498C32.2573 43.6272 32.2654 43.5867 32.2897 43.5867C32.3139 43.5867 32.3139 43.6272 32.3204 43.6498L32.9785 45.3589C32.9785 45.3832 32.9785 45.3993 32.9478 45.3993L31.5992 45.4026Z" fill="#C89E51"/>
<path fill-rule="evenodd" clip-rule="evenodd" d="M36.1169 45.4497C36.1169 46.069 36.1169 46.5993 36.0845 46.8855C36.0603 47.0828 36.0215 47.2089 35.8792 47.2413C35.7985 47.2592 35.716 47.2674 35.6334 47.2655C35.5461 47.2655 35.5218 47.3043 35.5218 47.3367C35.5218 47.369 35.5687 47.4078 35.6561 47.4078C35.8 47.4078 35.9794 47.3997 36.1411 47.3916C36.3028 47.3836 36.4645 47.3916 36.5373 47.3916C36.7119 47.3916 36.9658 47.4078 37.2439 47.4321C37.522 47.4563 37.8228 47.4709 38.075 47.4709C39.3589 47.4709 40.0962 46.9955 40.4131 46.6786C40.6588 46.4319 40.8528 46.1386 40.9836 45.816C41.1143 45.4933 41.1793 45.1478 41.1747 44.7997C41.1864 44.4818 41.1335 44.165 41.0193 43.8681C40.9051 43.5713 40.7319 43.3008 40.5101 43.0728C39.7502 42.3031 38.5698 42.3031 37.7047 42.3031C37.2843 42.3031 36.7847 42.3193 36.5729 42.3193C36.361 42.3193 35.9261 42.3031 35.5655 42.3031C35.4636 42.3031 35.4038 42.3193 35.4038 42.3662C35.4038 42.4131 35.4523 42.4389 35.5235 42.4389C35.6162 42.4363 35.7089 42.4439 35.8 42.4616C36.0231 42.5246 36.0862 42.5974 36.1023 42.827C36.1185 43.0566 36.1104 43.2312 36.1104 44.2531V45.4497H36.1169ZM37.0515 44.1561C37.0515 43.6258 37.0515 43.0712 37.0596 42.8415C37.0545 42.8121 37.0607 42.7818 37.0769 42.7567C37.093 42.7316 37.118 42.7134 37.1469 42.7057C37.2867 42.6697 37.431 42.6539 37.5754 42.6588C38.1219 42.6588 38.8819 42.73 39.5157 43.3056C39.8262 43.5756 40.1625 44.1303 40.1625 44.9856C40.1625 45.6841 40.0202 46.2792 39.5691 46.6575C39.1487 47.0068 38.6814 47.1184 38.0475 47.1184C37.4994 47.1184 37.2229 46.9745 37.1356 46.8483C37.0783 46.6966 37.0514 46.5351 37.0563 46.373C37.0563 46.2388 37.0402 45.7262 37.0402 45.0099L37.0515 44.1561Z" fill="#C89E51"/>
<path fill-rule="evenodd" clip-rule="evenodd" d="M41.8847 45.4884C41.8847 46.1077 41.8847 46.6381 41.8524 46.9243C41.8281 47.1215 41.7893 47.2477 41.6454 47.28C41.5653 47.2981 41.4833 47.3062 41.4013 47.3043C41.314 47.3043 41.2897 47.3431 41.2897 47.3754C41.2897 47.4077 41.3366 47.4465 41.4239 47.4465C41.5662 47.4465 41.7473 47.4385 41.909 47.4304C42.0707 47.4223 42.2324 47.4304 42.3051 47.4304C42.5121 47.4304 42.7741 47.4304 43.1136 47.4465C43.4532 47.4627 43.8752 47.4708 44.3975 47.4708C44.6594 47.4708 44.7209 47.4708 44.771 47.2962C44.8228 47.0507 44.8548 46.8014 44.8664 46.5508C44.8664 46.4796 44.8583 46.3891 44.8017 46.3891C44.7451 46.3891 44.7386 46.4214 44.7225 46.4925C44.6756 46.769 44.5964 46.913 44.4217 46.9922C44.2093 47.06 43.9864 47.0895 43.7636 47.0795C43.0506 47.0795 42.8371 46.976 42.821 46.5168C42.8129 46.3179 42.821 45.7471 42.821 45.5175V44.9791C42.821 44.9387 42.821 44.9079 42.8598 44.9079C43.0344 44.9079 43.8299 44.9225 43.9544 44.9387C44.2164 44.9629 44.3037 45.0664 44.3425 45.2006C44.3587 45.2879 44.3587 45.3752 44.3668 45.4464C44.3668 45.4771 44.3829 45.5014 44.4298 45.5014C44.4767 45.5014 44.501 45.406 44.501 45.351C44.501 45.296 44.5171 45.0276 44.5333 44.8999C44.5721 44.5587 44.5883 44.4471 44.5883 44.4148C44.5883 44.3824 44.564 44.3436 44.5333 44.3436C44.5026 44.3436 44.4767 44.3824 44.4217 44.4309C44.3668 44.4794 44.26 44.5183 44.0886 44.5328C43.9172 44.5474 43.0263 44.549 42.8678 44.549C42.829 44.549 42.821 44.5183 42.821 44.4778V42.7946C42.821 42.7542 42.8371 42.7299 42.8678 42.7299C43.0117 42.7299 43.838 42.7461 43.9625 42.7622C44.3118 42.7946 44.3668 42.8884 44.4217 43.008C44.4543 43.0858 44.4708 43.1694 44.4702 43.2538C44.4702 43.3088 44.4702 43.3411 44.5252 43.3411C44.5802 43.3411 44.5964 43.2619 44.6044 43.2295C44.6206 43.1503 44.6352 42.8576 44.6432 42.7865C44.6513 42.6398 44.6702 42.4939 44.6998 42.3499C44.6998 42.3192 44.6998 42.2869 44.6513 42.2869C44.614 42.295 44.5772 42.3058 44.5414 42.3192C44.4848 42.3192 44.3797 42.3499 44.2471 42.358C44.1145 42.3661 42.5671 42.358 42.3456 42.358C42.124 42.358 41.6988 42.3418 41.3382 42.3418C41.2363 42.3418 41.1765 42.358 41.1765 42.4049C41.1765 42.4518 41.225 42.4777 41.2962 42.4777C41.3889 42.475 41.4816 42.4826 41.5727 42.5003C41.7958 42.5634 41.8589 42.6361 41.875 42.8657C41.8912 43.0953 41.8831 43.27 41.8831 44.2919L41.8847 45.4884Z" fill="#C89E51"/>
<path fill-rule="evenodd" clip-rule="evenodd" d="M46.1374 47.4675C46.5093 47.4675 46.9701 47.4287 47.3016 47.1894C47.8093 46.8337 48.0001 46.4294 48.0001 45.9298C48.0001 45.3202 47.7139 44.7979 46.7955 44.2967L46.5093 44.135C45.8835 43.7873 45.7719 43.548 45.7719 43.2473C45.7719 42.7881 46.2247 42.5261 46.7243 42.5261C46.8699 42.516 47.0159 42.54 47.1506 42.5961C47.2853 42.6523 47.4051 42.739 47.5005 42.8495C47.6074 42.9744 47.6714 43.1302 47.6832 43.2942C47.6832 43.3734 47.7058 43.4122 47.7543 43.4122C47.8028 43.4122 47.8416 43.3411 47.8416 43.1988C47.8416 42.6684 47.8659 42.4776 47.8659 42.3903C47.8659 42.3434 47.8336 42.3191 47.7705 42.303C47.4457 42.2263 47.113 42.1889 46.7793 42.1914C45.8091 42.1914 45.0201 42.7234 45.0201 43.548C45.0201 44.1414 45.2885 44.5942 46.1131 45.0777L46.5174 45.3153C47.1366 45.6792 47.2078 45.9734 47.2078 46.2661C47.2078 46.7415 46.8424 47.1215 46.2376 47.1215C45.801 47.1215 45.2788 46.9598 45.1268 46.4569C45.0898 46.3439 45.0686 46.2264 45.0637 46.1077C45.0637 46.0591 45.0556 45.9961 44.9926 45.9961C44.9295 45.9961 44.9053 46.0672 44.9053 46.1707C44.9053 46.2742 44.8665 46.7011 44.8665 47.0665C44.8665 47.2169 44.8891 47.2492 45.0007 47.2961C45.3646 47.4274 45.7509 47.4857 46.1374 47.4675Z" fill="#C89E51"/>
</svg>
