<svg width="48" height="48" viewBox="0 0 48 48" fill="none" xmlns="http://www.w3.org/2000/svg">
<path fill-rule="evenodd" clip-rule="evenodd" d="M46.6786 21.0868C46.4179 21.3111 46.3331 21.699 46.2058 22.1052C46.133 22.3416 46.0421 22.584 45.9694 22.8265C45.8118 23.3356 45.6845 23.8812 45.5208 24.3176C45.3814 24.6874 45.1268 25.0753 44.9086 25.4147C44.6965 25.736 44.4358 26.0936 44.0479 26.2027C43.5751 26.3361 43.3751 26.0512 43.4054 25.6087C43.4357 25.1905 43.569 24.7601 43.6842 24.36C44.0176 23.1962 44.4601 22.087 44.8056 20.9716C44.1085 20.6928 43.5023 20.9353 43.2478 21.4263C43.1144 21.6808 43.0417 22.0082 42.9326 22.3173C42.6719 23.0629 42.4173 23.8509 42.2597 24.6813C42.2234 24.8631 42.2234 25.0632 42.1749 25.2329C42.0961 25.5057 41.7324 25.9239 41.5324 26.0633C41.3687 26.1724 41.0353 26.33 40.7807 26.2209C40.5807 26.13 40.5261 25.8391 40.5564 25.5784C40.5928 25.1783 40.7322 24.7662 40.8413 24.3782C41.1687 23.2205 41.593 22.0627 41.9324 21.002C41.4172 20.7837 40.7928 20.8989 40.5443 21.208C39.9685 20.4746 38.7562 20.9474 38.1803 21.3414C37.3135 21.9354 36.6468 22.8628 36.1679 23.9054C35.9012 24.4873 35.683 25.1177 35.6587 25.8209C35.6345 26.4998 35.9133 27.1241 36.7437 27.1059C37.3378 27.0938 37.8591 26.6392 38.2349 26.3119C38.6713 25.93 39.0108 25.4814 39.3381 25.0511C39.1562 26.1421 39.332 27.0938 40.417 27.0999C41.2293 27.1059 41.7506 26.4331 42.1506 25.9785C42.2052 26.5058 42.4234 26.9483 42.9326 27.0574C43.9145 27.2756 44.6722 26.4149 45.0662 25.8754C44.6843 26.9059 44.157 28.4516 43.3205 28.9183C43.1508 29.0092 42.9265 29.1062 42.7265 29.0032C42.5143 28.5667 43.1205 28.0758 43.0053 27.5969C42.9568 27.4029 42.7386 27.3241 42.4658 27.2878C42.1203 27.6818 41.496 28.7425 41.9445 29.3305C42.0961 29.5366 42.4052 29.6396 42.775 29.6518C43.6903 29.676 44.4661 29.1729 44.9935 28.6213C45.5693 28.0273 45.933 27.215 46.2422 26.3785C46.921 24.5479 47.3878 22.6689 48 20.9838C47.5151 20.7595 46.9877 20.8201 46.6786 21.0868ZM39.9382 22.681C39.823 23.0386 39.7442 23.4205 39.6048 23.7781C39.5139 24.0206 39.3078 24.2691 39.1502 24.4813C38.8168 24.9359 38.5319 25.3299 38.0712 25.6754C37.75 25.9118 37.0771 26.2573 37.0771 25.5117C37.0771 25.0632 37.2408 24.6449 37.3681 24.2934C37.7257 23.3235 38.3561 22.2021 39.0653 21.699C39.3563 21.4869 39.9564 21.2262 40.3079 21.6263C40.1806 21.9718 40.0533 22.3234 39.9382 22.681ZM36.2285 20.7049C36.174 20.5958 36.0164 20.5352 35.8527 20.5352C35.5496 20.5534 35.2647 20.6868 35.0526 20.905C35.1435 21.996 34.8465 23.2568 34.4949 24.1479C34.2282 24.8207 33.913 25.5057 33.4523 25.9603C33.319 26.0936 33.0462 26.3179 32.8462 26.2634C32.5674 26.1906 32.5674 25.4329 32.5795 25.1662C32.6522 23.6387 33.1493 22.4992 33.4766 21.3838C32.8886 21.1474 32.337 21.3899 32.1309 21.7536C31.9673 22.0445 31.8582 22.487 31.749 22.8992C31.6399 23.3114 31.5793 23.7781 31.4581 24.16C31.3975 24.3479 31.2762 24.5601 31.1732 24.7601C30.9004 25.3056 30.5367 25.9906 30.0397 26.2088C29.2759 26.5483 29.5972 25.2814 29.7124 24.8571C30.1124 23.3781 30.6822 22.1658 31.1853 20.8868C30.561 20.6686 30.0033 20.8383 29.7124 21.2141C29.5245 21.4626 29.4335 21.79 29.3063 22.1233C29.0092 22.9295 28.694 23.7781 28.494 24.6813C28.4516 24.8753 28.4576 25.0995 28.4031 25.2875C28.3546 25.439 28.1849 25.6572 28.0576 25.8087C27.9303 25.9663 27.7727 26.0936 27.5908 26.1846C27.4514 26.2512 27.2272 26.3119 27.0574 26.2573C26.5422 26.1058 26.918 24.9419 27.0574 24.4691C27.3908 23.2932 27.8333 22.1415 28.1667 21.0201C27.6454 20.8019 27.0453 20.9292 26.7786 21.2262C26.5786 20.9898 26.324 20.8444 25.8633 20.8383C25.2511 20.8262 24.6571 21.1717 24.257 21.4929C23.3963 22.1718 22.6931 23.1417 22.2325 24.2994C22.093 24.651 21.99 25.0147 21.9354 25.3905C21.9173 25.4329 21.893 25.4693 21.8748 25.5057C21.693 25.7906 21.5051 26.0148 21.2202 26.1543C21.0747 26.227 20.8504 26.324 20.6262 26.2209C20.1776 26.0209 20.511 25.0207 20.6443 24.5358C20.9292 23.4629 21.3596 22.3476 21.6687 21.4081H22.3779C22.5355 21.4141 22.6749 21.2929 22.681 21.1292C22.6871 20.9716 22.5658 20.8322 22.4022 20.8262C22.3961 20.8262 22.384 20.8262 22.3779 20.8262H21.8566C22.1173 20.0442 22.3901 19.2805 22.6325 18.4804C22.0324 18.1955 21.396 18.3955 21.1293 18.8198C21.0444 18.9532 21.008 19.1471 20.9414 19.329C20.7777 19.8139 20.5898 20.3716 20.4201 20.8262H19.6987C19.5411 20.8201 19.4017 20.9413 19.3957 21.105C19.3896 21.2626 19.5108 21.402 19.6745 21.4081C19.6806 21.4081 19.6927 21.4081 19.6987 21.4081H20.2261C19.9715 22.1961 19.6684 22.9901 19.426 23.8994C19.1108 25.0814 18.7168 26.9362 20.0927 27.0817C20.8989 27.1665 21.5111 26.6089 21.8991 26.0694C21.9173 26.3725 21.9961 26.6392 22.1597 26.8271C22.5598 27.2999 23.269 27.118 23.6933 26.8877C24.4631 26.4755 25.0814 25.736 25.5542 25.0995C25.4269 26.0512 25.4996 26.9059 26.2876 27.0817C27.3302 27.3181 27.8879 26.524 28.3667 26.0088C28.3425 26.6877 28.9183 27.2999 29.6942 27.0756C30.4701 26.8513 30.9247 25.833 31.3308 25.2087C31.2641 26.0088 31.4096 26.7483 31.9491 27.0029C32.7068 27.3666 33.4766 26.7483 33.9009 26.3119C34.3009 25.8997 34.6465 25.3905 34.9859 24.7843C35.4284 23.9782 35.8891 22.9659 36.1255 21.8809C36.1861 21.5717 36.3255 20.911 36.2285 20.7049ZM25.9967 23.269C25.936 23.4508 25.9239 23.663 25.8451 23.8387C25.7542 24.057 25.5299 24.3176 25.3784 24.5237C25.0329 24.9965 24.748 25.3299 24.2873 25.6996C24.1176 25.833 23.7963 26.0936 23.5236 26.0027C23.3599 25.9482 23.3053 25.6693 23.3235 25.4087C23.3478 25.0329 23.469 24.651 23.6024 24.3055C23.9418 23.4205 24.5055 22.4264 25.1177 21.8809C25.4208 21.6081 26.1118 21.1717 26.5361 21.6627C26.3664 22.2021 26.1724 22.7113 25.9967 23.269ZM17.3044 22.1597C17.1468 21.7051 17.3529 21.2202 17.6803 21.0868C17.8015 21.0323 18.1955 21.0504 18.153 20.7716C18.1288 20.608 17.8015 20.6201 17.5651 20.6504C16.8619 20.7474 16.0133 21.1292 15.9588 21.9779C15.9527 22.0991 16.0012 22.2324 15.977 22.3597C15.9588 22.4628 15.8436 22.6022 15.7648 22.7174C15.4072 23.2265 15.0314 23.669 14.3525 23.7296C14.6677 22.778 14.704 21.7536 14.2009 21.2505C13.619 20.6625 12.528 20.7959 11.8612 21.1535C10.7459 21.7475 9.90331 22.9174 9.58205 24.4207C9.53356 24.651 9.55781 24.9116 9.48507 25.1905C9.43051 25.3905 9.23655 25.6693 9.07895 25.8512C8.8971 26.0633 8.70313 26.2088 8.47885 26.2694C7.86058 26.4513 7.75147 25.936 7.8727 25.3541C7.94544 25.0086 8.04849 24.651 8.13941 24.3419C8.72132 22.3658 9.37596 20.4928 9.98211 18.547C9.58811 18.2803 9.02439 18.3773 8.71525 18.5895C8.37581 18.8198 8.2667 19.2562 8.1091 19.7412C7.84846 20.5473 7.52719 21.6081 7.28473 22.2809C6.52704 22.287 5.76329 22.2931 4.99954 22.287C5.12077 21.8991 5.242 21.5172 5.35717 21.1353C5.53901 20.6261 5.72692 20.1109 5.89058 19.5957C5.98151 19.3229 6.12698 18.8744 6.00575 18.6258C5.85421 18.3046 5.36323 18.3713 5.0056 18.4016C3.53871 18.5289 2.36884 19.0744 1.53235 19.9473C1.18684 20.3049 0.841333 20.7534 0.780717 21.3656C0.774656 21.4323 0.774656 21.4929 0.774656 21.5596C0.817087 21.9718 1.18684 22.2809 1.59902 22.2385C1.70813 22.2264 1.81118 22.1961 1.9021 22.1415C1.9021 22.1415 1.9021 22.1415 1.90816 22.1415C2.14456 22.0082 2.28398 21.7536 2.28398 21.4869C2.28398 21.4323 2.27791 21.3778 2.26579 21.3293C2.24154 21.1777 2.24154 21.0201 2.27185 20.8686C2.40521 20.1533 3.07197 19.5654 3.59933 19.2926C3.7933 19.1896 4.14486 19.0441 4.32065 19.135C4.55099 19.2502 4.22973 19.923 4.15699 20.1291C3.79936 21.1414 3.28413 23.178 2.97499 24.1903C2.62342 25.0935 2.16881 26.0755 1.53235 26.4331C1.36262 26.5301 1.13835 26.621 0.938317 26.5179C0.726164 26.0815 1.33232 25.5905 1.21715 25.1117C1.16866 24.9177 0.95044 24.8389 0.677671 24.8086C0.332165 25.2026 -0.292173 26.2634 0.15638 26.8513C0.307918 27.0574 0.617056 27.1605 0.986809 27.1726C1.9021 27.1968 2.67797 26.6937 3.21139 26.1421C3.78723 25.5481 4.14486 24.7359 4.46006 23.8994C4.49643 23.7963 4.5328 23.6933 4.56917 23.5902H4.57523C4.58736 23.5539 4.59342 23.5236 4.60554 23.4872C4.66615 23.3235 4.72071 23.1599 4.77526 22.9962C4.78739 22.9538 4.80557 22.9174 4.82375 22.875C5.59357 22.875 6.36338 22.875 7.12713 22.8689C6.89073 23.5599 6.70889 24.2631 6.5816 24.9844C6.38763 26.1058 6.54523 27.1605 7.73329 27.1302C8.60615 27.1059 9.1335 26.3785 9.55781 25.7966C9.72147 26.524 10.1821 27.112 11.1338 27.1241C11.5399 27.1302 11.8915 26.9483 12.2006 26.7665C13.1159 26.2149 13.7766 25.239 14.2009 24.2024C15.1768 24.1721 15.686 23.5599 16.1709 22.9113C16.4861 23.669 17.0983 24.1176 17.062 25.045C17.0377 25.6148 16.6983 26.1543 16.3952 26.3846C15.9527 26.724 14.9647 26.5967 15.0253 25.8754C15.0617 25.4632 15.3284 25.3966 15.4011 25.0753C15.4496 24.8874 15.389 24.7116 15.2556 24.6328C14.8798 24.4146 14.5222 24.7662 14.401 24.9419C14.1403 25.3238 14.0615 25.9482 14.2555 26.3361C14.5707 26.9665 15.4314 27.2029 16.28 27.0332C16.9771 26.8938 17.6318 26.5179 18.0561 26.033C18.5652 25.4329 18.6925 24.5964 18.4016 23.8691C18.1349 23.2205 17.5166 22.778 17.3044 22.1597ZM13.2068 23.5902C13.2553 23.7054 13.4251 23.8387 13.4311 23.9539C13.4432 24.1055 13.225 24.5479 13.1644 24.6874C12.8795 25.342 12.4128 26.0209 11.8248 26.2331C11.0489 26.5179 10.7701 25.7724 10.855 25.0026C10.9338 24.257 11.152 23.6993 11.4248 23.0811C11.6733 22.5173 12.0309 21.9718 12.4067 21.6748C12.5583 21.5596 12.8068 21.4202 13.0068 21.4141C13.3402 21.4081 13.4493 21.5778 13.5705 21.796C13.2372 22.19 12.9886 23.0508 13.2068 23.5902Z" fill="#FF6A0A"/>
</svg>
