<svg width="24" height="12" viewBox="0 0 24 12" fill="none" xmlns="http://www.w3.org/2000/svg">
<path d="M5.03337 9.92012V10.5535H0.600037V9.92012H5.03337ZM11.9617 9.92009C11.5169 10.3289 10.9344 10.5551 10.3303 10.5534L5.66671 10.5472V9.92009H11.9617ZM18.5535 9.92008L18.3324 10.5534L18.1132 9.92008H18.5535ZM16.4334 9.92012V10.5535H13.2667V9.92012H16.4334ZM23.4 9.92012V10.5535H20.2334V9.92012H23.4ZM12.679 8.71102C12.6246 8.93318 12.5389 9.14645 12.4242 9.34435H5.66671V8.71102H12.679ZM18.978 8.71104L18.7557 9.34438H17.9111L17.6888 8.71104H18.978ZM16.4334 8.71102V9.34435H13.2667V8.71102H16.4334ZM23.4 8.71102V9.34435H20.2334V8.71102H23.4ZM5.03337 8.71102V9.34435H0.600037V8.71102H5.03337ZM3.7667 7.50193V8.13527H1.8667V7.50193H3.7667ZM8.83337 7.50193V8.13527H6.93337V7.50193H8.83337ZM12.6638 7.50193C12.7199 7.70837 12.7484 7.92134 12.7485 8.13527H10.6182V7.50193H12.6638ZM19.4025 7.50193L19.1801 8.13527H17.4866L17.2643 7.50193H19.4025ZM16.4334 7.50193V8.13527H14.5334V7.50193H16.4334ZM22.1334 7.50193V8.13527H20.2334V7.50193H22.1334ZM3.7667 6.29284V6.92618H1.8667V6.29284H3.7667ZM16.4334 6.29284V6.92618H14.5334V6.29284H16.4334ZM22.1334 6.29284V6.92618H20.2334V6.29284H22.1334ZM11.8952 6.29282C12.1061 6.47225 12.2848 6.68645 12.4235 6.92614H6.93335V6.29282H11.8952ZM19.8269 6.29282L19.6046 6.92616H17.0621L16.8398 6.29282H19.8269ZM18.1553 5.08377L18.3334 5.59571L18.5114 5.08377H22.1334V5.71712H20.2334V5.13515L20.0291 5.71712H16.6377L16.4334 5.13507V5.71712H14.5334V5.08377H18.1553ZM6.93337 5.08375L12.4235 5.08378C12.2848 5.32348 12.1062 5.53768 11.8952 5.71712H6.93337V5.08375ZM3.7667 5.08375V5.71708H1.8667V5.08375H3.7667ZM3.7667 3.87466V4.508H1.8667V3.87466H3.7667ZM8.83337 3.87466V4.508H6.93337V3.87466H8.83337ZM12.7485 3.87467C12.7484 4.0886 12.7199 4.30157 12.6638 4.508H10.6182V3.87467H12.7485ZM17.7349 3.87466L17.9551 4.508H14.5334V3.87466H17.7349ZM22.1334 3.87466V4.508H18.7116L18.9319 3.87466H22.1334ZM5.03337 2.66557V3.2989H0.600037V2.66557H5.03337ZM12.4242 2.66557C12.5388 2.86347 12.6246 3.07673 12.679 3.29889H5.66671V2.66557H12.4242ZM23.4 2.66555V3.29889H19.1321L19.3523 2.66555H23.4ZM17.3144 2.66555L17.5347 3.29889H13.2667V2.66555H17.3144ZM5.03337 1.45649V2.08982H0.600037V1.45649H5.03337ZM10.3303 1.45648C10.9343 1.45567 11.5165 1.6817 11.9616 2.08981H5.66671V1.45648H10.3303ZM23.4 1.45651V2.08985H19.5525L19.7728 1.45651H23.4ZM16.894 1.45651L17.1142 2.08985H13.2667V1.45651H16.894Z" fill="#0043CE"/>
</svg>
