<svg width="40" height="39" viewBox="0 0 40 39" fill="none" xmlns="http://www.w3.org/2000/svg">
<g filter="url(#filter0_d_1_4373)">
<path d="M27.5 2H10.5C6.35786 2 3 5.35786 3 9.5V26.5C3 30.6421 6.35786 34 10.5 34H27.5C31.6421 34 35 30.6421 35 26.5V9.5C35 5.35786 31.6421 2 27.5 2Z" fill="#330000"/>
<path d="M18.4666 21.0415H13.5066L12.4933 24.1749C12.4666 24.2949 12.36 24.3749 12.24 24.3615H9.73325C9.58663 24.3615 9.54663 24.2815 9.58663 24.1215L13.88 11.7615C13.92 11.6283 13.96 11.4815 14.0133 11.3215C14.0666 11.0415 14.0933 10.7483 14.0933 10.4549C14.08 10.3883 14.1333 10.3215 14.2 10.3083H17.6533C17.76 10.3083 17.8133 10.3483 17.8266 10.4149L22.6933 24.1483C22.7333 24.2949 22.6933 24.3615 22.56 24.3615H19.7733C19.68 24.3749 19.5866 24.3083 19.56 24.2149L18.4666 21.0415ZM14.28 18.3349H17.6666C17.5866 18.0549 17.48 17.7215 17.36 17.3749C17.24 17.0149 17.12 16.6283 17 16.2283C16.8666 15.8149 16.7466 15.4149 16.6133 15.0015C16.48 14.5883 16.36 14.2015 16.2533 13.8149C16.1466 13.4417 16.0533 13.0949 15.96 12.7749H15.9333C15.8133 13.3483 15.6666 13.9217 15.48 14.4949C15.28 15.1349 15.08 15.8015 14.8666 16.4683C14.6944 17.0976 14.4987 17.7202 14.28 18.3349ZM25.6666 12.6415C25.2266 12.6549 24.8 12.4815 24.48 12.1749C24.1734 11.8415 24.0134 11.4015 24.0266 10.9483C24.0134 10.4949 24.1866 10.0683 24.5066 9.76155C24.8266 9.45492 25.2534 9.29492 25.6934 9.29492C26.2134 9.29492 26.6134 9.45492 26.9066 9.76155C27.2021 10.0848 27.36 10.5105 27.3466 10.9483C27.36 11.4015 27.2 11.8415 26.88 12.1749C26.5734 12.4949 26.12 12.6683 25.6666 12.6415ZM24.1734 24.2149V13.9483C24.1734 13.8149 24.2266 13.7615 24.3466 13.7615H26.9866C27.1066 13.7615 27.16 13.8283 27.16 13.9483V24.2149C27.16 24.3615 27.1066 24.4283 26.9866 24.4283H24.3734C24.24 24.4283 24.1734 24.3483 24.1734 24.2149Z" fill="#FF9A00"/>
</g>
<defs>
<filter id="filter0_d_1_4373" x="0.866667" y="0.4" width="38.4" height="38.4" filterUnits="userSpaceOnUse" color-interpolation-filters="sRGB">
<feFlood flood-opacity="0" result="BackgroundImageFix"/>
<feColorMatrix in="SourceAlpha" type="matrix" values="0 0 0 0 0 0 0 0 0 0 0 0 0 0 0 0 0 0 127 0" result="hardAlpha"/>
<feOffset dx="1.06667" dy="1.6"/>
<feGaussianBlur stdDeviation="1.6"/>
<feComposite in2="hardAlpha" operator="out"/>
<feColorMatrix type="matrix" values="0 0 0 0 0 0 0 0 0 0 0 0 0 0 0 0 0 0 0.25 0"/>
<feBlend mode="normal" in2="BackgroundImageFix" result="effect1_dropShadow_1_4373"/>
<feBlend mode="normal" in="SourceGraphic" in2="effect1_dropShadow_1_4373" result="shape"/>
</filter>
</defs>
</svg>
