<svg width="48" height="48" viewBox="0 0 48 48" fill="none" xmlns="http://www.w3.org/2000/svg">
<path d="M31.0287 14.3545C30.9214 14.2271 30.8049 14.1073 30.6762 13.9953C29.174 12.6721 26.9085 13.0113 24.9066 13.0037C23.4688 12.9975 22.031 12.7688 20.5963 12.8701C19.1616 12.9714 17.6655 13.4657 16.7842 14.6047C16.0086 15.6086 15.8215 16.9548 15.1348 18.0216C14.4451 19.093 13.2479 19.8252 11.9757 19.9265C11.4944 19.9649 11.0054 19.8743 10.5961 19.6195C8.65253 18.4069 9.93703 15.7191 11.1188 14.5049C12.1734 13.4212 12.8509 12.4449 14.1308 11.5055C15.1854 10.7303 16.1634 9.85844 17.0386 8.88371C18.0763 7.73092 19.6582 6.83908 20.7726 5.72006C21.4347 5.05387 22.2119 4.47824 23.1377 4.2526C24.1908 3.99625 25.204 4.30786 26.0915 4.8973C26.8502 5.40232 27.4848 6.07004 28.1163 6.72702C31.6939 10.4387 35.4754 13.96 39.5451 17.1221C35.5475 12.0673 31.0824 7.38248 26.2279 3.1474C25.6562 2.64852 25.0108 2.12968 24.2536 2.12201C23.5347 2.11587 22.9032 2.57177 22.333 3.01078C20.3848 4.50894 18.4534 6.03321 16.5435 7.58049C15.423 8.48768 14.3102 9.40561 13.2449 10.3788C11.6523 11.8325 10.1562 13.4196 8.97135 15.2279C8.59274 15.8066 8.43946 16.4804 8.45632 17.185C8.46092 17.3385 8.47625 17.4905 8.50538 17.6409C8.71997 18.7523 9.46646 19.7592 10.4582 20.2995C10.7479 20.4576 11.0575 20.5743 11.381 20.6418C13.3675 21.0563 15.4966 19.7408 16.2385 17.8497C16.778 16.4774 17.1873 15.0207 18.7554 14.3376C19.2198 14.135 19.7257 14.0429 20.2315 14.0321L25.7451 13.9109C27.0372 13.8817 28.4551 13.8955 29.4438 14.729C30.6378 15.7344 30.7329 17.5089 30.7344 19.07C30.7375 22.3918 30.7421 25.712 30.7451 29.0337C30.7467 30.7192 30.5658 32.7315 29.0897 33.5405C28.3892 33.9242 27.5523 33.9273 26.7552 33.9212C25.2576 33.9089 23.7616 33.8982 22.264 33.8859C21.4317 33.8797 20.584 33.8705 19.787 33.6295C18.9899 33.3885 18.2342 32.8774 17.8939 32.1145C17.4893 31.2042 17.7514 30.1205 18.248 29.2578C19.39 27.2746 21.588 26.1464 23.0228 24.3627L23.8229 27.8917C23.8811 28.1465 24.1034 28.3445 24.3625 28.3368C24.6705 28.3276 24.7579 28.0774 24.807 27.8502C25.04 26.7849 24.8652 25.6813 24.8346 24.5914C24.8039 23.5016 24.9556 22.3242 25.696 21.5245C26.1574 21.0256 26.8134 20.7186 27.0955 20.0524C27.212 19.7746 27.2212 19.4522 27.0679 19.1928C26.7399 18.6341 26.0256 18.7661 25.5918 19.1176C25.227 19.4123 24.9802 19.8298 24.646 20.1614C23.8765 20.9228 22.7223 21.1423 21.6402 21.1453C20.4108 21.1484 19.1784 20.9197 17.9614 21.1622C17.6533 21.2236 17.4264 21.5168 17.4801 21.8253C17.5337 22.1339 17.8418 22.2198 18.1085 22.269C19.2643 22.4808 20.42 22.6941 21.5758 22.906C20.3863 24.5638 18.6603 25.7596 17.3712 27.3421C16.0837 28.9232 15.2743 31.2226 16.2906 32.9925C16.988 34.2052 18.386 34.8621 19.7655 35.0862C21.145 35.3104 22.5553 35.1753 23.9517 35.2044C25.2239 35.2305 26.5007 35.3902 27.7653 35.252C29.0299 35.1123 30.3267 34.6227 31.0946 33.6065C31.9407 32.4859 31.9913 30.974 32.0082 29.5694C32.0465 26.1034 32.0863 22.6374 32.1247 19.1713C32.1431 17.4905 32.0756 15.6055 31.0256 14.3575L31.0287 14.3545Z" fill="#004B6B"/>
<path d="M0 39.5112H1.04197V44.4511H0V39.5112Z" fill="#004B6B"/>
<path d="M5.7689 40.9169C6.18399 40.9169 6.52369 41.0441 6.78714 41.2978C7.0506 41.5514 7.18275 41.8848 7.18275 42.2988V44.4519H6.18145V42.5058C6.18145 42.2988 6.12723 42.1351 6.01964 42.0146C5.91206 41.8942 5.76635 41.8339 5.58253 41.8339C5.46054 41.8339 5.34279 41.8687 5.22843 41.9391C5.11406 42.0095 5.02512 42.0969 4.96328 42.2029V44.4527H3.96875V42.5066C3.96875 42.3022 3.91453 42.1393 3.80525 42.0172C3.69597 41.8958 3.55789 41.8348 3.39101 41.8348C3.24869 41.8348 3.12162 41.8704 3.00895 41.9417C2.89628 42.0129 2.81326 42.1071 2.7582 42.2241V44.4527H1.76367V40.9873H2.7582V41.3835C2.84969 41.2528 2.981 41.1425 3.15042 41.0526C3.31985 40.9627 3.51892 40.9186 3.74595 40.9186C4.19069 40.9186 4.51176 41.0806 4.70914 41.4047C4.8235 41.2689 4.97514 41.1544 5.1632 41.0602C5.35126 40.9661 5.55288 40.9186 5.7689 40.9186V40.9169Z" fill="#004B6B"/>
<path d="M11.8827 40.9169C12.2978 40.9169 12.6375 41.0441 12.9009 41.2978C13.1644 41.5514 13.2965 41.8848 13.2965 42.2988V44.4519H12.2952V42.5058C12.2952 42.2988 12.241 42.1351 12.1334 42.0146C12.0258 41.8942 11.8801 41.8339 11.6963 41.8339C11.5743 41.8339 11.4566 41.8687 11.3422 41.9391C11.2278 42.0095 11.1389 42.0969 11.077 42.2029V44.4527H10.0825V42.5066C10.0825 42.3022 10.0283 42.1393 9.91902 42.0172C9.80974 41.8958 9.67166 41.8348 9.50478 41.8348C9.36246 41.8348 9.23539 41.8704 9.12272 41.9417C9.01005 42.0129 8.92704 42.1071 8.87197 42.2241V44.4527H7.87744V40.9873H8.87197V41.3835C8.96346 41.2528 9.09476 41.1425 9.26419 41.0526C9.43362 40.9627 9.63269 40.9186 9.85972 40.9186C10.3045 40.9186 10.6255 41.0806 10.8229 41.4047C10.9373 41.2689 11.0889 41.1544 11.277 41.0602C11.465 40.9661 11.6666 40.9186 11.8827 40.9186V40.9169Z" fill="#004B6B"/>
<path d="M14.0598 39.4849C14.1793 39.367 14.3216 39.3076 14.4868 39.3076C14.652 39.3076 14.7943 39.367 14.9138 39.4849C15.0332 39.6028 15.0925 39.7437 15.0925 39.9065C15.0925 40.0694 15.0332 40.2145 14.9138 40.3341C14.7943 40.4537 14.652 40.5131 14.4868 40.5131C14.3216 40.5131 14.1793 40.4537 14.0598 40.3341C13.9404 40.2145 13.8811 40.072 13.8811 39.9065C13.8811 39.7411 13.9404 39.6028 14.0598 39.4849ZM13.9912 40.9856H14.9858V44.4511H13.9912V40.9856Z" fill="#004B6B"/>
<path d="M18.1744 40.9787H19.1689V44.3034C19.1689 44.6206 19.0901 44.8997 18.9334 45.1407C18.7767 45.3816 18.5649 45.5648 18.2989 45.6904C18.0329 45.8159 17.7339 45.8779 17.4009 45.8779C17.0985 45.8779 16.7986 45.8278 16.5013 45.7277C16.2039 45.6276 15.9752 45.4944 15.8151 45.3265L16.2861 44.6342C16.5818 44.8709 16.9443 44.9888 17.373 44.9888C17.5882 44.9888 17.7762 44.9218 17.9355 44.7886C18.0947 44.6554 18.1744 44.4866 18.1744 44.2822V43.9513C18.0897 44.087 17.9516 44.1982 17.7618 44.2855C17.5712 44.3729 17.3687 44.4162 17.1527 44.4162C16.8571 44.4162 16.5852 44.3381 16.3378 44.1821C16.0904 44.026 15.8947 43.813 15.7533 43.5433C15.611 43.2735 15.5398 42.9791 15.5398 42.6593C15.5398 42.3395 15.611 42.0493 15.7533 41.7804C15.8956 41.5115 16.0904 41.2994 16.3378 41.1433C16.5852 40.9872 16.8571 40.9092 17.1527 40.9092C17.3679 40.9092 17.5712 40.9533 17.7618 41.0415C17.9524 41.1297 18.0897 41.2434 18.1744 41.3809V40.9779V40.9787ZM17.373 43.5C17.5407 43.5 17.6966 43.4601 17.8423 43.3812C17.988 43.3023 18.099 43.2005 18.1744 43.0767V42.2563C18.099 42.1299 17.988 42.0264 17.8423 41.9467C17.6966 41.8669 17.5399 41.8262 17.373 41.8262C17.1299 41.8262 16.9257 41.906 16.7605 42.0655C16.5953 42.2249 16.5131 42.4235 16.5131 42.6601C16.5131 42.8968 16.5953 43.0987 16.7605 43.2599C16.9257 43.4211 17.1299 43.5008 17.373 43.5008V43.5Z" fill="#004B6B"/>
<path d="M23.1835 42.5669C23.1835 42.7068 23.1742 42.8366 23.1564 42.9563H20.6692C20.7149 43.1904 20.8149 43.3694 20.9682 43.4916C21.1216 43.6146 21.3181 43.6756 21.5561 43.6756C21.712 43.6756 21.862 43.6426 22.0051 43.5755C22.1483 43.5085 22.2499 43.4237 22.3092 43.321L23.0835 43.7961C22.9573 44.026 22.7582 44.2042 22.4846 44.3297C22.2118 44.4561 21.895 44.5189 21.535 44.5189C21.0258 44.5189 20.5955 44.3441 20.2431 43.9938C19.8907 43.6434 19.7153 43.2125 19.7153 42.7001C19.7153 42.1877 19.889 41.7737 20.2363 41.431C20.5836 41.0874 21.0097 40.916 21.5146 40.916C21.9822 40.916 22.3779 41.0755 22.6998 41.3945C23.0217 41.7135 23.1835 42.1045 23.1835 42.566V42.5669ZM20.6819 42.3217H22.1889C22.1686 42.1495 22.0881 42.0061 21.9484 41.8907C21.8086 41.7762 21.6468 41.7185 21.463 41.7185C21.2563 41.7185 21.0868 41.7711 20.9538 41.8772C20.8208 41.9832 20.7302 42.1308 20.6819 42.3217Z" fill="#004B6B"/>
<path d="M25.8493 43.528L25.901 44.4103C25.768 44.4748 25.5985 44.507 25.3918 44.507C24.9793 44.507 24.6455 44.3823 24.3922 44.1329C24.1389 43.8835 24.0119 43.5382 24.0119 43.0979V41.9332H23.3689V40.9856H24.0119V40.0762H25.0064V40.9856H25.8561V41.9332H25.0064V43.0462C25.0064 43.2048 25.0581 43.3329 25.1614 43.4305C25.2648 43.528 25.391 43.5772 25.5401 43.5772C25.6544 43.5772 25.7578 43.5611 25.8493 43.5289V43.528Z" fill="#004B6B"/>
<path d="M30.2213 42.505V41.6575H32.3442V43.5484C32.1171 43.847 31.8232 44.082 31.4615 44.2551C31.0997 44.4282 30.7016 44.5138 30.2662 44.5138C29.9197 44.5138 29.5918 44.4468 29.2818 44.3136C28.9726 44.1804 28.7074 43.9997 28.4872 43.7707C28.2669 43.5425 28.0924 43.271 27.9645 42.9563C27.8366 42.6416 27.7722 42.3099 27.7722 41.9604C27.7722 41.4921 27.8806 41.0654 28.0975 40.6802C28.3144 40.2959 28.6126 39.9931 28.9938 39.7725C29.3741 39.5519 29.796 39.4417 30.2594 39.4417C30.7592 39.4417 31.2048 39.5621 31.5962 39.8013C31.9875 40.0414 32.2434 40.3494 32.3653 40.726L31.4369 41.1706C31.3522 40.9551 31.2022 40.782 30.9879 40.6522C30.7736 40.5224 30.5313 40.458 30.2602 40.458C29.8477 40.458 29.508 40.5996 29.242 40.8813C28.976 41.1638 28.843 41.5235 28.843 41.9595C28.843 42.3955 28.9768 42.7773 29.2454 43.0691C29.5139 43.361 29.8545 43.5069 30.267 43.5069C30.6796 43.5069 31.0362 43.4 31.2954 43.1862V42.5041H30.2221L30.2213 42.505Z" fill="#004B6B"/>
<path d="M34.0188 39.5112V44.4511H33.0251V39.5112H34.0188Z" fill="#004B6B"/>
<path d="M36.3378 40.9169C36.5877 40.9169 36.8232 40.9627 37.0451 41.0543C37.2662 41.1459 37.4568 41.2715 37.6161 41.4318C37.7753 41.5921 37.9016 41.783 37.9947 42.007C38.0879 42.2309 38.1337 42.4693 38.1337 42.7221C38.1337 43.0598 38.0549 43.366 37.8982 43.6417C37.7415 43.9174 37.5254 44.1329 37.2518 44.2873C36.9782 44.4425 36.6732 44.5197 36.3386 44.5197C35.8269 44.5197 35.3991 44.3484 35.0552 44.0065C34.7113 43.6646 34.5393 43.2362 34.5393 42.7213C34.5393 42.2063 34.7113 41.7771 35.0552 41.4326C35.3991 41.0882 35.8269 40.916 36.3386 40.916L36.3378 40.9169ZM36.3378 41.867C36.1014 41.867 35.9049 41.9476 35.7482 42.1096C35.5914 42.2717 35.5127 42.4752 35.5127 42.7213C35.5127 42.9673 35.5914 43.1607 35.7482 43.3244C35.9057 43.4873 36.1023 43.5688 36.3378 43.5688C36.5733 43.5688 36.7647 43.4873 36.9223 43.3244C37.0807 43.1616 37.1595 42.9605 37.1595 42.7213C37.1595 42.482 37.0807 42.2717 36.924 42.1096C36.7664 41.9476 36.5716 41.867 36.3378 41.867Z" fill="#004B6B"/>
<path d="M40.7037 40.9169C40.9993 40.9169 41.2704 40.9967 41.5169 41.1562C41.7634 41.3156 41.9574 41.5337 42.098 41.8094C42.2395 42.0851 42.3098 42.3871 42.3098 42.7154C42.3098 43.0437 42.2395 43.3465 42.098 43.6231C41.9574 43.8997 41.7634 44.1185 41.5169 44.2797C41.2704 44.4409 40.9993 44.5206 40.7037 44.5206C40.486 44.5206 40.2826 44.4765 40.0929 44.3883C39.904 44.3001 39.7667 44.1847 39.682 44.0422V44.4519H38.6875V39.5121H39.682V41.3962C39.7667 41.2537 39.904 41.1383 40.0929 41.0501C40.2818 40.9619 40.486 40.9178 40.7037 40.9178V40.9169ZM40.4868 43.5764C40.7274 43.5764 40.929 43.4942 41.0925 43.3304C41.2551 43.1659 41.3365 42.9614 41.3365 42.7154C41.3365 42.4694 41.2551 42.2649 41.0925 42.1003C40.9299 41.9358 40.7282 41.8543 40.4868 41.8543C40.3148 41.8543 40.1564 41.8959 40.0124 41.9782C39.8684 42.0605 39.7574 42.1674 39.682 42.2989V43.1463C39.7574 43.2727 39.8684 43.3762 40.0141 43.456C40.1598 43.5366 40.3174 43.5764 40.4868 43.5764Z" fill="#004B6B"/>
<path d="M45.3165 40.9856H46.311V44.451H45.3165V44.0413C45.2317 44.1838 45.0945 44.2992 44.9056 44.3874C44.7167 44.4756 44.5134 44.5197 44.2948 44.5197C43.9992 44.5197 43.7272 44.4391 43.4799 44.2788C43.2325 44.1185 43.0377 43.8996 42.8954 43.6222C42.753 43.3456 42.6819 43.0428 42.6819 42.7145C42.6819 42.214 42.8386 41.7889 43.1512 41.4394C43.4646 41.0899 43.8458 40.916 44.2948 40.916C44.51 40.916 44.7133 40.961 44.9039 41.0501C45.0945 41.14 45.2317 41.2545 45.3165 41.3945V40.9847V40.9856ZM44.5151 43.5764C44.682 43.5764 44.8387 43.5365 44.9844 43.4559C45.1301 43.3753 45.2411 43.2718 45.3165 43.1463V42.2988C45.2411 42.1682 45.1301 42.0613 44.9844 41.9781C44.8387 41.8958 44.682 41.8543 44.5151 41.8543C44.2719 41.8543 44.0678 41.9366 43.9026 42.1003C43.7374 42.2649 43.6552 42.4693 43.6552 42.7153C43.6552 42.9613 43.7374 43.1658 43.9026 43.3304C44.0678 43.4949 44.2719 43.5764 44.5151 43.5764Z" fill="#004B6B"/>
<path d="M48 39.5112V44.4511H47.0063V39.5112H48Z" fill="#004B6B"/>
</svg>
