<svg width="32" height="32" viewBox="0 0 32 32" fill="none" xmlns="http://www.w3.org/2000/svg">
<path d="M0 11.581C0 7.52724 0 5.50038 0.788905 3.95207C1.48285 2.59013 2.59013 1.48285 3.95207 0.788905C5.50038 0 7.52724 0 11.581 0H20.419C24.4728 0 26.4996 0 28.0479 0.788905C29.4099 1.48285 30.5172 2.59013 31.2111 3.95207C32 5.50038 32 7.52724 32 11.581V20.419C32 24.4728 32 26.4996 31.2111 28.0479C30.5172 29.4099 29.4099 30.5172 28.0479 31.2111C26.4996 32 24.4728 32 20.419 32H11.581C7.52724 32 5.50038 32 3.95207 31.2111C2.59013 30.5172 1.48285 29.4099 0.788905 28.0479C0 26.4996 0 24.4728 0 20.419V11.581Z" fill="#49021F"/>
<path d="M10.9624 9.36629V23.3912C10.9624 23.5381 10.898 23.6114 10.7692 23.6113H8.17168C8.05703 23.6113 7.9998 23.5379 8 23.3912V9.36629C8 9.24897 8.06439 9.19025 8.19316 9.19014H10.7906C10.8892 9.17578 10.9764 9.26522 10.9624 9.36629Z" fill="#FF3366"/>
<path d="M18.6475 23.8315C17.6594 23.8469 16.6804 23.6363 15.7817 23.215C13.8736 22.3092 13.0445 20.3046 13.0447 18.2391C13.0282 16.1787 14.1195 14.2155 15.8998 13.2412C17.1287 12.543 18.5742 12.3657 19.9569 12.4926V8.15527C19.9569 8.05274 19.9999 8.00115 20.0858 8.00115H22.7905C22.8644 7.99032 22.9299 8.05741 22.9194 8.13323V21.1454C22.9194 21.6822 22.9726 22.2172 23.0052 22.7526C23.0105 22.8441 22.9576 22.9345 22.8764 22.9728C22.1786 23.2713 21.4518 23.4927 20.7083 23.6333C20.0285 23.762 19.3388 23.8283 18.6475 23.8315ZM19.9569 21.1013V15.0907C18.0051 14.5484 16.0927 16.0385 16.0929 18.107C16.0458 20.2733 17.9772 21.6952 19.9569 21.1013Z" fill="#FF3366"/>
</svg>
