<svg width="49" height="48" viewBox="0 0 49 48" fill="none" xmlns="http://www.w3.org/2000/svg">
<path d="M47.8205 20.0561H47.7877L47.4274 17.8379C46.9853 15.1285 44.8073 12.9895 42.0069 12.53L38.7317 11.9913C38.0275 11.8804 37.3889 11.5001 36.9631 10.9614C35.9478 9.64631 33.5405 7.12704 29.2663 5.68519L22.3884 12.3399C22.765 13.6867 22.4047 15.176 21.3239 16.2218C20.325 17.1883 18.933 17.5527 17.6393 17.3309L20.4068 14.6532L19.7027 12.1181L17.0825 11.4367L14.3149 14.1145C14.0693 12.8627 14.4623 11.516 15.4613 10.5494C16.5421 9.50371 18.0978 9.15513 19.4734 9.51956L24.4681 4.68699C23.7639 4.62361 23.0106 4.59192 22.241 4.59192C13.2177 4.59192 9.71324 9.04422 8.69792 10.7713C8.4359 11.2308 8.0265 11.5952 7.55159 11.8487L3.08091 14.0986C2.08197 14.5898 1.49243 15.6197 1.57431 16.6971L1.81995 20.0561C1.27954 20.1037 0.85376 20.5473 0.85376 21.086C0.85376 21.6564 1.32867 22.1159 1.91821 22.1159H5.68471C6.07774 24.1282 7.89549 25.6492 10.0735 25.6492C12.2679 25.6492 14.0857 24.1282 14.4623 22.1159H19.9974L26.4496 15.8732L27.3012 15.0493C26.9245 13.7025 27.2848 12.2131 28.3656 11.1674C29.3646 10.2009 30.7565 9.83645 32.0503 10.0583L29.2991 12.7201L30.0032 15.2553L32.6234 15.9366L35.391 13.2589C35.6366 14.5106 35.2436 15.8574 34.2447 16.8239C33.1638 17.8696 31.6081 18.2182 30.2325 17.8538L29.8559 18.2182L29.3646 18.6935L25.811 22.1318H35.2436C35.6366 24.144 37.4544 25.6651 39.6324 25.6651C41.8268 25.6651 43.6446 24.144 44.0212 22.1318H47.7877C48.3773 22.1318 48.8522 21.6723 48.8522 21.1019C48.8849 20.5156 48.41 20.0561 47.8205 20.0561ZM11.269 23.3201H8.86168L7.66622 21.3079L8.86168 19.2956H11.269L12.4644 21.3079L11.269 23.3201ZM40.8606 23.3201H38.4697L37.2742 21.3079L38.4697 19.2956H40.877L42.0724 21.3079L40.8606 23.3201Z" fill="#313D2A"/>
<path d="M2.10191 29.5692H3.69094V36.4081H2.10191V29.5692ZM8.69571 30.6453C9.40641 30.6453 9.89586 30.8331 10.164 31.2085C10.4322 31.5773 10.5663 32.117 10.5663 32.8277V36.4081H9.02759V33.0088C9.02759 32.5528 8.96725 32.2344 8.84656 32.0533C8.73258 31.8723 8.51803 31.7818 8.20291 31.7818C7.82744 31.7818 7.43856 31.9226 7.03628 32.2042V36.4081H5.49753V30.7761H6.64405L6.81502 31.2689C7.46538 30.8532 8.09228 30.6453 8.69571 30.6453ZM14.1466 36.5388C13.6907 36.5388 13.2582 36.4952 12.8492 36.4081C12.4402 36.3142 12.0849 36.1868 11.7832 36.0259L12.1151 34.9297C12.4704 35.0839 12.8056 35.1979 13.1208 35.2716C13.4426 35.3454 13.7778 35.3823 14.1265 35.3823C14.5087 35.3823 14.8305 35.3119 15.092 35.1711C15.3535 35.0235 15.4842 34.8157 15.4842 34.5475C15.4842 34.3732 15.4205 34.2223 15.2931 34.0949C15.1724 33.9675 15.0182 33.8636 14.8305 33.7832C14.6495 33.696 14.3947 33.5921 14.0661 33.4714C13.6303 33.3105 13.275 33.1596 13.0001 33.0188C12.7252 32.878 12.4905 32.6869 12.2961 32.4456C12.1016 32.1975 12.0044 31.8891 12.0044 31.5203C12.0044 30.8632 12.2492 30.3537 12.7386 29.9916C13.2348 29.6296 13.8985 29.4485 14.7299 29.4485C15.0987 29.4485 15.4574 29.4921 15.806 29.5793C16.1614 29.6664 16.4799 29.7905 16.7615 29.9514L16.4195 31.0376C15.8295 30.7493 15.2831 30.6051 14.7802 30.6051C14.4114 30.6051 14.1131 30.6755 13.8851 30.8163C13.6639 30.9571 13.5532 31.1583 13.5532 31.4197C13.5532 31.641 13.6605 31.8187 13.8751 31.9528C14.0896 32.0869 14.4316 32.2411 14.9009 32.4154C15.3501 32.583 15.7155 32.7406 15.9971 32.8881C16.2854 33.0289 16.5301 33.2267 16.7313 33.4815C16.9391 33.7362 17.0431 34.0581 17.0431 34.4469C17.0431 35.104 16.7916 35.6169 16.2888 35.9857C15.7859 36.3544 15.0719 36.5388 14.1466 36.5388ZM20.7984 35.4325C21.1202 35.4325 21.4152 35.3722 21.6834 35.2515C21.9516 35.1308 22.2399 34.9531 22.5483 34.7185L22.9908 35.694C22.6556 35.9823 22.3137 36.1969 21.965 36.3377C21.6231 36.4718 21.2342 36.5388 20.7984 36.5388C20.1547 36.5388 19.615 36.4114 19.1792 36.1567C18.7501 35.8952 18.4282 35.5465 18.2137 35.1107C18.0058 34.6682 17.9019 34.1653 17.9019 33.6021C17.9019 33.0255 18.0092 32.516 18.2237 32.0735C18.4383 31.6242 18.7601 31.2756 19.1892 31.0275C19.625 30.7727 20.1614 30.6453 20.7984 30.6453C21.5292 30.6453 22.0924 30.8465 22.488 31.2488C22.8903 31.6511 23.0948 32.2176 23.1015 32.9484C23.1015 33.2166 23.0612 33.4882 22.9808 33.7631H19.4205C19.4407 34.3128 19.5613 34.7285 19.7826 35.0101C20.0039 35.2917 20.3425 35.4325 20.7984 35.4325ZM20.7079 31.6812C20.0709 31.6812 19.6686 32.0399 19.501 32.7573H21.6029C21.6097 32.7238 21.613 32.6769 21.613 32.6165C21.6063 32.3148 21.5191 32.0835 21.3515 31.9226C21.1906 31.7617 20.9761 31.6812 20.7079 31.6812ZM27.794 32.1237C27.452 32.1237 27.1369 32.1506 26.8486 32.2042C26.567 32.2578 26.2519 32.3651 25.9032 32.526V36.4081H24.3645V30.7761H25.511L25.7524 31.46C26.101 31.165 26.4363 30.9571 26.7581 30.8364C27.0866 30.7157 27.4319 30.6554 27.794 30.6554V32.1237ZM34.0204 30.7761L31.848 36.4684H30.3495L28.1772 30.7761H29.7461L31.1139 34.9096L32.4716 30.7761H34.0204ZM35.7264 29.7905C35.4783 29.7905 35.2671 29.7033 35.0928 29.529C34.9185 29.3547 34.8313 29.1435 34.8313 28.8954C34.8313 28.6473 34.9185 28.4361 35.0928 28.2618C35.2671 28.0875 35.4783 28.0003 35.7264 28.0003C35.9745 28.0003 36.1857 28.0875 36.36 28.2618C36.541 28.4361 36.6315 28.6473 36.6315 28.8954C36.6315 29.1435 36.541 29.3547 36.36 29.529C36.1857 29.7033 35.9745 29.7905 35.7264 29.7905ZM34.9621 30.7761H36.5008V36.4081H34.9621V30.7761ZM40.6769 36.5388C40.0333 36.5388 39.4936 36.4114 39.0577 36.1567C38.6286 35.8952 38.3068 35.5465 38.0923 35.1107C37.8844 34.6682 37.7805 34.1653 37.7805 33.6021C37.7805 33.0591 37.8878 32.5663 38.1023 32.1237C38.3169 31.6745 38.6521 31.3158 39.108 31.0476C39.564 30.7794 40.1372 30.6453 40.8278 30.6453C41.1094 30.6453 41.4011 30.6822 41.7028 30.756C42.0045 30.8297 42.2459 30.9269 42.4269 31.0476L42.095 32.1137C41.6927 31.879 41.2703 31.7617 40.8278 31.7617C40.3518 31.7617 39.983 31.9226 39.7215 32.2444C39.4667 32.5595 39.3393 33.0088 39.3393 33.5921C39.3393 34.1754 39.4567 34.628 39.6913 34.9498C39.926 35.2716 40.2545 35.4325 40.6769 35.4325C40.9585 35.4325 41.2133 35.3856 41.4413 35.2917C41.676 35.1912 41.9274 35.0504 42.1956 34.8693L42.6381 35.8449C42.3967 36.046 42.1051 36.2136 41.7631 36.3477C41.4279 36.4751 41.0658 36.5388 40.6769 36.5388ZM46.1573 35.4325C46.4791 35.4325 46.7741 35.3722 47.0423 35.2515C47.3105 35.1308 47.5988 34.9531 47.9072 34.7185L48.3498 35.694C48.0145 35.9823 47.6726 36.1969 47.3239 36.3377C46.982 36.4718 46.5931 36.5388 46.1573 36.5388C45.5136 36.5388 44.9739 36.4114 44.5381 36.1567C44.109 35.8952 43.7872 35.5465 43.5726 35.1107C43.3648 34.6682 43.2608 34.1653 43.2608 33.6021C43.2608 33.0255 43.3681 32.516 43.5827 32.0735C43.7972 31.6242 44.1191 31.2756 44.5482 31.0275C44.984 30.7727 45.5204 30.6453 46.1573 30.6453C46.8881 30.6453 47.4513 30.8465 47.8469 31.2488C48.2492 31.6511 48.4537 32.2176 48.4604 32.9484C48.4604 33.2166 48.4202 33.4882 48.3397 33.7631H44.7795C44.7996 34.3128 44.9203 34.7285 45.1415 35.0101C45.3628 35.2917 45.7014 35.4325 46.1573 35.4325ZM46.0668 31.6812C45.4298 31.6812 45.0276 32.0399 44.8599 32.7573H46.9619C46.9686 32.7238 46.9719 32.6769 46.9719 32.6165C46.9652 32.3148 46.8781 32.0835 46.7104 31.9226C46.5495 31.7617 46.335 31.6812 46.0668 31.6812Z" fill="#313D2A"/>
</svg>
