<svg width="48" height="48" viewBox="0 0 48 48" fill="none" xmlns="http://www.w3.org/2000/svg">
<g clip-path="url(#clip0_451_10972)">
<path d="M19.3341 36.2589C19.7036 36.8411 20.228 37.3149 20.8517 37.6302H27.45C27.9 37.3946 28.2849 37.0565 28.5717 36.6446C29.8066 34.7779 30.8177 32.7794 31.5849 30.6882L35.082 34.0092C35.2213 34.1652 35.3939 34.2895 35.5879 34.3734C35.7751 34.4519 35.978 34.4886 36.1817 34.4806V34.4806C36.3941 34.4815 36.6042 34.4376 36.7976 34.352C36.9912 34.2578 37.1575 34.1178 37.2814 33.9449C38.8712 32.109 39.6967 29.7592 39.5949 27.3593C39.4931 24.9595 38.4714 22.684 36.7316 20.9821C35.7915 20.0483 34.6598 19.3182 33.4104 18.8395C33.2398 14.3186 31.9414 9.9062 29.6274 5.98384C29.5174 5.57674 28.1318 3.62697 26.9661 2.08429C26.668 1.58094 26.2551 1.15106 25.7593 0.827853C25.2636 0.504645 24.6982 0.296748 24.1068 0.220215C23.4506 0.283388 22.8173 0.489493 22.2538 0.823282C21.6904 1.15707 21.2112 1.61 20.8517 2.14857L20.4558 2.55566C16.7936 7.2048 14.717 12.854 14.5173 18.711C13.2638 19.182 12.1305 19.9131 11.1962 20.8536C9.49262 22.5518 8.49225 24.8027 8.38673 27.1749C8.28121 29.5471 9.07795 31.8738 10.6243 33.7092C10.7614 33.8783 10.9339 34.0171 11.1302 34.1163C11.3229 34.2039 11.5334 34.2479 11.746 34.2449V34.2449C11.9474 34.2997 12.1604 34.2997 12.3619 34.2449C12.5558 34.161 12.7285 34.0366 12.8677 33.8806L16.3648 30.5596C17.1485 32.5548 18.1436 34.4649 19.3341 36.2589V36.2589Z" fill="#FF6E4E"/>
<path d="M23.9749 13.8694C24.4152 13.8995 24.8545 13.7999 25.2359 13.5835C25.6173 13.3671 25.923 13.0439 26.1133 12.656C26.3036 12.2681 26.3697 11.8334 26.3031 11.4084C26.2364 10.9834 26.04 10.5877 25.7395 10.2729C25.4389 9.95806 25.0481 9.73859 24.6178 9.64303C24.1875 9.54746 23.7376 9.58021 23.3267 9.73702C22.9157 9.89384 22.5627 10.1675 22.3135 10.5223C22.0644 10.8772 21.9305 11.2968 21.9294 11.7268C21.9146 11.9994 21.9563 12.2721 22.0519 12.5287C22.1475 12.7853 22.2951 13.0206 22.4859 13.2205C22.6768 13.4204 22.9069 13.5809 23.1627 13.6923C23.4185 13.8038 23.6947 13.864 23.9749 13.8694Z" fill="#F0EFF3"/>
<path d="M27.626 14.9621C27.84 14.9664 28.0505 14.9084 28.2306 14.7957C28.4107 14.683 28.5523 14.5205 28.6372 14.3291C28.7222 14.1377 28.7467 13.9259 28.7076 13.7209C28.6685 13.5158 28.5677 13.3268 28.4179 13.1778C28.268 13.0288 28.0761 12.9267 27.8665 12.8844C27.6568 12.8421 27.439 12.8616 27.2408 12.9404C27.0426 13.0192 26.8729 13.1537 26.7535 13.3268C26.6341 13.4999 26.5703 13.7037 26.5703 13.9122C26.5702 14.187 26.6807 14.4509 26.8781 14.6471C27.0755 14.8434 27.344 14.9565 27.626 14.9621Z" fill="#F0EFF3"/>
<path d="M20.3019 15.005C20.5935 15.005 20.8732 14.8921 21.0795 14.6912C21.2857 14.4903 21.4016 14.2178 21.4016 13.9337C21.4016 13.6495 21.2857 13.3771 21.0795 13.1761C20.8732 12.9752 20.5935 12.8624 20.3019 12.8624C20.0102 12.8624 19.7305 12.9752 19.5242 13.1761C19.318 13.3771 19.2021 13.6495 19.2021 13.9337C19.2021 14.2178 19.318 14.4903 19.5242 14.6912C19.7305 14.8921 20.0102 15.005 20.3019 15.005Z" fill="#F0EFF3"/>
<path d="M23.9309 8.64142C24.1493 8.64568 24.3641 8.58648 24.5478 8.47138C24.7315 8.35628 24.8759 8.19049 24.9625 7.99515C25.0491 7.79981 25.074 7.58376 25.0341 7.37456C24.9942 7.16535 24.8912 6.97247 24.7384 6.82049C24.5855 6.66852 24.3896 6.56434 24.1757 6.52123C23.9618 6.47813 23.7396 6.49806 23.5373 6.57847C23.3351 6.65889 23.162 6.79615 23.0402 6.97276C22.9183 7.14937 22.8533 7.35733 22.8532 7.57012C22.8503 7.70978 22.876 7.84861 22.9288 7.97847C22.9817 8.10833 23.0606 8.22661 23.161 8.32638C23.2614 8.42615 23.3811 8.50541 23.5134 8.5595C23.6456 8.6136 23.7875 8.64145 23.9309 8.64142Z" fill="#F0EFF3"/>
<path d="M24.2389 8.64142H23.733V9.777H24.2608L24.2389 8.64142Z" fill="#F0EFF3"/>
<path d="M25.9324 12.6053L25.6025 13.0766L26.6142 13.6551L26.8782 13.2052L25.9324 12.6053Z" fill="#F0EFF3"/>
<path d="M22.0394 12.6053L21.0497 13.0766L21.2916 13.5266L22.3033 13.0766L22.0394 12.6053Z" fill="#F0EFF3"/>
</g>
<path d="M0 40.6293H1.58145V47.584H0V40.6293Z" fill="#FF6E4E"/>
<path d="M3.08813 42.2925H4.36977L4.47734 42.9642H4.52082C4.97855 42.5392 5.50265 42.1646 6.219 42.1646C7.36332 42.1646 7.86453 42.9756 7.86453 44.2985V47.5839H6.29452V44.5132C6.29452 43.7456 6.09083 43.5103 5.64226 43.5103C5.24632 43.5103 5.00144 43.6907 4.65814 44.022V47.5839H3.08813V42.2925Z" fill="#FF6E4E"/>
<path d="M8.63232 42.2927H10.2138L10.9004 44.7899C11.04 45.3108 11.1773 45.866 11.3169 46.4212H11.3604C11.4886 45.866 11.6259 45.3108 11.7655 44.7899L12.4521 42.2927H13.9603L12.2324 47.5841H10.4175L8.63232 42.2927Z" fill="#FF6E4E"/>
<path d="M16.8923 42.1646C18.3982 42.1646 19.1466 43.2635 19.1466 44.7029C19.149 44.9254 19.1275 45.1475 19.0825 45.3654H15.9104C15.9452 45.6969 16.1082 46.0017 16.3646 46.215C16.6211 46.4284 16.9508 46.5334 17.2836 46.5078C17.6909 46.5023 18.0881 46.3801 18.4279 46.156L18.952 47.1041C18.3983 47.4849 17.7453 47.6961 17.0731 47.7119C15.5626 47.7119 14.3931 46.6883 14.3931 44.9382C14.3931 43.1881 15.6221 42.1646 16.8923 42.1646ZM17.8077 44.3944C17.81 43.7867 17.5537 43.3709 16.9357 43.3709C16.4437 43.3709 16.0203 43.7022 15.9104 44.4059L17.8077 44.3944Z" fill="#FF6E4E"/>
<path d="M20.4727 45.9934C20.8561 46.3253 21.3392 46.5206 21.8459 46.5485C22.3036 46.5485 22.5188 46.3772 22.5188 46.0916C22.5188 45.7398 21.9832 45.5798 21.4385 45.3651C20.7977 45.1206 20.0402 44.6796 20.0402 43.8092C20.0402 42.8267 20.8412 42.155 22.0702 42.155C22.751 42.165 23.409 42.4014 23.94 42.8267L23.2351 43.7658C22.9181 43.4991 22.5248 43.3392 22.1114 43.3088C21.7063 43.3088 21.5141 43.4573 21.5141 43.7246C21.5141 44.0673 22.0061 44.1953 22.5508 44.3963C23.2237 44.6431 23.9812 45.0155 23.9812 45.9956C23.9812 46.9758 23.2191 47.7115 21.7978 47.7115C21.0595 47.6906 20.3476 47.4326 19.7678 46.9758L20.4727 45.9934Z" fill="#FF6E4E"/>
<path d="M25.1752 43.5597H24.4497V42.3968L25.2599 42.3328L25.443 40.9254H26.7452V42.3328H28.0177V43.5597H26.7544V45.6822C26.7544 46.2785 27.0221 46.5253 27.441 46.5253C27.6131 46.5195 27.7828 46.4831 27.9422 46.4179L28.1893 47.5602C27.8074 47.6854 27.4081 47.7501 27.0061 47.7522C25.6924 47.7522 25.1752 46.9297 25.1752 45.6959V43.5597Z" fill="#FF6E4E"/>
<path d="M34.8997 40.6294V47.68H33.0276V45.0754H30.8374V47.68H28.9675V40.6294H30.8374V43.2088H33.0276V40.6294H34.8997Z" fill="url(#paint0_linear_451_10972)"/>
<path d="M40.1773 47.1431C40.246 47.0837 40.3146 47.022 40.3787 46.958C40.4428 46.8941 40.4885 46.8415 40.5389 46.7844C40.8682 46.3958 41.0899 45.9279 41.182 45.4273C41.1997 45.3077 41.2104 45.1871 41.214 45.0663C41.1414 45.0362 41.0793 44.9853 41.0355 44.9201C40.8991 44.7043 40.7863 44.4745 40.6991 44.2346L40.2803 44.6322C40.2671 44.6478 40.2506 44.6602 40.232 44.6685C40.2134 44.6768 40.1931 44.6808 40.1727 44.6802C40.1517 44.6802 40.131 44.6752 40.1123 44.6657C40.0936 44.6561 40.0775 44.6423 40.0651 44.6253C39.8884 44.4139 39.7971 44.1444 39.8089 43.8693C39.8208 43.5942 39.935 43.3334 40.1292 43.138C40.2341 43.0237 40.3642 42.9353 40.5091 42.8798C40.5323 42.1695 40.7852 41.4858 41.2301 40.9309V40.6294H39.3648V44.9703C39.3648 45.2218 39.2648 45.463 39.0866 45.6408C38.9085 45.8186 38.6669 45.9185 38.415 45.9185C38.1631 45.9185 37.9216 45.8186 37.7434 45.6408C37.5653 45.463 37.4653 45.2218 37.4653 44.9703V40.6294H35.5886V44.9703C35.5832 45.34 35.6537 45.707 35.7958 46.0484C35.9379 46.3899 36.1485 46.6987 36.4148 46.9558C36.672 47.2218 36.9813 47.4324 37.3234 47.5742C37.6655 47.7161 38.0332 47.7863 38.4036 47.7805C38.4585 47.7805 38.5112 47.7805 38.5638 47.7805C39.1056 47.7476 39.6265 47.5605 40.0651 47.2413C40.1018 47.2002 40.1407 47.1751 40.1773 47.1431Z" fill="url(#paint1_linear_451_10972)"/>
<path d="M47.375 43.9902C47.547 43.6633 47.6358 43.2993 47.6336 42.9301C47.6372 42.626 47.5781 42.3245 47.46 42.0443C47.3419 41.764 47.1673 41.511 46.947 41.3011C46.7383 41.0863 46.4881 40.916 46.2116 40.8005C45.935 40.6851 45.6379 40.6268 45.3381 40.6294H41.8822V40.9241C42.0287 41.1206 42.1798 41.3399 42.1935 41.381C42.4584 41.8444 42.6069 42.3649 42.6261 42.8981C42.7703 42.9497 42.901 43.0333 43.0083 43.1425C43.2019 43.3389 43.3154 43.6002 43.3268 43.8755C43.3383 44.1508 43.2467 44.4205 43.0701 44.6322C43.058 44.6494 43.0419 44.6635 43.0231 44.673C43.0044 44.6826 42.9836 44.6874 42.9625 44.687C42.9421 44.6877 42.9218 44.6837 42.9032 44.6754C42.8846 44.667 42.8681 44.6546 42.8549 44.639L42.4247 44.2187C42.336 44.476 42.2161 44.7215 42.0676 44.9498C42.0231 45.0126 41.9598 45.0597 41.8868 45.0846C41.9009 45.081 41.9146 45.0764 41.928 45.0709C41.928 46.2955 42.0241 47.6777 43.9878 47.7714H45.9194C46.4855 47.7379 47.0157 47.4835 47.3956 47.0631C47.7901 46.6525 48.0071 46.1035 47.9998 45.5347C48.0025 45.2488 47.9487 44.9653 47.8415 44.7003C47.7343 44.4352 47.5758 44.1939 47.375 43.9902ZM43.7589 42.5165H45.3312C45.3981 42.5159 45.4643 42.5287 45.5261 42.5542C45.5878 42.5797 45.6437 42.6174 45.6906 42.665C45.7385 42.7125 45.7764 42.7692 45.8019 42.8316C45.8275 42.894 45.8402 42.9609 45.8393 43.0283C45.8402 43.0951 45.8275 43.1613 45.8019 43.223C45.7764 43.2846 45.7385 43.3404 45.6906 43.387C45.6448 43.4364 45.5892 43.4757 45.5273 43.5025C45.4654 43.5292 45.3987 43.5428 45.3312 43.5424H43.7589V42.5165ZM46.0293 45.738C45.9982 45.7845 45.956 45.8225 45.9064 45.8484C45.8568 45.8744 45.8015 45.8875 45.7455 45.8865H43.7589V44.8561H45.6745C45.777 44.856 45.8771 44.8865 45.9621 44.9437C46.047 45.0009 46.1128 45.0822 46.151 45.1772C46.1891 45.2721 46.1979 45.3762 46.1763 45.4762C46.1546 45.5762 46.1034 45.6674 46.0293 45.738Z" fill="url(#paint2_linear_451_10972)"/>
<path d="M41.5482 42.5462C41.7239 42.5462 41.8663 42.4041 41.8663 42.2287C41.8663 42.0533 41.7239 41.9111 41.5482 41.9111C41.3725 41.9111 41.2301 42.0533 41.2301 42.2287C41.2301 42.4041 41.3725 42.5462 41.5482 42.5462Z" fill="url(#paint3_linear_451_10972)"/>
<path d="M42.1339 42.6079L41.6282 42.3178L41.6671 42.2492L42.1729 42.5394L42.1339 42.6079Z" fill="url(#paint4_linear_451_10972)"/>
<path d="M42.1157 42.7153C42.2067 42.7153 42.2804 42.6416 42.2804 42.5508C42.2804 42.4599 42.2067 42.3863 42.1157 42.3863C42.0247 42.3863 41.9509 42.4599 41.9509 42.5508C41.9509 42.6416 42.0247 42.7153 42.1157 42.7153Z" fill="url(#paint5_linear_451_10972)"/>
<path d="M40.9783 42.7222C41.0693 42.7222 41.143 42.6485 41.143 42.5577C41.143 42.4668 41.0693 42.3932 40.9783 42.3932C40.8873 42.3932 40.8135 42.4668 40.8135 42.5577C40.8135 42.6485 40.8873 42.7222 40.9783 42.7222Z" fill="url(#paint6_linear_451_10972)"/>
<path d="M41.0193 42.5736L40.9804 42.5051L41.4839 42.2149L41.5251 42.2835L41.0193 42.5736Z" fill="url(#paint7_linear_451_10972)"/>
<path d="M41.539 41.7329C41.63 41.7329 41.7038 41.6592 41.7038 41.5684C41.7038 41.4775 41.63 41.4039 41.539 41.4039C41.448 41.4039 41.3742 41.4775 41.3742 41.5684C41.3742 41.6592 41.448 41.7329 41.539 41.7329Z" fill="url(#paint8_linear_451_10972)"/>
<path d="M41.5871 41.6072H41.507V42.1898H41.5871V41.6072Z" fill="url(#paint9_linear_451_10972)"/>
<defs>
<linearGradient id="paint0_linear_451_10972" x1="48" y1="44.1505" x2="28.9112" y2="44.1505" gradientUnits="userSpaceOnUse">
<stop stop-color="#FF6F4F"/>
<stop offset="1" stop-color="#DFA44D"/>
</linearGradient>
<linearGradient id="paint1_linear_451_10972" x1="48" y1="44.1505" x2="28.9112" y2="44.1505" gradientUnits="userSpaceOnUse">
<stop stop-color="#FF6F4F"/>
<stop offset="1" stop-color="#DFA44D"/>
</linearGradient>
<linearGradient id="paint2_linear_451_10972" x1="48" y1="44.1505" x2="28.9112" y2="44.1505" gradientUnits="userSpaceOnUse">
<stop stop-color="#FF6F4F"/>
<stop offset="1" stop-color="#DFA44D"/>
</linearGradient>
<linearGradient id="paint3_linear_451_10972" x1="48" y1="44.1505" x2="28.9112" y2="44.1505" gradientUnits="userSpaceOnUse">
<stop stop-color="#FF6F4F"/>
<stop offset="1" stop-color="#DFA44D"/>
</linearGradient>
<linearGradient id="paint4_linear_451_10972" x1="48" y1="44.1505" x2="28.9112" y2="44.1505" gradientUnits="userSpaceOnUse">
<stop stop-color="#FF6F4F"/>
<stop offset="1" stop-color="#DFA44D"/>
</linearGradient>
<linearGradient id="paint5_linear_451_10972" x1="48" y1="44.1505" x2="28.9112" y2="44.1505" gradientUnits="userSpaceOnUse">
<stop stop-color="#FF6F4F"/>
<stop offset="1" stop-color="#DFA44D"/>
</linearGradient>
<linearGradient id="paint6_linear_451_10972" x1="48" y1="44.1505" x2="28.9112" y2="44.1505" gradientUnits="userSpaceOnUse">
<stop stop-color="#FF6F4F"/>
<stop offset="1" stop-color="#DFA44D"/>
</linearGradient>
<linearGradient id="paint7_linear_451_10972" x1="48" y1="44.1505" x2="28.9112" y2="44.1505" gradientUnits="userSpaceOnUse">
<stop stop-color="#FF6F4F"/>
<stop offset="1" stop-color="#DFA44D"/>
</linearGradient>
<linearGradient id="paint8_linear_451_10972" x1="48" y1="44.1505" x2="28.9112" y2="44.1505" gradientUnits="userSpaceOnUse">
<stop stop-color="#FF6F4F"/>
<stop offset="1" stop-color="#DFA44D"/>
</linearGradient>
<linearGradient id="paint9_linear_451_10972" x1="48" y1="44.1505" x2="28.9112" y2="44.1505" gradientUnits="userSpaceOnUse">
<stop stop-color="#FF6F4F"/>
<stop offset="1" stop-color="#DFA44D"/>
</linearGradient>
<clipPath id="clip0_451_10972">
<rect width="31.3199" height="37.41" fill="white" transform="translate(8.34009 0.219238)"/>
</clipPath>
</defs>
</svg>
