<svg width="32" height="32" viewBox="0 0 32 32" fill="none" xmlns="http://www.w3.org/2000/svg">
<path d="M30.6632 0H15.2537C15.2537 1.84488 15.9865 3.6142 17.2911 4.91873C18.5956 6.22326 20.3649 6.95613 22.2098 6.95613H25.0484V9.6967C25.0509 13.535 28.1618 16.6459 32.0001 16.6484V1.33686C32.0001 0.598533 31.4015 0 30.6632 0Z" fill="#2684FF"/>
<path d="M23.0389 7.67798H7.62939C7.63185 11.5163 10.7428 14.6272 14.5811 14.6297H17.4197V17.3791C17.4246 21.2174 20.5375 24.3264 24.3758 24.3264V9.01484C24.3758 8.27651 23.7773 7.67798 23.0389 7.67798Z" fill="url(#paint0_linear_536_57112)"/>
<path d="M15.4094 15.3516H-0.00012207C-0.00012207 19.1933 3.11425 22.3077 6.95601 22.3077H9.80353V25.0483C9.80598 28.8831 12.9115 31.9926 16.7463 31.9999V16.6884C16.7463 15.9501 16.1478 15.3516 15.4094 15.3516Z" fill="url(#paint1_linear_536_57112)"/>
<defs>
<linearGradient id="paint0_linear_536_57112" x1="20.6461" y1="4.44637" x2="14.1309" y2="11.2447" gradientUnits="userSpaceOnUse">
<stop offset="0.18" stop-color="#0052CC"/>
<stop offset="1" stop-color="#2684FF"/>
</linearGradient>
<linearGradient id="paint1_linear_536_57112" x1="487.726" y1="451.777" x2="207.821" y2="728.784" gradientUnits="userSpaceOnUse">
<stop offset="0.18" stop-color="#0052CC"/>
<stop offset="1" stop-color="#2684FF"/>
</linearGradient>
</defs>
</svg>
