<svg width="48" height="48" viewBox="0 0 48 48" fill="none" xmlns="http://www.w3.org/2000/svg">
<g clip-path="url(#clip0_451_11040)">
<mask id="mask0_451_11040" style="mask-type:luminance" maskUnits="userSpaceOnUse" x="3" y="0" width="42" height="48">
<path d="M44.2608 0H3.73901V48H44.2608V0Z" fill="white"/>
</mask>
<g mask="url(#mask0_451_11040)">
<path d="M3.76807 42.6957C3.76807 42.6647 3.76807 42.634 3.77802 42.5856C4.14092 40.465 5.39865 39.1578 7.39152 38.4856C7.24175 38.3917 7.09801 38.3065 6.95902 38.214C5.36151 37.152 4.32371 35.6998 3.90398 33.8192C3.85096 33.5818 3.813 33.3409 3.76807 33.1015C3.76807 33.0612 3.76807 33.0209 3.77712 32.9612C3.79012 32.8989 3.79753 32.856 3.79753 32.8134C3.79765 27.5336 3.79697 22.254 3.79689 16.9743C3.7968 11.3372 3.79724 5.70008 3.81035 0.0609465C3.85705 0.0586631 3.89085 0.0581402 3.92465 0.0581402C14.9698 0.0581071 26.015 0.058121 37.0602 0.0579013C37.142 0.0578996 37.224 0.0547115 37.3191 0.0544434C38.3394 0.0872381 39.3084 0.299259 40.2057 0.755914C42.7826 2.0674 44.2402 4.15092 44.2481 7.06912C44.2773 17.7872 44.2597 28.5054 44.2597 39.2236C44.2597 39.2749 44.2597 39.3265 44.2597 39.3949C43.6382 39.3949 43.0344 39.3949 42.4205 39.3949C42.4356 39.4204 42.4388 39.4299 42.4452 39.436C42.4628 39.4523 42.4823 39.4665 42.5002 39.4824C43.9776 40.7873 44.5765 42.4047 44.1046 44.3325C43.5933 46.4224 41.6913 47.9149 39.5263 48.0021C39.4165 47.9995 39.3199 48.0001 39.2234 48.0001C29.0748 48.0001 18.9263 48.0001 8.77775 48.0004C8.68137 48.0004 8.58502 48.0038 8.47572 48.0053C7.9627 47.9818 7.47528 47.8894 7.00859 47.7096C5.42605 47.0995 4.37271 45.9963 3.90828 44.3528C3.85129 44.1511 3.81432 43.9438 3.76807 43.7392C3.76807 43.7082 3.76807 43.6775 3.77641 43.6262C3.78937 43.3427 3.79536 43.0795 3.79714 42.8163C3.79741 42.7763 3.77824 42.736 3.76807 42.6957ZM11.2608 38.3195C21.8908 38.3195 32.5209 38.3195 43.162 38.3195C43.162 38.2378 43.162 38.1711 43.162 38.1044C43.162 31.7812 43.162 25.4581 43.162 19.1349C43.162 15.1208 43.1602 11.1066 43.1634 7.09246C43.164 6.16344 42.9881 5.27301 42.5481 4.45501C41.3686 2.26184 39.5037 1.12467 37.0313 1.11946C26.3559 1.09696 15.6804 1.10982 5.00492 1.11017C4.95425 1.11017 4.90358 1.11526 4.84567 1.11836C4.84567 1.1897 4.84567 1.24255 4.84567 1.2954C4.84566 11.6376 4.8453 21.9797 4.84759 32.3218C4.84764 32.5821 4.85757 32.845 4.89531 33.1018C5.22921 35.3746 6.49224 36.9375 8.57337 37.8557C9.41714 38.2279 10.3125 38.3549 11.2608 38.3195ZM19.8115 39.3911C16.1888 39.3911 12.5662 39.3928 8.94349 39.3899C8.27966 39.3894 7.65247 39.5267 7.05981 39.8267C5.26746 40.734 4.47366 42.8601 5.31095 44.6653C6.01055 46.174 7.2547 46.9436 8.90589 46.9459C18.9673 46.9595 29.0288 46.9528 39.0904 46.9525C39.7121 46.9525 40.3063 46.8276 40.8672 46.5531C43.1275 45.4476 43.7492 42.614 42.104 40.7334C41.3098 39.8253 40.2898 39.3911 39.0843 39.3911C32.6697 39.3914 26.2551 39.3911 19.8115 39.3911Z" fill="#0298DB"/>
<path d="M8.5058 48.0292C8.49273 48.0292 8.49082 48.0176 8.48975 48.0118C8.58502 48.0039 8.6814 48.0005 8.77775 48.0005C18.9263 48.0002 29.0748 48.0002 39.2235 48.0002C39.32 48.0002 39.4165 47.9996 39.5264 48.0022C39.5397 48.0048 39.5371 48.017 39.5368 48.0231C29.1971 48.0292 18.858 48.0292 8.5058 48.0292Z" fill="#82CDEC"/>
<path d="M3.76807 42.7095C3.77824 42.7361 3.79741 42.7764 3.79714 42.8164C3.79536 43.0796 3.78937 43.3428 3.77641 43.6147C3.76807 43.3234 3.76807 43.0231 3.76807 42.7095Z" fill="#218DBC"/>
<path d="M11.2464 38.3197C10.3126 38.3551 9.4172 38.2282 8.57343 37.856C6.4923 36.9377 5.22927 35.3748 4.89537 33.1021C4.85763 32.8453 4.8477 32.5824 4.84764 32.3221C4.84536 21.98 4.84572 11.6378 4.84573 1.29564C4.84573 1.2428 4.84573 1.18995 4.84573 1.11861C4.90364 1.11551 4.95431 1.11042 5.00497 1.11042C15.6804 1.11007 26.3559 1.09721 37.0313 1.11971C39.5038 1.12492 41.3687 2.26209 42.5481 4.45526C42.9881 5.27326 43.1641 6.16369 43.1635 7.09271C43.1603 11.1069 43.162 15.1211 43.162 19.1352C43.162 25.4584 43.162 31.7815 43.162 38.1047C43.162 38.1713 43.162 38.238 43.162 38.3197C32.521 38.3197 21.8909 38.3197 11.2464 38.3197ZM9.17922 31.2154C9.17922 31.4513 9.17922 31.6873 9.17922 31.9079C9.25035 31.9537 9.30827 31.9911 9.3805 32.0374C9.11314 32.4603 8.85595 32.8667 8.59879 33.2734C8.58221 33.267 8.56566 33.2606 8.54908 33.254C8.54908 32.9273 8.54919 32.6003 8.54905 32.2734C8.54896 32.0122 8.60264 31.9499 8.85557 31.9195C8.85557 31.667 8.85557 31.4145 8.85557 31.1621C8.07801 31.1621 7.31221 31.1621 6.5382 31.1621C6.53521 31.2125 6.5307 31.2551 6.53055 31.2974C6.52981 31.509 6.53021 31.7206 6.53021 31.9342C6.63908 31.9519 6.73514 31.9624 6.82847 31.9841C7.03247 32.0319 7.0936 32.1053 7.10099 32.3154C7.10798 32.5131 7.10601 32.7111 7.1098 32.909C7.11444 33.1487 7.06577 33.3682 6.90696 33.5006C6.97693 33.6641 7.07804 33.8021 7.08986 33.9476C7.11595 34.2687 7.10688 34.594 7.09288 34.9166C7.0845 35.1105 6.96989 35.2047 6.77114 35.2221C6.69598 35.2287 6.61975 35.2232 6.53023 35.2232C6.53023 35.4537 6.53645 35.6653 6.52775 35.8763C6.52299 35.9916 6.56029 36.0238 6.67447 36.0229C7.36006 36.0183 8.04569 36.0209 8.73131 36.0203C8.77319 36.0203 8.81508 36.0139 8.86166 36.0105C8.86166 35.7441 8.86166 35.4893 8.86166 35.2363C8.53583 35.1374 8.45624 34.9247 8.63392 34.6299C8.67343 34.5641 8.72305 34.5035 8.77438 34.4464C8.87624 34.3331 8.99105 34.2542 9.15612 34.3166C9.31867 34.3777 9.3407 34.5111 9.34105 34.6574C9.34169 34.9087 9.33682 35.1597 9.34267 35.4108C9.35128 35.7797 9.60062 36.0206 9.96485 36.0206C10.327 36.0206 10.6891 36.0206 11.0512 36.0206C11.1029 36.0206 11.1546 36.0206 11.2133 36.0206C11.2133 35.749 11.2133 35.4957 11.2133 35.238C11.1496 35.2325 11.0927 35.2293 11.0362 35.2224C10.7865 35.1919 10.7201 35.1174 10.7197 34.8693C10.7193 34.6473 10.7232 34.4253 10.7181 34.2032C10.7062 33.6855 10.4811 33.425 9.97209 33.3319C9.84705 33.309 9.72212 33.2858 9.58131 33.2597C9.75656 32.9884 9.92035 32.7337 10.0858 32.4797C10.1279 32.4151 10.1718 32.3511 10.2209 32.2919C10.4344 32.034 10.6991 31.8911 11.0672 31.9273C11.0672 31.6737 11.0672 31.4203 11.0672 31.167C11.0441 31.1615 11.0307 31.1557 11.0172 31.1557C10.4347 31.1548 9.85224 31.1542 9.26975 31.1557C9.2416 31.1557 9.21351 31.1774 9.17922 31.2154ZM19.3963 7.80705C19.128 7.30598 18.8544 6.80766 18.5941 6.30247C18.4822 6.08543 18.3671 5.86201 18.3073 5.62772C18.1292 4.92981 18.6268 4.42007 19.3182 4.58642C19.7283 4.68508 20.0015 4.96326 20.1397 5.3536C20.3649 5.98955 20.5952 6.62549 20.7782 7.27418C21.1998 8.76853 21.5928 10.2709 22.0002 11.7693C22.1817 12.4369 22.407 13.0864 22.8084 13.6611C23.3648 14.4578 24.1075 14.97 25.0736 15.1259C25.9345 15.2647 26.7544 15.092 27.5433 14.7481C28.5965 14.2889 29.4789 13.5917 30.2251 12.7315C31.1911 11.618 32.1276 10.4788 33.0754 9.34943C33.2893 9.09424 33.5284 8.87705 33.8548 8.77421C34.4707 8.58015 35.0046 9.05442 34.8762 9.68557C34.8046 10.0383 34.5829 10.2947 34.3313 10.5344C33.4948 11.3311 32.6418 12.1117 31.8314 12.9342C30.6936 14.0891 29.6358 15.3151 28.7697 16.6933C28.3759 17.3199 28.0304 17.9697 27.877 18.705C27.6814 19.6422 28.2338 20.5823 29.15 20.8736C29.7368 21.0602 30.297 20.9607 30.8396 20.7197C31.7244 20.3266 32.4155 19.6914 33.0035 18.9369C33.1675 18.7264 33.3473 18.5443 33.6067 18.464C33.9139 18.369 34.2032 18.4083 34.4441 18.6312C34.6803 18.8498 34.7261 19.1258 34.6406 19.4287C34.5644 19.6979 34.3951 19.9071 34.2003 20.0977C33.8461 20.4445 33.5455 20.8315 33.327 21.2773C33.0023 21.939 32.8609 22.6276 33.0736 23.3533C33.3136 24.1709 34.0174 24.5661 34.8386 24.3554C35.2733 24.2438 35.6391 24.0082 35.9797 23.7243C36.0823 23.6388 36.1931 23.5567 36.3125 23.4991C36.5284 23.3949 36.7765 23.4434 36.9142 23.5954C37.0481 23.743 37.0707 23.9848 36.9441 24.1899C36.8693 24.3106 36.7612 24.4111 36.6641 24.5172C36.5284 24.6654 36.3728 24.7982 36.2548 24.9589C35.9658 25.3524 35.789 25.8025 35.6615 26.2699C35.4397 27.0816 35.3502 27.9024 35.5678 28.73C35.7412 29.389 36.1745 30.0006 37.1707 29.9838C38.6145 29.9592 40.0594 29.9821 41.5038 29.9847C41.5638 29.985 41.6238 29.9847 41.6922 29.9847C41.6922 29.8855 41.6922 29.8134 41.6922 29.7415C41.6922 22.5533 41.6922 15.3651 41.6919 8.17685C41.6919 8.08508 41.6919 7.99329 41.6902 7.90152C41.6777 7.1221 41.5168 6.3725 41.1536 5.68389C40.071 3.63073 38.3516 2.55749 36.0365 2.55354C26.1867 2.53673 16.3368 2.54639 6.48682 2.54639C6.43524 2.54639 6.38365 2.54639 6.32694 2.54639C6.32694 11.6999 6.32694 20.8368 6.32694 29.9905C6.40735 29.9905 6.47919 29.9902 6.55102 29.9905C8.70064 29.9989 10.8503 30.0093 12.9999 30.0122C13.1859 30.0125 13.3774 29.9838 13.5568 29.9342C14.217 29.7519 14.655 29.2974 14.9786 28.7195C15.3572 28.0433 15.5413 27.3062 15.6216 26.5419C15.668 26.1004 15.7066 25.6575 15.6039 25.2161C15.2841 23.84 14.5001 22.7839 13.3687 21.9675C12.3702 21.2469 11.2479 20.7946 10.0709 20.4677C9.75633 20.3804 9.52563 20.2068 9.38406 19.9191C9.15656 19.4566 9.3654 18.9618 9.8445 18.8545C10.163 18.7832 10.4849 18.8189 10.7713 18.9842C11.8142 19.5861 12.8535 20.1944 13.8915 20.8047C14.334 21.0649 14.7826 21.3004 15.3003 21.3794C16.3269 21.536 17.1295 20.8646 17.0992 19.8575C17.0828 19.3121 17.0505 18.7672 17.0283 18.2219C16.9942 17.387 16.961 16.552 16.931 15.717C16.9224 15.4739 16.9477 15.234 17.0624 15.013C17.2374 14.6758 17.6003 14.5921 17.903 14.8228C18.1722 15.0278 18.2666 15.3105 18.2462 15.639C18.2128 16.1788 18.1599 16.7181 18.149 17.2583C18.1311 18.1466 18.1392 19.0354 18.1385 19.924C18.1383 20.208 18.198 20.48 18.3277 20.7341C18.7425 21.547 19.7468 21.8731 20.6399 21.5915C21.5095 21.3173 22.0686 20.5901 22.1104 19.6773C22.127 19.3137 22.0859 18.946 22.0526 18.5819C21.9999 18.0051 21.9429 17.4282 21.8678 16.854C21.6942 15.5278 21.4473 14.2146 21.1289 12.9153C20.7011 11.1695 20.1657 9.46001 19.3963 7.80705ZM16.5404 29.6824C16.8387 29.6253 17.1348 29.5479 17.4357 29.5148C18.4713 29.4009 19.5091 29.4296 20.5468 29.4942C20.99 29.5221 21.4348 29.5722 21.8769 29.5563C22.445 29.536 22.9224 29.3189 23.1416 28.7388C23.2609 28.4231 23.2618 28.093 23.1973 27.7672C23.1179 27.3654 23.2537 27.0359 23.5426 26.7809C24.0408 26.3412 24.6211 26.3193 25.228 26.5145C25.6566 26.6524 26.0902 26.766 26.5453 26.7554C26.9493 26.746 27.1578 26.5854 27.2788 26.2045C27.3051 26.1218 27.3317 26.0391 27.3622 25.9579C27.4269 25.7848 27.5429 25.6924 27.7361 25.6664C27.8989 25.6444 28.0698 25.5977 28.2105 25.516C28.4314 25.3877 28.4155 25.161 28.2017 25.0267C27.7865 24.7659 27.5512 24.3998 27.6317 23.9014C27.6675 23.68 27.7537 23.4468 27.8824 23.2654C28.0567 23.0199 28.2939 22.8191 28.4931 22.6106C28.4839 22.6112 28.4366 22.606 28.3947 22.6188C28.1556 22.6918 27.9061 22.7443 27.6819 22.85C27.1601 23.0961 26.7828 23.4783 26.681 24.0732C26.6148 24.46 26.7142 24.8172 26.8869 25.1628C27.1287 25.6469 26.8555 26.103 26.3178 26.0866C26.0878 26.0796 25.8555 26.0067 25.6326 25.9369C25.3115 25.8365 25.0039 25.6905 24.68 25.6023C24.2444 25.4837 23.7999 25.4741 23.3711 25.6477C22.7013 25.9187 22.3274 26.6393 22.445 27.4024C22.4676 27.5491 22.4782 27.7011 22.4685 27.8489C22.4446 28.2163 22.2475 28.4665 21.896 28.5633C21.74 28.6063 21.5719 28.6249 21.4098 28.6222C20.816 28.6121 20.2224 28.5771 19.6286 28.5722C18.4822 28.5628 17.3397 28.6074 16.2274 28.9281C15.4206 29.1606 14.7524 29.5858 14.3182 30.3267C14.1888 30.5473 14.0708 30.7748 13.9356 31.0212C14.2724 31.0212 14.5715 31.025 14.8704 31.0166C14.909 31.0154 14.9619 30.9583 14.9811 30.9151C15.1232 30.5957 15.3248 30.3255 15.6067 30.1157C15.8816 29.9108 16.1936 29.787 16.5404 29.6824ZM21.6615 33.9209C21.6233 34.027 21.5851 34.1331 21.5396 34.2597C21.6975 34.4232 21.7195 34.6606 21.7099 34.9073C21.7 35.1624 21.6465 35.2267 21.4006 35.2722C21.4006 35.5157 21.4006 35.7595 21.4006 36.0111C22.0673 36.0111 22.726 36.0111 23.3881 36.0111C23.3881 35.7534 23.3881 35.5055 23.3881 35.256C23.2817 35.2464 23.1864 35.2334 23.0908 35.2296C22.9789 35.2255 22.9164 35.1644 22.9098 35.0615C22.8914 34.7708 22.8204 34.4676 23.0844 34.2218C22.8852 34.0493 22.8788 33.825 22.8903 33.594C22.8956 33.4882 22.8925 33.3815 22.8906 33.2754C22.8853 32.9905 22.7664 32.7661 22.5348 32.5983C21.9807 32.1971 21.3513 32.2464 20.8691 32.7325C20.8241 32.778 20.7855 32.8296 20.7439 32.8783C20.7326 32.8708 20.7213 32.8635 20.71 32.856C20.71 32.7479 20.71 32.64 20.71 32.5293C20.1826 32.5293 19.6644 32.5293 19.1459 32.5293C19.1459 32.7734 19.1459 33.0067 19.1459 33.2412C19.2586 33.2461 19.3644 33.2337 19.459 33.2606C19.5257 33.2795 19.6187 33.345 19.6282 33.4018C19.6766 33.6911 19.7731 33.9977 19.4643 34.2258C19.7377 34.4655 19.6802 34.7696 19.6467 35.067C19.6366 35.1574 19.5827 35.2116 19.4826 35.218C19.3689 35.2253 19.256 35.2432 19.1421 35.2566C19.1421 35.5134 19.1421 35.7577 19.1421 36.0102C19.8131 36.0102 20.4761 36.0102 21.1441 36.0102C21.1441 35.7519 21.1441 35.5041 21.1441 35.254C21.0959 35.2487 21.0577 35.2409 21.0195 35.2412C20.8644 35.2412 20.7957 35.1626 20.7905 35.0105C20.781 34.7296 20.7493 34.4455 20.9751 34.2253C20.7325 33.9128 20.7737 33.5655 21.0676 33.3789C21.3215 33.2174 21.6132 33.3508 21.6518 33.6482C21.6623 33.7293 21.6589 33.8119 21.6615 33.9209ZM25.5689 33.1351C25.9054 33.1934 26.0465 33.396 25.9491 33.6954C25.9093 33.6954 25.8662 33.6945 25.8231 33.6954C25.553 33.7021 25.2784 33.6803 25.0137 33.7215C24.3885 33.8189 24.0284 34.2458 23.7795 34.7896C23.7686 34.8134 23.7643 34.8493 23.7744 34.8719C23.8739 35.0954 23.9648 35.3238 24.0815 35.538C24.3657 36.0595 24.8895 36.2824 25.4569 36.1061C25.6506 36.0458 25.8212 35.9113 25.9998 35.8119C26.0048 35.8609 26.0123 35.9348 26.0209 36.02C26.5343 36.02 27.0355 36.0212 27.5367 36.0166C27.5627 36.0163 27.61 35.9676 27.6107 35.9403C27.6168 35.7148 27.6142 35.489 27.6142 35.2574C27.5407 35.2534 27.4837 35.2513 27.4267 35.2473C27.3177 35.2397 27.2385 35.1844 27.2204 35.0771C27.1684 34.7696 27.1367 34.4629 27.3931 34.2032C27.2009 34.0331 27.168 33.8111 27.1868 33.5705C27.1951 33.465 27.1819 33.3577 27.1894 33.2522C27.2116 32.9397 27.0652 32.7264 26.8034 32.5795C26.2325 32.2589 25.6584 32.2438 25.082 32.5658C25.0338 32.5928 24.9851 32.6189 24.9248 32.6516C24.9106 32.587 24.9007 32.5424 24.8911 32.4986C24.6212 32.4986 24.3577 32.4986 24.0885 32.4986C24.0885 32.8566 24.0885 33.2061 24.0885 33.5713C24.3559 33.5713 24.6153 33.5734 24.8745 33.5682C24.9012 33.5679 24.9403 33.5296 24.9512 33.5003C25.0549 33.2238 25.2671 33.1276 25.5689 33.1351ZM32.6043 35.467C32.962 36.2829 34.0357 36.3722 34.5606 35.7699C34.5699 35.8583 34.578 35.9322 34.5864 36.0111C35.1157 36.0111 35.6394 36.0111 36.1641 36.0111C36.1641 35.7531 36.1641 35.505 36.1641 35.2476C36.1006 35.2476 36.0478 35.2499 35.9954 35.2473C35.8945 35.2421 35.8119 35.2006 35.7899 35.0968C35.7235 34.7829 35.7012 34.4742 35.9545 34.2018C35.7429 34.0195 35.7307 33.7719 35.7458 33.5151C35.7513 33.4238 35.7403 33.3313 35.7478 33.24C35.7728 32.938 35.6293 32.7308 35.3797 32.5876C34.807 32.2586 34.2278 32.2412 33.6452 32.565C33.5962 32.5922 33.5473 32.6192 33.4878 32.6516C33.4759 32.5884 33.4678 32.5435 33.4597 32.5006C33.1838 32.5006 32.9162 32.5006 32.6484 32.5006C32.6484 32.8612 32.6484 33.2111 32.6484 33.5719C32.9133 33.5719 33.1687 33.5742 33.4238 33.5687C33.4545 33.5682 33.4971 33.5311 33.5125 33.5003C33.6591 33.2024 33.8925 33.0818 34.207 33.147C34.4136 33.1899 34.5162 33.2997 34.5441 33.5082C34.5661 33.6751 34.5499 33.6919 34.3861 33.696C34.1064 33.7029 33.822 33.6832 33.5484 33.7287C32.936 33.8305 32.5856 34.2557 32.3441 34.7908C32.3325 34.8166 32.3327 34.8563 32.3438 34.8824C32.4247 35.0719 32.5099 35.2597 32.6043 35.467ZM15.0353 33.985C15.019 33.9209 14.9909 33.8571 14.9888 33.7925C14.9824 33.6044 14.9781 33.4157 14.9884 33.2279C15.0045 32.938 14.8711 32.7363 14.6326 32.5971C14.101 32.2867 13.5532 32.2334 12.9899 32.5119C12.9047 32.554 12.8211 32.5992 12.7283 32.6476C12.7137 32.5913 12.702 32.5461 12.6906 32.5018C12.4219 32.5018 12.1546 32.5018 11.8919 32.5018C11.8919 32.8638 11.8919 33.2137 11.8919 33.5719C12.1536 33.5719 12.4043 33.5748 12.6548 33.5684C12.6893 33.5676 12.7372 33.5264 12.7542 33.4919C12.8943 33.2061 13.1319 33.0835 13.4398 33.1455C13.6553 33.1887 13.751 33.2974 13.7809 33.5171C13.7977 33.6412 13.7762 33.7024 13.6273 33.6992C13.3528 33.6937 13.073 33.6815 12.8038 33.7244C12.1849 33.8232 11.8284 34.2476 11.583 34.7876C11.5721 34.8116 11.5644 34.847 11.5741 34.8687C11.6734 35.0922 11.7648 35.3203 11.8811 35.5348C12.165 36.0583 12.6865 36.2821 13.255 36.1067C13.4493 36.047 13.6206 35.9125 13.7992 35.8139C13.8059 35.8624 13.8164 35.9366 13.8263 36.0079C14.3603 36.0079 14.8837 36.0079 15.407 36.0079C15.407 35.7505 15.407 35.5064 15.407 35.2566C15.3409 35.2531 15.2838 35.2511 15.2267 35.247C15.1172 35.2397 15.0402 35.1829 15.0204 35.0766C14.9629 34.7676 14.945 34.4632 15.1847 34.2093C15.1377 34.1403 15.0918 34.0725 15.0353 33.985ZM31.7029 30.2618C31.6788 30.2606 31.6545 30.2609 31.6306 30.2583C31.2231 30.214 30.9828 29.9922 30.9647 29.6438C30.9566 29.4876 30.8287 29.3482 30.6751 29.3276C30.5237 29.3076 30.4064 29.4058 30.4119 29.5557C30.4161 29.6667 30.425 29.778 30.4425 29.8873C30.5095 30.3055 30.7441 30.5737 31.1582 30.6835C31.5 30.7739 31.847 30.7435 32.1941 30.7525C32.6464 30.7644 32.9658 30.6134 33.1362 30.1731C33.1757 30.0713 33.2797 29.9551 33.3791 29.9229C34.0183 29.7151 34.1394 28.7441 33.6029 28.325C33.449 28.2048 33.3041 28.0612 33.1913 27.9024C32.8986 27.4903 32.6255 27.0642 32.3475 26.6419C32.3255 26.6085 32.3181 26.5609 32.3166 26.5195C32.3043 26.1637 32.1781 25.8517 31.9562 25.5772C31.8819 25.4852 31.7984 25.4006 31.7253 25.3196C31.8357 25.1777 31.9486 25.0512 32.0404 24.9109C32.3383 24.4552 32.3268 23.9466 32.014 23.5012C31.7834 23.1729 31.4722 22.9431 31.1092 22.78C31.0564 22.7564 31.0005 22.7395 30.9144 22.7079C30.9661 22.7954 31.0013 22.8473 31.0288 22.9029C31.1633 23.1743 31.3231 23.437 31.4229 23.7208C31.6042 24.2362 31.353 24.6867 30.8539 24.9182C30.3786 25.1388 29.8568 25.2107 29.3245 25.1156C29.2143 25.0959 29.0886 25.0992 28.9834 25.1332C28.8777 25.1673 28.7181 25.2445 28.7094 25.318C28.6968 25.4235 28.7914 25.5478 28.8568 25.6538C28.8831 25.6964 28.9509 25.7185 29.0041 25.7383C29.2825 25.8421 29.5708 25.8422 29.8614 25.8136C30.1299 25.7872 30.3982 25.7455 30.6672 25.7402C30.9936 25.734 31.2466 25.8903 31.3873 26.186C31.4841 26.3894 31.5448 26.6097 31.6257 26.8209C31.6684 26.9323 31.6976 27.0587 31.7707 27.147C32.1764 27.6367 32.5949 28.1156 33.0058 28.6011C33.0797 28.6888 33.1493 28.7841 33.2017 28.8857C33.3357 29.1444 33.2675 29.3902 33 29.4983C32.7664 29.5925 32.6433 29.7397 32.6055 29.9806C32.5836 30.1206 32.4957 30.1954 32.3484 30.2055C32.142 30.2197 31.9362 30.2432 31.7029 30.2618ZM28.1902 33.3218C28.5053 33.5519 28.4204 33.858 28.3434 34.16C28.584 34.3342 28.6822 34.594 28.7812 34.8499C28.9133 35.1913 29.039 35.5357 29.1579 35.8818C29.196 35.9925 29.252 36.027 29.3673 36.0235C29.6615 36.0148 29.9574 36.0047 30.2503 36.0258C30.4679 36.0418 30.5657 35.9655 30.648 35.7641C30.8411 35.2919 31.0519 34.8253 31.29 34.3742C31.3829 34.1983 31.527 34.0589 31.4464 33.8395C31.4403 33.8229 31.4473 33.8012 31.4495 33.7821C31.4879 33.4525 31.6802 33.2432 31.9396 33.2505C31.9396 33.0113 31.9396 32.7722 31.9396 32.527C31.422 32.527 30.913 32.527 30.3959 32.527C30.3959 32.7789 30.3959 33.0229 30.3959 33.2653C30.722 33.3209 30.7535 33.3534 30.6491 33.674C30.5387 34.0122 30.3973 34.3403 30.2682 34.6725C30.2396 34.7461 30.2059 34.818 30.1617 34.92C30.0677 34.5995 29.8854 34.3264 30.068 34.0171C29.9905 33.9557 29.9147 33.9044 29.8491 33.8424C29.7233 33.7232 29.6903 33.5624 29.757 33.4174C29.7954 33.334 29.9208 33.2905 30.0382 33.207C30.0382 33.0195 30.0382 32.7757 30.0382 32.5311C29.3326 32.5311 28.6362 32.5311 27.94 32.5311C27.94 32.7835 27.94 33.0232 27.94 33.2583C28.0227 33.2771 28.0965 33.2939 28.1902 33.3218ZM37.8467 36.0206C38.1933 36.0206 38.5397 36.0206 38.8933 36.0206C38.8933 35.7563 38.8933 35.5087 38.8933 35.2484C38.7548 35.2484 38.6246 35.2395 38.4959 35.2508C38.3467 35.2638 38.2786 35.1922 38.2635 35.0577C38.2307 34.7635 38.1899 34.4661 38.4255 34.2505C38.3609 34.1438 38.267 34.0554 38.2559 33.9577C38.2313 33.7403 38.2481 33.518 38.2481 33.2783C38.4887 33.2783 38.7171 33.2783 38.9487 33.2783C38.9487 33.0142 38.9487 32.7696 38.9487 32.5044C38.7142 32.5044 38.4852 32.5044 38.2403 32.5044C38.2403 32.1345 38.2403 31.7844 38.2403 31.4299C37.8258 31.4299 37.4281 31.4299 37.0151 31.4299C37.0151 31.789 37.0151 32.1392 37.0151 32.5064C36.8336 32.5064 36.667 32.5064 36.498 32.5064C36.498 32.7725 36.498 33.0209 36.498 33.2858C36.6739 33.2858 36.8406 33.2858 37.0177 33.2858C37.0177 33.4563 37.0107 33.6108 37.0194 33.7641C37.0302 33.9508 37.0104 34.12 36.8099 34.2276C37.0107 34.3792 37.0304 34.574 37.0197 34.7847C37.0102 34.9679 37.0197 35.1516 37.0171 35.3351C37.0145 35.5276 37.0887 35.6832 37.2371 35.8018C37.4067 35.9377 37.5936 36.0325 37.8467 36.0206ZM17.6357 33.7409C17.7144 33.6412 17.8187 33.6105 17.9426 33.6125C18.1919 33.6168 18.4413 33.614 18.6916 33.614C18.6916 33.2386 18.6916 32.8841 18.6916 32.5186C18.46 32.5186 18.2384 32.5273 18.0177 32.5163C17.7953 32.505 17.637 32.6024 17.5154 32.7737C17.4558 32.8577 17.408 32.9499 17.3372 33.0679C17.3372 32.8682 17.3372 32.7021 17.3372 32.5276C16.8422 32.5276 16.3578 32.5276 15.866 32.5276C15.866 32.7676 15.866 33.0012 15.866 33.2409C15.9457 33.2444 16.0226 33.2322 16.0872 33.2551C16.1578 33.28 16.2621 33.3276 16.2735 33.3821C16.3354 33.6754 16.4145 33.98 16.1431 34.236C16.371 34.4371 16.3295 34.7061 16.3148 34.9647C16.3027 35.1789 16.2292 35.2386 16.0116 35.2479C15.9647 35.2499 15.9179 35.2534 15.8684 35.2563C15.8684 35.5131 15.8684 35.7603 15.8684 36.0105C16.6105 36.0105 17.3415 36.0105 18.0739 36.0105C18.0739 35.7525 18.0739 35.5047 18.0739 35.2461C17.9714 35.2461 17.8799 35.2418 17.7891 35.2473C17.6429 35.2563 17.5746 35.1844 17.5643 35.0455C17.5426 34.7531 17.4932 34.4548 17.7416 34.2247C17.548 34.0305 17.5301 33.9554 17.6357 33.7409ZM39.4568 32.6589C39.4568 32.8505 39.4568 33.0421 39.4568 33.247C39.5571 33.247 39.6441 33.2287 39.7183 33.2522C39.7878 33.2742 39.8884 33.3316 39.8986 33.3876C39.9516 33.68 40.0446 33.9887 39.7493 34.2195C39.9852 34.4357 39.9562 34.7122 39.9307 34.9803C39.9104 35.1899 39.8374 35.2406 39.6261 35.2482C39.5745 35.2499 39.5229 35.2528 39.4568 35.256C39.4568 35.4679 39.4641 35.6699 39.4542 35.8711C39.4481 35.9951 39.4931 36.0241 39.6104 36.0232C40.2331 36.018 40.8557 36.0206 41.4783 36.0206C41.5252 36.0206 41.5719 36.0206 41.6203 36.0206C41.6203 35.7539 41.6203 35.507 41.6203 35.2574C41.5736 35.2574 41.5406 35.2568 41.5073 35.2574C41.2644 35.2615 41.2073 35.2166 41.1803 34.976C41.1496 34.7041 41.1368 34.4334 41.369 34.2145C41.1788 34.0879 41.1577 33.9102 41.1641 33.7116C41.1745 33.3983 41.167 33.0844 41.167 32.7705C41.167 32.6905 41.167 32.6102 41.167 32.5189C40.6119 32.5189 40.0771 32.52 39.542 32.5177C39.4525 32.5174 39.4551 32.5713 39.4568 32.6589ZM39.7377 31.638C39.7377 31.7858 39.7377 31.9337 39.7377 32.0835C40.1783 32.0835 40.6003 32.0835 41.0267 32.0835C41.0267 31.7206 41.0267 31.367 41.0267 31.0076C40.5933 31.0076 40.171 31.0076 39.7377 31.0076C39.7377 31.2142 39.7377 31.4116 39.7377 31.638ZM31.0007 27.5672C30.7545 27.2066 30.2427 27.0223 29.7965 27.1388C29.7683 27.1462 29.732 27.1948 29.7313 27.2249C29.7138 27.9544 30.5159 28.4379 31.1935 28.0769C31.1339 27.9158 31.0728 27.7507 31.0007 27.5672Z" fill="#FDFDFE"/>
<path d="M19.8261 39.3913C26.2552 39.3913 32.6698 39.3916 39.0843 39.3913C40.2898 39.3913 41.3098 39.8255 42.104 40.7336C43.7493 42.6142 43.1275 45.4478 40.8672 46.5533C40.3064 46.8278 39.7122 46.9527 39.0904 46.9527C29.0289 46.953 18.9674 46.9597 8.90596 46.9461C7.25474 46.9438 6.01059 46.1742 5.31099 44.6655C4.4737 42.8603 5.26751 40.7342 7.05984 39.827C7.65251 39.527 8.2797 39.3896 8.94352 39.3901C12.5662 39.393 16.1889 39.3913 19.8261 39.3913ZM18.6948 42.1296C18.6856 42.0823 18.6773 42.0348 18.667 41.9875C18.5745 41.5675 18.4643 41.1533 18.2448 40.7777C18.036 40.4203 17.7444 40.2354 17.3106 40.2417C16.2387 40.2574 15.1665 40.2467 14.0943 40.2467C14.0374 40.2467 13.9804 40.2467 13.9152 40.2467C13.9152 40.5159 13.9152 40.7684 13.9152 41.0362C14.0498 41.0362 14.1743 41.0359 14.2987 41.0362C14.5714 41.0365 14.6599 41.1197 14.6631 41.3991C14.6654 41.5968 14.646 41.7948 14.6488 41.9925C14.6521 42.2293 14.6136 42.4443 14.4256 42.5751C14.4978 42.709 14.6095 42.8261 14.619 42.951C14.6466 43.3101 14.6444 43.673 14.6303 44.0336C14.6236 44.2078 14.5382 44.2559 14.355 44.2568C14.2076 44.2574 14.0601 44.2568 13.9135 44.2568C13.9135 44.5313 13.9135 44.7803 13.9135 45.0365C13.9449 45.0388 13.9681 45.0426 13.9913 45.0426C15.16 45.0429 16.3287 45.0432 17.4974 45.0412C17.5636 45.0412 17.6341 45.0301 17.6953 45.0061C18.1672 44.8197 18.4192 44.4588 18.5228 43.9725C18.6225 43.5043 18.642 43.0119 18.898 42.6403C18.8229 42.4574 18.7605 42.3055 18.6948 42.1296ZM33.0356 43.4284C33.1551 43.2988 33.2745 43.1693 33.4011 43.0319C33.2953 42.7988 33.3188 42.6322 33.5014 42.4861C33.6765 42.3461 33.8716 42.2664 34.1026 42.3322C34.1026 42.08 34.1026 41.8455 34.1026 41.6046C33.3881 41.6046 32.6818 41.6046 31.9776 41.6046C31.9776 41.8583 31.9776 42.1012 31.9776 42.3438C32.0536 42.3438 32.1161 42.3426 32.1787 42.3441C32.3018 42.3464 32.3624 42.3985 32.3531 42.5327C32.3385 42.7452 32.2848 42.9241 32.0427 42.9783C32.1441 43.2571 31.9915 43.4591 31.8731 43.689C31.6751 43.4725 31.5872 43.2501 31.7231 42.9797C31.5059 42.9255 31.3811 42.7936 31.3111 42.6075C31.2353 42.4058 31.2809 42.3438 31.4952 42.3452C31.528 42.3455 31.5608 42.3403 31.6008 42.3371C31.6008 42.0887 31.6008 41.8464 31.6008 41.6049C30.8477 41.6049 30.1065 41.6049 29.3557 41.6049C29.3557 41.7362 29.3557 41.8565 29.3557 41.9768C29.3557 42.0959 29.3557 42.2151 29.3557 42.3412C29.5939 42.3327 29.7552 42.4342 29.8557 42.6232C29.9557 42.811 29.9358 43.0017 29.8239 43.1861C30.0525 43.2901 30.1926 43.4719 30.2998 43.6713C30.5691 44.1727 30.8253 44.6812 31.0811 45.1896C31.0991 45.2252 31.086 45.2939 31.0619 45.3301C30.939 45.5154 30.7542 45.627 30.5472 45.6803C30.293 45.7455 30.0306 45.7788 29.7676 45.827C29.7676 46.1168 29.7676 46.4281 29.7676 46.7667C30.1711 46.7209 30.5577 46.6756 30.9447 46.6336C31.2549 46.6 31.4709 46.4206 31.6234 46.169C31.7906 45.8936 31.939 45.6061 32.0851 45.3185C32.4014 44.6959 32.711 44.0701 33.0356 43.4284ZM22.3623 45.0429C22.6161 45.0429 22.8699 45.0429 23.1232 45.0429C23.1232 44.7812 23.1232 44.5414 23.1232 44.2948C23.0832 44.293 23.0505 44.2913 23.0177 44.2901C22.8056 44.2829 22.7246 44.22 22.7052 44.0104C22.6801 43.7403 22.6684 43.4678 22.9094 43.2559C22.7044 43.0823 22.6741 42.8603 22.6934 42.6191C22.7029 42.4991 22.6913 42.3777 22.6959 42.2571C22.7042 42.04 22.6142 41.8664 22.4414 41.7493C22.0489 41.4835 21.6153 41.3417 21.1408 41.4417C20.881 41.4965 20.6326 41.6058 20.3737 41.6922C20.3668 41.6678 20.3531 41.6188 20.3415 41.5777C20.0606 41.5777 19.788 41.5777 19.519 41.5777C19.519 41.9351 19.519 42.2803 19.519 42.6377C19.7695 42.6377 20.0102 42.6339 20.2508 42.6397C20.3395 42.6417 20.3911 42.6203 20.4241 42.531C20.4873 42.3594 20.6202 42.2577 20.7967 42.222C20.9855 42.1838 21.1732 42.1835 21.3341 42.3133C21.4298 42.3904 21.5159 42.6426 21.4487 42.7041C21.395 42.7527 21.2853 42.7472 21.1997 42.7527C20.9209 42.7707 20.6348 42.7493 20.3639 42.8041C19.7919 42.9197 19.4471 43.3203 19.2101 43.8275C19.1977 43.8542 19.1935 43.8951 19.2048 43.9209C19.2836 44.1009 19.3654 44.2794 19.45 44.4565C19.7421 45.0693 20.3552 45.3333 20.9967 45.1046C21.167 45.0441 21.3164 44.9243 21.4764 44.831C21.4831 44.8867 21.4921 44.9603 21.5021 45.0429C21.784 45.0429 22.0587 45.0429 22.3623 45.0429ZM27.8416 41.769C27.7631 41.8803 27.6846 41.9916 27.5892 42.1272C27.5892 41.9351 27.5892 41.7693 27.5892 41.5942C27.3298 41.5942 27.0843 41.5942 26.8388 41.5942C26.5897 41.5942 26.3406 41.5942 26.0809 41.5942C26.0809 41.7304 26.0809 41.8458 26.0809 41.9609C26.0809 42.0748 26.0809 42.189 26.0809 42.3084C26.1731 42.3127 26.2486 42.3026 26.3149 42.3229C26.3827 42.3435 26.467 42.3788 26.4998 42.4342C26.627 42.649 26.554 43.1029 26.3796 43.2762C26.5673 43.5609 26.5679 43.5632 26.5527 43.9223C26.5402 44.2194 26.4782 44.2797 26.1759 44.289C26.1484 44.2898 26.1209 44.2936 26.0921 44.2959C26.0921 44.5484 26.0921 44.791 26.0921 45.0348C26.8494 45.0348 27.5955 45.0348 28.3458 45.0348C28.3458 44.7841 28.3458 44.5412 28.3458 44.2849C28.24 44.2849 28.1441 44.2817 28.0485 44.2855C27.9034 44.2916 27.8362 44.2165 27.823 44.0803C27.7951 43.7907 27.7576 43.4991 28.0067 43.2768C27.8063 43.0817 27.77 42.9272 27.911 42.7959C27.9815 42.7301 28.0934 42.682 28.1896 42.6762C28.4523 42.66 28.7167 42.6707 28.9796 42.6707C28.9796 42.302 28.9796 41.953 28.9796 41.5942C28.7465 41.5942 28.5249 41.5997 28.3038 41.5922C28.13 41.5864 27.9809 41.6327 27.8416 41.769ZM23.6447 45.0423C24.3661 45.0423 25.0874 45.0423 25.8107 45.0423C25.8107 44.7814 25.8107 44.5423 25.8107 44.2933C25.7506 44.2933 25.6986 44.2933 25.6466 44.2933C25.4413 44.293 25.3781 44.2461 25.353 44.0397C25.3195 43.7643 25.2966 43.4867 25.5444 43.2652C25.3425 43.1432 25.3297 42.9629 25.3348 42.7661C25.3437 42.4188 25.3373 42.0713 25.3364 41.7238C25.3364 41.6829 25.3304 41.6417 25.3266 41.5942C25.0276 41.5942 24.7433 41.5942 24.459 41.5942C24.1716 41.5942 23.8843 41.5942 23.6011 41.5942C23.6011 41.8461 23.6011 42.0748 23.6011 42.3084C23.6661 42.3084 23.7186 42.3072 23.7711 42.3087C23.9767 42.3148 24.048 42.3632 24.0692 42.5649C24.0959 42.8191 24.157 43.0901 23.8892 43.2661C24.122 43.5096 24.1056 43.7901 24.0585 44.0765C24.0364 44.211 23.9505 44.2751 23.8192 44.2843C23.7443 44.2896 23.6693 44.2925 23.5887 44.2968C23.5887 44.4322 23.585 44.5525 23.5897 44.6727C23.5945 44.7948 23.6077 44.9168 23.6447 45.0423ZM25.1617 41.1762C25.1737 41.133 25.195 41.0898 25.1962 41.0464C25.2004 40.8922 25.1978 40.738 25.1978 40.5841C25.1978 40.4272 25.1978 40.2707 25.1978 40.1139C24.7442 40.1139 24.3133 40.1139 23.8821 40.1139C23.8821 40.4733 23.8821 40.822 23.8821 41.1803C24.3072 41.1803 24.7209 41.1803 25.1617 41.1762Z" fill="#FDFEFE"/>
<path d="M19.4013 7.81653C20.1657 9.45984 20.701 11.1694 21.1288 12.9152C21.4472 14.2145 21.6941 15.5276 21.8677 16.8538C21.9429 17.4281 21.9998 18.0049 22.0526 18.5817C22.0858 18.9459 22.127 19.3135 22.1104 19.6771C22.0686 20.59 21.5094 21.3172 20.6399 21.5913C19.7468 21.8729 18.7425 21.5468 18.3277 20.734C18.198 20.4798 18.1383 20.2078 18.1385 19.9238C18.1391 19.0353 18.1311 18.1464 18.149 17.2582C18.1599 16.718 18.2128 16.1786 18.2462 15.6388C18.2666 15.3103 18.1722 15.0277 17.903 14.8226C17.6002 14.592 17.2373 14.6756 17.0624 15.0128C16.9477 15.2338 16.9223 15.4737 16.931 15.7168C16.9609 16.5519 16.9942 17.3868 17.0282 18.2218C17.0505 18.767 17.0828 19.3119 17.0992 19.8573C17.1294 20.8644 16.3269 21.5358 15.3003 21.3792C14.7825 21.3002 14.3339 21.0648 13.8914 20.8045C12.8535 20.1942 11.8142 19.586 10.7713 18.9841C10.4848 18.8188 10.163 18.783 9.84447 18.8543C9.36537 18.9616 9.15652 19.4564 9.38403 19.9189C9.5256 20.2067 9.75629 20.3802 10.0709 20.4676C11.2478 20.7945 12.3702 21.2467 13.3687 21.9673C14.5 22.7837 15.284 23.8398 15.6039 25.2159C15.7065 25.6573 15.6679 26.1002 15.6216 26.5417C15.5412 27.306 15.3571 28.0431 14.9786 28.7193C14.655 29.2973 14.217 29.7517 13.5568 29.9341C13.3773 29.9836 13.1858 30.0123 12.9999 30.012C10.8503 30.0091 8.70061 29.9987 6.55099 29.9903C6.47915 29.99 6.40732 29.9903 6.3269 29.9903C6.3269 20.8366 6.3269 11.6997 6.3269 2.54622C6.38362 2.54622 6.4352 2.54622 6.48678 2.54622C16.3367 2.54622 26.1867 2.53656 36.0365 2.55337C38.3516 2.55732 40.071 3.63056 41.1536 5.68372C41.5168 6.37233 41.6777 7.12192 41.6901 7.90134C41.6919 7.99311 41.6919 8.08491 41.6919 8.17668C41.6921 15.3649 41.6921 22.5531 41.6921 29.7413C41.6921 29.8132 41.6921 29.8854 41.6921 29.9845C41.6237 29.9845 41.5637 29.9848 41.5037 29.9845C40.0594 29.9819 38.6145 29.959 37.1707 29.9836C36.1745 30.0004 35.7411 29.3889 35.5678 28.7298C35.3501 27.9022 35.4397 27.0814 35.6614 26.2698C35.789 25.8024 35.9658 25.3522 36.2548 24.9587C36.3727 24.798 36.5284 24.6652 36.664 24.517C36.7611 24.411 36.8692 24.3104 36.944 24.1897C37.0707 23.9846 37.0481 23.7429 36.9142 23.5952C36.7765 23.4432 36.5284 23.3948 36.3124 23.4989C36.193 23.5565 36.0823 23.6386 35.9797 23.7242C35.6391 24.008 35.2733 24.2437 34.8385 24.3552C34.0174 24.566 33.3136 24.1707 33.0736 23.3532C32.8608 22.6274 33.0023 21.9388 33.3269 21.2772C33.5455 20.8314 33.8461 20.4443 34.2003 20.0975C34.395 19.9069 34.5643 19.6977 34.6406 19.4285C34.7261 19.1257 34.6803 18.8496 34.444 18.631C34.2032 18.4081 33.9139 18.3689 33.6066 18.4639C33.3472 18.5442 33.1675 18.7262 33.0035 18.9367C32.4154 19.6912 31.7244 20.3264 30.8396 20.7195C30.297 20.9606 29.7368 21.0601 29.15 20.8735C28.2338 20.5821 27.6814 19.642 27.8769 18.7049C28.0304 17.9695 28.3758 17.3197 28.7697 16.6931C29.6358 15.315 30.6936 14.0889 31.8314 12.934C32.6417 12.1115 33.4948 11.3309 34.3313 10.5342C34.5829 10.2945 34.8046 10.0382 34.8762 9.6854C35.0046 9.05424 34.4707 8.57998 33.8548 8.77404C33.5284 8.87688 33.2892 9.09407 33.0753 9.34926C32.1276 10.4786 31.1911 11.6178 30.2251 12.7313C29.4788 13.5915 28.5964 14.2888 27.5432 14.7479C26.7544 15.0919 25.9345 15.2646 25.0736 15.1257C24.1074 14.9698 23.3648 14.4576 22.8083 13.661C22.407 13.0862 22.1817 12.4367 22.0002 11.7691C21.5928 10.2707 21.1997 8.76836 20.7782 7.27401C20.5952 6.62531 20.3648 5.98937 20.1397 5.35343C20.0015 4.96308 19.7283 4.68491 19.3182 4.58624C18.6268 4.41989 18.1291 4.92963 18.3072 5.62755C18.367 5.86184 18.4822 6.08526 18.594 6.3023C18.8543 6.80749 19.128 7.30581 19.4013 7.81653ZM26.69 9.90355C26.2188 9.68358 25.7504 9.70546 25.2988 9.94763C24.2148 10.5289 23.8216 12.0864 24.4828 13.1495C25.0169 14.0082 26.053 14.2015 26.8433 13.5709C27.5259 13.0263 27.7811 12.2889 27.692 11.4378C27.6225 10.774 27.3199 10.2386 26.69 9.90355ZM16.0602 19.6949C16.0889 19.6236 16.1249 19.5544 16.1452 19.4808C16.3457 18.7545 15.8539 17.9301 15.0952 17.7171C14.498 17.5493 13.9523 17.8936 13.8495 18.5031C13.7355 19.1788 14.2253 19.9394 14.893 20.1235C15.3929 20.2613 15.7844 20.1224 16.0602 19.6949ZM36.5669 21.8532C36.5811 21.6859 36.6174 21.5169 36.6049 21.3516C36.5661 20.8393 36.0953 20.4813 35.589 20.5623C34.949 20.6645 34.4382 21.2639 34.4379 21.9125C34.4379 22.528 34.8858 22.9373 35.4924 22.8407C36.0455 22.7527 36.3779 22.3903 36.5669 21.8532Z" fill="#0098DB"/>
<path d="M16.5288 29.6845C16.1935 29.7868 15.8815 29.9106 15.6066 30.1155C15.3247 30.3254 15.1231 30.5955 14.981 30.9149C14.9618 30.9581 14.9089 31.0152 14.8703 31.0164C14.5715 31.0248 14.2723 31.021 13.9355 31.021C14.0708 30.7747 14.1887 30.5471 14.3181 30.3265C14.7523 29.5857 15.4205 29.1605 16.2273 28.9279C17.3396 28.6073 18.4822 28.5626 19.6286 28.572C20.2224 28.5769 20.8159 28.6119 21.4097 28.622C21.5718 28.6247 21.74 28.6061 21.8959 28.5632C22.2475 28.4664 22.4445 28.2162 22.4684 27.8487C22.4781 27.7009 22.4675 27.549 22.4449 27.4022C22.3273 26.6391 22.7012 25.9185 23.371 25.6475C23.7998 25.474 24.2444 25.4835 24.6799 25.6022C25.0038 25.6903 25.3115 25.8363 25.6325 25.9368C25.8554 26.0065 26.0877 26.0795 26.3177 26.0864C26.8554 26.1029 27.1286 25.6467 26.8868 25.1627C26.7142 24.8171 26.6147 24.4598 26.6809 24.073C26.7828 23.4781 27.16 23.0959 27.6819 22.8498C27.906 22.7441 28.1555 22.6916 28.3946 22.6186C28.4364 22.6058 28.4837 22.611 28.493 22.6104C28.2938 22.8189 28.0566 23.0197 27.8823 23.2652C27.7536 23.4466 27.6674 23.6799 27.6316 23.9012C27.5511 24.3997 27.7864 24.7657 28.2016 25.0265C28.4155 25.1609 28.4313 25.3876 28.2104 25.5159C28.0697 25.5976 27.8988 25.6443 27.736 25.6662C27.5428 25.6922 27.4268 25.7847 27.362 25.9577C27.3317 26.0389 27.305 26.1216 27.2787 26.2043C27.1577 26.5852 26.9492 26.7458 26.5451 26.7552C26.0901 26.7658 25.6565 26.6522 25.2279 26.5143C24.621 26.3191 24.0406 26.341 23.5425 26.7808C23.2537 27.0357 23.1177 27.3652 23.1973 27.767C23.2617 28.0928 23.2609 28.4229 23.1415 28.7386C22.9223 29.3187 22.4449 29.5358 21.8768 29.5561C21.4347 29.572 20.9899 29.5219 20.5467 29.4941C19.5091 29.4294 18.4712 29.4007 17.4356 29.5147C17.1347 29.5477 16.8386 29.6251 16.5288 29.6845Z" fill="#0499DA"/>
<path d="M11.0441 31.9356C10.6991 31.891 10.4344 32.0339 10.2209 32.2918C10.1718 32.351 10.1279 32.415 10.0858 32.4797C9.92035 32.7336 9.75655 32.9884 9.5813 33.2597C9.72211 33.2858 9.84704 33.3089 9.97209 33.3318C10.481 33.4249 10.7062 33.6855 10.7181 34.2031C10.7232 34.4252 10.7193 34.6472 10.7197 34.8692C10.7201 35.1174 10.7865 35.1918 11.0362 35.2223C11.0927 35.2292 11.1496 35.2324 11.2133 35.2379C11.2133 35.4956 11.2133 35.7489 11.2133 36.0205C11.1546 36.0205 11.1029 36.0205 11.0512 36.0205C10.6891 36.0205 10.327 36.0205 9.96484 36.0205C9.60061 36.0205 9.35127 35.7797 9.34267 35.4107C9.33681 35.1597 9.34168 34.9087 9.34104 34.6574C9.3407 34.511 9.31867 34.3776 9.15609 34.3165C8.99104 34.2542 8.87623 34.333 8.77438 34.4463C8.72304 34.5034 8.67342 34.564 8.63391 34.6298C8.45623 34.9246 8.53583 35.1374 8.86165 35.2362C8.86165 35.4892 8.86165 35.744 8.86165 36.0104C8.81507 36.0139 8.77319 36.0202 8.7313 36.0202C8.04568 36.0208 7.36006 36.0182 6.67446 36.0229C6.56028 36.0237 6.52298 35.9916 6.52774 35.8762C6.53644 35.6652 6.53022 35.4536 6.53022 35.2231C6.61974 35.2231 6.69597 35.2287 6.77113 35.222C6.96988 35.2046 7.08449 35.1104 7.09287 34.9165C7.10684 34.5939 7.11594 34.2687 7.08985 33.9475C7.07803 33.802 6.97693 33.664 6.90696 33.5005C7.06577 33.3681 7.11443 33.1487 7.1098 32.9089C7.106 32.711 7.10797 32.513 7.10098 32.3153C7.09356 32.1052 7.03243 32.0318 6.82846 31.984C6.73513 31.9623 6.63907 31.9518 6.5302 31.9342C6.5302 31.7205 6.5298 31.5089 6.53054 31.2974C6.53069 31.255 6.5352 31.2124 6.53819 31.162C7.3122 31.162 8.078 31.162 8.85556 31.162C8.85556 31.4145 8.85556 31.6669 8.85556 31.9194C8.60264 31.9498 8.54896 32.0121 8.54904 32.2733C8.54919 32.6003 8.54907 32.9272 8.54907 33.2539C8.56565 33.2605 8.5822 33.2669 8.59878 33.2733C8.85594 32.8666 9.11313 32.4603 9.38049 32.0374C9.30826 31.991 9.25035 31.9536 9.17922 31.9078C9.17922 31.6872 9.17922 31.4513 9.19612 31.202C9.7718 31.1887 10.3306 31.1913 10.8894 31.1863C11.0088 31.1852 11.0508 31.2231 11.046 31.3431C11.038 31.5405 11.044 31.7382 11.0441 31.9356Z" fill="#A63893"/>
<path d="M21.6617 33.9075C21.659 33.8119 21.6623 33.7293 21.6519 33.6481C21.6132 33.3507 21.3215 33.2174 21.0676 33.3789C20.7737 33.5655 20.7326 33.9128 20.9751 34.2252C20.7493 34.4455 20.781 34.7296 20.7906 35.0104C20.7957 35.1626 20.8645 35.2412 21.0195 35.2412C21.0577 35.2409 21.0959 35.2487 21.1441 35.2539C21.1441 35.5041 21.1441 35.7519 21.1441 36.0102C20.4761 36.0102 19.8131 36.0102 19.1421 36.0102C19.1421 35.7577 19.1421 35.5133 19.1421 35.2565C19.256 35.2432 19.369 35.2252 19.4826 35.218C19.5827 35.2116 19.6366 35.1574 19.6468 35.067C19.6802 34.7696 19.7378 34.4655 19.4643 34.2258C19.7731 33.9977 19.6766 33.691 19.6283 33.4018C19.6188 33.3449 19.5257 33.2794 19.459 33.2606C19.3644 33.2336 19.2586 33.2461 19.1459 33.2412C19.1459 33.0067 19.1459 32.7733 19.1459 32.5293C19.6644 32.5293 20.1826 32.5293 20.71 32.5293C20.71 32.64 20.71 32.7478 20.71 32.856C20.7213 32.8635 20.7326 32.8707 20.7439 32.8783C20.7855 32.8296 20.8241 32.778 20.8691 32.7325C21.3514 32.2464 21.9808 32.1971 22.5348 32.5983C22.7664 32.7661 22.8854 32.9904 22.8906 33.2754C22.8925 33.3815 22.8957 33.4881 22.8904 33.5939C22.8788 33.8249 22.8852 34.0493 23.0845 34.2215C22.8205 34.4675 22.8915 34.7707 22.9099 35.0615C22.9164 35.1644 22.9789 35.2255 23.0908 35.2296C23.1865 35.2333 23.2818 35.2464 23.3881 35.256C23.3881 35.5055 23.3881 35.7533 23.3881 36.011C22.726 36.011 22.0674 36.011 21.4006 36.011C21.4006 35.7594 21.4006 35.5157 21.4006 35.2722C21.6465 35.2267 21.7001 35.1623 21.7099 34.9073C21.7195 34.6606 21.6975 34.4232 21.5397 34.2597C21.5851 34.1331 21.6233 34.027 21.6617 33.9075Z" fill="#A63993"/>
<path d="M25.5566 33.1345C25.2672 33.1276 25.055 33.2238 24.9513 33.5003C24.9404 33.5296 24.9013 33.5679 24.8746 33.5681C24.6154 33.5734 24.3561 33.5713 24.0886 33.5713C24.0886 33.2061 24.0886 32.8566 24.0886 32.4986C24.3579 32.4986 24.6213 32.4986 24.8912 32.4986C24.9008 32.5423 24.9107 32.587 24.9249 32.6516C24.9852 32.6189 25.0339 32.5928 25.0821 32.5658C25.6586 32.2438 26.2326 32.2589 26.8035 32.5795C27.0653 32.7264 27.2117 32.9397 27.1895 33.2522C27.182 33.3577 27.1952 33.465 27.187 33.5705C27.1681 33.811 27.201 34.0331 27.3932 34.2032C27.1368 34.4629 27.1686 34.7696 27.2205 35.0771C27.2386 35.1844 27.3178 35.2397 27.4268 35.2473C27.4838 35.2513 27.5408 35.2534 27.6143 35.2574C27.6143 35.489 27.6169 35.7148 27.6108 35.9403C27.6101 35.9676 27.5628 36.0163 27.5368 36.0166C27.0356 36.0212 26.5344 36.02 26.021 36.02C26.0124 35.9348 26.0049 35.8609 25.9999 35.8119C25.8213 35.9113 25.6508 36.0458 25.457 36.1061C24.8896 36.2824 24.3658 36.0595 24.0817 35.538C23.9649 35.3238 23.8739 35.0954 23.7745 34.8719C23.7644 34.8493 23.7687 34.8134 23.7796 34.7896C24.0285 34.2458 24.3886 33.8189 25.0138 33.7215C25.2786 33.6803 25.5531 33.7021 25.8232 33.6954C25.8663 33.6945 25.9093 33.6954 25.9492 33.6954C26.0466 33.396 25.9055 33.1934 25.5566 33.1345ZM25.2256 34.6047C25.0487 34.8476 25.1048 35.1864 25.3568 35.2548C25.5201 35.2989 25.7046 35.2745 25.8784 35.2626C25.9155 35.26 25.9739 35.1809 25.9767 35.1339C25.9881 34.9473 25.9843 34.7592 25.9788 34.5719C25.9779 34.5392 25.9427 34.4797 25.922 34.4792C25.6889 34.4722 25.4483 34.4313 25.2256 34.6047Z" fill="#A53893"/>
<path d="M32.599 35.4576C32.5099 35.2597 32.4248 35.0718 32.3439 34.8823C32.3327 34.8562 32.3325 34.8165 32.3441 34.7907C32.5857 34.2556 32.936 33.8304 33.5485 33.7287C33.8221 33.6831 34.1064 33.7029 34.3861 33.6959C34.5499 33.6918 34.5661 33.675 34.5441 33.5081C34.5163 33.2997 34.4137 33.1898 34.207 33.1469C33.8925 33.0817 33.6592 33.2023 33.5125 33.5002C33.4972 33.531 33.4545 33.5681 33.4238 33.5687C33.1687 33.5742 32.9134 33.5718 32.6484 33.5718C32.6484 33.211 32.6484 32.8611 32.6484 32.5005C32.9163 32.5005 33.1838 32.5005 33.4598 32.5005C33.4679 32.5434 33.476 32.5884 33.4879 32.6516C33.547 32.6191 33.5963 32.5921 33.6453 32.5649C34.2279 32.2411 34.807 32.2585 35.3798 32.5875C35.6293 32.7307 35.7728 32.9379 35.7479 33.24C35.7403 33.3313 35.7514 33.4237 35.7458 33.515C35.7308 33.7718 35.7429 34.0194 35.9545 34.2017C35.7012 34.4742 35.7235 34.7829 35.7899 35.0968C35.8119 35.2005 35.8945 35.242 35.9954 35.2472C36.0479 35.2498 36.1006 35.2475 36.1641 35.2475C36.1641 35.5049 36.1641 35.753 36.1641 36.011C35.6395 36.011 35.1157 36.011 34.5864 36.011C34.578 35.9321 34.5699 35.8582 34.5606 35.7698C34.0357 36.3721 32.9621 36.2829 32.599 35.4576ZM33.9415 35.2721C34.1079 35.2713 34.2748 35.2773 34.4403 35.264C34.4789 35.2611 34.5415 35.1936 34.5435 35.1533C34.5537 34.9333 34.5482 34.7124 34.5482 34.4872C34.3702 34.4872 34.2064 34.4733 34.0461 34.4907C33.8293 34.5145 33.7232 34.6229 33.6916 34.8116C33.6577 35.0127 33.7328 35.1617 33.9415 35.2721Z" fill="#A53892"/>
<path d="M15.0404 33.9948C15.0917 34.0724 15.1376 34.1403 15.1846 34.2093C14.9449 34.4632 14.9628 34.7675 15.0203 35.0765C15.0401 35.1829 15.1171 35.2397 15.2266 35.2469C15.2837 35.251 15.3408 35.253 15.4069 35.2565C15.4069 35.5064 15.4069 35.7504 15.4069 36.0078C14.8836 36.0078 14.3601 36.0078 13.8262 36.0078C13.8162 35.9365 13.8058 35.8623 13.7991 35.8139C13.6205 35.9124 13.4492 36.0469 13.2549 36.1067C12.6864 36.282 12.1649 36.0582 11.881 35.5348C11.7646 35.3203 11.6733 35.0922 11.574 34.8687C11.5643 34.8469 11.572 34.8116 11.5829 34.7875C11.8283 34.2475 12.1848 33.8232 12.8037 33.7243C13.0729 33.6814 13.3526 33.6936 13.6272 33.6991C13.7761 33.7023 13.7976 33.6411 13.7808 33.5171C13.7509 33.2974 13.6552 33.1887 13.4397 33.1455C13.1318 33.0835 12.8942 33.2061 12.754 33.4919C12.7371 33.5264 12.6892 33.5675 12.6547 33.5684C12.4042 33.5748 12.1535 33.5719 11.8918 33.5719C11.8918 33.2136 11.8918 32.8638 11.8918 32.5017C12.1545 32.5017 12.4218 32.5017 12.6905 32.5017C12.7019 32.5461 12.7136 32.5913 12.7282 32.6475C12.821 32.5991 12.9046 32.5539 12.9897 32.5119C13.5531 32.2333 14.1009 32.2866 14.6325 32.5971C14.8709 32.7362 15.0044 32.938 14.9883 33.2278C14.9779 33.4156 14.9823 33.6043 14.9886 33.7924C14.9908 33.8571 15.0189 33.9209 15.0404 33.9948ZM13.7039 35.2588C13.7315 35.2191 13.7813 35.1806 13.783 35.14C13.7914 34.9478 13.7896 34.7548 13.7835 34.5623C13.7825 34.5322 13.7392 34.4774 13.717 34.4782C13.5355 34.4846 13.3499 34.4817 13.1742 34.5206C12.9948 34.5603 12.9221 34.7043 12.928 34.9116C12.9335 35.1026 13.0196 35.242 13.1987 35.2704C13.3557 35.2953 13.5206 35.271 13.7039 35.2588Z" fill="#A53892"/>
<path d="M31.7165 30.262C31.9362 30.2431 32.142 30.2196 32.3485 30.2054C32.4957 30.1953 32.5836 30.1205 32.6056 29.9805C32.6433 29.7396 32.7664 29.5924 33 29.4982C33.2676 29.3901 33.3357 29.1443 33.2018 28.8856C33.149 28.784 33.0797 28.6887 33.0055 28.601C32.5949 28.1155 32.1764 27.6366 31.7707 27.1469C31.6976 27.0586 31.6684 26.9322 31.6257 26.8208C31.5448 26.6096 31.4841 26.3893 31.3873 26.1859C31.2466 25.8902 30.9936 25.7339 30.6672 25.7401C30.3983 25.7454 30.1299 25.7871 29.8614 25.8135C29.5708 25.8421 29.2825 25.842 29.0041 25.7382C28.9509 25.7184 28.8831 25.6963 28.8568 25.6537C28.7914 25.5477 28.6968 25.4234 28.7094 25.3179C28.7181 25.2444 28.8778 25.1672 28.9834 25.1331C29.0886 25.0991 29.2143 25.0958 29.3245 25.1155C29.8567 25.2106 30.3786 25.1387 30.8539 24.9181C31.353 24.6866 31.6042 24.2361 31.4229 23.7207C31.3231 23.4369 31.1633 23.1742 31.0288 22.9028C31.0013 22.8472 30.9661 22.7953 30.9144 22.7078C31.0005 22.7394 31.0564 22.7563 31.1092 22.7799C31.4723 22.943 31.7834 23.1728 32.014 23.5011C32.3268 23.9465 32.3383 24.4551 32.0404 24.9108C31.9486 25.0511 31.8357 25.1776 31.7254 25.3195C31.7984 25.4005 31.8819 25.4851 31.9562 25.5771C32.1781 25.8516 32.3043 26.1636 32.3166 26.5194C32.3181 26.5608 32.3255 26.6084 32.3475 26.6418C32.6255 27.0641 32.8986 27.4902 33.1913 27.9023C33.3041 28.0611 33.449 28.2047 33.6029 28.3249C34.1394 28.744 34.0183 29.715 33.3792 29.9228C33.2797 29.955 33.1757 30.0712 33.1363 30.173C32.9658 30.6133 32.6465 30.7643 32.1941 30.7524C31.847 30.7434 31.5 30.7738 31.1582 30.6834C30.7441 30.5736 30.5095 30.3054 30.4425 29.8872C30.425 29.7779 30.4161 29.6666 30.412 29.5556C30.4063 29.4057 30.5237 29.3075 30.6751 29.3275C30.8287 29.3481 30.9566 29.4875 30.9647 29.6437C30.9829 29.9921 31.2231 30.2139 31.6306 30.2582C31.6545 30.2608 31.6788 30.2605 31.7165 30.262Z" fill="#0599DA"/>
<path d="M28.1803 33.3161C28.0965 33.2938 28.0226 33.277 27.9399 33.2582C27.9399 33.0231 27.9399 32.7834 27.9399 32.5309C28.6361 32.5309 29.3325 32.5309 30.0381 32.5309C30.0381 32.7756 30.0381 33.0193 30.0381 33.2069C29.9208 33.2903 29.7953 33.3338 29.7569 33.4173C29.6902 33.5622 29.7232 33.7231 29.849 33.8422C29.9147 33.9042 29.9904 33.9555 30.0679 34.017C29.8854 34.3263 30.0676 34.5993 30.1616 34.9199C30.2058 34.8179 30.2395 34.746 30.2681 34.6724C30.3972 34.3402 30.5387 34.0121 30.649 33.6738C30.7535 33.3532 30.7219 33.3208 30.3958 33.2651C30.3958 33.0228 30.3958 32.7787 30.3958 32.5269C30.9129 32.5269 31.4219 32.5269 31.9396 32.5269C31.9396 32.7721 31.9396 33.0112 31.9396 33.2503C31.6802 33.2431 31.4879 33.4524 31.4494 33.7819C31.4472 33.8011 31.4402 33.8228 31.4463 33.8393C31.5269 34.0587 31.3828 34.1982 31.2899 34.3741C31.0519 34.8251 30.841 35.2918 30.648 35.764C30.5656 35.9654 30.4679 36.0416 30.2503 36.0257C29.9573 36.0045 29.6615 36.0147 29.3673 36.0234C29.2519 36.0269 29.1959 35.9924 29.1579 35.8816C29.0389 35.5356 28.9132 35.1912 28.7811 34.8498C28.6821 34.5938 28.584 34.3341 28.3434 34.1599C28.4204 33.8579 28.5052 33.5518 28.1803 33.3161Z" fill="#A63893"/>
<path d="M37.8331 36.0205C37.5937 36.0324 37.4067 35.9376 37.2372 35.8017C37.0888 35.6831 37.0146 35.5275 37.0172 35.335C37.0198 35.1516 37.0102 34.9678 37.0198 34.7846C37.0305 34.5739 37.0108 34.3791 36.8099 34.2275C37.0105 34.12 37.0302 33.9507 37.0195 33.764C37.0108 33.6107 37.0178 33.4562 37.0178 33.2858C36.8407 33.2858 36.674 33.2858 36.498 33.2858C36.498 33.0208 36.498 32.7724 36.498 32.5063C36.667 32.5063 36.8337 32.5063 37.0151 32.5063C37.0151 32.1391 37.0151 31.7889 37.0151 31.4298C37.4282 31.4298 37.8259 31.4298 38.2404 31.4298C38.2404 31.7843 38.2404 32.1344 38.2404 32.5043C38.4853 32.5043 38.7143 32.5043 38.9488 32.5043C38.9488 32.7695 38.9488 33.0142 38.9488 33.2782C38.7172 33.2782 38.4888 33.2782 38.2482 33.2782C38.2482 33.5179 38.2314 33.7402 38.256 33.9576C38.267 34.0553 38.3609 34.1437 38.4256 34.2504C38.1899 34.466 38.2308 34.7634 38.2636 35.0576C38.2786 35.1921 38.3467 35.2637 38.496 35.2507C38.6247 35.2394 38.7549 35.2484 38.8934 35.2484C38.8934 35.5087 38.8934 35.7562 38.8934 36.0205C38.5398 36.0205 38.1934 36.0205 37.8331 36.0205Z" fill="#A63893"/>
<path d="M17.6291 33.7498C17.5298 33.9553 17.5477 34.0303 17.7413 34.2245C17.4929 34.4547 17.5423 34.753 17.564 35.0454C17.5743 35.1843 17.6426 35.2561 17.7888 35.2472C17.8796 35.2417 17.9711 35.246 18.0736 35.246C18.0736 35.5045 18.0736 35.7524 18.0736 36.0103C17.3412 36.0103 16.6102 36.0103 15.8681 36.0103C15.8681 35.7602 15.8681 35.513 15.8681 35.2561C15.9176 35.2532 15.9644 35.2498 16.0113 35.2477C16.2289 35.2385 16.3024 35.1788 16.3145 34.9646C16.3292 34.706 16.3707 34.437 16.1428 34.2359C16.4142 33.9799 16.3351 33.6753 16.2732 33.3819C16.2618 33.3274 16.1575 33.2799 16.0869 33.255C16.0223 33.2321 15.9454 33.2443 15.8657 33.2408C15.8657 33.0011 15.8657 32.7674 15.8657 32.5274C16.3575 32.5274 16.8419 32.5274 17.3369 32.5274C17.3369 32.7019 17.3369 32.868 17.3369 33.0677C17.4077 32.9498 17.4555 32.8576 17.5151 32.7735C17.6367 32.6022 17.795 32.5048 18.0174 32.5161C18.2381 32.5272 18.4597 32.5185 18.6913 32.5185C18.6913 32.884 18.6913 33.2385 18.6913 33.6138C18.441 33.6138 18.1916 33.6167 17.9423 33.6124C17.8184 33.6103 17.714 33.6411 17.6291 33.7498Z" fill="#A63893"/>
<path d="M39.4568 32.6451C39.455 32.5712 39.4524 32.5173 39.542 32.5176C40.077 32.5199 40.6118 32.5187 41.1669 32.5187C41.1669 32.61 41.1669 32.6903 41.1669 32.7703C41.1669 33.0842 41.1744 33.3982 41.164 33.7115C41.1576 33.91 41.1788 34.0877 41.3689 34.2144C41.1368 34.4332 41.1495 34.704 41.1802 34.9758C41.2072 35.2164 41.2643 35.2613 41.5072 35.2573C41.5402 35.2567 41.5736 35.2573 41.6202 35.2573C41.6202 35.5069 41.6202 35.7538 41.6202 36.0205C41.5718 36.0205 41.5252 36.0205 41.4782 36.0205C40.8556 36.0205 40.233 36.0179 39.6104 36.0231C39.493 36.024 39.4481 35.995 39.4542 35.8709C39.464 35.6698 39.4568 35.4677 39.4568 35.2558C39.5228 35.2527 39.5744 35.2498 39.626 35.248C39.8373 35.2405 39.9104 35.1898 39.9307 34.9802C39.9562 34.7121 39.9852 34.4356 39.7492 34.2193C40.0446 33.9886 39.9515 33.6799 39.8985 33.3874C39.8884 33.3315 39.7878 33.2741 39.7182 33.2521C39.644 33.2286 39.5571 33.2469 39.4568 33.2469C39.4568 33.0419 39.4568 32.8503 39.4568 32.6451Z" fill="#A63993"/>
<path d="M39.7378 31.6234C39.7378 31.4115 39.7378 31.2141 39.7378 31.0074C40.1711 31.0074 40.5934 31.0074 41.0268 31.0074C41.0268 31.3669 41.0268 31.7205 41.0268 32.0834C40.6004 32.0834 40.1784 32.0834 39.7378 32.0834C39.7378 31.9335 39.7378 31.7857 39.7378 31.6234Z" fill="#A63B93"/>
<path d="M31.0062 27.5763C31.0728 27.7506 31.1339 27.9157 31.1935 28.0768C30.5159 28.4378 29.7137 27.9543 29.7312 27.2248C29.732 27.1947 29.7683 27.1461 29.7965 27.1387C30.2427 27.0222 30.7545 27.2065 31.0062 27.5763Z" fill="#0599DA"/>
<path d="M11.0557 31.9313C11.044 31.7383 11.038 31.5406 11.046 31.3432C11.0508 31.2232 11.0088 31.1852 10.8894 31.1864C10.3306 31.1913 9.7718 31.1887 9.19922 31.1887C9.21351 31.1774 9.2416 31.1557 9.26974 31.1557C9.85223 31.1542 10.4347 31.1548 11.0172 31.1557C11.0306 31.1557 11.0441 31.1615 11.0672 31.167C11.0672 31.4203 11.0672 31.6736 11.0557 31.9313Z" fill="#8E4582"/>
<path d="M18.6965 42.1416C18.7606 42.3054 18.8229 42.4573 18.898 42.6402C18.642 43.0118 18.6226 43.5042 18.5229 43.9723C18.4193 44.4587 18.1673 44.8196 17.6954 45.006C17.6342 45.03 17.5637 45.041 17.4975 45.041C16.3288 45.0431 15.1601 45.0428 13.9914 45.0425C13.9682 45.0425 13.9449 45.0387 13.9136 45.0364C13.9136 44.7802 13.9136 44.5309 13.9136 44.2567C14.0602 44.2567 14.2076 44.2573 14.3551 44.2567C14.5383 44.2558 14.6236 44.2077 14.6304 44.0335C14.6445 43.6729 14.6466 43.31 14.6191 42.9509C14.6095 42.826 14.4979 42.7089 14.4257 42.5749C14.6136 42.4442 14.6522 42.2292 14.6488 41.9923C14.646 41.7947 14.6654 41.5967 14.6632 41.399C14.66 41.1196 14.5715 41.0364 14.2988 41.0361C14.1743 41.0358 14.0499 41.0361 13.9153 41.0361C13.9153 40.7683 13.9153 40.5158 13.9153 40.2465C13.9805 40.2465 14.0375 40.2465 14.0944 40.2465C15.1665 40.2465 16.2388 40.2573 17.3107 40.2416C17.7445 40.2352 18.0361 40.4202 18.2449 40.7776C18.4644 41.1532 18.5746 41.5674 18.6671 41.9874C18.6774 42.0347 18.6857 42.0822 18.6965 42.1416ZM17.0389 42.7752C16.9958 42.7176 16.9527 42.6602 16.912 42.606C16.9662 42.5384 17.0338 42.4828 17.0643 42.4115C17.2372 42.0065 17.2314 41.6028 17.0072 41.2193C16.9617 41.1416 16.8581 41.0602 16.7731 41.0503C16.565 41.026 16.3521 41.0422 16.1243 41.0422C16.1243 41.3494 16.129 41.6474 16.1228 41.9451C16.1177 42.1865 16.1225 42.421 16.3401 42.5909C16.1764 42.7947 16.1071 43.0092 16.1207 43.259C16.1361 43.5428 16.1239 43.8283 16.1247 44.1129C16.1248 44.1538 16.1312 44.1949 16.1355 44.2463C16.3309 44.2463 16.5138 44.2413 16.6962 44.2477C16.862 44.2535 16.9802 44.1807 17.041 44.0355C17.2131 43.6242 17.2526 43.2083 17.0389 42.7752Z" fill="#0298DB"/>
<path d="M33.0296 43.4367C32.711 44.07 32.4014 44.6958 32.0852 45.3184C31.939 45.6059 31.7906 45.8935 31.6234 46.1688C31.4709 46.4204 31.2549 46.5999 30.9447 46.6335C30.5577 46.6755 30.1712 46.7207 29.7676 46.7665C29.7676 46.428 29.7676 46.1167 29.7676 45.8268C30.0306 45.7787 30.293 45.7454 30.5473 45.6801C30.7542 45.6268 30.939 45.5152 31.0619 45.33C31.0861 45.2938 31.0991 45.2251 31.0812 45.1894C30.8253 44.681 30.5692 44.1726 30.2998 43.6712C30.1926 43.4717 30.0525 43.29 29.8239 43.1859C29.9358 43.0016 29.9557 42.8109 29.8558 42.623C29.7552 42.4341 29.5939 42.3326 29.3557 42.341C29.3557 42.2149 29.3557 42.0958 29.3557 41.9767C29.3557 41.8564 29.3557 41.7361 29.3557 41.6048C30.1065 41.6048 30.8477 41.6048 31.6008 41.6048C31.6008 41.8462 31.6008 42.0886 31.6008 42.337C31.5608 42.3401 31.528 42.3454 31.4952 42.3451C31.2809 42.3436 31.2353 42.4057 31.3111 42.6074C31.3811 42.7935 31.5059 42.9254 31.7231 42.9796C31.5872 43.25 31.6751 43.4723 31.8731 43.6888C31.9915 43.459 32.1441 43.257 32.0428 42.9781C32.2848 42.9239 32.3386 42.7451 32.3532 42.5326C32.3624 42.3984 32.3019 42.3462 32.1787 42.3439C32.1161 42.3425 32.0536 42.3436 31.9777 42.3436C31.9777 42.101 31.9777 41.8581 31.9777 41.6045C32.6818 41.6045 33.3881 41.6045 34.1026 41.6045C34.1026 41.8454 34.1026 42.0799 34.1026 42.332C33.8716 42.2662 33.6765 42.3459 33.5015 42.4859C33.3188 42.632 33.2954 42.7987 33.4012 43.0317C33.2745 43.1691 33.1551 43.2987 33.0296 43.4367Z" fill="#0398DA"/>
<path d="M22.3478 45.0429C22.0587 45.0429 21.784 45.0429 21.5021 45.0429C21.4921 44.9603 21.4831 44.8866 21.4764 44.831C21.3164 44.9243 21.167 45.044 20.9967 45.1046C20.3552 45.3333 19.7421 45.0692 19.45 44.4565C19.3654 44.2794 19.2836 44.1008 19.2048 43.9208C19.1936 43.895 19.1977 43.8542 19.2102 43.8275C19.4472 43.3203 19.7919 42.9197 20.3639 42.804C20.6348 42.7492 20.9209 42.7707 21.1997 42.7527C21.2854 42.7472 21.395 42.7527 21.4487 42.704C21.516 42.6426 21.4298 42.3904 21.3341 42.3133C21.1732 42.1834 20.9856 42.1837 20.7967 42.222C20.6202 42.2576 20.4873 42.3594 20.4241 42.531C20.3912 42.6203 20.3395 42.6417 20.2508 42.6397C20.0103 42.6339 19.7695 42.6376 19.519 42.6376C19.519 42.2803 19.519 41.935 19.519 41.5776C19.788 41.5776 20.0607 41.5776 20.3416 41.5776C20.3531 41.6188 20.3669 41.6678 20.3737 41.6921C20.6327 41.6058 20.881 41.4965 21.1408 41.4417C21.6153 41.3417 22.0489 41.4834 22.4414 41.7492C22.6142 41.8663 22.7042 42.04 22.6959 42.2571C22.6913 42.3776 22.7029 42.4991 22.6934 42.6191C22.6742 42.8603 22.7044 43.0823 22.9094 43.2559C22.6684 43.4678 22.6801 43.7403 22.7052 44.0104C22.7246 44.2197 22.8056 44.2829 23.0177 44.2901C23.0505 44.2913 23.0832 44.293 23.1232 44.2947C23.1232 44.5414 23.1232 44.7811 23.1232 45.0429C22.8699 45.0429 22.6161 45.0429 22.3478 45.0429ZM20.6282 44.1318C20.7307 44.3756 21.198 44.3892 21.4096 44.28C21.4345 44.2669 21.4607 44.2281 21.4612 44.2008C21.4654 43.9814 21.4636 43.7617 21.4636 43.5278C21.3064 43.5278 21.1674 43.5208 21.0293 43.5292C20.6588 43.5516 20.5205 43.7501 20.6282 44.1318Z" fill="#0398DA"/>
<path d="M27.848 41.7607C27.9806 41.6326 28.1296 41.5862 28.3035 41.592C28.5246 41.5996 28.7461 41.5941 28.9792 41.5941C28.9792 41.9529 28.9792 42.3019 28.9792 42.6706C28.7163 42.6706 28.452 42.6599 28.1892 42.6761C28.093 42.6819 27.9811 42.73 27.9107 42.7958C27.7696 42.9271 27.806 43.0816 28.0063 43.2767C27.7573 43.499 27.7947 43.7906 27.8227 44.0801C27.8358 44.2164 27.9031 44.2914 28.0482 44.2854C28.1438 44.2813 28.2396 44.2848 28.3454 44.2848C28.3454 44.541 28.3454 44.7839 28.3454 45.0346C27.5951 45.0346 26.8491 45.0346 26.0918 45.0346C26.0918 44.7909 26.0918 44.5483 26.0918 44.2958C26.1205 44.2935 26.148 44.2897 26.1756 44.2888C26.4778 44.2796 26.5399 44.2193 26.5524 43.9222C26.5675 43.563 26.5669 43.5607 26.3792 43.2761C26.5536 43.1028 26.6267 42.6488 26.4994 42.4341C26.4667 42.3787 26.3823 42.3433 26.3145 42.3228C26.2482 42.3025 26.1727 42.3126 26.0806 42.3083C26.0806 42.1888 26.0806 42.0746 26.0806 41.9607C26.0806 41.8457 26.0806 41.7303 26.0806 41.5941C26.3402 41.5941 26.5893 41.5941 26.8384 41.5941C27.0839 41.5941 27.3294 41.5941 27.5888 41.5941C27.5888 41.7691 27.5888 41.9349 27.5888 42.1271C27.6843 41.9915 27.7627 41.8801 27.848 41.7607Z" fill="#0398DA"/>
<path d="M23.631 45.0406C23.6078 44.9168 23.5946 44.7948 23.5898 44.6728C23.5851 44.5525 23.5888 44.4322 23.5888 44.2968C23.6693 44.2925 23.7444 44.2896 23.8193 44.2844C23.9506 44.2748 24.0365 44.2111 24.0586 44.0766C24.1057 43.7902 24.1221 43.5096 23.8893 43.2661C24.1571 43.0902 24.096 42.8192 24.0693 42.565C24.048 42.3632 23.9768 42.3148 23.7712 42.3087C23.7187 42.3073 23.6662 42.3084 23.6012 42.3084C23.6012 42.0748 23.6012 41.8461 23.6012 41.5942C23.8844 41.5942 24.1717 41.5942 24.4591 41.5942C24.7434 41.5942 25.0277 41.5942 25.3267 41.5942C25.3305 41.6418 25.3364 41.6829 25.3365 41.7238C25.3374 42.0713 25.3438 42.4189 25.3349 42.7661C25.3298 42.9629 25.3426 43.1432 25.5444 43.2653C25.2967 43.4867 25.3196 43.7644 25.3531 44.0397C25.3782 44.2461 25.4413 44.2931 25.6467 44.2934C25.6987 44.2934 25.7507 44.2934 25.8108 44.2934C25.8108 44.5424 25.8108 44.7815 25.8108 45.0424C25.0875 45.0424 24.3662 45.0424 23.631 45.0406Z" fill="#0398DA"/>
<path d="M25.1481 41.1782C24.7209 41.1803 24.3072 41.1803 23.8821 41.1803C23.8821 40.822 23.8821 40.4733 23.8821 40.1139C24.3133 40.1139 24.7442 40.1139 25.1978 40.1139C25.1978 40.2707 25.1978 40.4272 25.1978 40.584C25.1978 40.7379 25.2004 40.8922 25.1962 41.0464C25.195 41.0898 25.1737 41.133 25.1481 41.1782Z" fill="#0499DA"/>
<path d="M26.7002 9.90761C27.32 10.2387 27.6226 10.7741 27.6921 11.4378C27.7811 12.289 27.526 13.0264 26.8433 13.571C26.0531 14.2015 25.0169 14.0083 24.4828 13.1496C23.8217 12.0864 24.2149 10.529 25.2989 9.94769C25.7505 9.70552 26.2189 9.68364 26.7002 9.90761Z" fill="#FCFEFE"/>
<path d="M16.0548 19.7042C15.7845 20.1225 15.3929 20.2614 14.893 20.1236C14.2254 19.9396 13.7355 19.1789 13.8495 18.5032C13.9523 17.8937 14.498 17.5494 15.0953 17.7172C15.8539 17.9302 16.3458 18.7547 16.1452 19.4809C16.1249 19.5545 16.0889 19.6237 16.0548 19.7042Z" fill="#FCFDFD"/>
<path d="M36.5629 21.8643C36.378 22.3904 36.0455 22.7527 35.4925 22.8408C34.8858 22.9373 34.438 22.5281 34.438 21.9125C34.4383 21.264 34.949 20.6646 35.589 20.5623C36.0954 20.4814 36.5661 20.8393 36.6049 21.3517C36.6174 21.517 36.5812 21.686 36.5629 21.8643Z" fill="#FBFDFD"/>
<path d="M25.2337 34.597C25.4483 34.4313 25.6889 34.4721 25.922 34.4791C25.9427 34.4797 25.9779 34.5391 25.9788 34.5718C25.9843 34.7591 25.9881 34.9472 25.9767 35.1339C25.9739 35.1808 25.9155 35.2599 25.8784 35.2626C25.7046 35.2744 25.5201 35.2988 25.3568 35.2547C25.1048 35.1863 25.0487 34.8475 25.2337 34.597Z" fill="#FDF9FC"/>
<path d="M33.9308 35.2684C33.7329 35.1617 33.6578 35.0127 33.6917 34.8115C33.7233 34.6229 33.8294 34.5144 34.0462 34.4907C34.2065 34.4733 34.3703 34.4872 34.5482 34.4872C34.5482 34.7124 34.5537 34.9333 34.5436 35.1533C34.5416 35.1936 34.4789 35.2611 34.4404 35.264C34.2749 35.2773 34.1079 35.2713 33.9308 35.2684Z" fill="#FDF9FC"/>
<path d="M13.693 35.2637C13.5206 35.2709 13.3558 35.2953 13.1987 35.2703C13.0196 35.2419 12.9335 35.1025 12.9281 34.9115C12.9221 34.7042 12.9948 34.5602 13.1743 34.5205C13.35 34.4816 13.5355 34.4845 13.7171 34.4782C13.7392 34.4773 13.7825 34.5321 13.7835 34.5622C13.7897 34.7547 13.7914 34.9477 13.7831 35.1399C13.7813 35.1808 13.7315 35.219 13.693 35.2637Z" fill="#FDF9FC"/>
<path d="M17.0447 42.7837C17.2523 43.2084 17.2127 43.6243 17.0406 44.0356C16.9798 44.1808 16.8616 44.2536 16.6958 44.2478C16.5134 44.2414 16.3305 44.2463 16.1351 44.2463C16.1308 44.195 16.1245 44.1539 16.1243 44.113C16.1235 43.8284 16.1357 43.5429 16.1203 43.2591C16.1067 43.0092 16.176 42.7948 16.3397 42.591C16.1221 42.4211 16.1173 42.1866 16.1224 41.9452C16.1287 41.6475 16.1239 41.3495 16.1239 41.0423C16.3517 41.0423 16.5646 41.0261 16.7727 41.0504C16.8577 41.0603 16.9613 41.1417 17.0068 41.2194C17.231 41.6029 17.2368 42.0066 17.0639 42.4116C17.0334 42.4829 16.9658 42.5385 16.9116 42.6061C16.9523 42.6603 16.9954 42.7177 17.0447 42.7837Z" fill="#F9FDFD"/>
<path d="M20.6223 44.1222C20.5205 43.75 20.6588 43.5515 21.0293 43.5292C21.1673 43.5208 21.3064 43.5277 21.4635 43.5277C21.4635 43.7616 21.4654 43.9814 21.4612 44.2008C21.4607 44.228 21.4345 44.2669 21.4096 44.2799C21.198 44.3892 20.7307 44.3756 20.6223 44.1222Z" fill="#F9FDFD"/>
</g>
</g>
<defs>
<clipPath id="clip0_451_11040">
<rect width="40.5217" height="48" fill="white" transform="translate(3.73901)"/>
</clipPath>
</defs>
</svg>
