<svg width="26" height="8" viewBox="0 0 26 8" fill="none" xmlns="http://www.w3.org/2000/svg">
<g clip-path="url(#clip0_1_4234)">
<mask id="mask0_1_4234" style="mask-type:luminance" maskUnits="userSpaceOnUse" x="0" y="0" width="25" height="3">
<path d="M24.2094 0.0910034H0V2.40532H24.2094V0.0910034Z" fill="white"/>
</mask>
<g mask="url(#mask0_1_4234)">
<path fill-rule="evenodd" clip-rule="evenodd" d="M0 0.0996479C0.157468 0.0978666 0.314578 0.095729 0.472045 0.0939478C0.549355 0.0932352 0.554342 0.147743 0.554342 0.204389C0.554699 0.412444 0.558617 0.620502 0.552917 0.828201C0.550423 0.918336 0.577856 0.942561 0.668702 0.948261C0.783418 0.955742 0.856451 0.909785 0.928772 0.831408C1.14324 0.598056 1.3627 0.368981 1.58002 0.138124C1.61029 0.105704 1.64806 0.094304 1.69046 0.0939478C1.8921 0.0935915 2.09374 0.0932352 2.29539 0.0939478C2.32247 0.0939478 2.35489 0.0882476 2.36842 0.123161C2.38054 0.155225 2.35988 0.176244 2.33992 0.197263C2.10871 0.437027 1.87786 0.676434 1.64699 0.916554C1.56221 1.00455 1.47955 1.09504 1.39441 1.18268C1.36056 1.21759 1.34987 1.24574 1.39191 1.28457C1.56078 1.44026 1.7154 1.6102 1.88534 1.76553C2.05919 1.92442 2.22236 2.09436 2.38944 2.26002C2.41224 2.28245 2.43326 2.30918 2.4208 2.34338C2.40654 2.38185 2.36913 2.37438 2.3392 2.37472C2.15003 2.3758 1.96086 2.37544 1.77204 2.37544C1.72288 2.37544 1.68227 2.35905 1.64556 2.32307C1.46032 2.13959 1.27292 1.95826 1.08695 1.77549C1.01962 1.70959 0.955135 1.64083 0.887802 1.57493C0.840776 1.52861 0.649463 1.50403 0.592462 1.53396C0.558617 1.55177 0.557193 1.58133 0.557193 1.61448C0.558262 1.82537 0.556123 2.03664 0.558617 2.24755C0.560043 2.35015 0.544722 2.37366 0.444258 2.37401C0.296408 2.37472 0.148561 2.37081 0.000356608 2.36904V0.0996479H0Z" fill="#0A1E35"/>
<path fill-rule="evenodd" clip-rule="evenodd" d="M14.5148 1.22964C14.5148 0.889414 14.5166 0.549185 14.5134 0.209312C14.5127 0.124878 14.5398 0.0921021 14.6274 0.0921021C15.3079 0.0945959 15.988 0.0938833 16.6684 0.0931708C17.1081 0.0928145 17.3247 0.436962 17.3482 0.776836C17.3628 0.988811 17.3293 1.17941 17.2192 1.36075C17.1056 1.54743 16.941 1.63294 16.7272 1.63791C16.6852 1.63899 16.6239 1.61476 16.6057 1.65859C16.589 1.69884 16.6482 1.72733 16.6752 1.75797C16.823 1.92471 16.9756 2.08752 17.1251 2.25283C17.1476 2.27776 17.1771 2.30769 17.1596 2.34402C17.1447 2.37503 17.1074 2.37431 17.0752 2.37431C16.8801 2.37431 16.6848 2.37431 16.4897 2.37466C16.4453 2.37466 16.4133 2.35899 16.383 2.3255C16.065 1.97031 15.7453 1.61619 15.4258 1.26171C15.4069 1.24104 15.3873 1.22074 15.3673 1.20114C15.3396 1.17407 15.3111 1.14129 15.3261 1.10353C15.3406 1.06576 15.3841 1.05899 15.423 1.05864C15.5173 1.05792 15.6118 1.05864 15.7062 1.05899C15.9866 1.05971 16.267 1.06078 16.547 1.06113C16.7501 1.06113 16.7692 1.04154 16.7625 0.839537C16.7582 0.705583 16.7283 0.675658 16.5923 0.673521C16.4978 0.671738 16.403 0.673164 16.3086 0.673164C15.9495 0.673164 15.5904 0.673164 15.2316 0.673164C15.0963 0.673164 15.0919 0.677439 15.0919 0.809611C15.0926 1.27881 15.0933 1.74836 15.0945 2.21756C15.0945 2.37004 15.0913 2.37431 14.9339 2.37503C14.8361 2.37503 14.7386 2.37538 14.641 2.37431C14.5281 2.37324 14.5152 2.36042 14.5148 2.24961C14.5145 1.90939 14.5148 1.56952 14.5148 1.22929V1.22964Z" fill="#0A1E35"/>
<path fill-rule="evenodd" clip-rule="evenodd" d="M12.8128 0.0937947C13.0376 0.106264 13.3112 0.0770504 13.5848 0.111251C13.9008 0.15044 14.1862 0.457537 14.1876 0.773897C14.189 1.07316 14.183 1.37241 14.189 1.67132C14.1962 2.00905 13.8866 2.33289 13.5624 2.35854C13.1031 2.39489 12.6436 2.36673 12.1843 2.37565C12.0347 2.3785 11.8883 2.35748 11.7554 2.28515C11.5416 2.16866 11.3991 1.99373 11.3763 1.74721C11.3443 1.39842 11.3582 1.04822 11.3813 0.700151C11.3988 0.436874 11.6175 0.192123 11.9442 0.114814C12.0023 0.10092 12.0611 0.0930822 12.1216 0.0937947C12.3358 0.095576 12.5499 0.0945073 12.8128 0.0945073V0.0937947ZM12.7821 0.674144C12.5869 0.674144 12.3917 0.673431 12.1964 0.6745C12.159 0.6745 12.1213 0.681269 12.0839 0.684119C11.9977 0.690532 11.9613 0.748245 11.9603 0.823774C11.9563 1.09453 11.9585 1.36493 11.9567 1.63569C11.956 1.71015 11.9912 1.75361 12.0593 1.775C12.1077 1.78995 12.1566 1.79672 12.2079 1.79637C12.573 1.79529 12.9385 1.79566 13.3041 1.79566C13.3322 1.79566 13.3607 1.79566 13.3892 1.79566C13.5428 1.79352 13.5866 1.75717 13.5976 1.60897C13.6154 1.37028 13.6072 1.13087 13.6016 0.891463C13.5976 0.730433 13.5467 0.676638 13.3871 0.675212C13.1854 0.673431 12.9838 0.674857 12.7825 0.6745L12.7821 0.674144Z" fill="#0A1E35"/>
<path fill-rule="evenodd" clip-rule="evenodd" d="M4.10309 2.3747C3.89824 2.3747 3.69375 2.37042 3.48925 2.37576C3.24734 2.38218 3.04927 2.28705 2.88111 2.12317C2.77708 2.02164 2.7126 1.88732 2.70797 1.74732C2.69621 1.40495 2.68303 1.06116 2.71581 0.718792C2.74181 0.44946 2.8918 0.268122 3.13655 0.163381C3.24984 0.11493 3.36705 0.0896354 3.49352 0.0910605C3.89646 0.0960481 4.29939 0.0949794 4.70267 0.0921293C4.92427 0.0907043 5.1252 0.1388 5.29157 0.295199C5.42268 0.418109 5.50782 0.561325 5.50961 0.747292C5.51281 1.03693 5.50961 1.32657 5.52635 1.6155C5.55058 2.0277 5.19396 2.36366 4.81133 2.37291C4.5755 2.37896 4.33894 2.37399 4.10309 2.37399V2.3747ZM4.1266 0.673904V0.674615C3.90608 0.674615 3.68555 0.672478 3.46503 0.675328C3.33464 0.677109 3.28049 0.744087 3.2876 0.87519C3.2901 0.925067 3.28191 0.975656 3.28155 1.02589C3.28049 1.2368 3.26837 1.4477 3.29544 1.65789C3.304 1.72452 3.33427 1.76512 3.40338 1.78187C3.48176 1.80112 3.56014 1.79363 3.63852 1.79363C4.00084 1.79542 4.36316 1.79576 4.72547 1.7947C4.88401 1.79399 4.93139 1.74446 4.93318 1.58379C4.93567 1.34189 4.9378 1.09963 4.93817 0.857734C4.93817 0.733399 4.87689 0.674259 4.75041 0.673904C4.54235 0.673191 4.33466 0.673904 4.1266 0.673904Z" fill="#0A1E35"/>
<path fill-rule="evenodd" clip-rule="evenodd" d="M9.57396 1.79205C10.0499 1.79347 10.502 1.80415 10.9545 1.78812C11.0257 1.78563 11.0567 1.81377 11.0546 1.88823C11.0503 2.03288 11.0499 2.17752 11.0535 2.32216C11.0546 2.36027 11.0389 2.36349 11.0122 2.36598C10.978 2.36919 10.9438 2.3756 10.9096 2.3756C10.1881 2.37596 9.46673 2.37596 8.74494 2.3756C8.6174 2.3756 8.5978 2.3553 8.5978 2.22668C8.5978 2.14154 8.60921 2.05497 8.59637 1.97195C8.57394 1.82874 8.65446 1.75179 8.75349 1.67698C9.03422 1.465 9.31353 1.25124 9.59248 1.03713C9.71433 0.943433 9.83509 0.847954 9.9548 0.751407C9.97689 0.733594 10.0253 0.727894 10.0107 0.688705C10.0001 0.660561 9.95943 0.674812 9.93272 0.674456C9.53904 0.673743 9.14573 0.674099 8.75207 0.674456C8.61027 0.674456 8.59816 0.662342 8.59851 0.516275C8.59851 0.412247 8.59851 0.308219 8.59816 0.204547C8.5978 0.13187 8.62844 0.09375 8.70576 0.09375C9.4368 0.0944625 10.1675 0.0944625 10.8985 0.09375C10.968 0.09375 10.9944 0.122963 10.9933 0.190297C10.9912 0.32247 10.9919 0.454999 10.9933 0.587171C10.9937 0.63206 10.9773 0.661274 10.9416 0.690131C10.6039 0.961245 10.268 1.23521 9.93129 1.50775C9.81942 1.59824 9.70613 1.68731 9.57502 1.79205H9.57396Z" fill="#0A1E35"/>
<path fill-rule="evenodd" clip-rule="evenodd" d="M6.43321 0.965902C6.43321 1.38593 6.4325 1.80097 6.43321 2.21567C6.43321 2.35211 6.41326 2.37491 6.27682 2.37526C6.16673 2.37526 6.0563 2.3742 5.94585 2.37526C5.87139 2.37598 5.8379 2.34321 5.8379 2.26661C5.83861 1.58295 5.8379 0.899281 5.83612 0.21526C5.83612 0.12762 5.87104 0.0891438 5.96081 0.0923502C6.08372 0.0966253 6.20663 0.0952003 6.32955 0.0923502C6.38441 0.0912814 6.42537 0.108738 6.46171 0.149352C6.72606 0.444692 6.99183 0.738608 7.2569 1.03324C7.38301 1.1736 7.50841 1.31432 7.63417 1.45469C7.64628 1.46823 7.65946 1.48782 7.68049 1.47892C7.70257 1.4693 7.69224 1.44721 7.69188 1.42868C7.69082 1.0254 7.68974 0.62211 7.68939 0.219179C7.68939 0.115507 7.71148 0.0941314 7.81872 0.0934189C7.92915 0.0927064 8.03959 0.0976941 8.14932 0.0919939C8.24017 0.0873625 8.2701 0.121563 8.26973 0.212054C8.26688 0.813779 8.26831 1.41586 8.26831 2.01758C8.26831 2.10272 8.26582 2.18788 8.26902 2.27266C8.27187 2.34784 8.24694 2.38347 8.16499 2.37705C8.08342 2.37064 8.00041 2.36815 7.91953 2.37705C7.76385 2.39415 7.65875 2.33537 7.55722 2.21353C7.31389 1.9214 7.0531 1.64458 6.80016 1.36064C6.6997 1.24806 6.60101 1.13406 6.5034 1.01898C6.48274 0.994403 6.46349 0.973027 6.4325 0.965902H6.43321Z" fill="#0A1E35"/>
<path fill-rule="evenodd" clip-rule="evenodd" d="M24.2083 1.4764C24.2083 1.7411 24.2066 2.00581 24.2097 2.27014C24.2108 2.34603 24.1874 2.37952 24.108 2.37631C23.9854 2.37168 23.8625 2.37347 23.7395 2.37417C23.6658 2.37453 23.6419 2.33605 23.6422 2.26694C23.6451 1.81984 23.6483 1.37237 23.6472 0.925263C23.6465 0.674456 23.6426 0.673743 23.3965 0.673743C22.9964 0.673743 22.5963 0.673743 22.1963 0.673743C22.0498 0.673743 22.0284 0.693338 22.0224 0.841542C22.0178 0.951627 22.0159 1.06171 22.0164 1.1718C22.0178 1.53412 22.0199 1.89608 22.0231 2.25839C22.0238 2.33499 21.9945 2.3756 21.9119 2.37417C21.7797 2.37204 21.6472 2.37417 21.5151 2.37525C21.4737 2.37525 21.4505 2.37276 21.4463 2.31539C21.4274 2.04784 21.4424 1.78029 21.4385 1.51309C21.4353 1.27084 21.422 1.02715 21.4399 0.785965C21.468 0.398709 21.6757 0.09375 22.1285 0.09375C22.5917 0.09375 23.0548 0.09375 23.5179 0.09375C23.8706 0.09375 24.0901 0.252998 24.198 0.590021C24.2083 0.622085 24.2087 0.658067 24.2087 0.692268C24.2094 0.953764 24.209 1.21526 24.209 1.47675H24.2087L24.2083 1.4764Z" fill="#0A1E35"/>
<path fill-rule="evenodd" clip-rule="evenodd" d="M18.6183 1.52394C18.6183 1.26886 18.6158 1.01342 18.6201 0.75834C18.6211 0.6878 18.5927 0.672481 18.5311 0.672838C18.2507 0.674619 17.9702 0.671412 17.6898 0.675687C17.6336 0.6764 17.6201 0.660724 17.6208 0.609067C17.6226 0.486156 17.6187 0.363603 17.6197 0.240693C17.6208 0.108876 17.6376 0.0932007 17.7662 0.0932007C18.5129 0.0932007 19.2596 0.0932007 20.0064 0.0932007C20.1502 0.0932007 20.2212 0.165165 20.2194 0.309095C20.2183 0.387829 20.2194 0.466563 20.2187 0.545295C20.2179 0.66215 20.2076 0.672838 20.0869 0.673193C19.8318 0.673906 19.5762 0.675687 19.3213 0.672125C19.2454 0.671056 19.2164 0.691719 19.2164 0.772946C19.2185 1.26138 19.2146 1.74945 19.2146 2.23789C19.2146 2.35831 19.2033 2.37398 19.0807 2.37505C18.9643 2.37612 18.8474 2.37042 18.7308 2.37647C18.6425 2.38075 18.6183 2.34406 18.6197 2.2614C18.6233 2.01559 18.6211 1.76976 18.6211 1.5243H18.6187L18.6183 1.52394Z" fill="#0A1E35"/>
<path fill-rule="evenodd" clip-rule="evenodd" d="M20.527 2.40512V2.17033C20.527 1.6224 20.527 1.07412 20.527 0.525838C20.527 0.409698 20.5288 0.2932 20.5302 0.177059C20.5313 0.116494 20.5566 0.0883498 20.6236 0.0911998C20.7526 0.0965438 20.8819 0.0951187 21.0108 0.0922686C21.0778 0.0908436 21.1106 0.119701 21.1156 0.18454C21.118 0.219097 21.1221 0.253654 21.1221 0.288212C21.1217 0.943376 21.118 1.59854 21.1228 2.2537C21.1235 2.35524 21.092 2.37981 20.9988 2.37484C20.8826 2.36842 20.7658 2.37412 20.6492 2.37484C20.61 2.37484 20.5684 2.36663 20.5267 2.40475L20.527 2.40512Z" fill="#0A1E35"/>
<path fill-rule="evenodd" clip-rule="evenodd" d="M22.3808 1.27269C22.3808 1.01761 22.5505 0.849457 22.8077 0.849457C23.0649 0.849457 23.249 1.034 23.2308 1.30832C23.2159 1.53312 23.0737 1.68631 22.8016 1.69273C22.5551 1.69878 22.3808 1.51888 22.3808 1.27234V1.27269Z" fill="#0A1E35"/>
</g>
<mask id="mask1_1_4234" style="mask-type:luminance" maskUnits="userSpaceOnUse" x="0" y="3" width="5" height="5">
<path d="M4.66671 3.38199H0.0010376V7.88491H4.66671V3.38199Z" fill="white"/>
</mask>
<g mask="url(#mask1_1_4234)">
<path d="M4.3619 6.63027C4.3619 6.90745 4.24798 7.15888 4.06364 7.34036C3.87974 7.52228 3.62492 7.63468 3.34404 7.63468C2.78182 7.63468 2.32618 7.18506 2.32618 6.63027C2.32618 6.3531 2.21227 6.10166 2.02792 5.92019C1.84402 5.73826 1.58921 5.62586 1.30832 5.62586C0.746101 5.62586 0.290466 5.17624 0.290466 4.62145C0.290466 4.34428 0.404376 4.09283 0.588734 3.91137C0.772635 3.72944 1.02744 3.61703 1.30832 3.61703C1.58921 3.61703 1.84402 3.72944 2.02792 3.91137C2.21227 4.09283 2.32618 4.34428 2.32618 4.62145C2.32618 5.17624 2.78182 5.62586 3.34404 5.62586C3.62492 5.62586 3.87974 5.73826 4.06364 5.92019C4.24798 6.10166 4.3619 6.3531 4.3619 6.63027Z" fill="#FF6E4E"/>
<path d="M4.36201 6.63027C4.36201 6.90745 4.2481 7.15888 4.06374 7.34036C4.03355 7.3706 4.00107 7.39858 3.96722 7.42432C4.04727 7.28122 4.09302 7.11599 4.09302 6.94084C4.09302 6.66368 3.97911 6.41223 3.79475 6.23076C3.61085 6.04885 3.35605 5.93643 3.07517 5.93643C2.51294 5.93643 2.05731 5.48683 2.05731 4.93202C2.05731 4.65485 1.9434 4.40341 1.75904 4.22194C1.57513 4.04002 1.32033 3.92761 1.03945 3.92761C0.804769 3.92761 0.588389 4.00615 0.416382 4.13797C0.462586 4.05446 0.521141 3.97817 0.588846 3.91137C0.772747 3.72944 1.02755 3.61703 1.30844 3.61703C1.58932 3.61703 1.84412 3.72944 2.02802 3.91137C2.21239 4.09283 2.3263 4.34428 2.3263 4.62145C2.3263 5.17624 2.78193 5.62586 3.34416 5.62586C3.62504 5.62586 3.87984 5.73826 4.06374 5.92019C4.2481 6.10166 4.36201 6.3531 4.36201 6.63027Z" fill="#EB5A3A"/>
<path d="M2.92953 5.09692C2.73099 4.901 2.63127 4.6437 2.63172 4.38684C2.63172 4.12997 2.73099 3.87267 2.92953 3.67675C3.32706 3.28447 3.97164 3.28447 4.36917 3.67675C4.56771 3.87267 4.66743 4.12997 4.66698 4.38684C4.66698 4.6437 4.56771 4.901 4.36917 5.09692C4.17064 5.29284 3.90988 5.39125 3.64957 5.39079C3.38928 5.39079 3.12853 5.29284 2.92999 5.09692H2.92953Z" fill="#0A1E35"/>
<path d="M4.66753 4.3864C4.66753 4.66356 4.55362 4.91501 4.36927 5.09648C4.28236 5.18225 4.17988 5.25267 4.06643 5.30277C4.227 5.12537 4.32443 4.89108 4.32443 4.63467C4.32443 4.35795 4.21053 4.10606 4.02617 3.92459C3.84227 3.74312 3.58746 3.63026 3.30657 3.63026C3.15836 3.63026 3.01701 3.66187 2.88983 3.71874C2.90264 3.7043 2.91636 3.68985 2.93009 3.67631C3.11399 3.49484 3.36879 3.38199 3.64967 3.38199C3.93056 3.38199 4.18537 3.49484 4.36927 3.67631C4.55362 3.85779 4.66753 4.10968 4.66753 4.3864Z" fill="#0A1E35"/>
<path d="M0.298907 7.59084C0.100368 7.39493 0.00109863 7.13761 0.00109863 6.88031C0.00109863 6.62344 0.100368 6.36614 0.298907 6.17022C0.696445 5.77794 1.34101 5.77794 1.73855 6.17022C1.93709 6.36614 2.03681 6.62344 2.03635 6.88031C2.03635 7.13716 1.93709 7.39447 1.73855 7.59039C1.54 7.78631 1.27925 7.88472 1.01896 7.88426C0.758659 7.88426 0.497905 7.78631 0.299366 7.59039L0.298907 7.59084Z" fill="#0A1E35"/>
<path d="M2.03643 6.88042C2.03643 7.15758 1.92252 7.40903 1.73816 7.5905C1.65124 7.67627 1.54878 7.74669 1.43533 7.79679C1.5959 7.61939 1.69333 7.3851 1.69333 7.12869C1.69333 6.85197 1.57942 6.60008 1.39507 6.41861C1.21117 6.23714 0.956361 6.12428 0.675479 6.12428C0.52726 6.12428 0.385903 6.15588 0.258728 6.21276C0.271538 6.19832 0.285262 6.18387 0.298985 6.17032C0.482886 5.98886 0.737694 5.87601 1.01858 5.87601C1.29946 5.87601 1.55426 5.98886 1.73816 6.17032C1.92252 6.35179 2.03643 6.60369 2.03643 6.88042Z" fill="#0A1E35"/>
</g>
<path d="M23.87 5.61648C24.017 5.74437 24.2088 6.00655 24.2088 6.51811C24.2088 7.87377 23.7292 7.87377 22.073 7.87377H18.2682C18.1723 7.87377 18.0956 7.79705 18.0956 7.70113V3.5702C18.0956 3.47429 18.1723 3.39755 18.2682 3.39755H22.2138C23.4671 3.39755 24.017 3.39755 24.017 4.6445C24.017 5.06015 23.9274 5.26477 23.8444 5.37988C23.7868 5.45022 23.7996 5.55892 23.87 5.61648ZM22.6678 6.87621C22.7637 6.87621 22.8404 6.79948 22.8404 6.70356V6.30709C22.8404 6.21117 22.7637 6.13444 22.6678 6.13444H19.6367C19.5408 6.13444 19.4641 6.21117 19.4641 6.30709V6.70356C19.4641 6.79948 19.5408 6.87621 19.6367 6.87621H22.6678ZM22.8404 4.96423V4.56776C22.8404 4.47184 22.7637 4.39511 22.6678 4.39511H19.4641V5.14328H22.6678C22.7637 5.14328 22.8404 5.06015 22.8404 4.96423Z" fill="#0A1E35"/>
<path d="M10.0597 3.5702C10.0597 3.47429 10.1365 3.39755 10.2324 3.39755H11.2491C11.3451 3.39755 11.4218 3.47429 11.4218 3.5702V7.70113C11.4218 7.79705 11.3451 7.87377 11.2491 7.87377H10.2324C10.1365 7.87377 10.0597 7.79705 10.0597 7.70113V6.30709C10.0597 6.21117 9.97661 6.13444 9.88069 6.13444H7.0223C6.92638 6.13444 6.84965 6.21117 6.84965 6.30709V7.70113C6.84965 7.79705 6.77291 7.87377 6.67699 7.87377H5.65386C5.55794 7.87377 5.4812 7.79705 5.4812 7.70113V3.5702C5.4812 3.47429 5.55794 3.39755 5.65386 3.39755H6.67699C6.77291 3.39755 6.84965 3.47429 6.84965 3.5702V4.96423C6.84965 5.06015 6.92638 5.13688 7.0223 5.13688H9.88069C9.97661 5.13688 10.0597 5.06015 10.0597 4.96423V3.5702Z" fill="#0A1E35"/>
<path fill-rule="evenodd" clip-rule="evenodd" d="M17.4649 5.14855C17.4649 4.63211 17.4614 4.11567 17.4677 3.59994C17.4698 3.45188 17.4238 3.38654 17.2689 3.3928C17.0298 3.40184 16.79 3.39837 16.5502 3.39697C16.4063 3.39629 16.3598 3.47135 16.3605 3.60619C16.3659 4.4785 16.3722 5.3515 16.3701 6.22381C16.3687 6.71313 16.3612 6.71453 15.8809 6.71453C15.1003 6.71453 14.3198 6.71453 13.5391 6.71453C13.2535 6.71453 13.2118 6.6763 13.2 6.38715C13.1909 6.17237 13.1875 5.95759 13.1881 5.74283C13.1909 5.03593 13.1951 4.32976 13.2013 3.62288C13.2027 3.47343 13.1457 3.39419 12.9845 3.39697C12.7266 3.40115 12.468 3.39697 12.2102 3.39489C12.1296 3.39489 12.0844 3.39975 12.076 3.51166C12.0392 4.03365 12.0684 4.55565 12.0607 5.07695C12.0545 5.54959 12.0288 6.02501 12.0635 6.49558C12.1184 7.25111 12.5237 7.84609 13.4071 7.84609C14.3107 7.84609 15.2142 7.84609 16.1178 7.84609C16.806 7.84609 17.2341 7.5354 17.4448 6.87787C17.4649 6.81531 17.4656 6.7451 17.4656 6.67838C17.467 6.16821 17.4663 5.65802 17.4663 5.14785H17.4656L17.4649 5.14855Z" fill="#0A1E35"/>
<path fill-rule="evenodd" clip-rule="evenodd" d="M13.8998 5.5455C13.8998 6.04318 14.2306 6.37124 14.7324 6.37124C15.2342 6.37124 15.5936 6.0112 15.5583 5.476C15.529 5.03741 15.2517 4.73854 14.7207 4.72603C14.2397 4.71422 13.8998 5.06522 13.8998 5.5462V5.5455Z" fill="#0A1E35"/>
<mask id="mask2_1_4234" style="mask-type:luminance" maskUnits="userSpaceOnUse" x="24" y="7" width="2" height="1">
<path d="M26 7.16626H24.5934V7.84821H26V7.16626Z" fill="white"/>
</mask>
<g mask="url(#mask2_1_4234)">
<path d="M24.5934 7.16626H25.1937V7.3348H24.9923V7.84834H24.7947V7.3348H24.5934V7.16626ZM25.2809 7.16626H25.5408L25.641 7.58113L25.7409 7.16626H26V7.84821H25.8385V7.3282L25.7134 7.84821H25.5675L25.4426 7.3282V7.84821H25.2809V7.16626Z" fill="#0A1E35"/>
</g>
</g>
<defs>
<clipPath id="clip0_1_4234">
<rect width="26" height="7.82796" fill="white" transform="translate(0 0.0910034)"/>
</clipPath>
</defs>
</svg>
