<svg width="48" height="48" viewBox="0 0 48 48" fill="none" xmlns="http://www.w3.org/2000/svg">
<g clip-path="url(#clip0_451_11190)">
<mask id="mask0_451_11190" style="mask-type:luminance" maskUnits="userSpaceOnUse" x="0" y="16" width="45" height="6">
<path d="M44.6942 16.7742H0V21.0468H44.6942V16.7742Z" fill="white"/>
</mask>
<g mask="url(#mask0_451_11190)">
<path fill-rule="evenodd" clip-rule="evenodd" d="M0 16.7901C0.29071 16.7868 0.580759 16.7829 0.871468 16.7796C1.01419 16.7783 1.0234 16.8789 1.0234 16.9835C1.02406 17.3676 1.03129 17.7517 1.02077 18.1351C1.01617 18.3015 1.06681 18.3462 1.23453 18.3568C1.44631 18.3706 1.58114 18.2857 1.71466 18.141C2.1106 17.7102 2.51575 17.2873 2.91695 16.8611C2.97285 16.8013 3.04258 16.7802 3.12085 16.7796C3.49311 16.7789 3.86537 16.7783 4.23765 16.7796C4.28764 16.7796 4.34748 16.769 4.37246 16.8335C4.39484 16.8927 4.3567 16.9315 4.31984 16.9703C3.89301 17.4129 3.46681 17.8549 3.04059 18.2982C2.88408 18.4607 2.73148 18.6277 2.57429 18.7895C2.5118 18.854 2.49207 18.906 2.56968 18.9776C2.88144 19.2651 3.16689 19.5788 3.48062 19.8656C3.80157 20.1589 4.10281 20.4726 4.41128 20.7785C4.45337 20.8199 4.49218 20.8692 4.46916 20.9324C4.44284 21.0034 4.37378 20.9896 4.31853 20.9902C3.96929 20.9922 3.62005 20.9915 3.27146 20.9915C3.1807 20.9915 3.10573 20.9613 3.03796 20.8949C2.69597 20.5561 2.35001 20.2214 2.00668 19.884C1.88237 19.7623 1.76333 19.6353 1.63902 19.5137C1.5522 19.4282 1.19901 19.3828 1.09378 19.4381C1.03129 19.4709 1.02866 19.5255 1.02866 19.5867C1.03064 19.976 1.02669 20.3661 1.03129 20.7554C1.03392 20.9449 1.00564 20.9883 0.820168 20.9889C0.547215 20.9902 0.274266 20.983 0.000658353 20.9797V16.7901H0Z" fill="#0A1E35"/>
<path fill-rule="evenodd" clip-rule="evenodd" d="M26.7968 18.8763C26.7968 18.2482 26.8001 17.6201 26.7942 16.9926C26.7929 16.8368 26.843 16.7762 27.0048 16.7762C28.2611 16.7808 29.5165 16.7795 30.7728 16.7782C31.5844 16.7776 31.9844 17.4129 32.0278 18.0404C32.0546 18.4317 31.9929 18.7836 31.7896 19.1184C31.5798 19.463 31.276 19.6209 30.8812 19.63C30.8038 19.632 30.6905 19.5873 30.6569 19.6682C30.6262 19.7425 30.7354 19.7951 30.7852 19.8517C31.0582 20.1595 31.3398 20.4601 31.6159 20.7653C31.6574 20.8113 31.7119 20.8666 31.6796 20.9336C31.652 20.9909 31.5831 20.9896 31.5238 20.9896C31.1635 20.9896 30.803 20.9896 30.4427 20.9902C30.3609 20.9902 30.3018 20.9613 30.2458 20.8994C29.6587 20.2437 29.0685 19.5899 28.4786 18.9355C28.4438 18.8974 28.4076 18.8599 28.3707 18.8237C28.3196 18.7737 28.267 18.7132 28.2946 18.6435C28.3214 18.5738 28.4017 18.5613 28.4734 18.5606C28.6476 18.5593 28.8221 18.5606 28.9963 18.5613C29.514 18.5626 30.0316 18.5646 30.5485 18.5652C30.9235 18.5652 30.9589 18.529 30.9465 18.1561C30.9385 17.9088 30.8832 17.8536 30.6321 17.8496C30.4577 17.8463 30.2827 17.849 30.1085 17.849C29.4456 17.849 28.7826 17.849 28.1201 17.849C27.8703 17.849 27.8623 17.8569 27.8623 18.1009C27.8636 18.9671 27.8649 19.8339 27.867 20.7002C27.867 20.9817 27.8611 20.9896 27.5705 20.9909C27.3901 20.9909 27.21 20.9915 27.0298 20.9896C26.8213 20.9876 26.7976 20.9639 26.7968 20.7593C26.7963 20.1312 26.7968 19.5038 26.7968 18.8757V18.8763Z" fill="#0A1E35"/>
<path fill-rule="evenodd" clip-rule="evenodd" d="M23.6541 16.7793C24.0692 16.8023 24.5743 16.7483 25.0794 16.8115C25.6628 16.8838 26.1897 17.4508 26.1923 18.0348C26.1949 18.5873 26.1838 19.1398 26.1949 19.6916C26.208 20.3151 25.6365 20.913 25.038 20.9603C24.1902 21.0274 23.3417 20.9755 22.4939 20.9919C22.2177 20.9972 21.9474 20.9584 21.702 20.8248C21.3074 20.6098 21.0443 20.2868 21.0022 19.8317C20.943 19.1878 20.9687 18.5413 21.0114 17.8987C21.0437 17.4126 21.4475 16.9608 22.0506 16.8181C22.1578 16.7924 22.2664 16.7779 22.3782 16.7793C22.7735 16.7825 23.1687 16.7806 23.6541 16.7806V16.7793ZM23.5976 17.8507C23.2371 17.8507 22.8767 17.8494 22.5163 17.8513C22.4472 17.8513 22.3775 17.8638 22.3085 17.8691C22.1493 17.8809 22.0822 17.9875 22.0802 18.1269C22.073 18.6268 22.0769 19.126 22.0736 19.6258C22.0723 19.7633 22.1374 19.8435 22.2631 19.883C22.3525 19.9106 22.4426 19.9231 22.5373 19.9225C23.2115 19.9205 23.8863 19.9212 24.5611 19.9212C24.6131 19.9212 24.6657 19.9212 24.7183 19.9212C25.0018 19.9172 25.0827 19.8501 25.1031 19.5765C25.1359 19.1358 25.1208 18.6939 25.1103 18.2519C25.1031 17.9546 25.009 17.8553 24.7144 17.8526C24.3421 17.8494 23.9698 17.852 23.5982 17.8513L23.5976 17.8507Z" fill="#0A1E35"/>
<path fill-rule="evenodd" clip-rule="evenodd" d="M7.5749 20.9902C7.19671 20.9902 6.81918 20.9823 6.44166 20.9922C5.99506 21.004 5.62938 20.8284 5.31893 20.5259C5.12688 20.3384 5.00783 20.0905 4.99929 19.832C4.97758 19.1999 4.95325 18.5652 5.01377 17.9332C5.06177 17.4359 5.33867 17.1012 5.79051 16.9078C5.99968 16.8183 6.21606 16.7716 6.44953 16.7743C7.19343 16.7835 7.9373 16.7815 8.68182 16.7762C9.09093 16.7736 9.46187 16.8624 9.76902 17.1511C10.0111 17.3781 10.1682 17.6425 10.1715 17.9858C10.1775 18.5205 10.1715 19.0552 10.2025 19.5886C10.2472 20.3496 9.58881 20.9698 8.88241 20.9869C8.44703 20.9981 8.01031 20.9889 7.5749 20.9889V20.9902ZM7.61831 17.8503V17.8516C7.21118 17.8516 6.80406 17.8477 6.39694 17.8529C6.15622 17.8562 6.05624 17.9799 6.06938 18.2219C6.074 18.314 6.05888 18.4074 6.0582 18.5001C6.05624 18.8895 6.03387 19.2788 6.08386 19.6669C6.09965 19.7899 6.15555 19.8649 6.28313 19.8958C6.42783 19.9313 6.57253 19.9175 6.71722 19.9175C7.38613 19.9208 8.05503 19.9214 8.72391 19.9195C9.0166 19.9181 9.10406 19.8267 9.10737 19.5301C9.11196 19.0835 9.11591 18.6363 9.11658 18.1897C9.11658 17.9601 9.00344 17.8509 8.76995 17.8503C8.38584 17.849 8.00241 17.8503 7.61831 17.8503Z" fill="#0A1E35"/>
<path fill-rule="evenodd" clip-rule="evenodd" d="M17.675 19.9145C18.5538 19.9171 19.3884 19.9368 20.2237 19.9072C20.3552 19.9027 20.4124 19.9546 20.4085 20.0921C20.4006 20.3591 20.3999 20.6261 20.4065 20.8932C20.4085 20.9635 20.3796 20.9695 20.3302 20.9741C20.2671 20.98 20.2039 20.9918 20.1408 20.9918C18.8089 20.9925 17.4771 20.9925 16.1445 20.9918C15.9091 20.9918 15.8729 20.9543 15.8729 20.7169C15.8729 20.5597 15.894 20.3999 15.8703 20.2466C15.8288 19.9822 15.9775 19.8402 16.1603 19.7021C16.6786 19.3107 17.1942 18.9161 17.7092 18.5208C17.9342 18.3478 18.1571 18.1716 18.3781 17.9933C18.4189 17.9604 18.5084 17.9499 18.4814 17.8776C18.4617 17.8256 18.3867 17.8519 18.3374 17.8512C17.6106 17.8499 16.8845 17.8506 16.1577 17.8512C15.8959 17.8512 15.8736 17.8289 15.8742 17.5592C15.8742 17.3672 15.8742 17.1751 15.8736 16.9837C15.8729 16.8495 15.9295 16.7792 16.0722 16.7792C17.4218 16.7805 18.7708 16.7805 20.1204 16.7792C20.2487 16.7792 20.2973 16.8331 20.2954 16.9574C20.2914 17.2014 20.2927 17.4461 20.2954 17.6901C20.296 17.773 20.2658 17.8269 20.2 17.8802C19.5765 18.3807 18.9563 18.8865 18.3347 19.3896C18.1282 19.5567 17.919 19.7211 17.677 19.9145H17.675Z" fill="#0A1E35"/>
<path fill-rule="evenodd" clip-rule="evenodd" d="M11.8767 18.3894C11.8767 19.1648 11.8754 19.9311 11.8767 20.6967C11.8767 20.9486 11.8399 20.9906 11.588 20.9913C11.3848 20.9913 11.1809 20.9893 10.977 20.9913C10.8395 20.9926 10.7777 20.9321 10.7777 20.7907C10.779 19.5286 10.7777 18.2664 10.7744 17.0036C10.7744 16.8418 10.8389 16.7708 11.0046 16.7767C11.2315 16.7846 11.4584 16.7819 11.6854 16.7767C11.7866 16.7747 11.8623 16.8069 11.9294 16.8819C12.4174 17.4272 12.908 17.9698 13.3974 18.5137C13.6302 18.7728 13.8617 19.0326 14.0939 19.2918C14.1162 19.3168 14.1406 19.3529 14.1794 19.3365C14.2202 19.3187 14.2011 19.278 14.2004 19.2438C14.1985 18.4992 14.1965 17.7547 14.1958 17.0108C14.1958 16.8194 14.2366 16.78 14.4346 16.7787C14.6385 16.7773 14.8424 16.7866 15.0449 16.776C15.2127 16.7675 15.2679 16.8306 15.2672 16.9977C15.262 18.1086 15.2646 19.2201 15.2646 20.331C15.2646 20.4881 15.26 20.6454 15.2659 20.8019C15.2712 20.9407 15.2251 21.0064 15.0739 20.9946C14.9233 20.9828 14.77 20.9782 14.6207 20.9946C14.3333 21.0262 14.1393 20.9176 13.9518 20.6927C13.5026 20.1534 13.0211 19.6423 12.5542 19.1181C12.3687 18.9103 12.1865 18.6998 12.0063 18.4874C11.9682 18.442 11.9326 18.4025 11.8754 18.3894H11.8767Z" fill="#0A1E35"/>
<path fill-rule="evenodd" clip-rule="evenodd" d="M44.6921 19.3318C44.6921 19.8204 44.689 20.3091 44.6947 20.7971C44.6967 20.9372 44.6534 20.9991 44.5068 20.9931C44.2805 20.9846 44.0536 20.9879 43.8265 20.9892C43.6905 20.9899 43.6464 20.9188 43.6469 20.7912C43.6523 19.9658 43.6583 19.1397 43.6562 18.3143C43.6549 17.8512 43.6477 17.8499 43.1932 17.8499C42.4547 17.8499 41.7161 17.8499 40.9775 17.8499C40.7071 17.8499 40.6676 17.8861 40.6565 18.1597C40.648 18.3629 40.6446 18.5662 40.6454 18.7694C40.648 19.4383 40.6518 20.1065 40.6578 20.7754C40.6591 20.9168 40.6051 20.9918 40.4526 20.9892C40.2085 20.9853 39.9638 20.9892 39.72 20.9912C39.6436 20.9912 39.6007 20.9866 39.593 20.8807C39.5581 20.3867 39.5858 19.8928 39.5785 19.3995C39.5726 18.9523 39.5481 18.5024 39.5811 18.0571C39.633 17.3422 40.0165 16.7792 40.8523 16.7792C41.7076 16.7792 42.5625 16.7792 43.4175 16.7792C44.0686 16.7792 44.4738 17.0732 44.673 17.6954C44.6921 17.7546 44.6929 17.821 44.6929 17.8841C44.6941 18.3669 44.6934 18.8497 44.6934 19.3324H44.6929L44.6921 19.3318Z" fill="#0A1E35"/>
<path fill-rule="evenodd" clip-rule="evenodd" d="M34.3725 19.4196C34.3725 18.9486 34.3678 18.4771 34.3758 18.0061C34.3776 17.8759 34.3252 17.8476 34.2114 17.8483C33.6938 17.8516 33.1761 17.8457 32.6584 17.8536C32.5547 17.8549 32.5296 17.8259 32.5309 17.7306C32.5343 17.5037 32.5271 17.2774 32.5289 17.0505C32.5309 16.8071 32.5619 16.7782 32.7993 16.7782C34.1779 16.7782 35.5565 16.7782 36.9351 16.7782C37.2006 16.7782 37.3317 16.9111 37.3283 17.1768C37.3263 17.3221 37.3283 17.4675 37.3271 17.6128C37.3255 17.8286 37.3067 17.8483 37.0837 17.849C36.6127 17.8503 36.141 17.8536 35.6703 17.847C35.5301 17.845 35.4767 17.8832 35.4767 18.0331C35.4806 18.9348 35.4734 19.8359 35.4734 20.7376C35.4734 20.9599 35.4525 20.9889 35.2261 20.9908C35.0112 20.9928 34.7954 20.9823 34.5802 20.9935C34.4171 21.0014 34.3725 20.9336 34.3751 20.781C34.3818 20.3272 34.3776 19.8734 34.3776 19.4202H34.3732L34.3725 19.4196Z" fill="#0A1E35"/>
<path fill-rule="evenodd" clip-rule="evenodd" d="M37.8963 21.0464V20.6129C37.8963 19.6014 37.8963 18.5892 37.8963 17.5769C37.8963 17.3625 37.8996 17.1475 37.9022 16.933C37.9043 16.8212 37.951 16.7693 38.0746 16.7745C38.3128 16.7844 38.5515 16.7818 38.7894 16.7765C38.913 16.7739 38.9737 16.8271 38.983 16.9469C38.9874 17.0107 38.9948 17.0744 38.9948 17.1382C38.9941 18.3478 38.9874 19.5573 38.9961 20.7668C38.9974 20.9543 38.9394 20.9997 38.7672 20.9905C38.5528 20.9786 38.337 20.9892 38.1218 20.9905C38.0496 20.9905 37.9727 20.9753 37.8958 21.0457L37.8963 21.0464Z" fill="#0A1E35"/>
<path fill-rule="evenodd" clip-rule="evenodd" d="M41.3184 18.9557C41.3184 18.4848 41.6316 18.1743 42.1065 18.1743C42.5813 18.1743 42.9212 18.515 42.8877 19.0214C42.86 19.4365 42.5976 19.7193 42.0951 19.7311C41.6402 19.7423 41.3184 19.4102 41.3184 18.955V18.9557Z" fill="#0A1E35"/>
</g>
<mask id="mask1_451_11190" style="mask-type:luminance" maskUnits="userSpaceOnUse" x="0" y="22" width="9" height="10">
<path d="M8.61526 22.8499H0.00170898V31.1629H8.61526V22.8499Z" fill="white"/>
</mask>
<g mask="url(#mask1_451_11190)">
<path d="M8.05286 28.8467C8.05286 29.3584 7.84257 29.8226 7.50223 30.1576C7.16272 30.4935 6.69229 30.701 6.17374 30.701C5.1358 30.701 4.29462 29.8709 4.29462 28.8467C4.29462 28.335 4.08432 27.8708 3.74398 27.5358C3.40447 27.1999 2.93405 26.9924 2.4155 26.9924C1.37755 26.9924 0.536377 26.1623 0.536377 25.1381C0.536377 24.6264 0.746671 24.1622 1.08702 23.8272C1.42653 23.4913 1.89695 23.2838 2.4155 23.2838C2.93405 23.2838 3.40447 23.4913 3.74398 23.8272C4.08432 24.1622 4.29462 24.6264 4.29462 25.1381C4.29462 26.1623 5.1358 26.9924 6.17374 26.9924C6.69229 26.9924 7.16272 27.1999 7.50223 27.5358C7.84257 27.8708 8.05286 28.335 8.05286 28.8467Z" fill="#FF6E4E"/>
<path d="M8.05255 28.8467C8.05255 29.3584 7.84226 29.8226 7.5019 30.1576C7.44615 30.2135 7.38621 30.2651 7.3237 30.3126C7.4715 30.0485 7.55596 29.7434 7.55596 29.4201C7.55596 28.9084 7.34566 28.4442 7.0053 28.1092C6.66579 27.7733 6.19539 27.5658 5.67684 27.5658C4.63888 27.5658 3.79771 26.7357 3.79771 25.7115C3.79771 25.1998 3.58742 24.7356 3.24706 24.4006C2.90755 24.0647 2.43714 23.8572 1.91859 23.8572C1.48533 23.8572 1.08586 24.0022 0.768311 24.2455C0.853611 24.0914 0.961712 23.9505 1.08671 23.8272C1.42622 23.4913 1.89663 23.2838 2.41518 23.2838C2.93374 23.2838 3.40414 23.4913 3.74365 23.8272C4.08401 24.1622 4.29431 24.6264 4.29431 25.1381C4.29431 26.1623 5.13547 26.9924 6.17343 26.9924C6.69199 26.9924 7.16239 27.1999 7.5019 27.5358C7.84226 27.8708 8.05255 28.335 8.05255 28.8467Z" fill="#EB5A3A"/>
<path d="M5.40821 26.0158C5.04168 25.6541 4.85758 25.1791 4.8584 24.7049C4.8584 24.2307 5.04168 23.7557 5.40821 23.394C6.14212 22.6698 7.3321 22.6698 8.06601 23.394C8.43254 23.7557 8.61665 24.2307 8.61582 24.7049C8.61582 25.1791 8.43254 25.6541 8.06601 26.0158C7.69949 26.3775 7.21809 26.5592 6.73752 26.5584C6.25698 26.5584 5.77559 26.3775 5.40906 26.0158H5.40821Z" fill="#0A1E35"/>
<path d="M8.61663 24.7042C8.61663 25.2158 8.40633 25.68 8.06599 26.0151C7.90553 26.1734 7.71634 26.3034 7.5069 26.3959C7.80334 26.0684 7.98321 25.6359 7.98321 25.1625C7.98321 24.6516 7.77294 24.1866 7.43257 23.8516C7.09307 23.5166 6.62264 23.3082 6.10408 23.3082C5.83046 23.3082 5.5695 23.3666 5.33472 23.4716C5.35836 23.4449 5.3837 23.4182 5.40904 23.3932C5.74855 23.0582 6.21895 22.8499 6.7375 22.8499C7.25606 22.8499 7.72648 23.0582 8.06599 23.3932C8.40633 23.7283 8.61663 24.1933 8.61663 24.7042Z" fill="#0A1E35"/>
<path d="M0.55151 30.6201C0.184976 30.2584 0.00170898 29.7833 0.00170898 29.3083C0.00170898 28.8341 0.184976 28.3591 0.55151 27.9974C1.28542 27.2732 2.47539 27.2732 3.20932 27.9974C3.57585 28.3591 3.75995 28.8341 3.7591 29.3083C3.7591 29.7825 3.57585 30.2575 3.20932 30.6192C2.84276 30.9809 2.36138 31.1626 1.88083 31.1618C1.40028 31.1618 0.91889 30.9809 0.552356 30.6192L0.55151 30.6201Z" fill="#0A1E35"/>
<path d="M3.7597 29.3085C3.7597 29.8202 3.54941 30.2844 3.20905 30.6194C3.04858 30.7778 2.85942 30.9078 2.64997 31.0003C2.94641 30.6728 3.12628 30.2402 3.12628 29.7669C3.12628 29.256 2.91599 28.791 2.57564 28.456C2.23614 28.1209 1.76572 27.9126 1.24717 27.9126C0.973535 27.9126 0.712568 27.9709 0.477783 28.0759C0.501432 28.0493 0.526769 28.0226 0.552103 27.9976C0.891613 27.6626 1.36203 27.4542 1.88058 27.4542C2.39913 27.4542 2.86954 27.6626 3.20905 27.9976C3.54941 28.3326 3.7597 28.7976 3.7597 29.3085Z" fill="#0A1E35"/>
</g>
<path d="M44.0679 26.975C44.3393 27.2111 44.6934 27.6952 44.6934 28.6396C44.6934 31.1423 43.808 31.1423 40.7504 31.1423H33.7262C33.5491 31.1423 33.4075 31.0007 33.4075 30.8236V23.1973C33.4075 23.0202 33.5491 22.8785 33.7262 22.8785H41.0103C43.3241 22.8785 44.3393 22.8785 44.3393 25.1806C44.3393 25.948 44.1739 26.3257 44.0206 26.5382C43.9143 26.6681 43.938 26.8688 44.0679 26.975ZM41.8485 29.3007C42.0255 29.3007 42.1672 29.159 42.1672 28.9819V28.25C42.1672 28.0729 42.0255 27.9313 41.8485 27.9313H36.2526C36.0756 27.9313 35.9339 28.0729 35.9339 28.25V28.9819C35.9339 29.159 36.0756 29.3007 36.2526 29.3007H41.8485ZM42.1672 25.7709V25.0389C42.1672 24.8618 42.0255 24.7202 41.8485 24.7202H35.9339V26.1014H41.8485C42.0255 26.1014 42.1672 25.948 42.1672 25.7709Z" fill="#0A1E35"/>
<path d="M18.5718 23.1973C18.5718 23.0202 18.7135 22.8785 18.8906 22.8785H20.7676C20.9447 22.8785 21.0864 23.0202 21.0864 23.1973V30.8236C21.0864 31.0007 20.9447 31.1423 20.7676 31.1423H18.8906C18.7135 31.1423 18.5718 31.0007 18.5718 30.8236V28.25C18.5718 28.0729 18.4184 27.9313 18.2413 27.9313H12.9643C12.7872 27.9313 12.6455 28.0729 12.6455 28.25V30.8236C12.6455 31.0007 12.5038 31.1423 12.3268 31.1423H10.4379C10.2608 31.1423 10.1191 31.0007 10.1191 30.8236V23.1973C10.1191 23.0202 10.2608 22.8785 10.4379 22.8785H12.3268C12.5038 22.8785 12.6455 23.0202 12.6455 23.1973V25.7709C12.6455 25.948 12.7872 26.0896 12.9643 26.0896H18.2413C18.4184 26.0896 18.5718 25.948 18.5718 25.7709V23.1973Z" fill="#0A1E35"/>
<path fill-rule="evenodd" clip-rule="evenodd" d="M32.243 26.1111C32.243 25.1577 32.2365 24.2043 32.2481 23.2522C32.252 22.9788 32.1671 22.8582 31.8811 22.8698C31.4396 22.8864 30.997 22.88 30.5542 22.8775C30.2886 22.8762 30.2027 23.0148 30.204 23.2637C30.214 24.8741 30.2257 26.4858 30.2218 28.0963C30.2192 28.9996 30.2053 29.0022 29.3186 29.0022C27.8775 29.0022 26.4365 29.0022 24.9954 29.0022C24.468 29.0022 24.391 28.9316 24.3692 28.3978C24.3525 28.0013 24.3461 27.6048 24.3474 27.2083C24.3525 25.9032 24.3602 24.5995 24.3718 23.2945C24.3743 23.0186 24.2691 22.8723 23.9714 22.8775C23.4953 22.8852 23.018 22.8775 22.5419 22.8736C22.3931 22.8736 22.3097 22.8826 22.2943 23.0892C22.2263 24.0529 22.2801 25.0166 22.266 25.979C22.2545 26.8515 22.207 27.7292 22.2712 28.598C22.3725 29.9928 23.1206 31.0912 24.7516 31.0912C26.4197 31.0912 28.0879 31.0912 29.756 31.0912C31.0264 31.0912 31.8169 30.5176 32.2058 29.3037C32.243 29.1883 32.2442 29.0586 32.2442 28.9355C32.2468 27.9936 32.2455 27.0517 32.2455 26.1099H32.2442L32.243 26.1111Z" fill="#0A1E35"/>
<path fill-rule="evenodd" clip-rule="evenodd" d="M25.6614 26.844C25.6614 27.7628 26.2721 28.3684 27.1985 28.3684C28.125 28.3684 28.7885 27.7037 28.7232 26.7157C28.6692 25.906 28.1572 25.3542 27.1769 25.3311C26.2889 25.3093 25.6614 25.9573 25.6614 26.8453V26.844Z" fill="#0A1E35"/>
<mask id="mask2_451_11190" style="mask-type:luminance" maskUnits="userSpaceOnUse" x="45" y="29" width="3" height="3">
<path d="M48 29.8362H45.4033V31.0952H48V29.8362Z" fill="white"/>
</mask>
<g mask="url(#mask2_451_11190)">
<path d="M45.4033 29.8362H46.5114V30.1473H46.1396V31.0954H45.7749V30.1473H45.4033V29.8362ZM46.6725 29.8362H47.1522L47.3373 30.6021L47.5218 29.8362H48V31.0952H47.7019V30.1351L47.4709 31.0952H47.2015L46.9711 30.1351V31.0952H46.6725V29.8362Z" fill="#0A1E35"/>
</g>
</g>
<defs>
<clipPath id="clip0_451_11190">
<rect width="48" height="14.4516" fill="white" transform="translate(0 16.7742)"/>
</clipPath>
</defs>
</svg>
