<svg width="48" height="48" viewBox="0 0 48 48" fill="none" xmlns="http://www.w3.org/2000/svg">
<path d="M17.1022 18.7591L14.3438 11.863H22.8949L17.1022 18.7591Z" fill="#000500"/>
<path d="M10.4824 11.8629L15.7227 25.9313L27.3086 11.8629L41.9277 12.1383C46.617 12.69 51.8586 18.4832 43.8594 23.7242C47.7211 25.6553 50.4787 32.8273 38.8936 36.1373H22.0674L24.5498 23.4479L16.2744 33.6549H13.5166L8.55078 22.6207L6.34473 36.1373H0L4.68945 11.8629H10.4824ZM28.6875 34.4821L31.1699 31.1725H38.6182C41.9283 29.7933 40.8245 26.2066 39.4453 25.6549H30.1592L28.6875 34.4821ZM31.7217 16.277L30.1895 25.4713L30.0674 25.6549H30.1592L30.1895 25.4713L32.8252 21.5172H39.4453C43.3071 19.5863 41.928 16.5528 39.9971 16.277H31.7217Z" fill="#DD0300"/>
</svg>
