<svg width="32" height="32" viewBox="0 0 32 32" fill="none" xmlns="http://www.w3.org/2000/svg">
<g clip-path="url(#clip0_536_57096)">
<path fill-rule="evenodd" clip-rule="evenodd" d="M1.50144 22.0627C-0.500344 20.0785 -0.500312 16.8615 1.5015 14.8773L6.93852 9.48816C8.63079 7.81082 11.2119 7.55141 13.179 8.70993C13.7875 9.06827 13.7821 9.89029 13.2817 10.3863C12.7812 10.8824 11.9643 10.8397 11.285 10.6428C10.4151 10.3906 9.43692 10.6045 8.75086 11.2845L3.31383 16.6737C2.31292 17.6658 2.31291 19.2743 3.3138 20.2664C4.31472 21.2585 5.93755 21.2585 6.93846 20.2664L17.8124 9.48823C19.8143 7.50403 23.0599 7.50402 25.0617 9.48821L30.4987 14.8773C32.5006 16.8615 32.5006 20.0785 30.4987 22.0627C28.4969 24.0469 25.2513 24.0469 23.2495 22.0627L21.4371 20.2664L19.1717 22.5119C17.4795 24.1892 14.8985 24.4486 12.9313 23.2901C12.3228 22.9317 12.3281 22.1097 12.8286 21.6137C13.3291 21.1176 14.146 21.1603 14.8253 21.3572C15.6951 21.6094 16.6733 21.3955 17.3594 20.7155L19.6895 18.4059C20.6547 17.4492 22.2196 17.4492 23.1847 18.4059L25.0618 20.2664C26.0627 21.2585 27.6855 21.2585 28.6865 20.2664C29.6873 19.2743 29.6873 17.6658 28.6864 16.6737L23.2494 11.2846C22.2485 10.2925 20.6257 10.2925 19.6247 11.2846L8.75079 22.0628C6.74892 24.047 3.50328 24.047 1.50144 22.0627Z" fill="#0568FD"/>
</g>
<defs>
<clipPath id="clip0_536_57096">
<rect width="32" height="32" fill="white"/>
</clipPath>
</defs>
</svg>
