<svg width="48" height="48" viewBox="0 0 48 48" fill="none" xmlns="http://www.w3.org/2000/svg">
<path d="M7.3274 11.3037C7.3274 11.8411 7.19782 12.345 6.93873 12.8152C6.68918 13.2855 6.2909 13.6646 5.74386 13.9525C5.20643 14.2404 4.52503 14.3844 3.69968 14.3844H2.01539V18.2424H0V8.19421H3.69968C4.47706 8.19421 5.13926 8.32857 5.68628 8.59729C6.23332 8.86601 6.6412 9.2355 6.90994 9.70576C7.18825 10.176 7.3274 10.7087 7.3274 11.3037ZM3.61331 12.7577C4.16996 12.7577 4.58262 12.6329 4.85135 12.3834C5.12005 12.1242 5.25443 11.7644 5.25443 11.3037C5.25443 10.3248 4.70739 9.83532 3.61331 9.83532H2.01539V12.7577H3.61331Z" fill="#12B2FC"/>
<path d="M16.1723 14.0821C16.1723 14.37 16.153 14.6291 16.1147 14.8595H10.2844C10.3324 15.4353 10.5339 15.8864 10.889 16.2127C11.2441 16.539 11.6808 16.7021 12.199 16.7021C12.9476 16.7021 13.4803 16.3806 13.797 15.7376H15.9707C15.7404 16.5054 15.2989 17.1388 14.6463 17.6378C13.9937 18.1273 13.1923 18.372 12.2422 18.372C11.4744 18.372 10.7835 18.2041 10.1692 17.8682C9.56462 17.5227 9.08957 17.038 8.74407 16.4142C8.40818 15.7904 8.24023 15.0706 8.24023 14.2549C8.24023 13.4295 8.40818 12.7049 8.74407 12.0811C9.07997 11.4573 9.55024 10.9774 10.1549 10.6415C10.7595 10.3056 11.4553 10.1377 12.2422 10.1377C13.0004 10.1377 13.677 10.3008 14.272 10.6271C14.8766 10.9535 15.3421 11.4189 15.6684 12.0235C16.0043 12.6186 16.1723 13.3047 16.1723 14.0821ZM14.1554 13.7825C14.1458 13.2643 13.8881 12.5754 13.5234 12.2683C13.1587 11.9516 12.7125 11.7932 12.1846 11.7932C11.6856 11.7932 11.2633 11.9467 10.9178 12.2538C10.5819 12.5514 10.3612 13.2451 10.2844 13.7825H14.1554Z" fill="#12B2FC"/>
<path d="M21.1846 18.372C20.4168 18.372 19.7258 18.2041 19.1116 17.8682C18.4974 17.5227 18.0127 17.038 17.6576 16.4142C17.3122 15.7904 17.1394 15.0706 17.1394 14.2549C17.1394 13.4391 17.3169 12.7193 17.672 12.0955C18.0367 11.4717 18.531 10.9918 19.1548 10.6559C19.7786 10.3104 20.4744 10.1377 21.2422 10.1377C22.0099 10.1377 22.7057 10.3104 23.3295 10.6559C23.9534 10.9918 24.4428 11.4717 24.7979 12.0955C25.1626 12.7193 25.3449 13.4391 25.3449 14.2549C25.3449 15.0706 25.1578 15.7904 24.7835 16.4142C24.4188 17.038 23.9198 17.5227 23.2863 17.8682C22.6625 18.2041 21.9619 18.372 21.1846 18.372ZM21.1846 16.6157C21.5493 16.6157 21.89 16.5294 22.2067 16.3566C22.533 16.1743 22.7921 15.9056 22.984 15.5505C23.176 15.1954 23.2719 14.7635 23.2719 14.2549C23.2719 13.4967 23.0704 12.9161 22.6673 12.513C22.2738 12.1003 21.7892 11.894 21.2134 11.894C20.6375 11.894 20.1529 12.1003 19.7594 12.513C19.3755 12.9161 19.1836 13.4967 19.1836 14.2549C19.1836 15.013 19.3707 15.5985 19.745 16.0111C20.1289 16.4142 20.6088 16.6157 21.1846 16.6157Z" fill="#12B2FC"/>
<path d="M28.8386 11.4189C29.0978 11.0542 29.4528 10.7519 29.9039 10.512C30.3646 10.2625 30.8876 10.1377 31.473 10.1377C32.1543 10.1377 32.7685 10.3056 33.3157 10.6415C33.8724 10.9774 34.309 11.4573 34.6256 12.0811C34.9519 12.6953 35.1151 13.4103 35.1151 14.2261C35.1151 15.0418 34.9519 15.7664 34.6256 16.3998C34.309 17.0236 33.8724 17.5083 33.3157 17.8538C32.7685 18.1993 32.1543 18.372 31.473 18.372C30.8876 18.372 30.3694 18.2521 29.9184 18.0121C29.477 17.7722 29.1169 17.4699 28.8386 17.1052V22.0429H26.8232V10.2673H28.8386V11.4189ZM33.0564 14.2261C33.0564 13.7462 32.9558 13.3335 32.7543 12.9881C32.5622 12.6329 32.3033 12.3642 31.977 12.1819C31.6601 11.9995 31.3147 11.9083 30.9404 11.9083C30.5758 11.9083 30.2301 12.0043 29.9039 12.1963C29.5872 12.3786 29.328 12.6474 29.1265 13.0024C28.9347 13.3575 28.8386 13.775 28.8386 14.2549C28.8386 14.7347 28.9347 15.1522 29.1265 15.5073C29.328 15.8624 29.5872 16.1359 29.9039 16.3278C30.2301 16.5102 30.5758 16.6014 30.9404 16.6014C31.3147 16.6014 31.6601 16.5054 31.977 16.3134C32.3033 16.1215 32.5622 15.848 32.7543 15.4929C32.9558 15.1378 33.0564 14.7155 33.0564 14.2261Z" fill="#12B2FC"/>
<path d="M38.595 7.5896V18.2424H36.5796V7.5896H38.595Z" fill="#12B2FC"/>
<path d="M47.9999 14.0821C47.9999 14.37 47.9808 14.6291 47.9425 14.8595H42.1122C42.1603 15.4353 42.3618 15.8864 42.7168 16.2127C43.0718 16.539 43.5086 16.7021 44.0268 16.7021C44.7754 16.7021 45.308 16.3806 45.6246 15.7376H47.7984C47.5682 16.5054 47.1268 17.1388 46.4742 17.6378C45.8213 18.1273 45.0201 18.372 44.0699 18.372C43.3023 18.372 42.6113 18.2041 41.9971 17.8682C41.3923 17.5227 40.9174 17.038 40.5718 16.4142C40.2358 15.7904 40.0681 15.0706 40.0681 14.2549C40.0681 13.4295 40.2358 12.7049 40.5718 12.0811C40.9077 11.4573 41.3781 10.9774 41.9826 10.6415C42.5872 10.3056 43.2829 10.1377 44.0699 10.1377C44.8283 10.1377 45.5047 10.3008 46.0999 10.6271C46.7044 10.9535 47.17 11.4189 47.4962 12.0235C47.8319 12.6186 47.9999 13.3047 47.9999 14.0821ZM46.0672 13.7825C46.0575 13.2643 45.7159 12.5754 45.3512 12.2683C44.9866 11.9516 44.5403 11.7932 44.0123 11.7932C43.5134 11.7932 43.0911 11.9467 42.7455 12.2538C42.4098 12.5514 42.189 13.2451 42.1122 13.7825H46.0672Z" fill="#12B2FC"/>
<path d="M36.0214 25.0428H11.9786C10.6097 25.0428 9.5 26.1526 9.5 27.5215V37.9317C9.5 39.3006 10.6097 40.4104 11.9786 40.4104H36.0214C37.3903 40.4104 38.5 39.3006 38.5 37.9317V27.5215C38.5 26.1526 37.3903 25.0428 36.0214 25.0428Z" fill="#12B2FC"/>
<path d="M20.205 30.7452C20.205 31.2532 20.0855 31.7324 19.8459 32.1828C19.6059 32.6333 19.2229 33.0023 18.6957 33.2898C18.1684 33.5677 17.4928 33.7067 16.6687 33.7067H14.857V37.7608H13.2185V27.7694H16.6687C17.4351 27.7694 18.0823 27.9036 18.6096 28.1719C19.146 28.4307 19.5436 28.7853 19.8024 29.2357C20.0708 29.6862 20.205 30.1894 20.205 30.7452ZM16.6687 32.3697C17.2917 32.3697 17.7562 32.2308 18.0631 31.9529C18.3695 31.6653 18.523 31.2628 18.523 30.7452C18.523 29.6527 17.905 29.1064 16.6687 29.1064H14.857V32.3697H16.6687Z" fill="white"/>
<path d="M23.407 30.9897C23.6466 30.5871 23.9631 30.2757 24.3557 30.0552C24.7584 29.8252 25.2329 29.7102 25.779 29.7102V31.4066H25.3621C24.7203 31.4066 24.2311 31.5695 23.8958 31.8954C23.5701 32.2212 23.407 32.7867 23.407 33.5917V37.7608H21.7681V29.8396H23.407V30.9897Z" fill="white"/>
<path d="M30.7212 37.8902C29.9737 37.8902 29.298 37.7224 28.6943 37.387C28.0905 37.042 27.616 36.5628 27.271 35.9494C26.9261 35.3265 26.7534 34.6076 26.7534 33.793C26.7534 32.9879 26.9307 32.2739 27.2852 31.651C27.6398 31.028 28.124 30.5488 28.7373 30.2134C29.3507 29.878 30.036 29.7102 30.7932 29.7102C31.5504 29.7102 32.2356 29.878 32.849 30.2134C33.4624 30.5488 33.9461 31.028 34.3006 31.651C34.6556 32.2739 34.8329 32.9879 34.8329 33.793C34.8329 34.5981 34.6506 35.3121 34.2864 35.935C33.9223 36.558 33.4239 37.042 32.7913 37.387C32.1683 37.7224 31.4784 37.8902 30.7212 37.8902ZM30.7212 36.467C31.1427 36.467 31.5357 36.3663 31.8999 36.165C32.2737 35.9638 32.5755 35.6619 32.8059 35.2594C33.0359 34.8568 33.1509 34.3681 33.1509 33.793C33.1509 33.218 33.0405 32.734 32.8201 32.341C32.5998 31.9385 32.3076 31.6366 31.9429 31.4354C31.5788 31.2341 31.1862 31.1334 30.7643 31.1334C30.3424 31.1334 29.9498 31.2341 29.5857 31.4354C29.2307 31.6366 28.948 31.9385 28.7373 32.341C28.5266 32.734 28.4208 33.218 28.4208 33.793C28.4208 34.646 28.6366 35.3073 29.0681 35.7769C29.5087 36.237 30.0598 36.467 30.7212 36.467Z" fill="white"/>
</svg>
