<svg width="32" height="32" viewBox="0 0 32 32" fill="none" xmlns="http://www.w3.org/2000/svg">
<path d="M24.5 0H7.5C3.35786 0 0 3.35787 0 7.5V24.5C0 28.6421 3.35786 32 7.5 32H24.5C28.6421 32 32 28.6421 32 24.5V7.5C32 3.35787 28.6421 0 24.5 0Z" fill="#001E36"/>
<path d="M7.20001 22.255V8.53497C7.20001 8.4416 7.24001 8.38835 7.33339 8.38835C7.56001 8.38835 7.77339 8.38835 8.08001 8.37497C8.40001 8.3616 8.73339 8.3616 9.09339 8.34835C9.45339 8.33497 9.84001 8.33497 10.2534 8.3216C10.6666 8.30835 11.0666 8.30835 11.4666 8.30835C12.56 8.30835 13.4666 8.4416 14.2134 8.7216C14.8827 8.94892 15.493 9.32241 16 9.81497C16.4296 10.246 16.7616 10.7644 16.9734 11.335C17.1734 11.895 17.28 12.4683 17.28 13.0683C17.28 14.215 17.0134 15.1616 16.48 15.9084C15.9466 16.655 15.2 17.215 14.3334 17.535C13.4266 17.8684 12.4266 17.9884 11.3334 17.9884C11.0134 17.9884 10.8 17.9884 10.6666 17.975C10.5334 17.9616 10.3466 17.9616 10.0934 17.9616V22.2416C10.1066 22.335 10.04 22.415 9.94664 22.4284H7.36001C7.25339 22.4284 7.20001 22.375 7.20001 22.255ZM10.1066 10.9616V15.4416C10.2934 15.455 10.4666 15.4684 10.6266 15.4684H11.3334C11.8534 15.4684 12.3734 15.3884 12.8666 15.2284C13.2934 15.1084 13.6666 14.855 13.96 14.5216C14.24 14.1884 14.3734 13.735 14.3734 13.1483C14.3859 12.7317 14.2795 12.32 14.0666 11.9616C13.84 11.615 13.52 11.3483 13.1334 11.2016C12.64 11.0016 12.1066 10.9216 11.56 10.935C11.2134 10.935 10.9066 10.935 10.6534 10.9483C10.3866 10.935 10.2 10.9483 10.1066 10.9616ZM25.6 14.6284C25.2 14.415 24.7734 14.2684 24.32 14.175C23.8266 14.0684 23.3334 14.0016 22.8266 14.0016C22.56 13.9884 22.28 14.0284 22.0266 14.095C21.8534 14.135 21.7066 14.2284 21.6134 14.3616C21.5466 14.4684 21.5066 14.6016 21.5066 14.7216C21.5066 14.8416 21.56 14.9616 21.64 15.0684C21.76 15.215 21.92 15.335 22.0934 15.4284C22.4025 15.5885 22.7183 15.7353 23.04 15.8684C23.76 16.1084 24.4534 16.4416 25.0934 16.8416C25.5334 17.1216 25.8934 17.495 26.1466 17.9484C26.36 18.375 26.4666 18.8416 26.4534 19.3216C26.4666 19.9484 26.28 20.575 25.9334 21.095C25.5615 21.6272 25.0425 22.0396 24.44 22.2816C23.7866 22.5616 22.9866 22.7084 22.0266 22.7084C21.4134 22.7084 20.8134 22.655 20.2134 22.535C19.7431 22.4538 19.2858 22.3103 18.8534 22.1084C18.76 22.055 18.6934 21.9616 18.7066 21.855V19.535C18.7066 19.495 18.72 19.4416 18.76 19.415C18.8 19.3884 18.84 19.4016 18.88 19.4284C19.4 19.735 19.9466 19.9484 20.5334 20.0816C21.04 20.215 21.5734 20.2816 22.1066 20.2816C22.6134 20.2816 22.9734 20.215 23.2134 20.095C23.4266 20.0016 23.5734 19.775 23.5734 19.535C23.5734 19.3484 23.4666 19.175 23.2534 19.0016C23.04 18.8284 22.6 18.6284 21.9466 18.375C21.2764 18.1388 20.64 17.8161 20.0534 17.415C19.6356 17.1172 19.2894 16.73 19.04 16.2816C18.8266 15.855 18.72 15.3884 18.7334 14.9216C18.7334 14.3484 18.8934 13.8016 19.1866 13.3084C19.52 12.775 20.0134 12.3484 20.5866 12.0816C21.2134 11.7616 22 11.615 22.9466 11.615C23.4934 11.615 24.0534 11.655 24.6 11.735C25 11.7883 25.3866 11.895 25.7466 12.0416C25.8 12.055 25.8534 12.1084 25.88 12.1616C25.8934 12.215 25.9066 12.2683 25.9066 12.3216V14.495C25.9066 14.5484 25.88 14.6016 25.84 14.6284C25.72 14.655 25.6534 14.655 25.6 14.6284Z" fill="#31A8FF"/>
</svg>
