<svg width="48" height="48" viewBox="0 0 48 48" fill="none" xmlns="http://www.w3.org/2000/svg">
<path d="M23.2338 19.5924H37.1478V22.9814H37.6806V19.5924H39.7451V12.661H23.2338H22.4858C23.7299 12.3519 25.1689 11.9092 26.194 11.3311C27.2467 10.7387 27.959 9.74987 28.1013 8.68698C28.2185 7.80949 27.9276 6.97623 27.2824 6.33956C26.7044 5.76949 25.9446 5.46794 25.0863 5.46794C23.7831 5.46794 22.4597 6.18506 21.7154 7.29483C20.9275 8.46747 20.2679 10.5048 19.9072 11.7648C19.5428 10.0807 18.7692 6.93148 17.7926 5.42159C17.108 4.3619 15.7819 3.72949 14.2459 3.72949C12.6668 3.72949 11.2144 4.38587 10.2602 5.53028C9.46637 6.48288 9.20425 7.69601 9.54096 8.85853C9.94001 10.2363 11.1004 11.3274 12.7248 11.8522C13.7899 12.1964 14.955 12.4601 16.0307 12.6604H0V19.5918H16.5097V43.7373H2.59622V20.2392H2.06344V44.2706H16.5097H23.2338H26.0634V43.7378H23.2338V19.5924ZM39.2123 13.1937V19.0596H23.2338V13.1937H39.2123ZM22.1576 7.59159C22.806 6.62513 23.9558 6.00072 25.0863 6.00072C25.8024 6.00072 26.4321 6.24899 26.9084 6.7189C27.5792 7.38008 27.6399 8.11584 27.5733 8.61665C27.4529 9.51491 26.8397 10.3562 25.9329 10.8671C24.2578 11.8112 21.3025 12.4036 20.2322 12.596C20.4975 11.5933 21.2562 8.93472 22.1576 7.59159ZM10.0524 8.71042C9.76579 7.72105 9.99062 6.68587 10.6694 5.87179C11.509 4.86377 12.8458 4.26227 14.2454 4.26227C15.5997 4.26227 16.7585 4.80357 17.3445 5.71089C18.4335 7.39446 19.2998 11.4217 19.5417 12.6285C18.5097 12.524 15.4036 12.1591 12.8879 11.3455C11.435 10.8762 10.4014 9.91556 10.0524 8.71042ZM0.532776 19.0596V13.1937H16.5097V19.0596H0.532776Z" fill="url(#paint0_linear_451_10933)"/>
<path d="M48 29.1137H41.5716C42.2647 28.9022 42.9248 28.6081 43.4448 28.1968C44.1161 27.6667 44.4917 27.0215 44.5306 26.3321C44.5674 25.6735 44.2877 25.0124 43.7426 24.4716C42.6419 23.3773 40.9205 23.291 39.6259 24.3134C38.4474 25.2447 37.8006 26.8206 37.466 27.9624C37.2108 26.8174 36.6615 25.2447 35.4825 24.3134C34.1873 23.2904 32.4653 23.3783 31.3652 24.4716C30.8201 25.0129 30.5399 25.6735 30.5772 26.3321C30.6161 27.0215 30.9917 27.6667 31.663 28.1968C32.183 28.6075 32.8239 28.9016 33.4888 29.1137H26.8291V35.1303H27.8616V44.2706H34.922H40.6493H46.9675V35.1303H48V29.1137ZM39.9556 24.7316C40.4719 24.3235 41.05 24.1088 41.6275 24.1088C42.2679 24.1088 42.8854 24.372 43.367 24.8493C43.8028 25.2825 44.0271 25.7977 43.9989 26.3022C43.9691 26.8355 43.6632 27.3459 43.1155 27.7785C41.6158 28.9645 38.6727 29.1004 37.7601 29.1137H37.7329C37.9002 28.2708 38.49 25.8904 39.9556 24.7316ZM31.9933 27.7785C31.4456 27.3454 31.1393 26.835 31.11 26.3022C31.0812 25.7982 31.3055 25.2825 31.7418 24.8493C32.2224 24.372 32.8404 24.1088 33.4813 24.1088C34.0594 24.1088 34.6375 24.324 35.1532 24.7316C36.6237 25.8931 37.0248 28.2921 37.1213 29.1137H37.0707C36.1974 29.0982 33.4813 28.9549 31.9933 27.7785ZM27.3624 29.6465H34.922V34.5976H27.3624V29.6465ZM28.3944 43.7379V35.1303H34.922V43.7379H28.3944ZM46.4347 43.7379H40.6493V35.1303H46.4347V43.7379ZM47.4673 34.5976H40.6493V29.6465H47.4673V34.5976Z" fill="url(#paint1_linear_451_10933)"/>
<defs>
<linearGradient id="paint0_linear_451_10933" x1="0" y1="3.72949" x2="39.7451" y2="3.72949" gradientUnits="userSpaceOnUse">
<stop stop-color="#2D388A"/>
<stop offset="1" stop-color="#00AEEF"/>
</linearGradient>
<linearGradient id="paint1_linear_451_10933" x1="26.8291" y1="23.5961" x2="48" y2="23.5961" gradientUnits="userSpaceOnUse">
<stop stop-color="#2D388A"/>
<stop offset="1" stop-color="#00AEEF"/>
</linearGradient>
</defs>
</svg>
