<svg width="32" height="32" viewBox="0 0 32 32" fill="none" xmlns="http://www.w3.org/2000/svg">
<path d="M1.18977 1.55567e-05C0.84695 1.55567e-05 0.532841 0.144616 0.319745 0.381581C0.127751 0.582223 0.00840422 0.855166 -0.000244141 1.15198V1.23085C0.00356114 1.37165 0.0312356 1.50379 0.0807043 1.62522C0.0827799 1.63594 0.0872773 1.64459 0.0910825 1.65531C0.129827 1.74698 0.178604 1.83208 0.240526 1.9113C0.261628 1.9414 0.285498 1.96907 0.311097 1.99433C0.316043 2.00137 0.321725 2.00786 0.328047 2.0137L4.12122 6.51707L5.49077 8.14262L9.59148 13.0092L10.961 14.6324L14.6324 18.9911L15.9996 20.6142V32C16.7744 32.002 17.5193 31.7012 18.0755 31.1618C18.0779 31.1618 18.0779 31.1618 18.0779 31.1594L18.481 30.6796L28.3287 18.9911L31.6995 14.9887C31.7164 14.9717 31.7313 14.9523 31.7465 14.9333C31.8188 14.8437 31.8762 14.743 31.9188 14.6324C31.9724 14.5002 32.0001 14.3553 32.0001 14.2013V1.19038C32.0001 0.876613 31.8783 0.58845 31.678 0.379506C31.5673 0.259124 31.4326 0.163188 31.2827 0.0978408C31.1328 0.0324933 30.9708 -0.000826105 30.8073 1.55567e-05H1.18977Z" fill="black"/>
<path d="M1.18977 1.55566e-05C0.846949 1.55566e-05 0.532841 0.144616 0.319745 0.381581C0.127752 0.582223 0.00840422 0.855166 -0.000244141 1.15198V1.23085C0.00356114 1.37165 0.0312359 1.50379 0.0807045 1.62522C0.0827801 1.63594 0.0872773 1.64459 0.0910826 1.65531C0.129827 1.74698 0.178604 1.83208 0.240526 1.9113C0.261628 1.9414 0.285498 1.96907 0.311097 1.99433C0.316043 2.00137 0.321725 2.00786 0.328048 2.0137L4.12122 6.51707L5.49077 8.14262L9.59148 13.0092L10.961 14.6324L14.6324 18.9911L15.9996 20.6142V32C16.7744 32.002 17.5193 31.7012 18.0755 31.1618C18.0779 31.1618 18.0779 31.1618 18.0779 31.1594L18.481 30.6796L28.3287 18.9911L31.6995 14.9887C31.7164 14.9717 31.7313 14.9523 31.7465 14.9333C31.8188 14.8437 31.8762 14.7431 31.9188 14.6324C31.9724 14.5002 32.0001 14.3553 32.0001 14.2013V1.19038C32.0001 0.876613 31.8783 0.58845 31.678 0.379506C31.5673 0.259124 31.4326 0.163188 31.2827 0.0978409C31.1328 0.0324934 30.9708 -0.000826105 30.8073 1.55566e-05H1.18977Z" fill="url(#paint0_linear_536_57089)"/>
<path d="M15.9998 27.1318V31.9998C15.2252 32.0005 14.4807 31.6998 13.9238 31.1613C13.9218 31.1613 13.9218 31.1613 13.9218 31.1595L13.5188 30.6794L3.67104 18.9909L0.319623 15.012C0.31106 15.0071 0.304278 14.9996 0.300251 14.9905L0.246977 14.929C0.242826 14.9245 0.240058 14.9203 0.236599 14.9158C0.170905 14.8295 0.118332 14.7339 0.0805822 14.6322C0.0307405 14.5079 0.00333345 14.3758 -0.000366211 14.2419V14.161C-0.000366211 14.1354 0.00170908 14.1095 0.00620623 14.0839C0.0293838 13.8154 0.14458 13.576 0.319623 13.3885C0.430702 13.2688 0.565313 13.1733 0.715023 13.108C0.864733 13.0427 1.02632 13.009 1.18965 13.009H4.09792L5.4654 14.6322L9.1368 18.9909L15.1567 26.1355L15.9974 27.1339L15.9998 27.1318Z" fill="#FCD1CA"/>
<path d="M15.9998 20.6151V27.1311L15.9977 27.1332L15.1578 26.1351L9.13784 18.9916L5.46574 14.6332L4.09792 13.009L0.297483 8.50079C0.203728 8.39564 0.129879 8.27432 0.0795443 8.14275C0.0304168 8.01711 0.00338205 7.88392 -0.000366211 7.74907V7.66882C0.00746578 7.38151 0.121466 7.10729 0.319623 6.89911C0.429858 6.77811 0.564244 6.68157 0.714103 6.61573C0.863962 6.54989 1.02596 6.5162 1.18965 6.51685H4.12179L5.49169 8.14275L9.59205 13.009L10.9599 14.6332L14.632 18.9913L15.9998 20.6151Z" fill="#FF9D8D"/>
<defs>
<linearGradient id="paint0_linear_536_57089" x1="3235.36" y1="-430.973" x2="463.081" y2="2372.29" gradientUnits="userSpaceOnUse">
<stop stop-color="#FF6660"/>
<stop offset="1" stop-color="#FB4444"/>
</linearGradient>
</defs>
</svg>
