<svg width="48" height="48" viewBox="0 0 48 48" fill="none" xmlns="http://www.w3.org/2000/svg">
<path d="M23.935 18.8296C24.0263 18.7539 23.9998 18.6809 24.0007 18.6179C24.0007 18.4126 24.0007 18.2073 24.0007 18.0019C24.0007 17.7966 24.0062 17.8076 24.1878 17.8067C24.6745 17.8067 25.1612 17.8067 25.6479 17.8067C25.8304 17.8067 25.8377 17.8149 25.8386 18.0019C25.8386 18.5102 25.8386 19.0194 25.8386 19.5286V23.9289C25.8386 24.4996 25.8386 25.0696 25.8386 25.639C25.8386 25.8443 25.8386 25.848 25.6433 25.8489C25.1566 25.8489 24.6699 25.8489 24.1833 25.8489C24.0007 25.8489 24.0007 25.8443 24.0007 25.6564C24.0007 25.5195 23.9934 25.3826 24.0007 25.2466C24.0272 24.8177 23.9496 24.3971 23.8931 23.9773C23.8672 23.7231 23.7819 23.4787 23.6439 23.2637C23.3957 22.8987 23.0325 22.968 22.8345 23.2545C22.7125 23.4434 22.6418 23.6607 22.6292 23.8851C22.4777 25.5615 22.5535 27.2424 22.5379 28.9205C22.5379 29.1788 22.5507 29.438 22.5379 29.6962C22.5215 30.1999 22.6055 30.7 22.6538 31.1937C22.6735 31.5467 22.7567 31.8932 22.8993 32.2167C22.9194 32.2568 22.9413 32.2933 22.9632 32.3316C23.1722 32.6967 23.4596 32.5744 23.6366 32.3043C23.7152 32.1862 23.7686 32.0533 23.7936 31.9137C23.8301 31.6901 23.9004 31.4729 23.9086 31.243C23.9341 30.5211 23.9277 29.7993 23.9296 29.0766C23.9296 29.0081 23.9296 28.9397 23.9296 28.8722C23.9296 28.6641 23.936 28.6605 24.1531 28.6586C24.29 28.6586 24.4269 28.6586 24.5638 28.6586C24.9817 28.6586 25.4006 28.6586 25.8185 28.6586C26.001 28.6586 25.9956 28.6632 26.0065 28.8302C26.0978 30.241 26.1169 31.6536 26.0905 33.0671C26.0832 33.5006 26.0184 33.9295 25.981 34.3593C25.9504 34.7051 25.8934 35.048 25.8103 35.385C25.6671 35.9636 25.5074 36.5385 25.1934 37.0577C24.9197 37.5085 24.583 37.8845 24.0829 38.0889C23.9326 38.1575 23.773 38.2033 23.6093 38.2248C23.1946 38.2779 22.7734 38.2468 22.3709 38.1336C21.8773 37.9897 21.4521 37.6725 21.1737 37.2402C20.9328 36.8432 20.7724 36.4025 20.7019 35.9435C20.6161 35.4735 20.5641 35.0017 20.5075 34.529C20.4646 34.164 20.4665 33.799 20.4272 33.4404C20.2967 32.2276 20.3688 31.0103 20.3241 29.7957C20.2858 28.7243 20.2776 27.6521 20.315 26.5817C20.3524 25.5113 20.2967 24.4372 20.3779 23.3695C20.4126 22.9133 20.4163 22.457 20.4473 22.0053C20.4738 21.6202 20.4984 21.2305 20.5568 20.8527C20.6043 20.5488 20.6043 20.2386 20.6873 19.9347C20.7384 19.7458 20.7567 19.535 20.8087 19.3425C20.9702 18.7393 21.1737 18.1516 21.7157 17.7665C21.9054 17.626 22.1303 17.541 22.3655 17.521C23.038 17.4672 23.4496 17.8112 23.7343 18.3733C23.8215 18.5157 23.889 18.6692 23.935 18.8296Z" fill="#1A1A1A"/>
<path d="M10.1843 19.0642C10.2091 18.9426 10.2162 18.8181 10.2053 18.6946C10.2053 18.4591 10.2053 18.2237 10.2053 17.9883C10.2053 17.8058 10.2144 17.8058 10.3878 17.8058C10.8669 17.8058 11.346 17.8058 11.8251 17.8058C12.0267 17.8058 12.0413 17.8222 12.0413 18.0312C12.0413 20.259 12.0413 22.4868 12.0413 24.7146C12.0413 24.8971 12.0413 24.9044 11.8524 24.9054C11.3049 24.9054 10.7574 24.9054 10.2099 24.9054C10.0511 24.9054 10.0374 24.899 10.0447 24.7393C10.0611 24.3788 9.98628 24.0275 9.94066 23.6752C9.92623 23.4491 9.82603 23.2369 9.66051 23.0821C9.6047 23.0308 9.53343 22.9996 9.45793 22.9933C9.38242 22.9871 9.30697 23.0061 9.24347 23.0474C9.1668 23.0904 9.09942 23.1482 9.04522 23.2175C8.99103 23.2867 8.95109 23.366 8.92773 23.4508C8.82788 23.771 8.8103 24.1112 8.87663 24.44C8.9737 25.018 9.26658 25.5451 9.70613 25.9329C10.1122 26.307 10.5375 26.6629 10.9125 27.0672C11.2876 27.4714 11.659 27.9241 11.9081 28.4424C12.0047 28.6735 12.086 28.9106 12.1518 29.1523C12.2238 29.3686 12.1974 29.6004 12.2968 29.8075C12.3102 29.8428 12.317 29.8802 12.3169 29.918C12.3552 30.492 12.4465 31.0623 12.4283 31.6408C12.4173 31.9821 12.4757 32.3225 12.4648 32.6656C12.441 33.3792 12.4438 34.0947 12.3963 34.8065C12.3756 35.1228 12.3304 35.437 12.2613 35.7464C12.2175 35.9444 12.1873 36.147 12.1353 36.3432C11.9921 36.8825 11.8059 37.4054 11.4053 37.8215C11.2494 37.9909 11.0519 38.1165 10.8324 38.186C10.613 38.2554 10.3792 38.2663 10.1542 38.2176C9.85218 38.151 9.58034 37.9872 9.38035 37.7513C9.11342 37.4526 8.90203 37.1086 8.75617 36.7356C8.74522 36.7091 8.74705 36.6763 8.68864 36.6744C8.66125 36.7402 8.65333 36.8124 8.66583 36.8825C8.66583 37.1709 8.66583 37.4601 8.66583 37.7485C8.66583 37.9009 8.64484 37.9228 8.49427 37.9246C7.98507 37.9283 7.47557 37.9283 6.96576 37.9246C6.83253 37.9246 6.78325 37.8644 6.78325 37.7284C6.78325 37.6901 6.78325 37.6527 6.78325 37.6144V30.5668C6.78325 30.2839 6.78325 30.2839 7.07435 30.2839H8.46598C8.66857 30.2839 8.66857 30.2839 8.6713 30.4801C8.6713 30.6553 8.6713 30.8305 8.67587 31.0048C8.68201 31.3676 8.74609 31.7271 8.86568 32.0697C8.91709 32.2419 9.02973 32.3892 9.18233 32.484C9.51359 32.6793 9.81108 32.484 9.94705 32.2523C10.0571 32.0632 10.1197 31.8503 10.1296 31.6317C10.1473 31.343 10.1473 31.0535 10.1296 30.7648C10.0794 30.0457 9.8275 29.4179 9.28454 28.9215C8.91952 28.5875 8.5545 28.2507 8.19952 27.9076C7.70199 27.4248 7.32661 26.8305 7.10447 26.1738C6.99496 25.8635 6.90918 25.5478 6.8307 25.2293C6.63542 24.4682 6.65276 23.6953 6.64819 22.9233C6.64819 22.4287 6.65458 21.935 6.66097 21.4404C6.65311 21.2657 6.67439 21.0908 6.72394 20.923C6.73746 20.8872 6.74306 20.8489 6.74036 20.8108C6.70842 20.4804 6.80241 20.1619 6.85808 19.8453C6.90792 19.5441 6.98521 19.2481 7.08895 18.961C7.17117 18.717 7.27468 18.4806 7.3983 18.2547C7.58902 17.9299 7.8418 17.6397 8.21047 17.5457C8.57914 17.4517 8.98066 17.4544 9.31283 17.7565C9.60667 18.0202 9.78735 18.3469 9.958 18.6927C10.021 18.8178 10.0155 18.9921 10.1843 19.0642Z" fill="#1A1A1A"/>
<path d="M0.704548 27.7333V23.3075C0.704548 23.2472 0.704548 23.1861 0.704548 23.1249C0.704548 23.02 0.650706 22.9735 0.548501 22.9744C0.41162 22.9744 0.274738 22.9689 0.137856 22.9744C0.037476 22.9798 0.000974251 22.9342 0.000974251 22.8421C0.000974251 22.7964 0.000974251 22.7508 0.000974251 22.7052V18.0512C0.000974251 17.803 0.00097714 17.803 0.249189 17.803C1.13922 17.803 2.02865 17.803 2.91747 17.803C3.22854 17.8081 3.53853 17.841 3.84371 17.9015C4.30572 17.9699 4.73533 18.1793 5.07381 18.5011C5.2884 18.7144 5.46112 18.966 5.58302 19.243C5.68856 19.4768 5.76783 19.7217 5.81936 19.973C5.8659 20.2057 5.90241 20.4503 5.9526 20.6802C6.04385 21.0909 5.98271 21.5116 6.08856 21.9176C6.11395 22.0523 6.12283 22.1896 6.11503 22.3265C6.11503 23.3759 6.10955 24.4253 6.11959 25.4738C6.10872 25.8986 6.06878 26.3221 6.00005 26.7414C5.95372 27.1899 5.8418 27.6293 5.66788 28.0454C5.47962 28.485 5.12494 28.8321 4.68142 29.0109C4.20781 29.2107 3.70591 29.2609 3.19854 29.2718C3.09998 29.2718 3.00051 29.2718 2.90196 29.2718C2.88286 29.2699 2.86356 29.2723 2.84551 29.2788C2.82747 29.2854 2.81116 29.296 2.7978 29.3098C2.78445 29.3236 2.7744 29.3402 2.76841 29.3585C2.76243 29.3767 2.76066 29.3961 2.76325 29.4151C2.76325 29.4525 2.76325 29.4909 2.76325 29.5292V32.2668C2.76325 32.5114 2.7961 32.5406 3.03701 32.547C3.16659 32.547 3.29526 32.547 3.42485 32.547C3.52888 32.547 3.58454 32.5753 3.5745 32.6884C3.5745 32.734 3.5745 32.7797 3.5745 32.8253V37.6381C3.5745 37.6837 3.5745 37.7293 3.5745 37.7749C3.5745 37.879 3.52887 37.9301 3.42302 37.9246C3.37739 37.9246 3.33176 37.9246 3.28614 37.9246H0.293903C0.240063 37.9246 0.187135 37.9246 0.134208 37.9246C0.0338279 37.9301 -0.00175871 37.8781 6.63842e-05 37.7859C6.63842e-05 37.7476 6.63842e-05 37.7092 6.63842e-05 37.6718V32.7249C0.00462911 32.5543 0.0046291 32.5534 0.182575 32.5506C0.296644 32.5506 0.410712 32.5561 0.52478 32.5506C0.549165 32.5522 0.57361 32.5486 0.596485 32.54C0.619359 32.5314 0.640131 32.518 0.657412 32.5007C0.674692 32.4835 0.688083 32.4627 0.696684 32.4398C0.705285 32.4169 0.708902 32.3925 0.707289 32.3681C0.707289 32.3079 0.707289 32.2467 0.707289 32.1856L0.704548 27.7333ZM2.76234 25.0039V26.6674C2.76234 27.0617 2.76782 27.0671 3.16569 27.0489C3.21861 27.0489 3.27063 27.0279 3.32264 27.0279C3.56264 27.0279 3.71047 26.8801 3.83093 26.7058C3.99314 26.4526 4.08742 26.1619 4.10469 25.8617C4.13421 25.4599 4.14091 25.0569 4.12477 24.6544C4.12278 24.3078 4.05849 23.9644 3.93496 23.6405C3.79352 23.2828 3.54439 22.9351 2.99777 22.9725C2.77055 22.9881 2.76599 22.9789 2.76508 23.2025C2.76264 23.8024 2.76173 24.4025 2.76234 25.003V25.0039Z" fill="#1A1A1A"/>
<path d="M16.3812 26.3079C16.4433 26.243 16.4838 26.1604 16.4971 26.0715C16.5491 25.775 16.6614 25.4939 16.7052 25.1964C16.735 25.0488 16.7737 24.9032 16.8211 24.7602C16.9123 24.4436 16.9862 24.1214 17.082 23.8075C17.1144 23.6457 17.1605 23.487 17.2198 23.333C17.2432 23.2689 17.2558 23.2014 17.2573 23.1332C17.2755 22.9853 17.2728 22.9808 17.1231 22.9753C17.0236 22.9753 16.9251 22.9753 16.8265 22.9753C16.6659 22.9698 16.6349 22.936 16.6294 22.77C16.6294 22.7398 16.6294 22.7088 16.6294 22.6787V18.116C16.6294 18.0631 16.6294 18.0101 16.6294 17.9563C16.6282 17.9182 16.6421 17.8812 16.6681 17.8533C16.6941 17.8254 16.73 17.809 16.7681 17.8075C16.7833 17.8062 16.7986 17.8062 16.8138 17.8075C17.7035 17.8075 18.5932 17.8075 19.482 17.8075C19.5815 17.8075 19.6217 17.8486 19.6207 17.9417C19.6207 17.9873 19.6207 18.0329 19.6207 18.0786V22.7052C19.6207 22.728 19.6207 22.7508 19.6207 22.7736C19.6207 22.9725 19.6207 22.9725 19.4145 22.9744H19.232C18.9829 22.9744 18.9518 22.9999 18.898 23.2344C18.8232 23.5547 18.7155 23.8732 18.6388 24.1871C18.5695 24.4609 18.4956 24.7347 18.418 25.0084C18.3404 25.2822 18.2656 25.556 18.188 25.8297C18.1105 26.1035 18.0375 26.3773 17.9654 26.651C17.8933 26.9248 17.8084 27.1985 17.7354 27.4723C17.6624 27.7461 17.5757 28.0071 17.5228 28.2808C17.492 28.4273 17.4521 28.5718 17.4033 28.7134C17.3586 28.8492 17.3355 28.9911 17.3348 29.134C17.3348 30.1908 17.3348 31.2475 17.3348 32.3042C17.3348 32.3353 17.3348 32.3654 17.3348 32.3955C17.3348 32.5077 17.375 32.5625 17.4954 32.5552C17.6159 32.5479 17.7546 32.5497 17.8833 32.5552C18.0475 32.5625 18.0594 32.5753 18.0594 32.7468C18.0594 33.2332 18.0594 33.7205 18.0594 34.2069C18.0594 35.3549 18.0594 36.5028 18.0594 37.6508C18.0594 37.8835 18.0174 37.9328 17.7692 37.9319C16.7426 37.9319 15.7169 37.9319 14.6903 37.9319C14.6372 37.934 14.5841 37.9316 14.5315 37.9246C14.5162 37.9236 14.5013 37.9195 14.4876 37.9126C14.4739 37.9057 14.4617 37.8962 14.4518 37.8845C14.4418 37.8729 14.4343 37.8594 14.4297 37.8448C14.425 37.8302 14.4233 37.8148 14.4247 37.7996C14.4247 37.7539 14.4247 37.7083 14.4247 37.6627V32.7769C14.4247 32.5543 14.4247 32.5552 14.6501 32.5506C14.8016 32.5506 14.9531 32.5397 15.1064 32.5351C15.1254 32.5375 15.1448 32.5352 15.1628 32.5286C15.1808 32.5219 15.1969 32.511 15.2098 32.4967C15.2227 32.4825 15.232 32.4654 15.2369 32.4468C15.2417 32.4282 15.242 32.4087 15.2378 32.39C15.2378 32.3298 15.2378 32.2686 15.2378 32.2075C15.2378 31.2192 15.2314 30.2309 15.2433 29.2426C15.2433 29.0154 15.1703 28.8137 15.1173 28.6039C15.0489 28.3365 14.9622 28.0737 14.8728 27.8127C14.7833 27.5517 14.7186 27.298 14.6355 27.0425C14.5589 26.808 14.4913 26.5698 14.422 26.3325C14.3526 26.0953 14.2842 25.8425 14.2112 25.5979C14.13 25.3242 14.0451 25.0559 13.9602 24.7858C13.8817 24.5366 13.7978 24.2893 13.7211 24.0402C13.6445 23.7911 13.5779 23.5511 13.5076 23.3102C13.5076 23.2956 13.5076 23.2792 13.5012 23.2646C13.4373 22.9908 13.4218 22.978 13.1435 22.978C12.8652 22.978 12.8643 22.978 12.8643 22.6915V18.0813C12.8643 17.8075 12.8643 17.8075 13.1316 17.8075H15.8912C15.9368 17.8075 15.9824 17.8075 16.028 17.8075C16.1193 17.803 16.1494 17.8523 16.1512 17.9326C16.1512 17.9782 16.1512 18.0238 16.1512 18.0694V22.7234C16.1512 22.769 16.1512 22.8147 16.1512 22.8594C16.1512 22.9415 16.1111 22.9835 16.0226 22.9789C15.9341 22.9744 15.8246 22.9789 15.726 22.9789C15.6274 22.9789 15.5864 23.0346 15.6165 23.1195C15.7278 23.4325 15.7452 23.7674 15.8556 24.0813C15.8995 24.217 15.9301 24.3567 15.9468 24.4983C15.9979 24.8569 16.112 25.2001 16.1704 25.5578C16.2142 25.7996 16.2379 26.067 16.3812 26.3079Z" fill="#1A1A1A"/>
<path d="M30.5894 20.2489C30.7482 20.2881 30.772 20.4469 30.8294 20.5573C31.0758 20.9999 31.2656 21.4699 31.4682 21.9344C31.6246 22.3025 31.7605 22.6791 31.8752 23.0623C31.9437 23.2877 32.0304 23.5131 32.1024 23.7376C32.1508 23.8881 32.2375 24.0351 32.2302 24.2084C32.2247 24.3262 32.2932 24.4402 32.3306 24.5479C32.3963 24.7304 32.3698 24.9394 32.4784 25.1119C32.4972 25.1616 32.5038 25.2151 32.4976 25.2679C32.4896 25.3437 32.5084 25.4198 32.5505 25.4833C32.5898 25.5494 32.6034 25.6277 32.5888 25.7032C32.5819 25.7943 32.6002 25.8855 32.6418 25.9669C32.6676 26.0138 32.6808 26.0667 32.6801 26.1202C32.6801 26.2854 32.6628 26.4506 32.7613 26.6048C32.7923 26.655 32.7704 26.7389 32.7723 26.8074C32.7723 26.9735 32.7567 27.1395 32.8434 27.2965C32.8631 27.3552 32.8697 27.4175 32.8626 27.479C32.8717 27.834 32.8297 28.1926 32.9475 28.5403C32.9611 28.6153 32.9632 28.6919 32.9539 28.7675C32.9539 29.0787 32.9539 29.3908 32.9539 29.702C32.959 29.9215 32.9357 30.1409 32.8845 30.3544C32.8288 30.5762 32.8708 30.8107 32.8626 31.0361C32.8626 31.1629 32.8799 31.2925 32.7942 31.4084C32.7733 31.4573 32.7657 31.5108 32.7723 31.5636C32.7668 31.7671 32.7951 31.9724 32.691 32.1649C32.6736 32.2241 32.6698 32.2866 32.6801 32.3474C32.69 32.4462 32.6719 32.5458 32.6281 32.6349C32.6094 32.659 32.5985 32.6883 32.597 32.7188C32.6299 32.9451 32.524 33.1514 32.4802 33.3576C32.4539 33.5397 32.408 33.7183 32.3434 33.8905C32.2953 34.0305 32.2563 34.1735 32.2266 34.3185C32.1435 34.6014 32.065 34.8852 31.9774 35.1663C31.8862 35.4638 31.7657 35.7512 31.6663 36.0451C31.6051 36.2276 31.5212 36.4037 31.4627 36.5826C31.345 36.9366 31.1132 37.2396 31.0293 37.6064C31.0101 37.6895 30.9207 37.7524 30.9472 37.8537C30.8075 37.872 30.6661 37.8994 30.5347 37.8191C30.6104 37.7424 30.5758 37.6457 30.5767 37.5581C30.5767 35.9763 30.5767 34.3946 30.5767 32.8128C30.5629 32.729 30.5717 32.643 30.6022 32.5637C30.6469 32.5591 30.6935 32.5537 30.7373 32.5509C30.9198 32.5382 30.9344 32.5318 30.9344 32.3547C30.9344 31.1684 30.9344 29.9821 30.9344 28.7958C30.9344 28.679 30.8997 28.6343 30.7802 28.6361C30.4608 28.6416 30.1414 28.6361 29.8229 28.6361C29.6477 28.6361 29.6477 28.6407 29.6404 28.8104V32.2781C29.6404 32.3237 29.6404 32.3693 29.6404 32.415C29.6459 32.5062 29.6806 32.5455 29.7809 32.5518C29.9981 32.5655 29.999 32.5728 29.9999 32.7982C29.9999 33.1477 29.9999 33.4981 29.9999 33.8477C29.9999 33.9442 29.9971 33.9194 29.9999 33.9821C30.0009 34.1177 29.9999 34.2228 29.9999 34.3526C29.9999 34.4387 29.9999 34.4255 30.0009 34.4791C30.0009 34.867 30.0009 35.2548 30.0009 35.6417C30.0009 35.9456 30.0326 36.2195 29.9863 36.5543C29.9789 36.6075 29.9789 36.5619 29.9598 36.5543C29.9547 36.5543 29.9863 36.5323 29.9863 36.5837C29.9516 36.7212 29.9726 36.8568 30.0072 36.9942C30.0072 37.0708 30.0018 37.0441 30.0072 37.1191C30.0264 37.3831 30.0245 37.6113 30.0264 37.8546C29.9662 37.8546 29.9069 37.861 29.8439 37.8629C29.4454 37.8639 29.0479 37.8242 28.6576 37.7442C28.5719 37.715 28.4831 37.6957 28.393 37.6867C28.2041 37.6958 28.017 37.6464 27.8573 37.5453C27.8084 37.5154 27.7533 37.4975 27.6962 37.4929C27.6391 37.4883 27.5818 37.4972 27.5288 37.5188C27.5972 37.674 27.7907 37.6867 27.8491 37.8574C27.5032 37.9021 27.172 37.8574 26.8453 37.8866C26.8257 37.8131 26.8202 37.7367 26.8288 37.6612C26.8288 36.0375 26.8288 34.4143 26.8288 32.7918C26.8161 32.7093 26.8243 32.6249 26.8526 32.5464C27.0106 32.5657 27.1701 32.57 27.3289 32.5591C27.5552 32.5591 27.5571 32.5591 27.5607 32.3319C27.5607 32.2936 27.5607 32.2553 27.5607 32.2178V23.1782C27.5607 22.9564 27.5361 22.9327 27.3125 22.9263L26.8352 22.9145C26.8322 22.8997 26.8301 22.8848 26.8288 22.8697V17.8653C26.9812 17.8051 27.1464 17.8708 27.2997 17.8142C27.339 17.7996 27.3618 17.8471 27.3773 17.8818C27.4923 18.1327 27.6428 18.37 27.6511 18.6583C27.6565 18.7861 27.7368 18.8983 27.7286 19.0325C27.7241 19.0945 27.662 18.787 27.7286 18.7688C27.8801 18.7286 28.1785 18.6666 28.3345 18.6319C28.435 18.6035 28.5955 18.5937 28.6996 18.5863C28.904 18.5863 29.0436 18.7405 29.2471 18.7231C29.4661 18.7049 29.6185 18.9558 29.822 18.9987C29.9324 19.0224 29.9397 19.1192 29.9388 19.2168C29.9388 19.7096 29.9388 20.2033 29.9388 20.6961C29.9388 20.8484 29.9388 20.9999 29.9388 21.1523C29.9388 21.2034 29.9242 21.2609 29.9753 21.3002C29.9397 21.4174 29.9397 21.5425 29.9753 21.6597C29.9634 21.678 29.9415 21.6962 29.9415 21.7145C29.9415 22.1078 29.9178 22.5011 29.9507 22.8944C29.9361 22.9205 29.9145 22.942 29.8884 22.9565C29.8623 22.971 29.8327 22.9779 29.8028 22.9765C29.6358 22.9875 29.6322 22.9929 29.6322 23.159C29.6322 24.2386 29.6322 25.3181 29.6322 26.3986C29.6322 26.5099 29.6559 26.5619 29.7837 26.5582C30.1104 26.5491 30.4371 26.5582 30.7637 26.5582C30.9216 26.5582 30.9244 26.5528 30.9244 26.3912C30.9244 25.3108 30.9244 24.2309 30.9244 23.1517C30.9244 22.9875 30.9244 22.9875 30.7665 22.9747C30.5703 22.9592 30.5666 22.9592 30.5666 22.7611C30.5666 22.0007 30.5666 21.2402 30.5666 20.4798C30.5785 20.4013 30.5858 20.3256 30.5894 20.2489Z" fill="#1A1A1A"/>
<path d="M41.778 37.5769C41.5782 37.6298 41.413 37.5194 41.2442 37.4519C40.7195 37.2429 40.3764 36.8231 40.0679 36.376C39.7644 35.9371 39.5244 35.4575 39.3552 34.9515C39.2471 34.6501 39.2136 34.3269 39.2576 34.0097C39.3151 33.6447 39.4401 33.308 39.7823 33.0972C39.9307 33.0018 40.1 32.9437 40.2757 32.9278C40.4515 32.9119 40.6284 32.9387 40.7916 33.0059C41.3391 33.2021 41.6776 33.6292 41.9697 34.0946C42.2367 34.5186 42.4605 34.9683 42.6376 35.437C42.7536 35.7298 42.8104 36.0428 42.8046 36.3577C42.7962 36.6555 42.6779 36.9395 42.4725 37.1553C42.3903 37.2465 42.311 37.3898 42.2051 37.3998C42.0783 37.4117 42.029 37.242 41.9532 37.1443C41.4381 36.4771 40.9851 35.7642 40.5999 35.0145C40.5565 34.9124 40.5037 34.8146 40.4421 34.7224C40.3827 34.6449 40.3508 34.6686 40.3034 34.7224C40.2377 34.7915 40.1913 34.8765 40.1685 34.969C40.1458 35.0615 40.1476 35.1583 40.1738 35.2499C40.2769 35.6049 40.4366 35.9352 40.7907 36.104C40.9033 36.1614 40.9931 36.2553 41.0453 36.3705C41.2654 36.773 41.5092 37.1621 41.7753 37.5358C41.7799 37.5385 41.7762 37.5568 41.778 37.5769ZM41.8227 35.3302C41.8196 35.1739 41.7836 35.02 41.7171 34.8785C41.6506 34.737 41.5551 34.6111 41.4367 34.5089C41.3759 34.4537 41.3027 34.4138 41.2234 34.3925C41.144 34.3713 41.0608 34.3692 40.9805 34.3866C40.8783 34.403 40.8719 34.4551 40.9065 34.5272C40.9576 34.633 41.0142 34.737 41.0726 34.8392C41.2214 35.1021 41.371 35.3649 41.5289 35.6249C41.5955 35.7372 41.6421 35.7326 41.7278 35.6414C41.7943 35.5516 41.8278 35.4417 41.8227 35.3302Z" fill="#1A1A1A"/>
<path d="M37.8534 26.4011C37.8563 26.1462 37.8979 25.8933 37.9766 25.6509C38.1354 25.0961 38.3772 24.5878 38.8682 24.2338C39.4157 23.8386 40.0043 24.0385 40.3282 24.5331C40.7252 25.1372 40.7672 25.8106 40.6422 26.5078C40.6221 26.6192 40.6266 26.7351 40.6093 26.8473C40.5363 27.3282 40.4423 27.8027 40.153 28.2161C39.9377 28.5282 39.663 28.7472 39.2834 28.812C39.1462 28.8348 39.0057 28.8279 38.8714 28.7917C38.7371 28.7555 38.6121 28.6908 38.505 28.6021C38.2166 28.3776 38.0578 28.0665 37.9575 27.7169C37.8425 27.3309 37.8498 26.9404 37.8534 26.4011ZM39.1766 27.2004C39.4905 27.2004 39.6502 27.1466 39.7707 26.9814C39.8385 26.874 39.8885 26.7563 39.9185 26.6328C39.9874 26.4499 39.9822 26.2473 39.904 26.0682C39.8257 25.8891 39.6807 25.7475 39.4997 25.6738C39.3778 25.6261 39.2448 25.6148 39.1167 25.6412C38.9886 25.6676 38.8709 25.7305 38.7778 25.8225C38.6841 25.9286 38.6141 26.0535 38.5726 26.1889C38.531 26.3242 38.5189 26.4669 38.5369 26.6073C38.5494 26.7252 38.5911 26.8381 38.6583 26.9358C38.7116 27.0237 38.7883 27.0951 38.8798 27.1418C38.9714 27.1886 39.0742 27.2089 39.1766 27.2004Z" fill="#1A1A1A"/>
<path d="M40.3893 23.6086C40.4267 23.1834 40.5527 22.8302 40.6695 22.4744C40.6849 22.424 40.6977 22.3728 40.7078 22.321C40.7126 22.2835 40.7295 22.2485 40.7561 22.2215C40.7826 22.1945 40.8172 22.1769 40.8547 22.1714C41.0238 22.1302 41.1697 22.024 41.2608 21.8757C41.4606 21.602 41.5875 21.3036 41.5291 20.9504C41.4964 20.8245 41.4299 20.71 41.3368 20.6193C41.2436 20.5286 41.1274 20.4651 41.0007 20.4357C40.7124 20.3883 40.5143 20.527 40.3346 20.7214C40.1365 20.9367 40.0608 21.2096 39.986 21.4806C39.9431 21.6376 40.0307 21.7744 40.0964 21.9067C40.1132 21.9332 40.1221 21.9639 40.1221 21.9953C40.1221 22.0266 40.1132 22.0573 40.0964 22.0838C39.9267 22.4579 39.7076 22.8138 39.5908 23.2099C39.5611 23.2751 39.5234 23.3364 39.4786 23.3924C39.3278 23.2934 39.2171 23.1439 39.1665 22.9708C39.0387 22.6195 39.0202 22.2377 39.1136 21.8757C39.1775 21.6467 39.2349 21.4195 39.3198 21.1941C39.4754 20.8022 39.6724 20.428 39.9075 20.078C40.0992 19.7828 40.3374 19.5205 40.6129 19.3014C40.8776 19.0942 41.1924 18.9607 41.5254 18.9145C41.6625 18.9045 41.7993 18.9364 41.9178 19.0058C42.121 19.0935 42.2946 19.2379 42.4178 19.4218C42.5409 19.6057 42.6085 19.8211 42.6123 20.0424C42.6181 20.4559 42.5328 20.8657 42.3622 21.2424C42.1759 21.6999 41.9551 22.1426 41.7016 22.5665C41.4707 22.9516 41.186 23.2783 40.7781 23.4882C40.6631 23.5484 40.5371 23.5356 40.3893 23.6086Z" fill="#1A1A1A"/>
<path d="M40.4413 30.9007C40.5061 30.9455 40.5654 30.992 40.6238 31.0267C40.8747 31.18 40.9888 31.4309 41.0518 31.6947C41.0952 31.863 41.1257 32.0345 41.143 32.2075C41.1549 32.3791 41.1084 32.4083 40.9441 32.3572C40.7798 32.3061 40.6274 32.2595 40.4677 32.2175C40.308 32.1756 40.2852 32.1591 40.2624 31.9785C40.2595 31.8432 40.2329 31.7095 40.1839 31.5833C40.0735 31.3524 39.8819 31.2585 39.6574 31.2183C39.5073 31.1945 39.3538 31.2051 39.2084 31.2493C38.9985 31.3096 38.7804 31.3406 38.5697 31.3862C38.5174 31.3933 38.4656 31.4034 38.4145 31.4163C38.1773 31.4912 38.1973 31.4839 38.1408 31.2585C38.0751 31.0011 38.0778 30.7347 38.0011 30.4801C37.9373 30.2693 37.9884 30.0411 37.9208 29.8267C37.9053 29.7765 37.9619 29.7427 38.0066 29.7418C38.1307 29.7418 38.2448 29.677 38.3643 29.677C38.7604 29.677 39.1455 29.5666 39.5397 29.5629C39.8071 29.5629 40.0617 29.458 40.3299 29.4717C40.3752 29.474 40.4206 29.474 40.4659 29.4717C40.5572 29.4671 40.6119 29.4991 40.6065 29.6004C40.59 29.8915 40.716 30.1652 40.7132 30.4554C40.7227 30.5227 40.7421 30.5882 40.7707 30.6498C40.8036 30.7648 40.7707 30.8131 40.6466 30.8323C40.6092 30.8396 40.57 30.8378 40.5334 30.846C40.4969 30.8542 40.4677 30.8432 40.4413 30.9007Z" fill="#1A1A1A"/>
<path d="M33.7447 42.4869V42.0087C33.7447 41.9056 33.7 41.8526 33.5923 41.8599C33.5011 41.8672 33.4199 41.8499 33.3943 41.7495C33.3779 41.6857 33.5056 41.6008 33.6188 41.6136C33.7557 41.63 33.9081 41.5643 34.0267 41.6984C34.0769 41.7541 34.1426 41.6857 34.1891 41.6619C34.2924 41.6087 34.4067 41.5804 34.5228 41.5793C34.639 41.5782 34.7538 41.6043 34.858 41.6555C35.0953 41.7614 35.1683 41.953 35.1792 42.1812C35.1902 42.4239 35.1792 42.6676 35.1792 42.9112C35.1792 43.0992 35.1838 43.1001 35.3745 43.1266C35.4348 43.1348 35.5123 43.1403 35.505 43.2178C35.5033 43.2349 35.4982 43.2515 35.49 43.2665C35.4818 43.2816 35.4706 43.2948 35.4572 43.3055C35.4437 43.3161 35.4282 43.3239 35.4117 43.3285C35.3951 43.333 35.3778 43.3342 35.3608 43.3319C35.1254 43.3264 34.89 43.3319 34.6545 43.3319C34.5779 43.3319 34.5469 43.2945 34.5478 43.2206C34.5487 43.1466 34.5998 43.1412 34.6545 43.1293C34.837 43.1028 34.8571 43.091 34.8699 42.9185C34.895 42.6535 34.895 42.3868 34.8699 42.1219C34.8655 42.0491 34.8357 41.9802 34.7856 41.9271C34.7356 41.8741 34.6685 41.8403 34.5961 41.8317C34.5199 41.8102 34.4393 41.81 34.3629 41.8309C34.2866 41.8518 34.2174 41.893 34.1627 41.9503C34.1194 42.002 34.093 42.0657 34.0869 42.1328C34.0453 42.4045 34.0358 42.6802 34.0586 42.9541C34.065 43.1074 34.0833 43.1147 34.2484 43.1311C34.3078 43.1366 34.3744 43.1311 34.3762 43.2224C34.378 43.3136 34.3178 43.3337 34.243 43.3337C34.0148 43.3337 33.7867 43.3337 33.5586 43.3337C33.1935 43.3337 32.8185 43.2917 32.4489 43.3337C32.411 43.3369 32.3728 43.3369 32.3348 43.3337C32.271 43.3273 32.1943 43.3447 32.1852 43.2425C32.1761 43.1402 32.2655 43.1512 32.3184 43.1174C32.332 43.1112 32.3465 43.1068 32.3613 43.1047C32.6004 43.0508 32.6186 43.0189 32.5329 42.7971C32.4471 42.5754 32.4334 42.5653 32.1797 42.5635C32.0656 42.5635 31.9516 42.5635 31.8375 42.5635C31.7862 42.5709 31.7369 42.5886 31.6925 42.6154C31.6481 42.6423 31.6096 42.6778 31.5793 42.7199C31.549 42.762 31.5275 42.8097 31.516 42.8603C31.5046 42.9109 31.5034 42.9633 31.5126 43.0143C31.5209 43.0401 31.538 43.0621 31.5608 43.0766C31.5836 43.0911 31.6108 43.0971 31.6377 43.0937C31.7132 43.0985 31.7876 43.1145 31.8585 43.1412C31.9151 43.1594 31.9178 43.2005 31.9151 43.2479C31.9162 43.2593 31.9148 43.2707 31.911 43.2815C31.9072 43.2922 31.901 43.302 31.893 43.3101C31.885 43.3182 31.8753 43.3244 31.8646 43.3283C31.8539 43.3323 31.8425 43.3338 31.8311 43.3328C31.8083 43.3341 31.7855 43.3341 31.7627 43.3328C31.4896 43.3052 31.2145 43.3052 30.9414 43.3328C30.8875 43.3328 30.8173 43.351 30.8045 43.2561C30.7917 43.1612 30.841 43.1329 30.9177 43.122C31.1002 43.0983 31.1732 42.9842 31.2297 42.8181C31.3876 42.3555 31.5637 41.9001 31.7335 41.442C31.759 41.3632 31.7895 41.2861 31.8247 41.2111C31.8406 41.1648 31.8703 41.1245 31.9098 41.0957C31.9493 41.0668 31.9966 41.0507 32.0456 41.0496C32.0946 41.0454 32.1437 41.0581 32.1846 41.0854C32.2256 41.1128 32.256 41.1532 32.271 41.2002C32.3257 41.3398 32.3878 41.4739 32.4398 41.6181C32.5967 42.047 32.7528 42.4768 32.9034 42.9085C32.9134 42.9526 32.9359 42.9928 32.9683 43.0244C33.0007 43.056 33.0415 43.0775 33.0859 43.0864C33.2456 43.1289 33.4107 43.1474 33.5759 43.1412C33.6982 43.1302 33.7365 43.0764 33.7383 42.9723C33.7466 42.8063 33.7447 42.6466 33.7447 42.4869ZM31.7371 42.3044C31.9516 42.3126 32.1496 42.3381 32.3549 42.2879C32.2408 41.9914 32.1879 41.6902 32.041 41.4064C31.9169 41.7121 31.8311 42.0023 31.7353 42.3071L31.7371 42.3044Z" fill="#5A9140"/>
<path d="M38.0883 42.0461C38.0883 42.3199 38.0883 42.5936 38.0883 42.8674C38.0883 42.9933 38.1102 43.0946 38.2635 43.1056C38.2772 43.1056 38.29 43.1202 38.3046 43.1229C38.3776 43.1366 38.4041 43.1759 38.3958 43.2516C38.3876 43.3273 38.3311 43.3282 38.2799 43.3282C38.0217 43.3282 37.7625 43.3346 37.5052 43.3191C37.4398 43.3062 37.372 43.3135 37.3108 43.3401C37.2384 43.3909 37.1499 43.4136 37.062 43.404C36.974 43.3944 36.8925 43.3532 36.8327 43.2881C36.7505 43.2169 36.7003 43.2379 36.6173 43.2881C36.5111 43.3546 36.39 43.3936 36.2649 43.4015C36.1398 43.4095 36.0147 43.3862 35.9009 43.3337C35.8058 43.2964 35.7251 43.2297 35.6705 43.1432C35.616 43.0568 35.5906 42.9552 35.5979 42.8533C35.6053 42.7513 35.645 42.6544 35.7113 42.5767C35.7777 42.4989 35.8671 42.4445 35.9667 42.4212C36.1492 42.3902 36.3162 42.3235 36.5014 42.3226C36.558 42.3187 36.6114 42.2949 36.6523 42.2556C36.6932 42.2162 36.7189 42.1637 36.725 42.1073C36.7214 42.0549 36.704 42.0044 36.6747 41.9608C36.6454 41.9172 36.6051 41.8821 36.558 41.859C36.4741 41.8229 36.3813 41.8127 36.2915 41.8298C36.1136 41.8663 36.109 41.8709 36.109 42.0598C36.109 42.1967 36.0844 42.2305 35.9667 42.2423C35.8261 42.256 35.7522 42.2076 35.7376 42.0863C35.7248 42.0264 35.7291 41.9641 35.7499 41.9066C35.7707 41.849 35.8072 41.7984 35.8553 41.7605C35.9662 41.6581 36.1097 41.5983 36.2605 41.5917C36.4047 41.5917 36.558 41.5588 36.6876 41.6254C36.7845 41.6686 36.8669 41.739 36.9245 41.8281C36.9822 41.9172 37.0128 42.0212 37.0124 42.1273C37.0124 42.4011 37.0124 42.6749 37.0179 42.9486C37.0179 43.0198 36.975 43.1311 37.1092 43.1412C37.2433 43.1512 37.2004 43.0326 37.2141 42.9587C37.2223 42.9067 37.2141 42.8528 37.2241 42.7999C37.2259 42.773 37.2377 42.7477 37.2571 42.729C37.2765 42.7103 37.3021 42.6994 37.3291 42.6986C37.356 42.697 37.3827 42.7041 37.4052 42.7189C37.4278 42.7337 37.4449 42.7554 37.4541 42.7807C37.4762 42.8455 37.4831 42.9145 37.4742 42.9824C37.4742 43.0682 37.5162 43.1056 37.6028 43.0992C37.6895 43.0928 37.7589 43.0846 37.7635 42.9806C37.7635 42.9121 37.7698 42.8437 37.7698 42.7752C37.7735 42.3658 37.7762 41.9558 37.778 41.5451C37.7781 41.4768 37.7735 41.4085 37.7644 41.3407C37.7562 41.2814 37.7233 41.244 37.6549 41.2622C37.6256 41.2728 37.5947 41.278 37.5636 41.2778C37.4933 41.2705 37.4258 41.2394 37.4276 41.16C37.4282 41.1446 37.4319 41.1295 37.4385 41.1156C37.4452 41.1017 37.4546 41.0893 37.4663 41.0792C37.4779 41.0691 37.4915 41.0615 37.5062 41.0569C37.5209 41.0523 37.5364 41.0507 37.5517 41.0524C37.6813 41.0524 37.81 41.0469 37.9387 41.0524C38.0673 41.0578 38.1057 41.0879 38.1066 41.2349C38.1066 41.5086 38.1066 41.7824 38.1066 42.0562L38.0883 42.0461ZM36.2431 43.1466C36.5826 43.1768 36.7241 42.8893 36.7304 42.6247C36.7304 42.5252 36.6803 42.5006 36.6009 42.548C36.5265 42.5859 36.4432 42.6026 36.36 42.5964C36.2543 42.5995 36.1505 42.6246 36.0552 42.6703C36.0123 42.6848 35.9754 42.7131 35.9501 42.7507C35.9249 42.7883 35.9127 42.8332 35.9155 42.8784C35.911 43.0755 35.9958 43.1466 36.2431 43.1466Z" fill="#5A9140"/>
<path d="M5.35809 43.3183C5.06243 43.3246 4.76676 43.3329 4.47018 43.3183C4.35064 43.311 4.23018 43.3301 4.10516 43.3301C4.00022 43.3301 3.89072 43.352 3.80129 43.2699C3.75293 43.2252 3.72737 43.2772 3.68813 43.2954C3.47824 43.3867 3.2711 43.4424 3.03292 43.3575C2.75916 43.2599 2.66061 43.0673 2.64692 42.81C2.63597 42.6046 2.64692 42.3993 2.63962 42.194C2.63962 42.1338 2.62958 42.0726 2.62775 42.0115C2.62775 41.912 2.58669 41.8518 2.47536 41.8637C2.3841 41.8728 2.32023 41.829 2.32388 41.7423C2.32509 41.7231 2.33024 41.7043 2.33902 41.6871C2.3478 41.6699 2.36001 41.6548 2.3749 41.6425C2.3898 41.6303 2.40705 41.6212 2.42559 41.616C2.44413 41.6107 2.46355 41.6093 2.48266 41.6118C2.58122 41.6118 2.68068 41.6118 2.77832 41.6118C2.80494 41.6142 2.83081 41.6219 2.85444 41.6343C2.87807 41.6468 2.89898 41.6639 2.91596 41.6845C2.93294 41.7051 2.94565 41.7289 2.95335 41.7545C2.96106 41.7801 2.9636 41.807 2.96083 41.8335C2.96083 41.9777 2.95353 42.1219 2.94988 42.2661C2.94089 42.4711 2.94882 42.6765 2.97361 42.8802C2.97378 42.9165 2.98136 42.9523 2.99589 42.9855C3.01042 43.0186 3.03158 43.0485 3.05808 43.0732C3.08457 43.0979 3.11585 43.1169 3.14997 43.1291C3.18409 43.1413 3.22035 43.1463 3.2565 43.144C3.61422 43.1732 3.73741 43.0408 3.78304 42.7297C3.80419 42.4948 3.80846 42.2588 3.79581 42.0234C3.7985 42.0022 3.7964 41.9807 3.78968 41.9605C3.78296 41.9403 3.77179 41.9219 3.75699 41.9065C3.74219 41.8912 3.72414 41.8794 3.70416 41.872C3.68419 41.8646 3.66281 41.8617 3.64159 41.8637C3.54304 41.8637 3.49467 41.8034 3.50471 41.7268C3.51203 41.6885 3.53415 41.6547 3.56628 41.6326C3.5984 41.6106 3.63793 41.6021 3.67627 41.6091C4.04129 41.6346 4.09786 41.5178 4.07779 41.9951C4.06501 42.2907 4.07231 42.5873 4.07779 42.8839C4.07779 43.0792 4.10152 43.0856 4.2968 43.1303C4.41678 43.1436 4.538 43.1408 4.65726 43.1221C4.67843 43.1212 4.69921 43.116 4.71827 43.1067C4.73734 43.0975 4.7543 43.0844 4.76808 43.0683C4.78187 43.0522 4.79219 43.0334 4.7984 43.0132C4.80461 42.9929 4.80658 42.9716 4.80418 42.9505C4.80418 42.6393 4.80418 42.3272 4.80418 42.0161C4.80647 41.9951 4.80403 41.9739 4.79706 41.954C4.79008 41.934 4.77875 41.9159 4.76387 41.901C4.749 41.886 4.73097 41.8746 4.7111 41.8675C4.69123 41.8604 4.67003 41.8578 4.64904 41.86C4.55779 41.86 4.45285 41.8728 4.45011 41.7368C4.45011 41.6565 4.54957 41.6054 4.68281 41.61C4.73573 41.61 4.78866 41.6218 4.84159 41.6218C5.08432 41.6218 5.0898 41.6282 5.08798 41.881C5.08798 42.2004 5.08798 42.5198 5.08798 42.8392C5.08798 43.1129 5.09801 43.1184 5.36174 43.1339C5.45847 43.1969 5.36174 43.258 5.35809 43.3183Z" fill="#5A9140"/>
<path d="M23.567 42.9614C23.6711 42.8291 23.6939 42.6612 23.755 42.5115C23.8234 42.3436 23.8755 42.1702 23.9375 41.9996C23.9695 41.9083 23.9375 41.87 23.8463 41.8636H23.8006C23.7094 41.8636 23.6126 41.849 23.6282 41.7367C23.6392 41.6962 23.6645 41.6611 23.6993 41.6376C23.7342 41.6142 23.7763 41.604 23.818 41.609C23.8632 41.6017 23.9093 41.6033 23.9539 41.6135C24.0666 41.6589 24.192 41.6612 24.3062 41.6199C24.3203 41.6139 24.3359 41.6123 24.3509 41.6154C24.6 41.6856 24.8501 41.5935 25.1001 41.6154C25.2251 41.6263 25.2552 41.6574 25.2561 41.8134C25.2561 42.11 25.2561 42.4066 25.2561 42.7031C25.2561 42.7716 25.2561 42.84 25.2561 42.9085C25.2634 43.091 25.2771 43.0983 25.466 43.1266C25.5272 43.1366 25.6184 43.1202 25.6075 43.2288C25.5974 43.32 25.5244 43.3282 25.4542 43.3291C25.2187 43.3291 24.9824 43.3291 24.7469 43.3291C24.6858 43.3291 24.6256 43.3227 24.6201 43.2379C24.6146 43.153 24.673 43.1421 24.7342 43.1311C24.9687 43.09 24.976 43.0827 24.9778 42.8437C24.9796 42.6046 24.9778 42.3418 24.9778 42.0908C24.9778 41.9083 24.9495 41.8864 24.7698 41.8645L24.7022 41.8563C24.3701 41.8198 24.2861 41.87 24.172 42.1693C24.0452 42.5051 23.9156 42.8409 23.7924 43.1786C23.7741 43.2284 23.7455 43.2738 23.7085 43.3118C23.5789 43.4459 23.4265 43.4277 23.3434 43.2534C23.2403 43.028 23.1545 42.7971 23.0642 42.5635C22.9958 42.3883 22.9346 42.2094 22.8634 42.0351C22.8224 41.9348 22.7649 41.8453 22.6307 41.8654C22.614 41.8699 22.5965 41.8703 22.5795 41.8667C22.5626 41.8632 22.5468 41.8557 22.5333 41.8448C22.5198 41.834 22.509 41.8201 22.5018 41.8044C22.4947 41.7886 22.4913 41.7714 22.492 41.7541C22.4932 41.7193 22.507 41.6861 22.5309 41.6608C22.5547 41.6354 22.587 41.6196 22.6216 41.6163C22.6364 41.6136 22.6516 41.6136 22.6663 41.6163C22.8642 41.6674 23.0716 41.6692 23.2704 41.6218C23.3617 41.5999 23.453 41.6893 23.4447 41.7568C23.4283 41.8481 23.3635 41.8663 23.2777 41.8727C23.1509 41.8818 23.1235 41.9192 23.1637 42.0251C23.2796 42.3335 23.4028 42.6393 23.5287 42.9459C23.526 42.9468 23.5442 42.9532 23.567 42.9614Z" fill="#5A9140"/>
<path d="M1.69062 42.1072C1.76851 42.1245 1.84196 42.1578 1.90636 42.2049C1.97075 42.252 2.02469 42.312 2.06476 42.381C2.23723 42.6648 2.12317 42.9194 1.94613 43.1C1.8807 43.169 1.80225 43.2242 1.71531 43.2626C1.62837 43.301 1.53468 43.3217 1.43967 43.3236C1.01534 43.3236 0.590091 43.3236 0.162107 43.3236C0.131255 43.3245 0.100459 43.3205 0.0708525 43.3118C0.0530771 43.3046 0.037487 43.2929 0.0256375 43.2779C0.0137879 43.2628 0.00609452 43.2449 0.0033251 43.226C-0.0121882 43.1658 0.0379971 43.1502 0.0726738 43.1247C0.133883 43.0944 0.201513 43.0794 0.269787 43.0809C0.292642 43.0805 0.315169 43.0754 0.335911 43.0658C0.356652 43.0562 0.375141 43.0423 0.390193 43.0251C0.405245 43.0079 0.416521 42.9878 0.423289 42.9659C0.430056 42.9441 0.432166 42.9211 0.429482 42.8984C0.429482 42.4202 0.429482 41.942 0.429482 41.4648C0.432813 41.4421 0.431018 41.419 0.424224 41.3971C0.417431 41.3752 0.405811 41.3551 0.390227 41.3383C0.374642 41.3215 0.355485 41.3084 0.334167 41.2999C0.31285 41.2915 0.289913 41.288 0.267046 41.2896C0.244233 41.2896 0.221419 41.2896 0.198606 41.2896C0.0936628 41.2841 -0.014015 41.2166 0.00149823 41.1582C0.0102618 41.117 0.0349724 41.0811 0.070212 41.0582C0.105452 41.0352 0.148344 41.0272 0.189482 41.0359C0.591002 41.0715 0.992524 41.0258 1.39496 41.0359C1.56881 41.0379 1.73544 41.1057 1.86127 41.2257C1.90902 41.2705 1.94733 41.3244 1.97393 41.3843C2.00053 41.4441 2.0149 41.5087 2.01617 41.5741C2.01745 41.6396 2.00561 41.7047 1.98135 41.7655C1.9571 41.8263 1.92092 41.8817 1.87495 41.9283C1.82841 41.9886 1.77092 42.0342 1.69062 42.1072ZM1.1732 42.2304H0.892143C0.869136 42.2272 0.845712 42.2291 0.823491 42.2358C0.80127 42.2426 0.780776 42.2541 0.763427 42.2695C0.746077 42.285 0.732283 42.304 0.722996 42.3253C0.713708 42.3466 0.709153 42.3696 0.709634 42.3928C0.704159 42.5589 0.709634 42.7259 0.709634 42.892C0.7118 42.9309 0.725937 42.9682 0.750115 42.9987C0.774293 43.0293 0.807328 43.0516 0.844689 43.0626C1.10841 43.1822 1.3694 43.1247 1.61123 43.0188C1.75724 42.955 1.82202 42.8016 1.80834 42.6219C1.80543 42.5516 1.78297 42.4835 1.74347 42.4253C1.70397 42.3671 1.649 42.3211 1.58476 42.2924C1.43602 42.2112 1.28818 42.2459 1.1732 42.2304ZM0.711455 41.6555C0.711455 41.6856 0.711455 41.7157 0.711455 41.7467C0.716018 41.9466 0.743396 41.9758 0.946894 41.9904C1.11381 41.9967 1.28087 41.9823 1.44423 41.9475C1.52016 41.9266 1.58684 41.8808 1.63352 41.8174C1.68021 41.754 1.70418 41.6767 1.70157 41.598C1.69791 41.5266 1.66963 41.4587 1.62156 41.4058C1.57348 41.3529 1.50856 41.3183 1.43784 41.3078C1.25869 41.2745 1.07494 41.2745 0.895791 41.3078C0.84609 41.3092 0.79898 41.3303 0.764775 41.3664C0.730569 41.4025 0.712055 41.4507 0.713282 41.5004C0.709632 41.5487 0.711455 41.6026 0.711455 41.6555Z" fill="#5A9140"/>
<path d="M16.212 42.1082C16.2891 42.1275 16.3614 42.1626 16.4242 42.2113C16.4871 42.26 16.5391 42.3213 16.577 42.3911C16.7468 42.6749 16.6172 42.945 16.4474 43.1084C16.3126 43.245 16.1293 43.3231 15.9373 43.3256C15.5206 43.3256 15.1033 43.3256 14.6853 43.3256C14.6547 43.327 14.624 43.3245 14.5941 43.3183C14.5719 43.3118 14.5522 43.2987 14.5377 43.2808C14.5232 43.2629 14.5145 43.2409 14.5128 43.2179C14.5046 43.1723 14.543 43.1558 14.574 43.133C14.6414 43.0982 14.7162 43.0803 14.7921 43.081C14.8129 43.08 14.8332 43.0748 14.852 43.0657C14.8707 43.0566 14.8875 43.0439 14.9012 43.0282C14.9149 43.0125 14.9253 42.9943 14.9318 42.9745C14.9383 42.9547 14.9407 42.9338 14.939 42.9131C14.939 42.4276 14.939 41.9421 14.939 41.453C14.939 41.3198 14.9016 41.2906 14.7474 41.2933C14.6388 41.2933 14.5475 41.2815 14.5147 41.1701C14.4928 41.0953 14.6123 41.0278 14.7583 41.0396C15.1452 41.0707 15.5322 41.0223 15.9191 41.0396C16.0851 41.0453 16.2437 41.11 16.3662 41.2221C16.4165 41.267 16.4569 41.3217 16.485 41.3829C16.5132 41.4441 16.5283 41.5105 16.5296 41.5778C16.5309 41.6451 16.5183 41.712 16.4925 41.7742C16.4668 41.8365 16.4284 41.8927 16.3799 41.9394C16.3279 41.9932 16.2713 42.0407 16.212 42.1082ZM15.6864 42.2287H15.4172C15.2776 42.2405 15.2274 42.2844 15.2219 42.4212C15.2164 42.5581 15.2219 42.7087 15.2219 42.8529C15.22 42.9018 15.2345 42.9499 15.2631 42.9896C15.2917 43.0293 15.3328 43.0583 15.3798 43.0719C15.6325 43.1777 15.8762 43.1166 16.1098 43.0253C16.1792 42.9949 16.2371 42.943 16.275 42.8774C16.313 42.8117 16.3289 42.7357 16.3206 42.6603C16.3256 42.5857 16.3085 42.5112 16.2713 42.4462C16.2341 42.3813 16.1786 42.3288 16.1116 42.2953C15.9611 42.2232 15.815 42.2396 15.6864 42.2287ZM15.221 41.6757C15.221 41.6985 15.221 41.7213 15.221 41.7432C15.221 41.9449 15.2529 41.975 15.4537 41.9905C15.6131 41.9959 15.7725 41.9834 15.9291 41.9531C16.0063 41.9379 16.0762 41.8972 16.1274 41.8374C16.1785 41.7776 16.208 41.7023 16.2111 41.6237C16.2111 41.4485 16.1144 41.3499 15.9273 41.3043C15.756 41.2719 15.5802 41.2719 15.409 41.3043C15.2776 41.3234 15.2328 41.3764 15.2219 41.5151C15.2173 41.5689 15.221 41.6228 15.221 41.6757Z" fill="#5A9140"/>
<path d="M12.2104 43.3018C12.0589 43.3109 11.9303 43.3219 11.8007 43.3265C11.748 43.3278 11.6954 43.3232 11.6437 43.3128C11.6018 43.3046 11.5862 43.2699 11.5817 43.2288C11.5798 43.2195 11.5799 43.2099 11.5818 43.2007C11.5837 43.1914 11.5874 43.1826 11.5928 43.1747C11.5981 43.1669 11.605 43.1603 11.613 43.1551C11.6209 43.15 11.6298 43.1465 11.6392 43.1449C11.7195 43.1239 11.8007 43.1074 11.8819 43.0874C12.0078 43.0563 12.0188 43.0372 11.9732 42.9186C11.9732 42.9113 11.9668 42.9049 11.964 42.8976C11.839 42.5554 11.839 42.5554 11.4667 42.5554H11.3298C11.0561 42.5554 10.9383 42.6676 10.911 42.9359C10.9018 43.0271 10.9301 43.0828 11.0278 43.0874C11.1112 43.0831 11.1943 43.0997 11.2696 43.1357C11.3079 43.1586 11.3608 43.1759 11.3399 43.2361C11.3357 43.2583 11.3246 43.2786 11.3082 43.2942C11.2918 43.3097 11.271 43.3198 11.2486 43.3228C11.188 43.3302 11.1267 43.3302 11.0661 43.3228C10.8629 43.2954 10.657 43.2954 10.4538 43.3228C10.4083 43.3283 10.3624 43.3283 10.3169 43.3228C10.2649 43.3182 10.211 43.3155 10.201 43.2425C10.1975 43.2297 10.1968 43.2162 10.199 43.2031C10.2013 43.19 10.2063 43.1775 10.2139 43.1665C10.2215 43.1556 10.2313 43.1464 10.2428 43.1397C10.2543 43.1329 10.2671 43.1288 10.2804 43.1275C10.295 43.1275 10.3078 43.1102 10.3215 43.1093C10.535 43.0938 10.5952 42.9386 10.6527 42.7671C10.7814 42.4021 10.9265 42.037 11.0634 41.672C11.1135 41.5388 11.1546 41.4028 11.2048 41.2687C11.265 41.1008 11.3618 41.0341 11.5023 41.0451C11.6428 41.056 11.6848 41.1656 11.7158 41.255C11.8564 41.62 11.9786 41.985 12.1082 42.3555C12.173 42.538 12.2342 42.7205 12.3072 42.903C12.3227 42.9532 12.3531 42.9975 12.3943 43.0301C12.4355 43.0627 12.4856 43.082 12.538 43.0855C12.5981 43.0917 12.6571 43.1061 12.7132 43.1284C12.7543 43.143 12.8045 43.1649 12.7935 43.2197C12.7915 43.2466 12.7791 43.2718 12.7591 43.2899C12.7391 43.3081 12.7129 43.3179 12.6859 43.3173C12.5946 43.3173 12.5034 43.3109 12.4121 43.3064L12.2104 43.3018ZM11.1765 42.3144H11.6547C11.7459 42.3144 11.7514 42.2551 11.7323 42.1913C11.6714 41.9844 11.6048 41.7776 11.5324 41.5707C11.5255 41.5428 11.5089 41.5182 11.4854 41.5014C11.462 41.4847 11.4333 41.4769 11.4046 41.4795C11.3508 41.756 11.192 42.0024 11.1765 42.3144Z" fill="#5A9140"/>
<path d="M38.6751 43.7692C38.762 43.7935 38.8543 43.7894 38.9386 43.7575C39.023 43.7257 39.095 43.6677 39.1442 43.5921C39.2564 43.4443 39.2281 43.2965 39.1679 43.1422C39.0301 42.7918 38.8896 42.4423 38.76 42.0892C38.7089 41.9505 38.655 41.8373 38.4789 41.8583C38.4619 41.8606 38.4445 41.8593 38.428 41.8545C38.4115 41.8497 38.3961 41.8415 38.383 41.8304C38.3698 41.8193 38.3592 41.8056 38.3516 41.7901C38.3441 41.7746 38.3399 41.7578 38.3393 41.7406C38.3393 41.6849 38.4032 41.6393 38.4597 41.6192C38.5033 41.606 38.5494 41.6041 38.5939 41.6137C38.7521 41.6379 38.913 41.6379 39.0712 41.6137C39.1231 41.6049 39.1764 41.6077 39.2272 41.6219C39.281 41.6429 39.3349 41.684 39.3184 41.7588C39.3048 41.8118 39.2829 41.8592 39.2144 41.8574C39.1834 41.8574 39.1533 41.8629 39.1232 41.8647C39.0538 41.8647 39.0237 41.903 39.052 41.9687C39.1907 42.2936 39.2509 42.6477 39.4252 42.978C39.5502 42.8174 39.574 42.6257 39.6534 42.4606C39.72 42.3182 39.7519 42.1594 39.8085 42.0116C39.8441 41.9204 39.8295 41.8638 39.7172 41.8629C39.605 41.8619 39.5292 41.8446 39.5201 41.7287C39.5156 41.6676 39.6652 41.5955 39.7638 41.6183C39.9021 41.6585 40.0489 41.6585 40.1872 41.6183C40.217 41.6108 40.2478 41.6083 40.2784 41.611C40.3213 41.6068 40.3642 41.6192 40.3982 41.6457C40.4321 41.6722 40.4546 41.7107 40.461 41.7534C40.4673 41.8191 40.3925 41.8629 40.3131 41.8629C40.2073 41.8629 40.1571 41.9176 40.1188 42.0171C39.9746 42.3949 39.8225 42.7696 39.6625 43.1413C39.5393 43.4297 39.4371 43.7345 39.146 43.9134C39.0477 43.9844 38.9312 44.0259 38.8102 44.0332C38.6892 44.0405 38.5686 44.0131 38.4625 43.9544C38.3954 43.9195 38.3424 43.8624 38.3124 43.7929C38.2825 43.7234 38.2775 43.6457 38.2982 43.573C38.3142 43.5271 38.3447 43.4877 38.385 43.4607C38.4253 43.4338 38.4733 43.4206 38.5218 43.4233C38.6258 43.4352 38.6696 43.4908 38.6769 43.6058C38.6778 43.6606 38.6377 43.7117 38.6751 43.7692Z" fill="#5A9140"/>
<path d="M8.16864 42.0597C8.16864 42.3399 8.16864 42.6209 8.16864 42.9011C8.16864 43.0151 8.19875 43.0836 8.32924 43.0973C8.40316 43.1046 8.52088 43.1192 8.51175 43.2259C8.5008 43.3491 8.38217 43.3354 8.29365 43.3272C8.15677 43.3154 8.00711 43.3802 7.88301 43.2634C7.83921 43.2223 7.80362 43.2825 7.76529 43.2989C7.56088 43.3902 7.36285 43.4386 7.13289 43.35C7.01826 43.3112 6.91519 43.2442 6.8331 43.1553C6.751 43.0663 6.6925 42.9582 6.66294 42.8408C6.57933 42.5628 6.59678 42.2641 6.71221 41.9976C6.89472 41.6053 7.27799 41.4857 7.69594 41.6491C7.82552 41.7002 7.8529 41.6892 7.86111 41.5487C7.87206 41.3443 7.83829 41.2913 7.62658 41.2284C7.54902 41.2056 7.5043 41.1645 7.49882 41.0951C7.49335 41.0258 7.63571 40.9665 7.69502 41.0039C7.78362 41.0484 7.88611 41.0566 7.98065 41.0267C8.11662 41.0012 8.17046 41.0358 8.17411 41.1736C8.17776 41.3114 8.16863 41.462 8.16772 41.6062C8.16681 41.7503 8.16772 41.9091 8.16772 42.0624L8.16864 42.0597ZM6.90841 42.5032C6.88103 42.6355 6.93852 42.777 6.99967 42.9111C7.09092 43.0936 7.29807 43.1849 7.53442 43.1402C7.69137 43.1128 7.80818 42.9677 7.83282 42.7678C7.85883 42.5808 7.85883 42.391 7.83282 42.2039C7.7954 41.9073 7.63662 41.8571 7.44043 41.806C7.27617 41.7631 7.0754 41.9091 6.97867 42.0843C6.91958 42.2156 6.89538 42.3599 6.90841 42.5032Z" fill="#5A9140"/>
<path d="M20.2178 43.3263C20.1037 43.3263 19.9905 43.3263 19.8765 43.3263C19.8616 43.329 19.8463 43.3284 19.8316 43.3245C19.817 43.3206 19.8034 43.3135 19.7918 43.3037C19.7802 43.294 19.7709 43.2818 19.7646 43.268C19.7582 43.2543 19.755 43.2393 19.7551 43.2241C19.7451 43.1329 19.8117 43.1329 19.8737 43.1265C20.0562 43.1019 20.0718 43.0845 20.0946 42.912C20.1358 42.6337 20.1263 42.3502 20.0663 42.0752C20.0595 42.0146 20.0327 41.9579 19.99 41.9143C19.9473 41.8706 19.8913 41.8425 19.8308 41.8343C19.485 41.7759 19.3143 41.8617 19.2486 42.2495C19.2212 42.4919 19.2172 42.7364 19.2368 42.9796C19.2352 43.0006 19.2382 43.0217 19.2457 43.0414C19.2532 43.0611 19.265 43.0789 19.2801 43.0936C19.2953 43.1082 19.3135 43.1193 19.3334 43.1261C19.3534 43.1329 19.3746 43.1352 19.3956 43.1329C19.4332 43.1297 19.4711 43.1297 19.5087 43.1329C19.5461 43.1384 19.5854 43.1502 19.5854 43.1995C19.5854 43.2488 19.5854 43.2908 19.5288 43.3099C19.5219 43.3133 19.5145 43.3154 19.5069 43.3163C19.227 43.3327 18.9463 43.3327 18.6664 43.3163C18.6071 43.3117 18.5998 43.2616 18.5953 43.2159C18.5898 43.1539 18.6345 43.1402 18.681 43.1329C18.7112 43.128 18.7417 43.1258 18.7723 43.1265C18.9019 43.1265 18.9457 43.0508 18.9493 42.944C18.9539 42.7843 18.9557 42.6246 18.9557 42.4658C18.9557 42.1546 18.9484 41.8425 18.9557 41.5314C18.9642 41.4616 18.9456 41.3912 18.9036 41.3348C18.8617 41.2784 18.7996 41.2403 18.7303 41.2284H18.7084C18.6299 41.2156 18.5688 41.1727 18.598 41.0933C18.6031 41.0753 18.6119 41.0585 18.6238 41.044C18.6357 41.0295 18.6505 41.0177 18.6672 41.0091C18.6839 41.0005 18.7021 40.9955 18.7208 40.9943C18.7395 40.9931 18.7583 40.9957 18.7759 41.0021C18.8729 41.0472 18.983 41.055 19.0853 41.024C19.1893 40.993 19.2277 41.034 19.2277 41.1308C19.2277 41.2832 19.2277 41.4346 19.2277 41.587C19.2277 41.7011 19.276 41.7376 19.3636 41.6783C19.5005 41.5797 19.6474 41.598 19.7971 41.587C20.1019 41.5724 20.3911 41.848 20.3948 42.1957C20.3948 42.4229 20.3948 42.652 20.3948 42.8783C20.3948 43.0891 20.3994 43.0891 20.6047 43.1292C20.6558 43.1384 20.7224 43.1447 20.7133 43.215C20.706 43.2707 20.6832 43.3327 20.5992 43.33C20.4705 43.33 20.3419 43.33 20.2123 43.33L20.2178 43.3263Z" fill="#5A9140"/>
<path d="M21.5851 41.5844C21.9502 41.5616 22.0934 41.7176 22.1956 41.9421C22.2228 42.0133 22.234 42.0896 22.2285 42.1657C22.2285 42.4011 22.2285 42.6365 22.2285 42.872C22.2285 42.9249 22.2285 42.9787 22.2285 43.0317C22.2285 43.0846 22.2285 43.1393 22.3106 43.1412C22.3927 43.143 22.4128 43.0919 22.4165 43.0253C22.4201 42.9587 22.4229 42.8738 22.4292 42.798C22.4303 42.771 22.4415 42.7453 22.4606 42.726C22.4797 42.7068 22.5053 42.6954 22.5324 42.694C22.5591 42.6914 22.5859 42.6975 22.6088 42.7115C22.6317 42.7255 22.6494 42.7466 22.6592 42.7716C22.7568 42.9541 22.6592 43.2771 22.4767 43.3666C22.4088 43.4017 22.3315 43.4146 22.2559 43.4034C22.1803 43.3923 22.11 43.3577 22.0551 43.3045C21.9721 43.2315 21.9292 43.2133 21.8279 43.2835C21.7173 43.3584 21.5882 43.4014 21.4549 43.408C21.3215 43.4146 21.1888 43.3845 21.0714 43.3209C20.9881 43.2752 20.9187 43.2078 20.8706 43.1259C20.8224 43.0439 20.7972 42.9506 20.7976 42.8555C20.8095 42.7552 20.8504 42.6606 20.9152 42.5831C20.98 42.5057 21.066 42.4488 21.1626 42.4193C21.3305 42.3727 21.5021 42.3406 21.6755 42.3235C21.7361 42.325 21.7952 42.304 21.8413 42.2646C21.8875 42.2252 21.9174 42.1701 21.9255 42.11C21.923 42.0501 21.9019 41.9924 21.8654 41.9449C21.8288 41.8973 21.7784 41.8623 21.7211 41.8444C21.6422 41.8168 21.5569 41.8127 21.4756 41.8326C21.3077 41.8718 21.3068 41.8691 21.3105 42.0525C21.3105 42.2003 21.2831 42.235 21.1508 42.2405C21.0184 42.246 20.9546 42.1994 20.9372 42.0662C20.9071 41.8381 21.0787 41.682 21.368 41.5981C21.4395 41.5846 21.5125 41.58 21.5851 41.5844ZM21.4683 43.1466C21.8078 43.1758 21.9456 42.8729 21.9465 42.6174C21.9465 42.5343 21.9036 42.5006 21.8315 42.5416C21.751 42.5847 21.6598 42.6037 21.5687 42.5964C21.4629 42.5991 21.359 42.6256 21.2648 42.6739C21.2255 42.6871 21.1915 42.7126 21.1678 42.7466C21.1441 42.7806 21.1321 42.8214 21.1334 42.8628C21.1216 43.0673 21.2156 43.1485 21.4683 43.1466Z" fill="#5A9140"/>
<path d="M17.8319 42.4969C17.6722 42.4969 17.5125 42.4969 17.3537 42.4969C17.2387 42.4969 17.2022 42.5526 17.2259 42.6529C17.2916 42.934 17.4559 43.184 17.8109 43.1439C17.8777 43.1352 17.9416 43.1109 17.9974 43.073C18.0532 43.0351 18.0993 42.9847 18.1321 42.9258C18.1584 42.88 18.1801 42.8317 18.1969 42.7816C18.2261 42.7086 18.2781 42.6657 18.3538 42.6904C18.3724 42.6957 18.3897 42.7047 18.4047 42.7168C18.4197 42.7289 18.4322 42.7439 18.4413 42.761C18.4504 42.778 18.456 42.7966 18.4577 42.8159C18.4595 42.8351 18.4573 42.8545 18.4515 42.8729C18.4331 42.9537 18.3993 43.0302 18.352 43.0983C18.1768 43.31 17.7744 43.4633 17.5134 43.3775C17.1557 43.2616 16.9549 43.0125 16.9385 42.6475C16.9293 42.4212 16.9275 42.1994 17.0352 41.9831C17.2861 41.4785 18.0554 41.4356 18.3392 41.8572C18.4403 41.9875 18.4935 42.1486 18.4898 42.3135C18.4816 42.4522 18.4533 42.4841 18.3073 42.4896C18.1485 42.4951 17.9888 42.4896 17.83 42.4896L17.8319 42.4969ZM18.1969 42.1948C18.1321 41.9457 17.976 41.8043 17.7406 41.7915C17.5052 41.7787 17.3482 41.9339 17.2569 42.2003C17.5657 42.2712 17.8867 42.2703 18.195 42.1976L18.1969 42.1948Z" fill="#5A9140"/>
<path d="M41.5171 41.8818L41.4258 41.8535C41.3145 41.7477 41.2378 41.744 41.1174 41.8389L41.0453 41.859C40.9759 41.8526 40.9348 41.8773 40.9412 41.9503C40.892 42.2131 40.9549 42.3053 41.215 42.3153C41.3961 42.3204 41.5736 42.3676 41.7333 42.4531C41.9067 42.5443 41.9697 42.7068 41.9505 42.9094C41.9427 42.9967 41.9107 43.08 41.8579 43.15C41.8052 43.22 41.7339 43.2739 41.6521 43.3054C41.4532 43.3967 41.2396 43.4532 41.0133 43.3437C40.933 43.3045 40.8399 43.2826 40.7678 43.3802C40.7477 43.4037 40.7201 43.4195 40.6896 43.4248C40.6591 43.4302 40.6277 43.4247 40.6009 43.4094C40.5749 43.3934 40.555 43.3692 40.5442 43.3406C40.5335 43.3121 40.5325 43.2807 40.5415 43.2516C40.5703 43.1025 40.5684 42.9491 40.5361 42.8008C40.534 42.7779 40.5366 42.755 40.5437 42.7332C40.5508 42.7114 40.5621 42.6912 40.5771 42.6739C40.5854 42.6572 40.5986 42.6435 40.6149 42.6345C40.6312 42.6256 40.6499 42.6218 40.6684 42.6237C40.6873 42.6269 40.7049 42.6356 40.7189 42.6487C40.7328 42.6619 40.7426 42.6789 40.7469 42.6977C40.755 42.7344 40.7608 42.7715 40.7642 42.809C40.7744 42.8715 40.8002 42.9305 40.8391 42.9806C40.878 43.0306 40.9288 43.0701 40.9869 43.0955C41.1694 43.1868 41.4696 43.1576 41.5828 43.0389C41.6959 42.9203 41.6877 42.7606 41.5344 42.683C41.4433 42.6277 41.3397 42.5963 41.2333 42.5918C41.114 42.5824 40.9964 42.5572 40.8837 42.517C40.5972 42.4449 40.4475 42.0698 40.7167 41.7723C40.769 41.7133 40.8328 41.6657 40.9042 41.6324C40.9757 41.5991 41.0532 41.5809 41.132 41.5789C41.3355 41.567 41.5362 41.6318 41.7406 41.5889C41.8319 41.5697 41.8483 41.6473 41.8483 41.7231C41.8483 41.8818 41.8483 42.0415 41.8483 42.2003C41.6886 42.2222 41.6913 42.2213 41.6475 42.0762C41.6357 42.0014 41.6129 41.9138 41.5171 41.8818Z" fill="#5A9140"/>
<path d="M27.3478 42.4331C27.3633 42.7863 27.2648 43.0628 26.9828 43.2544C26.8816 43.3265 26.7647 43.3733 26.6417 43.391C26.5187 43.4086 26.3933 43.3964 26.2759 43.3556C26.1586 43.3148 26.0528 43.2464 25.9673 43.1562C25.8818 43.0661 25.8192 42.9567 25.7846 42.8374C25.7094 42.5819 25.7164 42.3093 25.8047 42.0581C25.8565 41.9256 25.9447 41.8105 26.0593 41.7262C26.1738 41.6419 26.3099 41.5918 26.4517 41.5817C26.7675 41.5607 27.0367 41.6346 27.2119 41.9184C27.3158 42.0689 27.3639 42.251 27.3478 42.4331ZM26.0575 42.5244C26.0575 42.57 26.0685 42.6448 26.0675 42.7206C26.0675 42.8821 26.25 43.1184 26.3915 43.1394C26.5977 43.1695 26.793 43.1641 26.9326 42.9633C26.9787 42.8865 27.0125 42.8031 27.033 42.716C27.0729 42.5973 27.0853 42.4711 27.0695 42.3469C27.0537 42.2227 27.0101 42.1037 26.9418 41.9987C26.7729 41.7295 26.3413 41.7441 26.1606 42.017C26.063 42.163 26.0611 42.3245 26.0575 42.5207V42.5244Z" fill="#5A9140"/>
<path d="M28.1584 42.5591C28.1584 42.6649 28.1584 42.7717 28.1584 42.8776C28.1584 42.9834 28.1785 43.0902 28.3236 43.0929C28.3389 43.0922 28.3541 43.096 28.3674 43.1039C28.4194 43.1404 28.5198 43.1276 28.5152 43.2198C28.5106 43.3119 28.4239 43.3293 28.3455 43.3293H27.6392C27.5716 43.3293 27.5223 43.3147 27.5087 43.238C27.495 43.1614 27.5515 43.1422 27.6118 43.1212C27.8454 43.0391 27.8782 42.9962 27.8737 42.7507C27.8737 42.5235 27.8572 42.2945 27.8426 42.0691C27.8317 41.8966 27.818 41.8774 27.6465 41.8656C27.5552 41.8592 27.5123 41.8135 27.5096 41.7487C27.5084 41.7313 27.5109 41.7139 27.517 41.6975C27.523 41.6812 27.5325 41.6663 27.5448 41.6539C27.557 41.6414 27.5718 41.6318 27.588 41.6255C27.6043 41.6192 27.6217 41.6164 27.6392 41.6173C27.7906 41.6392 27.9558 41.5535 28.0954 41.6867C28.1547 41.7442 28.2223 41.6867 28.2779 41.6502C28.3581 41.6065 28.4468 41.5808 28.5379 41.575C28.629 41.5692 28.7203 41.5833 28.8054 41.6164C29.0509 41.6922 29.1804 42.0499 29.0728 42.2835C29.0377 42.3413 28.9837 42.3851 28.92 42.4074C28.8562 42.4297 28.7867 42.4291 28.7233 42.4058C28.701 42.3953 28.6815 42.3797 28.6663 42.3604C28.6512 42.341 28.6407 42.3184 28.6358 42.2943C28.631 42.2702 28.6318 42.2452 28.6383 42.2215C28.6447 42.1978 28.6566 42.1759 28.6731 42.1576C28.6986 42.1302 28.7397 42.1192 28.7643 42.0919C28.7821 42.0772 28.7958 42.0582 28.8038 42.0366C28.8119 42.015 28.8141 41.9916 28.8102 41.9689C28.8063 41.9462 28.7964 41.9249 28.7816 41.9073C28.7669 41.8896 28.7477 41.8761 28.726 41.8683C28.6745 41.8377 28.6163 41.8202 28.5564 41.8175C28.4966 41.8147 28.437 41.8267 28.3829 41.8524C28.3288 41.8781 28.2818 41.9167 28.2462 41.9648C28.2105 42.013 28.1873 42.0691 28.1785 42.1284C28.1584 42.2707 28.163 42.4158 28.1566 42.56L28.1584 42.5591Z" fill="#5A9140"/>
<path d="M42.3964 42.5179C42.3964 42.4266 42.39 42.3354 42.3964 42.2441C42.4101 42.0762 42.4056 41.9238 42.1902 41.8882C42.1272 41.8773 42.1099 41.8225 42.1071 41.7678C42.103 41.7331 42.1126 41.6982 42.134 41.6705C42.1553 41.6429 42.1866 41.6247 42.2212 41.6199C42.4165 41.6117 42.4037 41.484 42.3982 41.3535C42.3982 41.3078 42.3982 41.2622 42.3982 41.2166C42.3982 41.1308 42.4694 41.1144 42.5224 41.1126C42.5753 41.1107 42.6629 41.1263 42.6693 41.2166C42.6743 41.3002 42.6743 41.384 42.6693 41.4675C42.6629 41.5588 42.6976 41.609 42.797 41.6053C42.8803 41.5994 42.9638 41.5994 43.0471 41.6053C43.0891 41.6037 43.1302 41.6182 43.1619 41.6459C43.1936 41.6735 43.2136 41.7122 43.2177 41.7541C43.2323 41.8727 43.1356 41.8928 43.0617 41.911C42.9793 41.9236 42.8957 41.9269 42.8125 41.9211C42.7213 41.9211 42.6684 41.9457 42.6693 42.0497C42.6693 42.339 42.6693 42.6274 42.6775 42.9158C42.6839 43.0818 42.776 43.1548 42.923 43.1421C42.976 43.1388 43.0258 43.1155 43.0622 43.0768C43.0987 43.0382 43.119 42.9871 43.1192 42.934C43.131 42.8364 43.1265 42.7369 43.1319 42.6383C43.1319 42.5599 43.173 42.506 43.256 42.5033C43.2732 42.5007 43.2908 42.502 43.3075 42.507C43.3241 42.512 43.3395 42.5205 43.3524 42.5321C43.3654 42.5437 43.3757 42.558 43.3825 42.574C43.3894 42.59 43.3926 42.6073 43.392 42.6247C43.4081 42.7904 43.3878 42.9576 43.3327 43.1147C43.279 43.2135 43.1958 43.293 43.0947 43.3421C42.9935 43.3912 42.8796 43.4074 42.7687 43.3885C42.5433 43.3273 42.3955 43.2132 42.3946 42.945V42.5124L42.3964 42.5179Z" fill="#5A9140"/>
<path d="M9.22906 42.475C9.22906 41.9731 9.22906 41.4712 9.22906 40.9702C9.22906 40.8963 9.21172 40.8114 9.30845 40.7777C9.33233 40.7663 9.35874 40.7613 9.38511 40.7632C9.41148 40.7651 9.43693 40.7737 9.45897 40.7883C9.48101 40.8029 9.49891 40.823 9.51091 40.8465C9.52291 40.8701 9.52861 40.8964 9.52747 40.9228C9.53203 40.9757 9.52747 41.0295 9.52747 41.0825V43.9114C9.52747 43.9643 9.52747 44.0181 9.52747 44.0711C9.52654 44.0882 9.52223 44.105 9.51479 44.1205C9.50736 44.1359 9.49694 44.1498 9.48414 44.1613C9.47134 44.1727 9.45641 44.1815 9.4402 44.1872C9.42398 44.1928 9.40682 44.1952 9.38967 44.1942C9.37094 44.1981 9.35161 44.1978 9.33298 44.1936C9.31435 44.1893 9.29684 44.1811 9.28163 44.1695C9.26642 44.158 9.25387 44.1433 9.2448 44.1264C9.23574 44.1096 9.23037 44.091 9.22906 44.072C9.2254 44.0188 9.2254 43.9654 9.22906 43.9123V42.475Z" fill="#5A9140"/>
<path d="M5.48324 43.1667C5.52249 43.1434 5.56335 43.123 5.60552 43.1056C5.81997 43.0344 5.8227 43.0362 5.82453 42.8245C5.82453 42.3919 5.83092 41.9603 5.83365 41.5287C5.83401 41.4677 5.83066 41.4068 5.82362 41.3462C5.81449 41.2777 5.78346 41.2294 5.70225 41.2549C5.68222 41.2656 5.66007 41.2717 5.63739 41.2728C5.61472 41.2739 5.59208 41.2699 5.57113 41.2612C5.55017 41.2524 5.53142 41.2392 5.51622 41.2223C5.50102 41.2054 5.48976 41.1854 5.48324 41.1637C5.4586 41.0916 5.54986 41.0432 5.70681 41.0414C5.80537 41.0414 5.90392 41.0414 6.00248 41.0414C6.11563 41.0414 6.17221 41.0934 6.16491 41.2084C6.16491 41.2613 6.16491 41.3142 6.15852 41.3681C6.13388 41.8672 6.15122 42.3719 6.14848 42.8683C6.14848 42.9951 6.17495 43.0919 6.3246 43.1046C6.3465 43.1046 6.36658 43.1238 6.38848 43.1284C6.45875 43.1448 6.45875 43.1932 6.45327 43.2507C6.4478 43.3081 6.40674 43.3264 6.36202 43.3246C6.08826 43.3145 5.80354 43.3583 5.52704 43.3018C5.5389 43.2488 5.50605 43.2096 5.48324 43.1667Z" fill="#5A9140"/>
<path d="M13.747 42.4833V43.9433C13.7507 43.9963 13.7489 44.0495 13.7416 44.1021C13.727 44.1724 13.6667 44.1934 13.6019 44.1934C13.5372 44.1934 13.4815 44.1696 13.4751 44.093C13.4751 44.0401 13.4751 43.9871 13.4751 43.9333V41.0369C13.4751 40.9912 13.4751 40.9456 13.4751 40.9C13.4751 40.7996 13.5207 40.7695 13.6147 40.7713C13.7087 40.7731 13.7498 40.8142 13.7489 40.91C13.7489 41.4347 13.7489 41.9585 13.7489 42.4833H13.747Z" fill="#5A9140"/>
<path d="M29.8217 42.4659C29.8217 41.9649 29.8217 41.4621 29.8217 40.9639C29.8217 40.9009 29.7961 40.8234 29.8819 40.7814C29.9996 40.7284 30.0845 40.7814 30.0909 40.9146C30.0909 41.0132 30.0909 41.1117 30.0909 41.2103C30.0909 42.1283 30.0909 43.046 30.0909 43.9634C30.0909 44.1359 30.0608 44.1888 29.9713 44.1879C29.8673 44.1879 29.8199 44.1195 29.8199 43.9634C29.8211 43.4658 29.8217 42.9666 29.8217 42.4659Z" fill="#5A9140"/>
<path d="M4.70939 41.2705C4.71423 41.2224 4.73719 41.1779 4.77362 41.146C4.81005 41.1142 4.85723 41.0974 4.90559 41.099C4.93259 41.0985 4.95935 41.1041 4.98395 41.1153C5.00854 41.1264 5.03036 41.1429 5.04782 41.1635C5.06527 41.1841 5.07794 41.2083 5.08491 41.2344C5.09188 41.2605 5.09297 41.2878 5.0881 41.3143C5.08186 41.3623 5.05827 41.4064 5.02179 41.4381C4.98531 41.4699 4.93846 41.4872 4.89008 41.4868C4.86354 41.4858 4.8375 41.4792 4.81366 41.4675C4.78982 41.4558 4.7687 41.4392 4.75167 41.4188C4.73464 41.3985 4.72207 41.3747 4.71479 41.3492C4.70751 41.3236 4.70567 41.2968 4.70939 41.2705Z" fill="#5A9140"/>
<path d="M24.8758 41.2878C24.8761 41.2385 24.8952 41.1911 24.929 41.1552C24.9629 41.1193 25.0091 41.0976 25.0583 41.0944C25.0846 41.0945 25.1106 41.0998 25.1347 41.1101C25.1589 41.1204 25.1808 41.1355 25.1991 41.1543C25.2173 41.1732 25.2317 41.1956 25.2412 41.22C25.2507 41.2445 25.2552 41.2707 25.2545 41.2969C25.2532 41.3456 25.2338 41.3921 25.2 41.4272C25.1663 41.4624 25.1206 41.4836 25.072 41.4868C25.0454 41.4889 25.0188 41.4851 24.9938 41.4759C24.9689 41.4666 24.9463 41.4519 24.9276 41.433C24.9089 41.414 24.8945 41.3912 24.8856 41.3661C24.8767 41.3411 24.8733 41.3143 24.8758 41.2878Z" fill="#5A9140"/>
<path d="M30.6162 37.7496C34.5584 29.1351 31.6808 21.6279 29.7493 18.9511L31.255 18.4949L32.5782 18.6774H34.4489H37.004H38.7378L38.4641 20.4568C35.5074 28.4507 38.4793 35.2857 40.3348 37.7039L40.2892 38.069H37.5515H33.1257L30.6162 37.7496Z" fill="#F4F4AF"/>
<path d="M47.9999 9.87137C44.2767 5.30865 39.9087 6.35807 38.1901 7.45313L37.5513 7.36187L37.8707 7.95503C42.5794 11.4227 46.5855 10.6775 47.9999 9.87137Z" fill="#5A9140"/>
<path d="M30.7073 12.244C26.464 12.0615 25.1256 14.1604 24.5476 15.5292C26.7377 16.5877 27.3765 18.3124 27.4221 19.0425C29.6122 18.0204 31.8936 20.3505 32.7605 21.6432C35.4981 18.1756 37.886 19.6813 38.7377 20.8676C39.6867 18.2394 41.5362 18.5254 42.3422 18.9968C42.0867 16.8432 43.5133 15.3315 44.2586 14.8448C43.8936 13.9322 42.8289 13.0045 42.3422 12.6547C39.8601 10.9756 36.1826 13.1109 36.1826 13.1109C35.1331 13.6585 34.6616 14.2972 34.54 14.5254C34.1385 14.5984 33.8251 14.3429 33.7187 14.206C33.3902 12.8189 31.6198 12.2896 30.7073 12.244Z" fill="#D02833"/>
<path d="M38.5096 3.80298C36.8306 4.64252 34.6465 11.1185 33.7644 14.2516C33.9104 14.5071 34.3423 14.5406 34.5401 14.5254C36.5477 9.34213 38.9355 6.37331 39.8785 5.53681C39.842 5.39081 39.6503 5.11096 39.5591 4.98929C39.4861 4.22275 38.829 3.87902 38.5096 3.80298Z" fill="#31221C"/>
<path d="M31.8477 12.5635C32.4256 13.6585 34.2933 15.5475 37.1404 14.3429C35.6956 15.3619 32.6142 16.4327 31.8477 12.5635Z" fill="#AC252B"/>
<path d="M32.8972 38.8447C30.9261 40.7063 28.2432 38.5861 27.1482 37.339C30.7619 38.434 32.6387 37.3086 33.1254 36.5633C34.7314 39.4835 36.8972 37.3238 37.7793 35.8789C38.5094 38.0325 41.6729 37.993 43.1634 37.704C42.9078 38.507 41.2014 39.4987 40.3801 39.8941C38.9657 40.4873 38.4181 39.8028 38.0987 38.7991C35.0691 41.3177 33.3687 39.8789 32.8972 38.8447Z" fill="#D02833"/>
<path d="M34.8311 27.7535C34.8007 27.5558 34.7946 27.1056 35.0136 26.8866C35.044 27.0843 35.0501 27.5345 34.8311 27.7535Z" fill="#603813"/>
<path d="M35.3882 28.4018C35.3203 28.2136 35.2276 27.773 35.4003 27.5159C35.4682 27.7041 35.5609 28.1447 35.3882 28.4018Z" fill="#603813"/>
<path d="M35.2778 26.7651C35.1763 26.5927 35.0039 26.1768 35.1262 25.8923C35.2277 26.0647 35.4001 26.4806 35.2778 26.7651Z" fill="#603813"/>
<path d="M35.0134 28.8705C34.9455 28.6824 34.8528 28.2418 35.0255 27.9847C35.0935 28.1729 35.1862 28.6134 35.0134 28.8705Z" fill="#603813"/>
<path d="M35.3782 29.6005C35.3102 29.4124 35.2176 28.9718 35.3903 28.7147C35.4582 28.9028 35.5509 29.3434 35.3782 29.6005Z" fill="#603813"/>
<path d="M34.903 29.8694C34.8054 29.6948 34.6425 29.2751 34.7712 28.9934C34.8687 29.168 35.0317 29.5877 34.903 29.8694Z" fill="#603813"/>
<path d="M35.2233 30.7823C35.1696 30.5896 35.1101 30.1433 35.3015 29.8998C35.3552 30.0925 35.4147 30.5388 35.2233 30.7823Z" fill="#603813"/>
<path d="M42.4524 12.746C42.9809 13.1552 43.8902 13.9968 44.2219 14.826C43.4766 15.313 42.0504 16.8251 42.3059 18.9784C41.4998 18.5069 39.6505 18.2205 38.7014 20.8485C37.8497 19.6622 35.4614 18.1564 32.7239 21.6239C32.1227 20.7276 30.8418 19.3338 29.3831 18.9032L42.4524 12.746Z" fill="#AC252B"/>
<path d="M39.9553 37.6569C41.0911 37.9381 42.3715 37.8572 43.1633 37.7037C42.9078 38.5068 41.2137 39.5712 40.3342 39.9401C38.9202 40.5328 38.3723 39.848 38.053 38.8444C36.8482 39.8459 35.8519 40.2115 35.0588 40.2252L39.9553 37.6569Z" fill="#AC252B"/>
</svg>
