<svg width="48" height="48" viewBox="0 0 48 48" fill="none" xmlns="http://www.w3.org/2000/svg">
<ellipse cx="30.8807" cy="15.7554" rx="4.1866" ry="4.18654" fill="#414143"/>
<ellipse cx="30.8804" cy="15.7553" rx="3.10618" ry="3.10614" fill="white"/>
<path d="M36.934 22.0143C37.109 22.1766 37.3824 22.1663 37.5447 21.9912C37.707 21.8162 37.6967 21.5428 37.5217 21.3806L37.2278 21.6974L36.934 22.0143ZM37.2278 21.6974L37.5217 21.3806L33.8077 17.9368L33.5139 18.2537L33.2201 18.5705L36.934 22.0143L37.2278 21.6974Z" fill="#414143"/>
<path d="M32.2987 16.2282V14.1349C33.4466 15.0128 33.7167 16.8359 31.826 17.8488L28.9224 14.9452L29.8677 13.9999L32.2987 16.2282Z" fill="#1D75BD"/>
<path d="M30.5427 13.7299L31.6907 14.9453" stroke="#414143" stroke-width="0.108032" stroke-linecap="round"/>
<path d="M26.829 9.6781L28.7872 11.6363L28.3145 12.0415L26.829 10.5559L18.7934 16.9033L10.2852 18.8615L18.6584 16.3631L26.829 9.6781Z" fill="#414143"/>
<path d="M26.8289 11.4337L27.7743 12.3115L17.2403 20.4145L14.6068 20.6171L16.565 19.1316L0.966553 22.1702L8.52944 20.212V18.8615H9.7449V19.8068L19.266 17.2409L26.8289 11.4337Z" fill="#1D75BD"/>
<path d="M32.5011 20.2118C31.9341 20.3827 31.5914 20.437 30.948 20.4819L33.4465 22.7777H35.4047L32.5011 20.2118Z" fill="#414143"/>
<rect x="27.0991" y="19.4016" width="1.21546" height="1.21545" fill="#414143"/>
<rect x="25.2083" y="19.4016" width="1.21546" height="1.21545" fill="#414143"/>
<rect x="25.2083" y="21.022" width="1.21546" height="1.21545" fill="#414143"/>
<rect x="27.0991" y="21.022" width="1.21546" height="1.21545" fill="#414143"/>
<path d="M26.2212 17.3759C26.0272 16.8244 25.9844 16.5135 25.9511 15.9579L18.2532 21.6975L0.831543 22.8454H19.1986L26.2212 17.3759Z" fill="#414143"/>
<path d="M38.5109 21.8329L39.5238 22.8458H37.6331C38.079 22.5383 38.2805 22.3256 38.5109 21.8329Z" fill="#1B76BF"/>
<path d="M4.7466 27.3944C4.7466 27.6899 4.67537 27.9669 4.53292 28.2254C4.39573 28.4839 4.17677 28.6923 3.87603 28.8506C3.58056 29.0089 3.20595 29.0881 2.75219 29.0881H1.82621V31.2091H0.718208V25.6849H2.75219C3.17957 25.6849 3.54362 25.7588 3.84437 25.9065C4.14511 26.0542 4.36935 26.2574 4.51709 26.5159C4.6701 26.7744 4.7466 27.0673 4.7466 27.3944ZM2.70471 28.1937C3.01073 28.1937 3.2376 28.1252 3.38534 27.988C3.53307 27.8455 3.60694 27.6477 3.60694 27.3944C3.60694 26.8562 3.30619 26.5871 2.70471 26.5871H1.82621V28.1937H2.70471ZM6.64128 26.5792V27.9642H8.50115V28.8427H6.64128V30.3069H8.73858V31.2091H5.53327V25.677H8.73858V26.5792H6.64128ZM13.1328 30.1565H10.9326L10.5686 31.2091H9.40518L11.3917 25.677H12.6817L14.6682 31.2091H13.4969L13.1328 30.1565ZM12.8321 29.2701L12.0327 26.9591L11.2334 29.2701H12.8321ZM18.529 31.2091L16.5187 28.7477V31.2091H15.4107V25.6849H16.5187V28.1621L18.529 25.6849H19.8665L17.5872 28.4233L19.9298 31.2091H18.529ZM22.4393 25.6928C23.0408 25.6928 23.5605 25.8063 23.9985 26.0331C24.4417 26.2547 24.7793 26.5739 25.0115 26.9908C25.2489 27.4076 25.3676 27.8983 25.3676 28.4628C25.3676 29.0274 25.2489 29.5181 25.0115 29.9349C24.7793 30.3464 24.4417 30.663 23.9985 30.8846C23.5605 31.1009 23.0408 31.2091 22.4393 31.2091H20.7219V25.6928H22.4393ZM22.4393 30.6155C23.1516 30.6155 23.6951 30.4282 24.0697 30.0536C24.4443 29.6737 24.6316 29.1435 24.6316 28.4628C24.6316 27.7769 24.4417 27.2414 24.0618 26.8562C23.6872 26.4711 23.1464 26.2785 22.4393 26.2785H21.4421V30.6155H22.4393ZM27.0378 25.6928V31.2091H26.3176V25.6928H27.0378ZM31.1698 31.2091L29.8561 28.9535H28.9855V31.2091H28.2653V25.6928H30.046C30.4628 25.6928 30.8137 25.764 31.0986 25.9065C31.3888 26.049 31.6051 26.2415 31.7476 26.4843C31.89 26.727 31.9613 27.004 31.9613 27.3153C31.9613 27.6951 31.8505 28.0302 31.6289 28.3204C31.4125 28.6106 31.0854 28.8031 30.6475 28.8981L32.0325 31.2091H31.1698ZM28.9855 28.3758H30.046C30.4364 28.3758 30.7293 28.2808 30.9245 28.0909C31.1197 27.8956 31.2173 27.6371 31.2173 27.3153C31.2173 26.9881 31.1197 26.7349 30.9245 26.5555C30.7345 26.3761 30.4417 26.2864 30.046 26.2864H28.9855V28.3758ZM33.8005 26.2785V28.1225H35.8108V28.7161H33.8005V30.6155H36.0482V31.2091H33.0803V25.6849H36.0482V26.2785H33.8005ZM36.8689 28.447C36.8689 27.9088 36.9902 27.4261 37.233 26.9987C37.4757 26.566 37.8054 26.2284 38.2222 25.9856C38.6443 25.7429 39.1113 25.6216 39.6231 25.6216C40.2246 25.6216 40.7496 25.7667 41.198 26.0569C41.6465 26.3471 41.9736 26.7586 42.1794 27.2915H41.3168C41.1637 26.9591 40.9421 26.7032 40.6519 26.5238C40.367 26.3444 40.0241 26.2547 39.6231 26.2547C39.2379 26.2547 38.8923 26.3444 38.5863 26.5238C38.2803 26.7032 38.0402 26.9591 37.8661 27.2915C37.692 27.6186 37.6049 28.0038 37.6049 28.447C37.6049 28.8849 37.692 29.2701 37.8661 29.6025C38.0402 29.9296 38.2803 30.1829 38.5863 30.3623C38.8923 30.5417 39.2379 30.6314 39.6231 30.6314C40.0241 30.6314 40.367 30.5443 40.6519 30.3702C40.9421 30.1908 41.1637 29.9349 41.3168 29.6025H42.1794C41.9736 30.1301 41.6465 30.539 41.198 30.8292C40.7496 31.1141 40.2246 31.2566 39.6231 31.2566C39.1113 31.2566 38.6443 31.1379 38.2222 30.9004C37.8054 30.6577 37.4757 30.3227 37.233 29.8953C36.9902 29.468 36.8689 28.9852 36.8689 28.447ZM46.6467 25.6928V26.2785H45.143V31.2091H44.4228V26.2785H42.9112V25.6928H46.6467Z" fill="#1D75BD"/>
<path d="M8.40873 33.717L7.42582 36.3219H7.0334L6.05048 33.717H6.413L7.23148 35.9631L8.04995 33.717H8.40873ZM9.12175 33.717V36.3219H8.78165V33.717H9.12175ZM11.073 36.3219L10.4526 35.2568H10.0415V36.3219H9.70138V33.717H10.5423C10.7391 33.717 10.9048 33.7506 11.0393 33.8179C11.1764 33.8852 11.2785 33.9761 11.3458 34.0907C11.4131 34.2053 11.4467 34.3361 11.4467 34.4831C11.4467 34.6625 11.3944 34.8207 11.2897 34.9578C11.1876 35.0948 11.0331 35.1858 10.8263 35.2306L11.4803 36.3219H11.073ZM10.0415 34.9839H10.5423C10.7267 34.9839 10.8649 34.9391 10.9571 34.8494C11.0493 34.7572 11.0954 34.6351 11.0954 34.4831C11.0954 34.3287 11.0493 34.2091 10.9571 34.1244C10.8674 34.0396 10.7291 33.9973 10.5423 33.9973H10.0415V34.9839ZM13.5785 33.717V33.9935H12.8684V36.3219H12.5283V33.9935H11.8145V33.717H13.5785ZM14.3297 33.717V35.3651C14.3297 35.5969 14.3858 35.7688 14.4979 35.8809C14.6125 35.993 14.7707 36.0491 14.9726 36.0491C15.1719 36.0491 15.3276 35.993 15.4397 35.8809C15.5543 35.7688 15.6116 35.5969 15.6116 35.3651V33.717H15.9517V35.3614C15.9517 35.5782 15.9081 35.7613 15.8209 35.9108C15.7337 36.0578 15.6154 36.1674 15.4659 36.2397C15.3189 36.3119 15.1532 36.3481 14.9688 36.3481C14.7844 36.3481 14.6175 36.3119 14.468 36.2397C14.321 36.1674 14.2039 36.0578 14.1167 35.9108C14.032 35.7613 13.9896 35.5782 13.9896 35.3614V33.717H14.3297ZM18.0589 35.7426H16.9227L16.7134 36.3219H16.3546L17.2964 33.7319H17.6889L18.6269 36.3219H18.2681L18.0589 35.7426ZM17.9617 35.4661L17.4908 34.1505L17.0199 35.4661H17.9617ZM19.3775 36.0453H20.2894V36.3219H19.0374V33.717H19.3775V36.0453ZM23.1867 35.7426H22.0506L21.8413 36.3219H21.4825L22.4243 33.7319H22.8167L23.7548 36.3219H23.396L23.1867 35.7426ZM23.0896 35.4661L22.6186 34.1505L22.1477 35.4661H23.0896ZM24.9763 33.717C25.2603 33.717 25.5057 33.7706 25.7125 33.8777C25.9218 33.9823 26.0813 34.1331 26.1909 34.3299C26.303 34.5267 26.3591 34.7585 26.3591 35.025C26.3591 35.2916 26.303 35.5234 26.1909 35.7202C26.0813 35.9145 25.9218 36.064 25.7125 36.1687C25.5057 36.2708 25.2603 36.3219 24.9763 36.3219H24.1653V33.717H24.9763ZM24.9763 36.0416C25.3126 36.0416 25.5692 35.9532 25.7461 35.7763C25.923 35.5969 26.0115 35.3465 26.0115 35.025C26.0115 34.7011 25.9218 34.4483 25.7424 34.2664C25.5655 34.0845 25.3101 33.9935 24.9763 33.9935H24.5054V36.0416H24.9763ZM28.1195 33.717V35.6417C28.1195 35.856 28.0534 36.0279 27.9214 36.1575C27.7893 36.2845 27.6149 36.3481 27.3982 36.3481C27.1789 36.3481 27.0033 36.2833 26.8712 36.1537C26.7391 36.0217 26.6731 35.8423 26.6731 35.6155H27.0132C27.0157 35.7426 27.0481 35.846 27.1104 35.9257C27.1752 36.0055 27.2711 36.0453 27.3982 36.0453C27.5252 36.0453 27.6199 36.008 27.6822 35.9332C27.7445 35.856 27.7756 35.7588 27.7756 35.6417V33.717H28.1195ZM29.1221 33.717V35.3651C29.1221 35.5969 29.1781 35.7688 29.2903 35.8809C29.4049 35.993 29.5631 36.0491 29.7649 36.0491C29.9642 36.0491 30.12 35.993 30.2321 35.8809C30.3467 35.7688 30.404 35.5969 30.404 35.3651V33.717H30.7441V35.3614C30.7441 35.5782 30.7005 35.7613 30.6133 35.9108C30.5261 36.0578 30.4077 36.1674 30.2582 36.2397C30.1112 36.3119 29.9455 36.3481 29.7612 36.3481C29.5768 36.3481 29.4099 36.3119 29.2604 36.2397C29.1134 36.1674 28.9963 36.0578 28.9091 35.9108C28.8243 35.7613 28.782 35.5782 28.782 35.3614V33.717H29.1221ZM32.1374 36.3481C31.9655 36.3481 31.811 36.3182 31.674 36.2584C31.5394 36.1961 31.4335 36.1114 31.3563 36.0042C31.279 35.8946 31.2392 35.7688 31.2367 35.6268H31.5992C31.6117 35.7488 31.6615 35.8522 31.7487 35.937C31.8384 36.0192 31.968 36.0603 32.1374 36.0603C32.2993 36.0603 32.4264 36.0204 32.5186 35.9407C32.6133 35.8585 32.6606 35.7538 32.6606 35.6268C32.6606 35.5271 32.6332 35.4461 32.5784 35.3838C32.5236 35.3215 32.4551 35.2742 32.3728 35.2418C32.2906 35.2094 32.1797 35.1745 32.0402 35.1372C31.8683 35.0923 31.73 35.0475 31.6254 35.0026C31.5232 34.9578 31.4348 34.888 31.36 34.7933C31.2878 34.6962 31.2516 34.5666 31.2516 34.4047C31.2516 34.2626 31.2878 34.1368 31.36 34.0272C31.4323 33.9176 31.5332 33.8328 31.6627 33.773C31.7948 33.7132 31.9455 33.6833 32.115 33.6833C32.3591 33.6833 32.5585 33.7444 32.7129 33.8665C32.8699 33.9886 32.9583 34.1505 32.9783 34.3523H32.6045C32.5921 34.2527 32.5398 34.1655 32.4476 34.0907C32.3554 34.0135 32.2333 33.9749 32.0813 33.9749C31.9393 33.9749 31.8234 34.0122 31.7337 34.087C31.6441 34.1592 31.5992 34.2614 31.5992 34.3934C31.5992 34.4881 31.6254 34.5654 31.6777 34.6252C31.7325 34.685 31.7985 34.731 31.8758 34.7634C31.9555 34.7933 32.0664 34.8282 32.2084 34.8681C32.3803 34.9154 32.5186 34.9628 32.6232 35.0101C32.7279 35.0549 32.8176 35.126 32.8923 35.2231C32.9671 35.3178 33.0044 35.4474 33.0044 35.6118C33.0044 35.7389 32.9708 35.8585 32.9035 35.9706C32.8363 36.0827 32.7366 36.1737 32.6045 36.2434C32.4725 36.3132 32.3168 36.3481 32.1374 36.3481ZM35.1082 33.717V33.9935H34.3981V36.3219H34.058V33.9935H33.3442V33.717H35.1082ZM35.867 33.717V36.3219H35.5269V33.717H35.867ZM38.4947 36.3219H38.1546L36.7867 34.2477V36.3219H36.4466V33.7132H36.7867L38.1546 35.7837V33.7132H38.4947V36.3219ZM41.0477 34.4719C40.9755 34.3199 40.8708 34.2028 40.7338 34.1206C40.5967 34.0359 40.4373 33.9935 40.2554 33.9935C40.0735 33.9935 39.9091 34.0359 39.7621 34.1206C39.6176 34.2028 39.503 34.3224 39.4182 34.4794C39.336 34.6339 39.2949 34.8133 39.2949 35.0176C39.2949 35.2219 39.336 35.4013 39.4182 35.5557C39.503 35.7102 39.6176 35.8298 39.7621 35.9145C39.9091 35.9968 40.0735 36.0379 40.2554 36.0379C40.5095 36.0379 40.7188 35.9619 40.8833 35.8099C41.0477 35.6579 41.1436 35.4523 41.171 35.1932H40.1321V34.9167H41.5336V35.1783C41.5136 35.3926 41.4464 35.5894 41.3317 35.7688C41.2171 35.9457 41.0664 36.0864 40.8795 36.1911C40.6927 36.2932 40.4846 36.3443 40.2554 36.3443C40.0137 36.3443 39.7932 36.2883 39.5939 36.1761C39.3946 36.0615 39.2364 35.9033 39.1193 35.7015C39.0046 35.4997 38.9473 35.2717 38.9473 35.0176C38.9473 34.7634 39.0046 34.5355 39.1193 34.3336C39.2364 34.1293 39.3946 33.9711 39.5939 33.859C39.7932 33.7444 40.0137 33.6871 40.2554 33.6871C40.532 33.6871 40.7761 33.7556 40.9879 33.8926C41.2022 34.0297 41.3579 34.2228 41.4551 34.4719H41.0477Z" fill="black"/>
<line y1="35.5624" x2="4.36364" y2="35.5624" stroke="black" stroke-width="0.329764"/>
<line x1="43.6365" y1="35.5624" x2="48.0001" y2="35.5624" stroke="black" stroke-width="0.329764"/>
</svg>
