<svg width="48" height="48" viewBox="0 0 48 48" fill="none" xmlns="http://www.w3.org/2000/svg">
<path d="M5.54142 26.3089C5.54142 26.0908 5.50722 25.8984 5.4388 25.7316C5.37467 25.5606 5.25922 25.4067 5.09246 25.2699C4.92998 25.133 4.70337 25.0026 4.41261 24.8786C4.12614 24.7546 3.76269 24.6285 3.32229 24.5002C2.8605 24.3634 2.44361 24.2116 2.07162 24.0448C1.69963 23.8738 1.38108 23.6793 1.11598 23.4612C0.850882 23.2431 0.647782 22.993 0.506681 22.7108C0.36558 22.4286 0.295029 22.1058 0.295029 21.7423C0.295029 21.3789 0.369856 21.0432 0.519508 20.7354C0.669161 20.4275 0.88295 20.1603 1.16088 19.9337C1.44308 19.7028 1.77873 19.5232 2.16782 19.3949C2.55692 19.2667 2.99091 19.2025 3.4698 19.2025C4.17103 19.2025 4.76537 19.3372 5.25281 19.6066C5.74452 19.8717 6.11865 20.2202 6.3752 20.652C6.63175 21.0796 6.76002 21.5371 6.76002 22.0245H5.52859C5.52859 21.6739 5.45377 21.3639 5.30412 21.0946C5.15446 20.8209 4.92785 20.6071 4.62426 20.4532C4.32068 20.295 3.93586 20.2159 3.4698 20.2159C3.0294 20.2159 2.66595 20.2822 2.37948 20.4147C2.093 20.5473 1.87921 20.7268 1.73811 20.9534C1.60128 21.1801 1.53287 21.4388 1.53287 21.7295C1.53287 21.9262 1.57349 22.1058 1.65473 22.2683C1.74025 22.4265 1.87066 22.574 2.04596 22.7108C2.22555 22.8476 2.45216 22.9738 2.72582 23.0892C3.00374 23.2047 3.33511 23.3158 3.71994 23.4227C4.25013 23.5724 4.70764 23.7391 5.09246 23.923C5.47728 24.1068 5.79369 24.3142 6.04169 24.5451C6.29396 24.7717 6.47996 25.0304 6.59968 25.3212C6.72368 25.6076 6.78568 25.9326 6.78568 26.296C6.78568 26.6766 6.70871 27.0208 6.55478 27.3287C6.40085 27.6365 6.18065 27.8995 5.89417 28.1175C5.6077 28.3356 5.2635 28.5045 4.86157 28.6242C4.46392 28.7397 4.01924 28.7974 3.52753 28.7974C3.09567 28.7974 2.67023 28.7375 2.2512 28.6178C1.83645 28.4981 1.45804 28.3185 1.11598 28.0791C0.778193 27.8396 0.506681 27.5446 0.301443 27.194C0.100481 26.8391 0 26.4286 0 25.9625H1.23143C1.23143 26.2832 1.29343 26.559 1.41742 26.7899C1.54142 27.0165 1.71032 27.2047 1.9241 27.3543C2.14217 27.504 2.38803 27.6151 2.66168 27.6878C2.9396 27.7562 3.22822 27.7904 3.52753 27.7904C3.95938 27.7904 4.32496 27.7306 4.62426 27.6109C4.92357 27.4911 5.15019 27.3201 5.30412 27.0978C5.46232 26.8754 5.54142 26.6125 5.54142 26.3089Z" fill="#3F51B5"/>
<path d="M14.3474 27.6622V28.6691H9.40246V27.6622H14.3474ZM9.65259 19.3308V28.6691H8.41475V19.3308H9.65259ZM13.6932 23.3458V24.3527H9.40246V23.3458H13.6932ZM14.2833 19.3308V20.3442H9.40246V19.3308H14.2833Z" fill="#3F51B5"/>
<path d="M23.1149 19.3308V28.6691H21.8707L17.1694 21.4665V28.6691H15.9316V19.3308H17.1694L21.8899 26.5526V19.3308H23.1149Z" fill="#3F51B5"/>
<path d="M30.3367 26.3089C30.3367 26.0908 30.3025 25.8984 30.2341 25.7316C30.17 25.5606 30.0545 25.4067 29.8878 25.2699C29.7253 25.133 29.4987 25.0026 29.2079 24.8786C28.9214 24.7546 28.558 24.6285 28.1176 24.5002C27.6558 24.3634 27.2389 24.2116 26.8669 24.0448C26.4949 23.8738 26.1764 23.6793 25.9113 23.4612C25.6462 23.2431 25.4431 22.993 25.302 22.7108C25.1609 22.4286 25.0903 22.1058 25.0903 21.7423C25.0903 21.3789 25.1652 21.0432 25.3148 20.7354C25.4645 20.4275 25.6782 20.1603 25.9562 19.9337C26.2384 19.7028 26.574 19.5232 26.9631 19.3949C27.3522 19.2667 27.7862 19.2025 28.2651 19.2025C28.9663 19.2025 29.5607 19.3372 30.0481 19.6066C30.5398 19.8717 30.9139 20.2202 31.1705 20.652C31.427 21.0796 31.5553 21.5371 31.5553 22.0245H30.3239C30.3239 21.6739 30.2491 21.3639 30.0994 21.0946C29.9498 20.8209 29.7231 20.6071 29.4196 20.4532C29.116 20.295 28.7312 20.2159 28.2651 20.2159C27.8247 20.2159 27.4612 20.2822 27.1748 20.4147C26.8883 20.5473 26.6745 20.7268 26.5334 20.9534C26.3966 21.1801 26.3282 21.4388 26.3282 21.7295C26.3282 21.9262 26.3688 22.1058 26.45 22.2683C26.5355 22.4265 26.666 22.574 26.8413 22.7108C27.0208 22.8476 27.2475 22.9738 27.5211 23.0892C27.799 23.2047 28.1304 23.3158 28.5152 23.4227C29.0454 23.5724 29.5029 23.7391 29.8878 23.923C30.2726 24.1068 30.589 24.3142 30.837 24.5451C31.0893 24.7717 31.2753 25.0304 31.395 25.3212C31.519 25.6076 31.581 25.9326 31.581 26.296C31.581 26.6766 31.504 27.0208 31.3501 27.3287C31.1962 27.6365 30.9759 27.8995 30.6895 28.1175C30.403 28.3356 30.0588 28.5045 29.6569 28.6242C29.2592 28.7397 28.8145 28.7974 28.3228 28.7974C27.891 28.7974 27.4655 28.7375 27.0465 28.6178C26.6317 28.4981 26.2533 28.3185 25.9113 28.0791C25.5735 27.8396 25.302 27.5446 25.0967 27.194C24.8958 26.8391 24.7953 26.4286 24.7953 25.9625H26.0267C26.0267 26.2832 26.0887 26.559 26.2127 26.7899C26.3367 27.0165 26.5056 27.2047 26.7194 27.3543C26.9375 27.504 27.1833 27.6151 27.457 27.6878C27.7349 27.7562 28.0235 27.7904 28.3228 27.7904C28.7547 27.7904 29.1203 27.7306 29.4196 27.6109C29.7189 27.4911 29.9455 27.3201 30.0994 27.0978C30.2576 26.8754 30.3367 26.6125 30.3367 26.3089Z" fill="#3F51B5"/>
<path d="M38.5526 19.3308H39.7841V25.6483C39.7841 26.3495 39.628 26.9331 39.3159 27.3992C39.0037 27.8653 38.589 28.2159 38.0716 28.451C37.5585 28.6819 37.0005 28.7974 36.3976 28.7974C35.7648 28.7974 35.1919 28.6819 34.6788 28.451C34.17 28.2159 33.7659 27.8653 33.4666 27.3992C33.1716 26.9331 33.0241 26.3495 33.0241 25.6483V19.3308H34.2491V25.6483C34.2491 26.1357 34.3389 26.5376 34.5184 26.854C34.698 27.1704 34.9482 27.4056 35.2688 27.5595C35.5938 27.7135 35.9701 27.7904 36.3976 27.7904C36.8295 27.7904 37.2058 27.7135 37.5265 27.5595C37.8514 27.4056 38.1037 27.1704 38.2833 26.854C38.4629 26.5376 38.5526 26.1357 38.5526 25.6483V19.3308Z" fill="#3F51B5"/>
<path d="M46.7557 26.3089C46.7557 26.0908 46.7215 25.8984 46.6531 25.7316C46.589 25.5606 46.4735 25.4067 46.3068 25.2699C46.1443 25.133 45.9177 25.0026 45.6269 24.8786C45.3405 24.7546 44.977 24.6285 44.5366 24.5002C44.0748 24.3634 43.6579 24.2116 43.2859 24.0448C42.9139 23.8738 42.5954 23.6793 42.3303 23.4612C42.0652 23.2431 41.8621 22.993 41.721 22.7108C41.5799 22.4286 41.5094 22.1058 41.5094 21.7423C41.5094 21.3789 41.5842 21.0432 41.7338 20.7354C41.8835 20.4275 42.0973 20.1603 42.3752 19.9337C42.6574 19.7028 42.9931 19.5232 43.3821 19.3949C43.7712 19.2667 44.2052 19.2025 44.6841 19.2025C45.3854 19.2025 45.9797 19.3372 46.4671 19.6066C46.9588 19.8717 47.333 20.2202 47.5895 20.652C47.8461 21.0796 47.9743 21.5371 47.9743 22.0245H46.7429C46.7429 21.6739 46.6681 21.3639 46.5184 21.0946C46.3688 20.8209 46.1422 20.6071 45.8386 20.4532C45.535 20.295 45.1502 20.2159 44.6841 20.2159C44.2437 20.2159 43.8803 20.2822 43.5938 20.4147C43.3073 20.5473 43.0935 20.7268 42.9524 20.9534C42.8156 21.1801 42.7472 21.4388 42.7472 21.7295C42.7472 21.9262 42.7878 22.1058 42.8691 22.2683C42.9546 22.4265 43.085 22.574 43.2603 22.7108C43.4399 22.8476 43.6665 22.9738 43.9401 23.0892C44.2181 23.2047 44.5494 23.3158 44.9343 23.4227C45.4645 23.5724 45.922 23.7391 46.3068 23.923C46.6916 24.1068 47.008 24.3142 47.256 24.5451C47.5083 24.7717 47.6943 25.0304 47.814 25.3212C47.938 25.6076 48 25.9326 48 26.296C48 26.6766 47.923 27.0208 47.7691 27.3287C47.6152 27.6365 47.395 27.8995 47.1085 28.1175C46.822 28.3356 46.4778 28.5045 46.0759 28.6242C45.6782 28.7397 45.2336 28.7974 44.7418 28.7974C44.31 28.7974 43.8846 28.7375 43.4655 28.6178C43.0508 28.4981 42.6724 28.3185 42.3303 28.0791C41.9925 27.8396 41.721 27.5446 41.5158 27.194C41.3148 26.8391 41.2143 26.4286 41.2143 25.9625H42.4457C42.4457 26.2832 42.5077 26.559 42.6317 26.7899C42.7557 27.0165 42.9246 27.2047 43.1384 27.3543C43.3565 27.504 43.6024 27.6151 43.876 27.6878C44.1539 27.7562 44.4425 27.7904 44.7418 27.7904C45.1737 27.7904 45.5393 27.7306 45.8386 27.6109C46.1379 27.4911 46.3645 27.3201 46.5184 27.0978C46.6766 26.8754 46.7557 26.6125 46.7557 26.3089Z" fill="#3F51B5"/>
</svg>
