<svg width="36" height="32" viewBox="0 0 36 32" fill="none" xmlns="http://www.w3.org/2000/svg">
<path fill-rule="evenodd" clip-rule="evenodd" d="M7.85453 1.58747L18 0.571533L28.1454 1.58747L35.9999 11.5747L18 31.4286L0 11.5747L7.85453 1.58747Z" fill="#FDB300"/>
<path d="M7.29081 11.5747L17.9999 31.4287L0 11.5747H7.29081ZM28.7092 11.5747L18.0001 31.4287L36 11.5747" fill="#EA6C00"/>
<path fill-rule="evenodd" clip-rule="evenodd" d="M7.29102 11.5747H28.7091L18.0001 31.4287" fill="#FDAD00"/>
<path d="M18.0001 0.571533L7.85465 1.5873L7.29102 11.5746L18.0001 0.571533ZM18.0003 0.571533L28.1457 1.5873L28.7093 11.5746" fill="#FDD231"/>
<path d="M36 11.5744L28.1456 1.58716L28.7092 11.5744H36ZM0 11.5744L7.85444 1.58716L7.29081 11.5744" fill="#FDAD00"/>
<path fill-rule="evenodd" clip-rule="evenodd" d="M18.0001 0.571533L7.29102 11.5746H28.7091" fill="#FEEEB7"/>
</svg>
