<svg width="32" height="32" viewBox="0 0 32 32" fill="none" xmlns="http://www.w3.org/2000/svg">
<path d="M28.9234 14.7689C30.6226 14.7689 32.0001 13.3915 32.0001 11.6923V11.6923C32.0001 9.9931 30.6225 8.61563 28.9233 8.61563V8.61563C27.2239 8.61563 25.8462 9.99322 25.8462 11.6926V14.7689H28.9234ZM20.3078 14.7689C22.0071 14.7689 23.3847 13.3914 23.3847 11.692V3.07717C23.3847 1.37783 22.0071 0.000244141 20.3078 0.000244141V0.000244141C18.6084 0.000244141 17.2308 1.37783 17.2308 3.07717V11.692C17.2308 13.3914 18.6084 14.7689 20.3078 14.7689V14.7689Z" fill="#2EB67D"/>
<path d="M3.07659 17.2311C1.3774 17.2311 -6.51066e-05 18.6085 -6.51066e-05 20.3077V20.3077C-6.51066e-05 22.0069 1.37753 23.3844 3.07673 23.3844V23.3844C4.77606 23.3844 6.15378 22.0068 6.15378 20.3074V17.2311H3.07659ZM11.6922 17.2311C9.9929 17.2311 8.61532 18.6086 8.61532 20.308V28.9228C8.61532 30.6222 9.9929 31.9998 11.6922 31.9998V31.9998C13.3916 31.9998 14.7692 30.6222 14.7692 28.9228V20.308C14.7692 18.6086 13.3916 17.2311 11.6922 17.2311V17.2311Z" fill="#E01E5A"/>
<path d="M17.2311 28.9233C17.2311 30.6225 18.6085 31.9999 20.3077 31.9999V31.9999C22.0069 31.9999 23.3844 30.6223 23.3844 28.9232V28.9232C23.3844 27.2238 22.0068 25.8461 20.3074 25.8461L17.2311 25.8461L17.2311 28.9233ZM17.2311 20.3076C17.2311 22.007 18.6086 23.3846 20.308 23.3846L28.9228 23.3846C30.6222 23.3846 31.9998 22.007 31.9998 20.3076V20.3076C31.9998 18.6083 30.6222 17.2307 28.9228 17.2307L20.308 17.2307C18.6086 17.2307 17.2311 18.6083 17.2311 20.3076V20.3076Z" fill="#ECB22E"/>
<path d="M14.7689 3.07672C14.7689 1.37753 13.3915 5.75491e-05 11.6923 5.74748e-05V5.74748e-05C9.9931 5.74005e-05 8.61563 1.37766 8.61563 3.07685V3.07685C8.61563 4.77619 9.99322 6.1539 11.6926 6.1539L14.7689 6.1539L14.7689 3.07672ZM14.7689 11.6924C14.7689 9.99303 13.3914 8.61544 11.692 8.61544L3.07717 8.61544C1.37783 8.61544 0.000244349 9.99303 0.000244275 11.6924V11.6924C0.000244201 13.3917 1.37783 14.7693 3.07717 14.7693L11.692 14.7693C13.3914 14.7693 14.7689 13.3917 14.7689 11.6924V11.6924Z" fill="#36C5F0"/>
</svg>
