<svg width="22" height="18" viewBox="0 0 22 18" fill="none" xmlns="http://www.w3.org/2000/svg">
<path d="M15.5181 0.574356H1.06705C0.752584 0.574356 0.5 0.827954 0.5 1.1414V3.51001C0.5 3.82244 0.752584 4.07706 1.06705 4.07706H5.53038C5.84382 4.07706 6.09742 4.33065 6.09742 4.6441V16.8046C6.09742 17.1181 6.35102 17.3717 6.66447 17.3717H10.4887V17.3595C9.97342 17.2865 9.57578 16.8422 9.57578 16.3046V4.99204C9.57578 4.48789 9.98458 4.07909 10.4887 4.07909V4.07604H15.5191C15.8326 4.07604 16.0862 3.82244 16.0862 3.509V1.1414C16.0851 0.827954 15.8305 0.574356 15.5181 0.574356Z" fill="url(#paint0_linear_1_4174)"/>
<path d="M11.9993 8.03521V10.3795C11.9993 10.6909 12.2498 10.9435 12.5612 10.9465L19.3171 11.0043C19.6295 11.0074 19.8862 10.7558 19.8882 10.4424L19.9085 8.09608C19.9115 7.78263 19.66 7.527 19.3465 7.52497L12.5704 7.46817C12.2559 7.46614 11.9993 7.71974 11.9993 8.03521Z" fill="url(#paint1_linear_1_4174)"/>
<path d="M11.9993 14.4513V16.7975C11.9993 17.109 12.2498 17.3615 12.5612 17.3646L20.9087 17.4356C21.2211 17.4386 21.4778 17.1871 21.4798 16.8736L21.5001 14.5283C21.5031 14.2149 21.2515 13.9593 20.9381 13.9572L12.5704 13.8852C12.2559 13.8822 11.9993 14.1368 11.9993 14.4513Z" fill="url(#paint2_linear_1_4174)"/>
<path d="M17.4841 1.14141V3.48771C17.4841 3.79912 17.7346 4.05171 18.046 4.05475L20.9097 4.08011C21.2231 4.08315 21.4788 3.83158 21.4808 3.51814L21.5001 1.17185C21.5031 0.859413 21.2515 0.602771 20.9381 0.600742L18.0562 0.574368C17.7407 0.572339 17.4841 0.826952 17.4841 1.14141Z" fill="url(#paint3_linear_1_4174)"/>
<defs>
<linearGradient id="paint0_linear_1_4174" x1="6.50064" y1="-1.14915" x2="13.81" y2="14.9688" gradientUnits="userSpaceOnUse">
<stop stop-color="#E6007A"/>
<stop offset="1" stop-color="#B300D6"/>
</linearGradient>
<linearGradient id="paint1_linear_1_4174" x1="4.55357" y1="-2.16447" x2="22.0835" y2="15.3654" gradientUnits="userSpaceOnUse">
<stop stop-color="#E6007A"/>
<stop offset="1" stop-color="#B300D6"/>
</linearGradient>
<linearGradient id="paint2_linear_1_4174" x1="1.73925" y1="0.649842" x2="19.2691" y2="18.1797" gradientUnits="userSpaceOnUse">
<stop stop-color="#E6007A"/>
<stop offset="1" stop-color="#B300D6"/>
</linearGradient>
<linearGradient id="paint3_linear_1_4174" x1="9.77709" y1="-7.388" x2="27.307" y2="10.1419" gradientUnits="userSpaceOnUse">
<stop stop-color="#E6007A"/>
<stop offset="1" stop-color="#B300D6"/>
</linearGradient>
</defs>
</svg>
