<svg width="48" height="48" viewBox="0 0 48 48" fill="none" xmlns="http://www.w3.org/2000/svg">
<path d="M34.3268 4.7301H1.2961C0.577331 4.7301 0 5.30975 0 6.0262V11.4401C0 12.1543 0.577331 12.7362 1.2961 12.7362H11.4979C12.2144 12.7362 12.794 13.3159 12.794 14.0323V41.8277C12.794 42.5441 13.3737 43.1238 14.0901 43.1238H22.8312V43.0959C21.6534 42.929 20.7445 41.9135 20.7445 40.6846V14.8276C20.7445 13.6753 21.6789 12.7409 22.8312 12.7409V12.7339H34.3292C35.0456 12.7339 35.6252 12.1543 35.6252 11.4378V6.0262C35.6229 5.30975 35.041 4.7301 34.3268 4.7301Z" fill="url(#paint0_linear_451_10938)"/>
<path d="M26.2837 21.7836V27.1418C26.2837 27.8536 26.8564 28.431 27.5682 28.4379L43.0101 28.5701C43.7242 28.577 44.3108 28.002 44.3154 27.2856L44.3618 21.9227C44.3688 21.2062 43.7937 20.6219 43.0773 20.6173L27.5891 20.4875C26.8703 20.4828 26.2837 21.0625 26.2837 21.7836Z" fill="url(#paint1_linear_451_10938)"/>
<path d="M26.2837 36.4486V41.8115C26.2837 42.5233 26.8564 43.1007 27.5682 43.1076L46.6479 43.2699C47.3621 43.2769 47.9487 42.7019 47.9533 41.9854L47.9997 36.6248C48.0066 35.9084 47.4316 35.3241 46.7152 35.3195L27.5891 35.1548C26.8703 35.1479 26.2837 35.7299 26.2837 36.4486Z" fill="url(#paint2_linear_451_10938)"/>
<path d="M38.8208 6.02623V11.3891C38.8208 12.101 39.3935 12.6783 40.1053 12.6852L46.6507 12.7432C47.3672 12.7502 47.9514 12.1751 47.9561 11.4587L48.0001 6.09578C48.0071 5.38166 47.4321 4.79505 46.7156 4.79041L40.1285 4.73013C39.4074 4.72549 38.8208 5.30746 38.8208 6.02623Z" fill="url(#paint3_linear_451_10938)"/>
<defs>
<linearGradient id="paint0_linear_451_10938" x1="13.7157" y1="0.79069" x2="30.4225" y2="37.6316" gradientUnits="userSpaceOnUse">
<stop stop-color="#E6007A"/>
<stop offset="1" stop-color="#B300D6"/>
</linearGradient>
<linearGradient id="paint1_linear_451_10938" x1="9.26507" y1="-1.52986" x2="49.3331" y2="38.5382" gradientUnits="userSpaceOnUse">
<stop stop-color="#E6007A"/>
<stop offset="1" stop-color="#B300D6"/>
</linearGradient>
<linearGradient id="paint2_linear_451_10938" x1="2.83238" y1="4.90276" x2="42.9004" y2="44.9708" gradientUnits="userSpaceOnUse">
<stop stop-color="#E6007A"/>
<stop offset="1" stop-color="#B300D6"/>
</linearGradient>
<linearGradient id="paint3_linear_451_10938" x1="21.205" y1="-13.4694" x2="61.273" y2="26.5986" gradientUnits="userSpaceOnUse">
<stop stop-color="#E6007A"/>
<stop offset="1" stop-color="#B300D6"/>
</linearGradient>
</defs>
</svg>
