<svg width="48" height="48" viewBox="0 0 48 48" fill="none" xmlns="http://www.w3.org/2000/svg">
<mask id="mask0_451_10915" style="mask-type:luminance" maskUnits="userSpaceOnUse" x="0" y="0" width="48" height="48">
<path d="M48 0.134033H0V47.866H48V0.134033Z" fill="white"/>
</mask>
<g mask="url(#mask0_451_10915)">
<path opacity="0.74" d="M32.2442 14.4358C32.3412 14.4104 32.4422 14.4046 32.5414 14.4185C32.6406 14.4325 32.7361 14.466 32.8224 14.5171C32.9088 14.5683 32.9843 14.6361 33.0446 14.7167C33.105 14.7972 33.149 14.889 33.1741 14.9867C33.2065 15.1133 33.2065 15.246 33.1741 15.3725L24.9632 47.2906C24.9381 47.3879 24.8941 47.4798 24.8337 47.5604C24.7734 47.641 24.6979 47.7089 24.6116 47.7601C24.5252 47.8113 24.4297 47.8448 24.3305 47.8588C24.2313 47.8728 24.1303 47.867 24.0333 47.8416C23.9017 47.8072 23.7816 47.7379 23.6855 47.641L0.22331 23.9989C0.0803256 23.8548 0 23.6593 0 23.4555C0 23.2517 0.0803256 23.0562 0.22331 22.9121C0.319527 22.8152 0.439713 22.746 0.571409 22.7117L32.2442 14.4358Z" fill="#12B3FD"/>
<path opacity="0.62" d="M36.4685 10.3717C36.5655 10.3463 36.6664 10.3405 36.7656 10.3544C36.8649 10.3684 36.9603 10.4019 37.0467 10.4531C37.1331 10.5043 37.2085 10.572 37.2689 10.6526C37.3292 10.7332 37.3733 10.8249 37.3984 10.9226C37.4307 11.0493 37.4307 11.1821 37.3984 11.3088L29.1875 43.2263C29.1624 43.324 29.1184 43.4158 29.058 43.4964C28.9977 43.577 28.9222 43.6448 28.8358 43.6961C28.7495 43.7472 28.654 43.7808 28.5548 43.7948C28.4555 43.8087 28.3546 43.8029 28.2576 43.7775C28.126 43.7431 28.0059 43.674 27.9098 43.5771L4.44758 19.9351C4.37674 19.8638 4.32054 19.7791 4.2822 19.6858C4.24386 19.5925 4.22412 19.4925 4.22412 19.3916C4.22412 19.2906 4.24386 19.1907 4.2822 19.0974C4.32054 19.0042 4.37674 18.9194 4.44758 18.848C4.54379 18.7511 4.66398 18.682 4.79568 18.6476L36.4685 10.3717Z" fill="#138FFC"/>
<path opacity="0.78" d="M41.6544 5.3396C41.7514 5.31424 41.8524 5.30835 41.9516 5.32235C42.0508 5.33634 42.1463 5.36989 42.2327 5.42105C42.319 5.47226 42.3945 5.54009 42.4549 5.62069C42.5152 5.70128 42.5592 5.79306 42.5843 5.89082C42.617 6.01733 42.617 6.15013 42.5843 6.27664L34.3734 38.1951C34.3482 38.2928 34.3042 38.3846 34.2439 38.4651C34.1835 38.5457 34.108 38.6135 34.0216 38.6646C33.9353 38.7158 33.8398 38.7493 33.7406 38.7633C33.6414 38.7773 33.5404 38.7714 33.4435 38.746C33.3118 38.7117 33.1916 38.6425 33.0954 38.5456L9.63469 14.9036C9.49172 14.7595 9.41138 14.564 9.41138 14.3603C9.41138 14.1565 9.49172 13.961 9.63469 13.8169C9.73089 13.7198 9.85108 13.6505 9.98277 13.6161L41.6544 5.3396Z" fill="#1063D9"/>
<path d="M47.1107 0.156951C47.201 0.133351 47.2949 0.127911 47.3875 0.140941C47.4796 0.153971 47.5686 0.185215 47.649 0.232891C47.7294 0.280566 47.8 0.343739 47.8561 0.418801C47.9123 0.493865 47.9532 0.579348 47.9765 0.670371C48.0066 0.788236 48.0066 0.911896 47.9765 1.02976L39.7212 33.1228C39.6978 33.2139 39.6568 33.2994 39.6006 33.3744C39.5444 33.4495 39.4741 33.5126 39.3937 33.5603C39.3132 33.608 39.2243 33.6392 39.1318 33.6523C39.0395 33.6653 38.9454 33.6599 38.8551 33.6362C38.7325 33.6043 38.6206 33.5398 38.5311 33.4496L14.9398 9.67613C14.8739 9.60966 14.8215 9.53074 14.7858 9.4439C14.7501 9.35705 14.7317 9.26396 14.7317 9.16992C14.7317 9.07592 14.7501 8.98283 14.7858 8.89598C14.8215 8.80914 14.8739 8.73022 14.9398 8.66375C15.0295 8.57337 15.1414 8.50885 15.2641 8.47684L47.1107 0.156951Z" fill="#2F55D4"/>
<path d="M33.1173 43.2072C32.2044 43.0328 31.3165 42.7455 30.4734 42.3519C29.61 41.9491 28.8373 41.4563 28.1771 40.8872C27.4815 40.2877 26.9388 39.6268 26.5638 38.9196C26.1605 38.1612 25.9604 37.3668 25.9689 36.5579C26.0245 31.1605 25.9689 20.4694 25.9689 20.3618H20.5425V18.0379L30.1659 8.13074H32.2081V15.3327H39.6972V20.3618H32.2081C32.2081 20.3655 32.2081 20.3904 32.2081 20.435C32.2118 22.0758 32.2234 27.752 32.2081 31.8827C32.2032 33.1171 32.4687 34.1353 32.9964 34.9085C33.0907 35.1412 33.4873 35.5591 33.8623 35.821C34.1809 36.0401 34.5257 36.2179 34.8886 36.3501L34.0648 39.4961L33.1161 43.206L33.1173 43.2072Z" fill="white"/>
</g>
</svg>
