<svg width="24" height="22" viewBox="0 0 24 22" fill="none" xmlns="http://www.w3.org/2000/svg">
<g clip-path="url(#clip0_1_4218)">
<path opacity="0.74" d="M15.9504 6.70101C15.9969 6.68959 16.0453 6.68695 16.0928 6.69324C16.1403 6.69952 16.1861 6.7146 16.2275 6.73762C16.2688 6.76065 16.305 6.79115 16.3339 6.82741C16.3629 6.86367 16.3839 6.90496 16.396 6.94893C16.4115 7.00587 16.4115 7.0656 16.396 7.12255L12.4616 21.4857C12.4495 21.5297 12.4285 21.571 12.3996 21.6072C12.3706 21.6435 12.3345 21.674 12.2931 21.6971C12.2517 21.7201 12.2059 21.7352 12.1584 21.7415C12.1109 21.7478 12.0625 21.7451 12.016 21.7337C11.9529 21.7182 11.8954 21.687 11.8494 21.6434L0.607003 11.0044C0.538489 10.9396 0.5 10.8516 0.5 10.7599C0.5 10.6682 0.538489 10.5803 0.607003 10.5154C0.653107 10.4718 0.710697 10.4406 0.7738 10.4252L15.9504 6.70101Z" fill="#12B3FD"/>
<path opacity="0.62" d="M17.9748 4.87218C18.0212 4.86077 18.0696 4.85813 18.1172 4.86441C18.1647 4.87069 18.2105 4.88577 18.2518 4.9088C18.2932 4.93182 18.3294 4.96233 18.3583 4.99858C18.3872 5.03484 18.4083 5.07613 18.4204 5.1201C18.4359 5.17709 18.4359 5.23687 18.4204 5.29386L14.4859 19.6568C14.4739 19.7008 14.4528 19.7421 14.4239 19.7784C14.395 19.8147 14.3588 19.8452 14.3175 19.8682C14.2761 19.8913 14.2303 19.9064 14.1828 19.9127C14.1352 19.9189 14.0868 19.9163 14.0404 19.9049C13.9773 19.8894 13.9198 19.8583 13.8737 19.8147L2.63137 9.17576C2.59742 9.14364 2.57049 9.10551 2.55212 9.06354C2.53375 9.02157 2.52429 8.97659 2.52429 8.93116C2.52429 8.88573 2.53375 8.84075 2.55212 8.79878C2.57049 8.75681 2.59742 8.71868 2.63137 8.68656C2.67747 8.64296 2.73506 8.61181 2.79816 8.59636L17.9748 4.87218Z" fill="#138FFC"/>
<path opacity="0.78" d="M20.4589 2.60774C20.5053 2.59632 20.5537 2.59369 20.6013 2.59998C20.6488 2.60627 20.6946 2.62137 20.736 2.6444C20.7773 2.66744 20.8135 2.69797 20.8424 2.73424C20.8713 2.77051 20.8924 2.81181 20.9044 2.85579C20.9201 2.91272 20.9201 2.97249 20.9044 3.02942L16.97 17.3928C16.958 17.4368 16.9369 17.4781 16.908 17.5143C16.879 17.5506 16.8429 17.5811 16.8015 17.6041C16.7601 17.6271 16.7144 17.6422 16.6668 17.6485C16.6193 17.6548 16.5709 17.6521 16.5244 17.6407C16.4613 17.6253 16.4038 17.5941 16.3577 17.5505L5.11603 6.91159C5.04752 6.84673 5.00903 6.75878 5.00903 6.66707C5.00903 6.57535 5.04752 6.4874 5.11603 6.42254C5.16212 6.37888 5.21971 6.34769 5.28283 6.33219L20.4589 2.60774Z" fill="#1063D9"/>
<path d="M23.0738 0.275572C23.1171 0.264952 23.1622 0.262504 23.2064 0.268367C23.2507 0.274231 23.2934 0.288291 23.3319 0.309745C23.3704 0.331199 23.4041 0.359627 23.4311 0.393405C23.458 0.427184 23.4776 0.465652 23.4888 0.506612C23.5033 0.559652 23.5033 0.6153 23.4888 0.668339L19.5331 15.1103C19.5219 15.1513 19.5022 15.1897 19.4753 15.2235C19.4484 15.2573 19.4147 15.2857 19.3761 15.3072C19.3376 15.3286 19.295 15.3427 19.2507 15.3486C19.2064 15.3544 19.1613 15.352 19.1181 15.3414C19.0593 15.327 19.0057 15.298 18.9628 15.2574L7.65863 4.55923C7.62701 4.52932 7.60193 4.49381 7.58482 4.45473C7.56771 4.41564 7.5589 4.37375 7.5589 4.33144C7.5589 4.28913 7.56771 4.24724 7.58482 4.20816C7.60193 4.16907 7.62701 4.13356 7.65863 4.10365C7.70157 4.06299 7.75522 4.03395 7.81402 4.01954L23.0738 0.275572Z" fill="#2F55D4"/>
<path d="M16.3684 19.6484C15.931 19.5699 15.5055 19.4407 15.1016 19.2635C14.6879 19.0823 14.3176 18.8605 14.0012 18.6045C13.6679 18.3347 13.4079 18.0372 13.2282 17.719C13.035 17.3777 12.9391 17.0202 12.9431 16.6562C12.9698 14.2274 12.9431 9.41637 12.9431 9.36795H10.343V8.32218L14.9542 3.86392H15.9328V7.10486H19.5213V9.36795H15.9328C15.9328 9.36961 15.9328 9.38081 15.9328 9.40087C15.9345 10.1392 15.9401 12.6935 15.9328 14.5524C15.9304 15.1079 16.0576 15.5661 16.3105 15.914C16.3557 16.0187 16.5457 16.2068 16.7254 16.3246C16.8781 16.4232 17.0433 16.5032 17.2172 16.5627L16.8225 17.9784L16.3678 19.6479L16.3684 19.6484Z" fill="white"/>
</g>
<defs>
<clipPath id="clip0_1_4218">
<rect width="23" height="21.4796" fill="white" transform="translate(0.5 0.265198)"/>
</clipPath>
</defs>
</svg>
