<svg width="48" height="48" viewBox="0 0 48 48" fill="none" xmlns="http://www.w3.org/2000/svg">
<path d="M37.1238 26.3121C34.9204 26.3121 32.8505 25.3822 30.9755 23.8597L31.4285 21.7118L31.4435 21.6263C31.8575 19.3448 33.1385 15.5095 37.1223 15.5095C40.1072 15.5095 42.5282 17.9319 42.5282 20.9153C42.5282 23.8912 40.1057 26.3136 37.1223 26.3136L37.1238 26.3121ZM37.1238 10.0391C32.0465 10.0391 28.1001 13.336 26.4997 18.7659C24.0622 15.1015 22.2023 10.6961 21.1253 6.98523H15.6565V21.2108C15.649 24.0232 13.3751 26.2971 10.5627 26.3046C7.75026 26.2971 5.47633 24.0157 5.46883 21.2108V6.98523H0V21.2108C0 27.0381 4.74135 31.8125 10.5627 31.8125C16.39 31.8125 21.1253 27.0396 21.1253 21.2108V18.8274C22.1873 21.0383 23.4923 23.2882 25.0777 25.2727L21.7268 41.0147H27.3201L29.7501 29.5925C31.8755 30.9515 34.3204 31.811 37.1253 31.811C43.1252 31.811 48 26.9046 48 20.9123C48 14.9125 43.1252 10.0376 37.1253 10.0376L37.1238 10.0391Z" fill="black"/>
</svg>
