<svg width="24" height="22" viewBox="0 0 24 22" fill="none" xmlns="http://www.w3.org/2000/svg">
<path d="M21.9678 4.34541C21.9678 4.34541 21.96 4.34151 21.9552 4.34249L21.2698 4.53524L20.4666 4.7611L18.8418 3.02919C18.8418 3.02919 18.8301 3.02335 18.8243 3.02724L17.3328 4.04166L15.3605 1.70811L14.2779 0.42694L14.1864 0.318878C14.1757 0.306222 14.1552 0.308169 14.1474 0.322772L14.017 0.568102L12.7241 2.99122L12.5878 3.24629L12.3026 3.06229L11.8635 2.77802C11.8587 2.7751 11.8519 2.77607 11.8489 2.78191L11.4936 3.41276L10.6719 4.87014L10.6651 4.8828L10.5658 4.8312L10.3799 4.73482L9.87754 4.47391C9.87754 4.47391 9.86683 4.47391 9.86391 4.47781L9.75195 4.65888L9.02765 5.83394C8.71612 5.7103 8.40361 5.58569 8.09208 5.46205C8.00544 5.42797 7.91977 5.3939 7.83313 5.35885C7.79516 5.34425 7.75719 5.32867 7.72019 5.31407C7.71727 5.3131 7.71338 5.31407 7.71046 5.31504C5.04591 7.27282 1.26082 10.5118 0.600769 12.342C1.25985 11.2955 3.45516 8.98526 6.75835 6.46479C6.86836 6.38106 6.97934 6.29734 7.09129 6.21264L6.87225 6.91261C6.87225 6.91261 6.86933 6.91261 6.86836 6.91261C6.8226 6.91261 6.78561 6.9496 6.78561 6.99536C6.78561 7.04112 6.8226 7.07811 6.86836 7.07811C6.91411 7.07811 6.95111 7.04112 6.95111 6.99536C6.95111 6.97881 6.94624 6.96226 6.93748 6.9496L7.54593 6.40053L7.61019 6.59913L7.74551 7.01483C7.72117 7.02943 7.70559 7.05572 7.70559 7.0859C7.70559 7.13165 7.74259 7.16865 7.78834 7.16865C7.8341 7.16865 7.87109 7.13165 7.87109 7.0859C7.87109 7.07227 7.86817 7.05961 7.86233 7.0489L8.95074 6.18441L9.09287 6.23308C9.08606 6.24477 9.08216 6.25937 9.08216 6.27397C9.08216 6.31973 9.11916 6.35672 9.16491 6.35672C9.21067 6.35672 9.24766 6.31973 9.24766 6.27397C9.24766 6.24185 9.22917 6.21361 9.20094 6.19998C9.34891 5.94881 9.49689 5.69764 9.64487 5.44647C9.65265 5.64702 9.66142 5.84757 9.6692 6.04811C9.63513 6.05882 9.61079 6.08998 9.61079 6.12697C9.61079 6.17273 9.64779 6.20972 9.69354 6.20972C9.7393 6.20972 9.77629 6.17273 9.77629 6.12697C9.77629 6.10653 9.7685 6.08803 9.75682 6.07343C9.84054 5.95465 9.93108 5.83296 10.0275 5.70932C10.0323 5.70348 10.0362 5.69764 10.0411 5.6918C10.1404 5.56622 10.2387 5.44744 10.3361 5.33646C10.4578 5.39779 10.5795 5.45913 10.7011 5.51949C10.6943 5.53019 10.6914 5.54382 10.6914 5.55745C10.6914 5.59931 10.7255 5.63241 10.7664 5.63241C10.8073 5.63241 10.8413 5.59834 10.8413 5.55745C10.8413 5.53019 10.8277 5.50683 10.8063 5.49417C10.853 5.40656 10.9436 5.23424 11.0497 5.03564C11.295 4.57711 11.6192 3.98033 11.6533 3.96281L11.5871 4.32788L11.4235 5.23521L11.4011 5.3608L11.1402 6.80649C11.1032 6.81526 11.075 6.84933 11.075 6.88924C11.075 6.93597 11.1129 6.97394 11.1607 6.97394C11.2084 6.97394 11.2463 6.93597 11.2463 6.88924C11.2463 6.86783 11.2385 6.84836 11.2249 6.83278L11.8558 5.5078L12.288 4.60047L12.4554 4.69296C12.4467 4.70464 12.4418 4.72022 12.4418 4.73579C12.4418 4.77765 12.4759 4.81075 12.5168 4.81075C12.5577 4.81075 12.5917 4.77668 12.5917 4.73579C12.5917 4.70853 12.5771 4.68517 12.5557 4.67154C12.6171 4.51772 12.7748 4.1176 12.875 3.8713C12.9237 3.75252 12.9578 3.66977 12.9617 3.66783L13.0386 3.71553L13.243 3.84306C13.2401 3.85085 13.2382 3.85961 13.2382 3.86838C13.2382 3.91024 13.2722 3.94334 13.3131 3.94334C13.354 3.94334 13.3881 3.90926 13.3881 3.86838C13.3881 3.8382 13.3706 3.81191 13.3443 3.80023L13.428 3.35143L13.4553 3.20345L13.5156 3.27063L15.6389 5.63534C15.634 5.64702 15.6311 5.66065 15.6311 5.67428C15.6311 5.72685 15.6739 5.76968 15.7265 5.76968C15.7791 5.76968 15.8219 5.72685 15.8219 5.67428C15.8219 5.62171 15.781 5.58082 15.7294 5.57887L15.048 4.26071L17.2783 5.93518C17.2734 5.94687 17.2705 5.95952 17.2705 5.97218C17.2705 6.02183 17.3114 6.06272 17.3611 6.06272C17.4107 6.06272 17.4516 6.02183 17.4516 5.97218C17.4516 5.92253 17.4107 5.88164 17.3611 5.88164C17.3542 5.88164 17.3474 5.88164 17.3406 5.88456L16.7643 4.62578L16.4382 3.91218L17.2189 4.72022C17.2004 4.73579 17.1887 4.75916 17.1887 4.78544C17.1887 4.83217 17.2267 4.87014 17.2744 4.87014C17.3221 4.87014 17.3591 4.83217 17.3591 4.78544C17.3591 4.76695 17.3533 4.7504 17.3435 4.73677L17.619 4.54985L18.6023 3.882L18.4281 5.06095C18.3852 5.06777 18.3521 5.10573 18.3521 5.15052C18.3521 5.20017 18.393 5.24106 18.4427 5.24106C18.4923 5.24106 18.5332 5.20017 18.5332 5.15052C18.5332 5.13494 18.5293 5.11936 18.5215 5.10671C18.7376 4.85456 18.9538 4.60242 19.1699 4.35027C19.7579 4.77571 20.3469 5.20114 20.9349 5.62755C20.932 5.63631 20.931 5.64507 20.931 5.65481C20.931 5.70446 20.9719 5.74534 21.0215 5.74534C21.0712 5.74534 21.1121 5.70446 21.1121 5.65481C21.1121 5.60516 21.0712 5.56427 21.0215 5.56427C21.0147 5.56427 21.0089 5.56427 21.003 5.56622V5.56329L20.8356 5.30044L21.0605 5.3754L22.3134 5.79402C22.3124 5.80084 22.3115 5.80668 22.3115 5.81447C22.3115 5.86412 22.3524 5.905 22.402 5.905C22.4517 5.905 22.4925 5.86412 22.4925 5.81447C22.4925 5.76482 22.4536 5.7249 22.4049 5.72393L22.292 5.24008L23.2198 5.98483L23.1049 6.28079C23.1721 6.28273 23.2373 6.28468 23.3045 6.2876C23.3726 6.10068 23.4378 5.91474 23.5001 5.72977L21.9678 4.34833V4.34541ZM13.6889 2.46844L14.1251 1.49977L14.1572 3.12557L13.6889 2.46844Z" fill="black" stroke="black" stroke-width="0.00681471" stroke-miterlimit="10"/>
<path d="M23.305 6.28571C22.9001 7.39943 22.4396 8.42456 21.9518 9.36304C21.8701 9.3572 21.7873 9.35233 21.7036 9.34746C21.3814 9.32799 21.0513 9.31242 20.7145 9.30171C20.3144 9.28808 19.9045 9.28126 19.4859 9.27932C18.2515 9.27445 16.9391 9.32118 15.5733 9.42145C14.3671 9.51004 13.119 9.64147 11.8437 9.81671C11.5292 9.85954 11.2177 9.9053 10.9081 9.953C10.5908 10.0017 10.2753 10.0523 9.96283 10.1058C9.1733 10.2402 8.40226 10.3872 7.65459 10.5459C7.46767 10.5858 7.28173 10.6257 7.09773 10.6676C5.40184 11.0463 3.82862 11.4844 2.42187 11.9624C1.7404 12.1941 1.09787 12.4345 0.500122 12.6828C1.19133 12.2048 1.99644 11.7248 2.89792 11.2536C4.23361 10.5556 5.78055 9.87804 7.48228 9.25401C7.77044 9.14789 8.06347 9.04372 8.36137 8.9415C8.82769 8.78087 9.30375 8.62413 9.79051 8.47226C10.1069 8.37393 10.4272 8.27658 10.7504 8.18215C11.1291 8.07214 11.5127 7.96408 11.9011 7.85991C12.5845 7.67688 13.2611 7.50944 13.927 7.35854C15.5957 6.97983 17.203 6.7014 18.7012 6.52033C18.9972 6.48431 19.2883 6.45315 19.5755 6.42492C19.9795 6.38598 20.3747 6.35385 20.7593 6.32952C21.5819 6.27792 22.3851 6.26039 23.1055 6.27792C23.1727 6.27987 23.2379 6.28181 23.305 6.28473V6.28571Z" fill="#52BFDE" stroke="black" stroke-width="0.00681471" stroke-miterlimit="10"/>
<path d="M14.2752 20.0319C13.7038 20.6238 13.1313 21.1807 12.5638 21.6996C12.1471 21.133 11.7372 20.5216 11.3391 19.8713C11.3089 19.8216 11.2787 19.7729 11.2485 19.7223C10.8932 19.1343 10.5486 18.5151 10.2185 17.8687C10.1251 17.6857 10.0326 17.5007 9.94205 17.3138C8.93348 15.2412 8.21988 13.1977 7.81879 11.3782C8.57035 11.2516 9.34528 11.1406 10.1397 11.0462C10.4911 12.6798 11.0957 14.438 11.9524 16.1981C12.149 16.6031 12.3545 16.9974 12.5667 17.381C12.7205 17.6594 12.8782 17.931 13.0398 18.1968C13.292 18.6125 13.5519 19.0126 13.8177 19.3952C13.9686 19.6123 14.1214 19.8236 14.2762 20.03L14.2752 20.0319Z" fill="black"/>
<path d="M21.1263 10.898C20.9151 11.2699 20.6941 11.6457 20.4633 12.0224C19.8919 12.958 19.262 13.9082 18.5766 14.8603C18.3342 15.1981 18.084 15.5349 17.828 15.8727C17.7784 15.938 17.7287 16.0042 17.6781 16.0694C16.8223 17.1851 15.9423 18.2316 15.0573 19.1974C14.9775 19.284 14.8987 19.3706 14.8188 19.4553C14.7731 19.3901 14.7283 19.3249 14.6835 19.2597C14.3184 18.7252 13.966 18.1586 13.6301 17.5628C13.8034 17.3739 13.9757 17.1812 14.1481 16.9865C14.3778 16.7256 14.6066 16.4608 14.8334 16.1901C15.8284 15.0053 16.726 13.805 17.5165 12.6182C17.753 12.2639 17.9799 11.9105 18.197 11.559C18.0636 11.5357 17.9302 11.5123 17.7959 11.4899C17.4639 11.4344 17.1349 11.3828 16.8068 11.3361C14.9493 11.0674 13.1551 10.9262 11.4806 10.9038C12.6965 10.7929 13.9524 10.7228 15.2374 10.6955C15.6317 10.6877 16.0231 10.6829 16.4115 10.6838C17.1835 10.6838 17.9448 10.7004 18.6925 10.7325C19.5219 10.7685 20.3348 10.823 21.1263 10.8961V10.898Z" fill="#52BFDE"/>
</svg>
