<svg width="48" height="48" viewBox="0 0 48 48" fill="none" xmlns="http://www.w3.org/2000/svg">
<path d="M23.9654 21.8755V0L5.00659 32.631L23.9654 21.8755Z" fill="#7D1597"/>
<path d="M23.9654 21.8755V0L5.00659 32.631L23.9654 21.8755Z" fill="#7D1597"/>
<path d="M23.9654 21.8757L42.9242 32.6312H5.00659L23.9654 21.8757Z" fill="#D91919"/>
<path d="M23.9653 21.8755L23.9653 -4.66406e-05L42.9241 32.631L23.9653 21.8755Z" fill="#1235AE"/>
<path d="M8.05347 35.6863H9.28375L10.0623 37.945L10.8504 35.6863H12.0711L10.8985 38.7909L11.7635 40.9631L13.6955 35.6671H15.1372L12.4075 42.4913H11.2637L10.0623 39.6271L8.87046 42.4913H7.72668L5.00659 35.6671H6.42911L8.37065 40.9631L9.21647 38.7909L8.05347 35.6863Z" fill="black"/>
<path d="M17.3712 42.5874C16.9675 42.5874 16.6022 42.5202 16.2754 42.3856C15.9486 42.2446 15.6699 42.0556 15.4392 41.8185C15.2086 41.575 15.0291 41.2995 14.901 40.9919C14.7792 40.6779 14.7184 40.3479 14.7184 40.0019C14.7184 39.5213 14.8241 39.0824 15.0355 38.6851C15.2534 38.2878 15.561 37.9707 15.9583 37.7336C16.3619 37.4901 16.8361 37.3683 17.3808 37.3683C17.9318 37.3683 18.4028 37.4901 18.7937 37.7336C19.1846 37.9707 19.4825 38.2878 19.6876 38.6851C19.899 39.076 20.0047 39.4989 20.0047 39.9539C20.0047 40.0308 20.0015 40.1108 19.9951 40.1941C19.9887 40.271 19.9823 40.3351 19.9759 40.3864H16.0832C16.1088 40.6427 16.1825 40.867 16.3043 41.0592C16.4324 41.2514 16.5926 41.3988 16.7849 41.5013C16.9835 41.5974 17.195 41.6455 17.4192 41.6455C17.6755 41.6455 17.9158 41.5846 18.1401 41.4629C18.3708 41.3347 18.5278 41.1681 18.6111 40.9631L19.7164 41.2706C19.5947 41.527 19.4184 41.7544 19.1878 41.9531C18.9635 42.1517 18.6976 42.3087 18.39 42.424C18.0824 42.533 17.7428 42.5874 17.3712 42.5874ZM16.0544 39.5694H18.688C18.6623 39.3131 18.5886 39.092 18.4669 38.9062C18.3515 38.714 18.1978 38.5666 18.0055 38.4641C17.8133 38.3551 17.5986 38.3007 17.3616 38.3007C17.1309 38.3007 16.9194 38.3551 16.7272 38.4641C16.5414 38.5666 16.3876 38.714 16.2658 38.9062C16.1505 39.092 16.08 39.3131 16.0544 39.5694Z" fill="black"/>
<path d="M26.1911 40.7324C26.1911 41.072 26.1046 41.3764 25.9316 41.6455C25.7586 41.9082 25.5247 42.1165 25.2299 42.2703C24.9416 42.4176 24.6244 42.4913 24.2784 42.4913H21.0585V35.6671H24.3457C24.666 35.6671 24.9416 35.7536 25.1723 35.9266C25.4093 36.0932 25.5888 36.3111 25.7105 36.5802C25.8387 36.8429 25.9027 37.1184 25.9027 37.4068C25.9027 37.7464 25.8162 38.0604 25.6432 38.3487C25.4702 38.6371 25.2299 38.8517 24.9224 38.9927C25.3132 39.108 25.6208 39.3227 25.8451 39.6367C26.0757 39.9507 26.1911 40.3159 26.1911 40.7324ZM25.5183 40.6171C25.5183 40.3864 25.467 40.1749 25.3645 39.9827C25.262 39.7841 25.121 39.6239 24.9416 39.5021C24.7686 39.3804 24.5699 39.3195 24.3457 39.3195H21.7313V41.905H24.2784C24.5091 41.905 24.7173 41.8441 24.9031 41.7224C25.089 41.6006 25.2363 41.4437 25.3453 41.2514C25.4606 41.0528 25.5183 40.8413 25.5183 40.6171ZM21.7313 36.2534V38.7716H24.0765C24.3008 38.7716 24.4994 38.714 24.6725 38.5986C24.8455 38.4769 24.9832 38.3199 25.0858 38.1277C25.1883 37.9354 25.2395 37.7304 25.2395 37.5125C25.2395 37.2818 25.1915 37.0736 25.0954 36.8878C24.9992 36.6955 24.8679 36.5417 24.7013 36.4264C24.5347 36.3111 24.3457 36.2534 24.1342 36.2534H21.7313Z" fill="black"/>
<path d="M27.2773 40.4248V37.4837H27.9309V40.3095C27.9309 40.8798 28.0271 41.3059 28.2193 41.5878C28.4179 41.8698 28.7095 42.0107 29.0939 42.0107C29.3503 42.0107 29.5969 41.9563 29.834 41.8473C30.0775 41.732 30.2922 41.5718 30.478 41.3668C30.6638 41.1553 30.8048 40.9118 30.9009 40.6363V37.4837H31.5545V41.7032C31.5545 41.7929 31.5737 41.8602 31.6122 41.905C31.6506 41.9435 31.7083 41.9659 31.7852 41.9723V42.4913C31.7083 42.4977 31.6474 42.5009 31.6026 42.5009C31.5577 42.5073 31.5161 42.5105 31.4776 42.5105C31.3495 42.4977 31.2373 42.4465 31.1412 42.3568C31.0515 42.2671 31.0034 42.1581 30.997 42.03L30.9778 41.3572C30.76 41.7416 30.462 42.0428 30.0839 42.2606C29.7123 42.4785 29.3086 42.5874 28.8729 42.5874C28.3474 42.5874 27.9502 42.4048 27.681 42.0396C27.4119 41.6743 27.2773 41.1361 27.2773 40.4248Z" fill="black"/>
<path d="M33.0323 42.4913V37.4837H33.6859V42.4913H33.0323ZM33.0323 36.436V35.4749H33.6859V36.436H33.0323Z" fill="black"/>
<path d="M35.1543 35.4749H35.8079V41.3572C35.8079 41.6071 35.8527 41.7705 35.9424 41.8473C36.0321 41.9242 36.1411 41.9627 36.2692 41.9627C36.3846 41.9627 36.4999 41.9499 36.6152 41.9242C36.7306 41.8986 36.8299 41.873 36.9132 41.8473L37.0285 42.376C36.9068 42.4272 36.7562 42.4689 36.5768 42.5009C36.4038 42.533 36.2532 42.549 36.1251 42.549C35.8303 42.549 35.5932 42.4625 35.4138 42.2895C35.2408 42.1165 35.1543 41.8794 35.1543 41.5782V35.4749Z" fill="black"/>
<path d="M37.4078 40.0019C37.4078 39.5277 37.5039 39.0952 37.6962 38.7044C37.8948 38.3071 38.1671 37.9899 38.5132 37.7528C38.8592 37.5157 39.2533 37.3972 39.6954 37.3972C40.1119 37.3972 40.4835 37.5093 40.8103 37.7336C41.1435 37.9514 41.403 38.2174 41.5889 38.5313V35.4749H42.2425V41.7032C42.2425 41.7929 42.2617 41.8602 42.3001 41.905C42.3386 41.9435 42.3962 41.9659 42.4731 41.9723V42.4913C42.345 42.5105 42.2457 42.517 42.1752 42.5105C42.0406 42.5041 41.9221 42.4497 41.8196 42.3471C41.717 42.2446 41.6658 42.1325 41.6658 42.0107V41.5206C41.4671 41.8473 41.198 42.1069 40.8584 42.2991C40.5188 42.4913 40.1664 42.5874 39.8011 42.5874C39.4551 42.5874 39.1347 42.517 38.84 42.376C38.5516 42.235 38.2985 42.0428 38.0806 41.7993C37.8692 41.5558 37.7026 41.2803 37.5808 40.9727C37.4655 40.6587 37.4078 40.3351 37.4078 40.0019ZM41.5889 40.7708V39.2234C41.5056 38.9927 41.371 38.7844 41.1852 38.5986C40.9994 38.4064 40.7879 38.2558 40.5508 38.1469C40.3201 38.0315 40.0895 37.9739 39.8588 37.9739C39.5897 37.9739 39.3462 38.0315 39.1283 38.1469C38.9104 38.2558 38.7214 38.4064 38.5612 38.5986C38.4074 38.7909 38.2889 39.0087 38.2056 39.2522C38.1223 39.4957 38.0806 39.7456 38.0806 40.0019C38.0806 40.271 38.1255 40.5274 38.2152 40.7708C38.3113 41.0143 38.4459 41.2322 38.6189 41.4244C38.7919 41.6103 38.9905 41.7544 39.2148 41.857C39.4391 41.9595 39.6826 42.0107 39.9453 42.0107C40.1119 42.0107 40.2849 41.9787 40.4643 41.9146C40.6437 41.8505 40.8135 41.764 40.9737 41.6551C41.1403 41.5398 41.2781 41.4052 41.387 41.2514C41.496 41.0976 41.5632 40.9374 41.5889 40.7708Z" fill="black"/>
<path d="M20.8453 47.2537C20.8453 47.1013 20.8889 46.9707 20.976 46.8619C21.063 46.7499 21.1827 46.6644 21.3351 46.6053C21.4906 46.5431 21.6694 46.512 21.8715 46.512C21.9897 46.512 22.1125 46.5214 22.24 46.54C22.3675 46.5587 22.481 46.5867 22.5805 46.624V46.4187C22.5805 46.2135 22.5199 46.0503 22.3986 45.929C22.2773 45.8077 22.1094 45.7471 21.8948 45.7471C21.7642 45.7471 21.6352 45.7719 21.5077 45.8217C21.3833 45.8683 21.2527 45.9383 21.1159 46.0316L20.9946 45.8077C21.1532 45.6989 21.3087 45.618 21.4611 45.5652C21.6134 45.5092 21.7689 45.4812 21.9275 45.4812C22.226 45.4812 22.4624 45.5667 22.6365 45.7377C22.8106 45.9088 22.8977 46.1451 22.8977 46.4467V47.5709C22.8977 47.6144 22.907 47.6471 22.9257 47.6688C22.9444 47.6875 22.9739 47.6984 23.0143 47.7015V47.9534C22.9801 47.9565 22.9506 47.9596 22.9257 47.9627C22.9008 47.9658 22.8822 47.9658 22.8697 47.9627C22.792 47.9596 22.7329 47.9347 22.6925 47.888C22.652 47.8414 22.6303 47.7917 22.6272 47.7388L22.6225 47.5615C22.5137 47.7015 22.3722 47.8103 22.198 47.888C22.0239 47.9627 21.8467 48 21.6663 48C21.5108 48 21.3693 47.9673 21.2418 47.902C21.1174 47.8336 21.0195 47.7435 20.948 47.6315C20.8796 47.5164 20.8453 47.3905 20.8453 47.2537ZM22.4732 47.4403C22.5074 47.3967 22.5339 47.3547 22.5525 47.3143C22.5712 47.2739 22.5805 47.2381 22.5805 47.207V46.8525C22.4748 46.8121 22.3644 46.781 22.2493 46.7593C22.1374 46.7375 22.0239 46.7266 21.9088 46.7266C21.6818 46.7266 21.4984 46.7717 21.3584 46.8619C21.2185 46.952 21.1485 47.0749 21.1485 47.2304C21.1485 47.3205 21.1719 47.4061 21.2185 47.4869C21.2651 47.5646 21.3336 47.63 21.4237 47.6828C21.5139 47.7326 21.6196 47.7574 21.7409 47.7574C21.8933 47.7574 22.0348 47.7279 22.1654 47.6688C22.2991 47.6097 22.4017 47.5336 22.4732 47.4403Z" fill="black"/>
<path d="M23.4804 45.5232H23.8069L24.1987 47.6595C24.3231 47.5133 24.4382 47.3625 24.5439 47.207C24.6527 47.0484 24.7507 46.8914 24.8378 46.7359L24.5579 45.5232H24.8844L25.0617 46.3301C25.127 46.1933 25.186 46.058 25.2389 45.9243C25.2918 45.7875 25.3369 45.6538 25.3742 45.5232H25.6774C25.6214 45.7222 25.5483 45.9228 25.4581 46.1249C25.3711 46.327 25.27 46.5291 25.1549 46.7313L25.3555 47.6595C25.4643 47.5227 25.567 47.3827 25.6634 47.2397C25.7598 47.0966 25.8484 46.9536 25.9292 46.8106C26.0132 46.6644 26.0894 46.5198 26.1578 46.3768C26.2293 46.2306 26.2915 46.086 26.3444 45.943C26.4003 45.7999 26.447 45.66 26.4843 45.5232H26.7922C26.674 45.9274 26.5014 46.3332 26.2744 46.7406C26.0505 47.148 25.7769 47.5522 25.4535 47.9534H25.113L24.9264 47.0951C24.8362 47.2412 24.7382 47.3858 24.6325 47.5289C24.5299 47.6719 24.418 47.8134 24.2967 47.9534H23.9562L23.4804 45.5232Z" fill="black"/>
<path d="M27.7019 48C27.5247 48 27.3708 47.9534 27.2402 47.8601C27.1096 47.7668 27.0101 47.6424 26.9416 47.4869C26.8732 47.3314 26.839 47.1635 26.839 46.9831C26.839 46.7903 26.8748 46.6053 26.9463 46.4281C27.0209 46.2477 27.1204 46.0876 27.2448 45.9476C27.3723 45.8046 27.5169 45.6911 27.6786 45.6071C27.8403 45.5232 28.0098 45.4812 28.1871 45.4812C28.383 45.4812 28.5447 45.5356 28.6722 45.6444C28.7997 45.7502 28.8898 45.8792 28.9427 46.0316L29.0546 45.5232H29.3718L28.9427 47.5382C28.9396 47.5475 28.9365 47.5584 28.9334 47.5709C28.9334 47.5802 28.9334 47.5895 28.9334 47.5989C28.9334 47.6486 28.9629 47.6735 29.022 47.6735L28.9614 47.9534C28.9365 47.9565 28.9132 47.9596 28.8914 47.9627C28.8727 47.9658 28.8541 47.9673 28.8354 47.9673C28.7639 47.9642 28.7095 47.9456 28.6722 47.9114C28.638 47.8741 28.6208 47.8305 28.6208 47.7808C28.6208 47.7621 28.6224 47.7419 28.6255 47.7201C28.6286 47.6984 28.6333 47.6688 28.6395 47.6315C28.6488 47.5942 28.6597 47.5444 28.6722 47.4822C28.5478 47.6408 28.397 47.7668 28.2197 47.8601C28.0456 47.9534 27.873 48 27.7019 48ZM27.8326 47.7201C27.9103 47.7201 27.9927 47.7046 28.0798 47.6735C28.1699 47.6424 28.257 47.6004 28.341 47.5475C28.4249 47.4916 28.4996 47.4263 28.5649 47.3516C28.6333 47.277 28.683 47.1993 28.7141 47.1184L28.8681 46.3674C28.8556 46.2555 28.8183 46.1544 28.7561 46.0642C28.6939 45.9741 28.6162 45.901 28.5229 45.845C28.4296 45.789 28.327 45.7611 28.215 45.7611C28.0751 45.7611 27.9429 45.7953 27.8186 45.8637C27.6942 45.9321 27.5822 46.0238 27.4827 46.1389C27.3863 46.2539 27.3101 46.3814 27.2542 46.5214C27.1982 46.6582 27.1702 46.7966 27.1702 46.9365C27.1702 47.0795 27.1982 47.2101 27.2542 47.3283C27.3101 47.4465 27.3863 47.5413 27.4827 47.6128C27.5822 47.6844 27.6988 47.7201 27.8326 47.7201Z" fill="black"/>
<path d="M30.0652 45.5232H30.3637L30.2378 46.1062C30.3591 45.9321 30.4975 45.7922 30.6529 45.6864C30.8084 45.5807 30.9639 45.5247 31.1194 45.5185C31.1443 45.5185 31.166 45.5201 31.1847 45.5232C31.2033 45.5232 31.2189 45.5247 31.2313 45.5278L31.1707 45.803C30.9717 45.8093 30.7835 45.8683 30.6063 45.9803C30.429 46.0922 30.2891 46.2462 30.1865 46.4421L29.8693 47.9534H29.5521L30.0652 45.5232Z" fill="black"/>
<path d="M32.1088 48C31.9098 48 31.7403 47.9549 31.6004 47.8647C31.4605 47.7714 31.3532 47.6471 31.2786 47.4916C31.2039 47.3361 31.1651 47.1619 31.162 46.9692C31.162 46.7764 31.1962 46.5913 31.2646 46.4141C31.3361 46.2368 31.4356 46.0782 31.5631 45.9383C31.6937 45.7984 31.8461 45.688 32.0202 45.6071C32.1944 45.5232 32.384 45.4812 32.5893 45.4812C32.7416 45.4812 32.8785 45.5061 32.9997 45.5558C33.121 45.6056 33.2159 45.6787 33.2843 45.7751C33.3558 45.8715 33.3916 45.9927 33.3916 46.1389C33.3947 46.3845 33.2889 46.5665 33.0744 46.6846C32.8629 46.7997 32.538 46.8572 32.0995 46.8572C32.0031 46.8572 31.8958 46.8557 31.7777 46.8525C31.6626 46.8463 31.5304 46.837 31.3812 46.8246L31.4278 46.6007C31.5771 46.61 31.7046 46.6178 31.8103 46.624C31.9191 46.6271 32.0202 46.6286 32.1135 46.6286C32.3623 46.6286 32.5582 46.61 32.7012 46.5727C32.8443 46.5322 32.9469 46.4747 33.0091 46.4001C33.0744 46.3255 33.1055 46.2384 33.1024 46.1389C33.1024 46.0425 33.0775 45.9647 33.0277 45.9057C32.978 45.8435 32.9127 45.7984 32.8318 45.7704C32.7541 45.7424 32.6655 45.7284 32.566 45.7284C32.4043 45.7284 32.2565 45.7642 32.1228 45.8357C31.9922 45.9041 31.8787 45.9974 31.7823 46.1156C31.6859 46.2306 31.6113 46.3612 31.5584 46.5074C31.5087 46.6535 31.4838 46.8028 31.4838 46.9552C31.4869 47.1013 31.5133 47.235 31.5631 47.3563C31.6128 47.4776 31.6875 47.5755 31.787 47.6502C31.8896 47.7217 32.0155 47.7574 32.1648 47.7574C32.3265 47.7574 32.4773 47.717 32.6173 47.6362C32.7603 47.5553 32.8723 47.4449 32.9531 47.305L33.2143 47.3843C33.1428 47.5056 33.0495 47.6128 32.9344 47.7061C32.8194 47.7963 32.6919 47.8678 32.552 47.9207C32.412 47.9736 32.2643 48 32.1088 48Z" fill="black"/>
<path d="M34.092 45.5232H34.3858L34.2645 46.0736C34.3516 45.9554 34.4542 45.8528 34.5724 45.7657C34.6937 45.6755 34.8227 45.6056 34.9595 45.5558C35.0964 45.5061 35.2316 45.4812 35.3654 45.4812C35.4929 45.4812 35.5939 45.5045 35.6685 45.5512C35.7463 45.5978 35.8023 45.6647 35.8365 45.7517C35.8738 45.8357 35.8924 45.9383 35.8924 46.0596C35.8924 46.1311 35.8862 46.2057 35.8738 46.2835C35.8645 46.3612 35.8505 46.4436 35.8318 46.5307L35.5333 47.9534H35.2161L35.5053 46.596C35.5208 46.5183 35.5317 46.4467 35.5379 46.3814C35.5473 46.3161 35.5519 46.2555 35.5519 46.1995C35.5519 46.0534 35.5208 45.9461 35.4586 45.8777C35.3996 45.8061 35.3094 45.7704 35.1881 45.7704C35.073 45.7704 34.9518 45.8015 34.8243 45.8637C34.6999 45.9228 34.5833 46.0052 34.4744 46.1109C34.3656 46.2135 34.277 46.3317 34.2086 46.4654L33.8961 47.9534H33.5789L34.092 45.5232Z" fill="black"/>
<path d="M37.2106 48C37.0116 48 36.8421 47.9549 36.7022 47.8647C36.5622 47.7714 36.4549 47.6471 36.3803 47.4916C36.3057 47.3361 36.2668 47.1619 36.2637 46.9692C36.2637 46.7764 36.2979 46.5913 36.3663 46.4141C36.4378 46.2368 36.5373 46.0782 36.6648 45.9383C36.7954 45.7984 36.9478 45.688 37.122 45.6071C37.2961 45.5232 37.4858 45.4812 37.691 45.4812C37.8434 45.4812 37.9802 45.5061 38.1015 45.5558C38.2228 45.6056 38.3176 45.6787 38.386 45.7751C38.4575 45.8715 38.4933 45.9927 38.4933 46.1389C38.4964 46.3845 38.3907 46.5665 38.1761 46.6846C37.9647 46.7997 37.6397 46.8572 37.2013 46.8572C37.1049 46.8572 36.9976 46.8557 36.8794 46.8525C36.7644 46.8463 36.6322 46.837 36.4829 46.8246L36.5296 46.6007C36.6788 46.61 36.8063 46.6178 36.9121 46.624C37.0209 46.6271 37.122 46.6286 37.2152 46.6286C37.464 46.6286 37.6599 46.61 37.803 46.5727C37.946 46.5322 38.0486 46.4747 38.1108 46.4001C38.1761 46.3255 38.2072 46.2384 38.2041 46.1389C38.2041 46.0425 38.1792 45.9647 38.1295 45.9057C38.0797 45.8435 38.0144 45.7984 37.9336 45.7704C37.8558 45.7424 37.7672 45.7284 37.6677 45.7284C37.506 45.7284 37.3583 45.7642 37.2246 45.8357C37.094 45.9041 36.9805 45.9974 36.8841 46.1156C36.7877 46.2306 36.713 46.3612 36.6602 46.5074C36.6104 46.6535 36.5855 46.8028 36.5855 46.9552C36.5887 47.1013 36.6151 47.235 36.6648 47.3563C36.7146 47.4776 36.7892 47.5755 36.8887 47.6502C36.9914 47.7217 37.1173 47.7574 37.2666 47.7574C37.4283 47.7574 37.5791 47.717 37.719 47.6362C37.8621 47.5553 37.974 47.4449 38.0549 47.305L38.3161 47.3843C38.2445 47.5056 38.1512 47.6128 38.0362 47.7061C37.9211 47.7963 37.7936 47.8678 37.6537 47.9207C37.5138 47.9736 37.3661 48 37.2106 48Z" fill="black"/>
<path d="M39.4549 48C39.2652 48 39.0911 47.9689 38.9325 47.9067C38.7739 47.8445 38.6449 47.7543 38.5453 47.6362L38.7319 47.4216C38.8377 47.5336 38.9527 47.616 39.0771 47.6688C39.2015 47.7217 39.3367 47.7481 39.4829 47.7481C39.6228 47.7481 39.7457 47.7279 39.8514 47.6875C39.9571 47.6439 40.0395 47.5849 40.0986 47.5102C40.1608 47.4325 40.1919 47.3423 40.1919 47.2397C40.1919 47.1215 40.1406 47.0391 40.038 46.9925C39.9385 46.9427 39.7923 46.8914 39.5995 46.8385C39.4534 46.795 39.3305 46.7546 39.231 46.7173C39.1315 46.6768 39.0569 46.6271 39.0071 46.568C38.9605 46.5058 38.9372 46.4203 38.9372 46.3115C38.9372 46.1404 38.9823 45.9943 39.0724 45.873C39.1657 45.7486 39.2901 45.6522 39.4456 45.5838C39.6011 45.5154 39.7752 45.4812 39.968 45.4812C40.1515 45.4812 40.3085 45.5123 40.4391 45.5745C40.5697 45.6367 40.6708 45.716 40.7423 45.8124L40.5464 45.9989C40.4811 45.9057 40.3971 45.8372 40.2945 45.7937C40.1919 45.7502 40.0737 45.7284 39.94 45.7284C39.8187 45.7284 39.7052 45.7471 39.5995 45.7844C39.4938 45.8217 39.4083 45.8777 39.343 45.9523C39.2808 46.0269 39.2497 46.1218 39.2497 46.2368C39.2497 46.3395 39.287 46.4125 39.3616 46.4561C39.4394 46.4965 39.5653 46.54 39.7394 46.5867C39.9043 46.6333 40.0442 46.6815 40.1592 46.7313C40.2774 46.7779 40.366 46.837 40.4251 46.9085C40.4842 46.98 40.5137 47.0749 40.5137 47.193C40.5137 47.3516 40.4687 47.4916 40.3785 47.6128C40.2914 47.7341 40.1686 47.829 40.01 47.8974C39.8514 47.9658 39.6664 48 39.4549 48Z" fill="black"/>
<path d="M41.6368 48C41.4471 48 41.273 47.9689 41.1144 47.9067C40.9558 47.8445 40.8268 47.7543 40.7272 47.6362L40.9138 47.4216C41.0196 47.5336 41.1346 47.616 41.259 47.6688C41.3834 47.7217 41.5187 47.7481 41.6648 47.7481C41.8047 47.7481 41.9276 47.7279 42.0333 47.6875C42.139 47.6439 42.2214 47.5849 42.2805 47.5102C42.3427 47.4325 42.3738 47.3423 42.3738 47.2397C42.3738 47.1215 42.3225 47.0391 42.2199 46.9925C42.1204 46.9427 41.9742 46.8914 41.7814 46.8385C41.6353 46.795 41.5124 46.7546 41.4129 46.7173C41.3134 46.6768 41.2388 46.6271 41.189 46.568C41.1424 46.5058 41.1191 46.4203 41.1191 46.3115C41.1191 46.1404 41.1642 45.9943 41.2543 45.873C41.3476 45.7486 41.472 45.6522 41.6275 45.5838C41.783 45.5154 41.9571 45.4812 42.1499 45.4812C42.3334 45.4812 42.4904 45.5123 42.621 45.5745C42.7516 45.6367 42.8527 45.716 42.9242 45.8124L42.7283 45.9989C42.663 45.9057 42.579 45.8372 42.4764 45.7937C42.3738 45.7502 42.2556 45.7284 42.1219 45.7284C42.0006 45.7284 41.8871 45.7471 41.7814 45.7844C41.6757 45.8217 41.5902 45.8777 41.5249 45.9523C41.4627 46.0269 41.4316 46.1218 41.4316 46.2368C41.4316 46.3395 41.4689 46.4125 41.5435 46.4561C41.6213 46.4965 41.7472 46.54 41.9214 46.5867C42.0862 46.6333 42.2261 46.6815 42.3412 46.7313C42.4593 46.7779 42.5479 46.837 42.607 46.9085C42.6661 46.98 42.6957 47.0749 42.6957 47.193C42.6957 47.3516 42.6506 47.4916 42.5604 47.6128C42.4733 47.7341 42.3505 47.829 42.1919 47.8974C42.0333 47.9658 41.8483 48 41.6368 48Z" fill="black"/>
</svg>
