<svg width="49" height="49" viewBox="0 0 49 49" fill="none" xmlns="http://www.w3.org/2000/svg">
<path d="M37.8018 17.0078C37.8686 17.0746 37.9403 17.1366 37.9976 17.2129C38.2602 17.5705 38.5515 17.9521 38.3318 18.4099C38.1169 18.8582 37.6442 18.8248 37.2288 18.8439C36.5603 18.8773 36.4695 19.0395 36.799 19.6404C36.8802 19.7882 36.99 19.9265 37.0712 20.0791C37.2861 20.4654 37.2097 20.7659 36.799 20.9757C36.2499 21.2524 36.2355 21.3621 36.6558 21.7674C37.1285 22.2253 37.138 22.4876 36.5889 22.8453C35.8392 23.327 35.7103 23.9708 35.8965 24.7768C36.1209 25.7306 35.7771 26.2838 34.8269 26.5128C33.6474 26.7942 32.4727 26.5605 31.298 26.4412C29.5312 26.2648 27.7692 26.0597 25.9929 26.3649C24.4218 26.6368 23.1039 27.3045 22.2157 28.6827C22.1345 28.8067 22.1298 28.802 22.0247 28.6589C22.2157 27.7623 22.4975 26.9134 23.0609 26.1646C24.1974 24.6528 25.7159 23.6799 27.4541 23.036C28.8579 22.5162 30.3239 22.1347 31.4843 21.1188C31.7183 21.2285 31.7708 21.4527 31.852 21.6673C31.957 21.9534 32.0764 22.23 32.1958 22.5114C32.2435 22.6163 32.3295 22.7213 32.4584 22.6783C32.6064 22.6307 32.6303 22.5067 32.6208 22.354C32.5682 21.6148 32.5873 21.5957 33.38 21.5671C33.5185 21.5624 33.6761 21.5147 33.719 21.3907C33.7763 21.219 33.5758 21.1951 33.4707 21.1331C33.0505 20.8804 32.5587 20.7516 32.1814 20.4225C32.5205 19.9218 32.8643 19.4258 33.2033 18.925C33.4039 19.1873 33.275 19.4162 33.1556 19.6642C32.9073 20.165 33.0935 20.7087 33.5949 20.9519C33.8909 21.095 34.1631 20.9948 34.3876 20.7993C34.5929 20.6181 34.9749 20.3987 34.7887 20.1268C34.4067 19.5641 33.9864 18.9965 33.3179 18.7152C34.2777 16.5929 34.6741 14.399 34.3828 12.0621C33.7286 6.78742 29.6745 3.0913 24.4218 2.81469C22.6932 2.60008 20.9742 2.62869 19.3459 3.28684C15.1772 4.97513 12.4076 7.89387 11.7582 12.458C11.3571 15.2623 12.4315 17.6516 14.3033 19.7119C14.4036 19.8264 14.5134 19.9313 14.6137 20.0458C14.6328 20.0696 14.6328 20.1173 14.6471 20.1936C14.2508 20.1507 13.9977 19.8788 13.7351 19.6642C12.0017 18.2478 11.1469 16.3353 10.784 14.1987C9.29419 5.47113 15.7788 0.549329 21.8385 0.0533339C24.7227 -0.180356 27.4111 0.411023 29.8942 1.90378C29.8703 2.14224 29.9753 2.32823 30.0852 2.53808C30.2905 2.93392 30.725 3.06746 30.9829 3.39653C31.4031 3.94022 31.4747 3.94022 32 3.48238C33.6092 4.92744 34.5308 6.78265 35.1516 8.80956C35.4572 9.81108 35.6769 10.8365 35.8344 11.8666C36.0398 13.2497 36.3836 14.5803 37.0139 15.8346C36.8229 16.1064 36.8897 16.4021 36.9852 16.7836C36.4934 16.5929 36.1018 16.6263 35.7533 16.9219C35.6195 17.0364 35.5097 16.9362 35.4094 16.8456C35.2996 16.7455 35.1802 16.6072 35.0274 16.7741C34.8746 16.941 34.9701 17.0889 35.0991 17.2176C35.5002 17.623 35.9061 18.0189 36.3024 18.429C36.4695 18.6007 36.6176 18.615 36.7751 18.429C36.9709 18.2001 37.2526 17.9712 37.2097 17.6612C37.1333 17.1509 37.3911 17.0316 37.8018 17.003V17.0078ZM35.9681 18.8392C35.9681 18.3002 35.5813 17.9139 35.0465 17.9235C34.6311 17.9282 34.2777 18.3288 34.2586 18.8058C34.2443 19.235 34.7839 19.7596 35.228 19.7501C35.6243 19.7405 35.9681 19.3208 35.9681 18.8392Z" fill="#7E8CC4"/>
<path d="M39.4017 26.9613C38.7237 28.4779 37.6922 29.7465 36.5128 30.8911C34.9036 32.4554 33.0317 33.5475 30.7778 33.8861C28.3043 34.2581 26.0122 33.6525 23.8157 32.5603C23.448 32.3791 23.6677 32.2122 23.8205 32.0452C24.7039 31.0962 25.8403 30.6383 27.0819 30.3951C28.2852 30.1614 29.4981 30.1042 30.7205 30.2377C29.2307 29.6559 27.6979 29.5319 26.1316 29.8133C24.5415 30.0994 23.2331 30.9102 22.0298 32.1645C21.9772 30.7862 22.2447 29.6463 23.0755 28.6734C24.0735 27.505 25.4201 27.0948 26.8861 26.9708C28.6338 26.8182 30.3433 27.1997 32.0671 27.3714C34.1395 27.5717 36.2119 27.7434 38.2796 27.3142C38.6664 27.2331 39.0388 27.0853 39.4161 26.9661L39.4065 26.9565L39.4017 26.9613Z" fill="#8FA788"/>
<path d="M26.8098 21.0108C27.4067 19.7852 27.6598 18.4879 27.4974 17.1335C27.273 15.2687 26.5233 13.652 25.0382 12.4502C24.4175 11.9446 23.6725 11.7062 22.8035 11.7729C23.1139 11.2579 23.5914 11.0862 24.0784 10.9431C24.9809 10.6808 25.9216 10.6665 26.8528 10.6093C27.464 10.5711 28.0704 10.5282 28.6626 10.3851C30.0378 10.056 30.5296 9.27388 30.2097 7.89559C30.1047 7.44251 29.9375 6.99898 29.842 6.54114C30.7207 7.62851 31.2364 8.88281 31.5468 10.2229C32.2105 13.0845 31.8858 15.7886 30.1476 18.2304C29.2833 19.4418 28.1994 20.4147 26.8146 21.0108H26.8098Z" fill="#64ACBE"/>
<path d="M22.6692 3.3435C22.1009 3.54381 21.5184 3.7155 20.9597 3.93965C18.5864 4.90303 16.6716 6.3624 15.8837 8.92345C15.5017 10.173 15.5017 11.3939 16.3946 12.4908C16.8769 13.0822 17.0297 13.8214 17.173 14.5559C17.3115 15.2665 17.4595 15.9771 17.937 16.5589C18.1423 16.8069 18.0994 16.9357 17.789 17.0406C17.278 17.2123 16.9342 17.0406 16.6955 16.5923C16.4615 16.1535 16.2323 15.7052 15.8742 15.3619C15.6163 15.1139 15.3202 14.8229 14.9191 14.9994C14.5514 15.1615 14.6278 15.5479 14.6374 15.8626C14.6708 17.1694 15.3775 18.1471 16.2036 19.0723C16.6716 19.5969 17.1682 20.1024 17.3306 20.8273C17.3831 21.0515 17.3974 21.2709 17.2112 21.3996C16.9963 21.5475 16.8769 21.2995 16.7432 21.1898C15.1436 19.883 13.859 18.3331 12.99 16.4349C12.0875 14.4652 12.0827 12.4765 12.861 10.5021C14.2793 6.89655 16.8387 4.53103 20.635 3.56765C20.9454 3.48658 21.2701 3.43889 21.59 3.39596C21.9434 3.3435 22.3015 3.31489 22.6596 3.27673C22.6644 3.29581 22.6692 3.31966 22.674 3.33873L22.6692 3.3435Z" fill="#64ACBE"/>
<path d="M33.2018 18.9298C32.8628 19.4305 32.519 19.9265 32.1799 20.4273C31.9078 20.6181 31.6833 20.8517 31.4875 21.1188C30.3224 22.1394 28.8612 22.5162 27.4573 23.036C25.7192 23.6799 24.2007 24.6528 23.0642 26.1646C22.5007 26.9134 22.219 27.7623 22.028 28.6589C21.8895 26.7369 22.5628 25.1535 24.0335 23.9088C25.2226 22.9025 26.5309 22.0822 27.9205 21.405C31.0244 19.8931 32.39 17.2844 32.7386 14.0127C32.8771 12.6964 32.7816 11.3849 32.4855 10.0925C31.5544 5.99097 28.7132 3.92114 24.8549 2.93392C24.7068 2.89576 24.5588 2.85761 24.4156 2.81946C29.673 3.09607 33.7223 6.79219 34.3765 12.0669C34.6678 14.399 34.2714 16.5976 33.3116 18.7199C33.2734 18.7915 33.2352 18.863 33.197 18.9345L33.2018 18.9298Z" fill="#2E2D62"/>
<path d="M27.2559 6.59608C28.0485 6.58654 28.7171 7.23038 28.7409 8.02683C28.7648 8.81375 28.0533 9.53866 27.2606 9.52913C26.53 9.52436 25.8424 8.83283 25.8281 8.08883C25.8138 7.32099 26.5014 6.60085 27.2559 6.59131V6.59608Z" fill="#64ACBE"/>
<path d="M37.8043 17.007C37.3984 17.0356 37.1358 17.1548 37.2122 17.6651C37.2552 17.9703 36.9734 18.1992 36.7776 18.4329C36.6201 18.6189 36.472 18.6046 36.3049 18.4329C35.9086 18.0228 35.5027 17.6269 35.1016 17.2216C34.9726 17.0928 34.8771 16.945 35.0299 16.778C35.1827 16.6111 35.2973 16.7494 35.412 16.8496C35.5122 16.9402 35.6221 17.0403 35.7558 16.9259C36.1043 16.6302 36.5007 16.5968 36.9878 16.7876C36.8875 16.4108 36.8254 16.1103 37.0164 15.8385C37.279 16.2296 37.5417 16.6159 37.8043 17.007Z" fill="#7E8CC4"/>
<path d="M32.0016 3.48168C31.4811 3.93952 31.4095 3.93952 30.9845 3.39583C30.7266 3.06676 30.2969 2.93322 30.0868 2.53738C29.9769 2.32753 29.8719 2.14154 29.8958 1.90308C30.6837 2.31323 31.3904 2.8283 31.9968 3.48168H32.0016Z" fill="#7E8CC4"/>
<path d="M26.7945 21.0161C26.7945 21.0161 26.7611 21.0495 26.7468 21.0638C26.7468 21.0543 26.7468 21.0352 26.7564 21.0304C26.7659 21.0209 26.785 21.0209 26.7993 21.0161H26.7945Z" fill="#64ACBE"/>
<path d="M39.3986 26.9678C39.3986 26.9678 39.4224 26.9296 39.432 26.9105C39.432 26.9201 39.432 26.9344 39.432 26.9391C39.4224 26.9487 39.4033 26.9534 39.3938 26.9582L39.4033 26.9678H39.3986Z" fill="#8FA788"/>
<path d="M33.2069 18.9326C33.2451 18.8611 33.2833 18.7896 33.3215 18.718C33.9901 19.0042 34.4103 19.5669 34.7923 20.1297C34.9785 20.4015 34.5965 20.6257 34.3912 20.8022C34.1667 20.9977 33.8946 21.0978 33.5985 20.9548C33.0971 20.7115 32.9109 20.1679 33.1592 19.6671C33.2786 19.4239 33.4123 19.1902 33.2069 18.9279V18.9326Z" fill="#7E8CC4"/>
<path d="M35.9693 18.8383C35.9693 19.32 35.6255 19.7397 35.2291 19.7493C34.7803 19.7588 34.2407 19.2342 34.2598 18.805C34.2789 18.328 34.6322 17.9274 35.0477 17.9227C35.5825 17.9131 35.9693 18.2994 35.9693 18.8383Z" fill="#7E8CC4"/>
<path d="M31.4857 21.1176C31.6815 20.8505 31.9107 20.6168 32.1781 20.426C32.5554 20.7599 33.0472 20.8839 33.4674 21.1366C33.5725 21.1986 33.7682 21.2225 33.7157 21.3942C33.6775 21.5182 33.5152 21.5611 33.3767 21.5706C32.584 21.5992 32.5649 21.6183 32.6174 22.3575C32.627 22.5102 32.6031 22.6342 32.4551 22.6818C32.3262 22.7248 32.2402 22.6199 32.1925 22.5149C32.0731 22.2383 31.9537 21.9569 31.8486 21.6708C31.7675 21.4562 31.7149 21.232 31.481 21.1223L31.4857 21.1176Z" fill="#7E8CC4"/>
<path d="M4.41367 47.996V43.9051L5.04942 45.5497L0.723589 38.3216H3.61208L6.73552 43.5596H5.06324L8.2005 38.3216H10.854L6.54203 45.5497L7.15014 43.9051V47.996H4.41367Z" fill="#7E8CC4"/>
<path d="M13.0298 47.996V38.3216H15.2826L19.2905 44.9002H18.1019L21.9993 38.3216H24.2521L24.2797 47.996H21.7644L21.7367 42.1499H22.1652L19.249 47.0424H18.0328L15.0338 42.1499H15.559V47.996H13.0298Z" fill="#64ACBE"/>
<path d="M34.2043 38.3216H36.9407V47.996H34.2043V38.3216ZM30.4727 47.996H27.7363V38.3216H30.4727V47.996ZM34.3978 44.223H30.2792V41.9564H34.3978V44.223Z" fill="#8FA788"/>
<path d="M43.7911 48.1895C42.9987 48.1895 42.234 48.0927 41.4969 47.8992C40.769 47.6965 40.1747 47.4385 39.714 47.1253L40.6124 45.1075C41.0454 45.3839 41.5429 45.6142 42.105 45.7985C42.6762 45.9736 43.2429 46.0611 43.8049 46.0611C44.1827 46.0611 44.4867 46.0288 44.7171 45.9644C44.9474 45.8906 45.1132 45.7985 45.2146 45.6879C45.3252 45.5682 45.3804 45.43 45.3804 45.2733C45.3804 45.0522 45.2791 44.8771 45.0764 44.7481C44.8737 44.6192 44.6111 44.5132 44.2886 44.4303C43.9661 44.3474 43.6068 44.2644 43.2106 44.1815C42.8236 44.0986 42.4321 43.9926 42.0359 43.8636C41.6489 43.7346 41.2942 43.5688 40.9717 43.3661C40.6492 43.1542 40.3866 42.8824 40.1839 42.5507C39.9812 42.2098 39.8799 41.7813 39.8799 41.2654C39.8799 40.6849 40.0365 40.1597 40.3498 39.6898C40.6722 39.2199 41.1514 38.8422 41.7871 38.5565C42.4228 38.2709 43.2152 38.1281 44.1642 38.1281C44.8 38.1281 45.4219 38.2018 46.03 38.3492C46.6473 38.4874 47.1955 38.6948 47.6746 38.9712L46.8316 41.0028C46.3709 40.754 45.9148 40.5697 45.4634 40.45C45.0119 40.321 44.5742 40.2565 44.1504 40.2565C43.7726 40.2565 43.4686 40.2979 43.2383 40.3809C43.0079 40.4546 42.8421 40.5559 42.7407 40.6849C42.6394 40.8139 42.5887 40.9613 42.5887 41.1272C42.5887 41.3391 42.6854 41.5095 42.8789 41.6385C43.0816 41.7583 43.3442 41.8597 43.6667 41.9426C43.9984 42.0163 44.3577 42.0946 44.7447 42.1775C45.1409 42.2604 45.5325 42.3664 45.9194 42.4954C46.3156 42.6152 46.675 42.781 46.9974 42.9929C47.3199 43.1956 47.5779 43.4674 47.7714 43.8083C47.9741 44.14 48.0754 44.5593 48.0754 45.066C48.0754 45.6281 47.9142 46.1486 47.5917 46.6277C47.2785 47.0976 46.804 47.4754 46.1682 47.761C45.5417 48.0466 44.7493 48.1895 43.7911 48.1895Z" fill="#2E2D62"/>
</svg>
